<?xml version="1.0" encoding="UTF-8" standalone="no"?>
<!DOCTYPE svg PUBLIC "-//W3C//DTD SVG 1.1//EN"
 "http://www.w3.org/Graphics/SVG/1.1/DTD/svg11.dtd">
<!-- Generated by graphviz version 2.43.0 (0)
 -->
<!-- Title: Entity Relationship Diagram created by erdantic Pages: 1 -->
<svg width="1006pt" height="217pt"
 viewBox="0.00 0.00 1006.00 216.50" xmlns="http://www.w3.org/2000/svg" xmlns:xlink="http://www.w3.org/1999/xlink">
<g id="graph0" class="graph" transform="scale(1 1) rotate(0) translate(4 212.5)">
<title>Entity Relationship Diagram created by erdantic</title>
<polygon fill="white" stroke="transparent" points="-4,4 -4,-212.5 1002,-212.5 1002,4 -4,4"/>
<text text-anchor="middle" x="499" y="-6.8" font-family="Times New Roman,Times,Liberation Serif,serif" font-size="9.00" fill="#a8a8a8">Created by erdantic v1.2.1 &lt;https://github.com/drivendataorg/erdantic&gt;</text>
<!-- aind_behavior_dynamic_foraging.task_logic.AindDynamicForagingTaskLogic -->
<g id="node1" class="node">
<title>aind_behavior_dynamic_foraging.task_logic.AindDynamicForagingTaskLogic</title>
<g id="a_node1"><a xlink:title="aind_behavior_dynamic_foraging.task_logic.AindDynamicForagingTaskLogic&#10;&#10;Main task logic model for the AIND Dynamic Foraging task.&#10;&#10;This is the top&#45;level class that encapsulates the complete task logic&#10;specification for the dynamic foraging behavioral experiment.&#10;It includes all task parameters, environment specifications, and control settings.&#10;">
<polygon fill="none" stroke="black" points="0,-187.5 0,-208.5 314,-208.5 314,-187.5 0,-187.5"/>
<text text-anchor="start" x="60" y="-195.3" font-family="Times New Roman,Times,Liberation Serif,serif" font-weight="bold" font-size="14.00">AindDynamicForagingTaskLogic</text>
<polygon fill="none" stroke="black" points="0,-166.5 0,-187.5 95,-187.5 95,-166.5 0,-166.5"/>
<text text-anchor="start" x="32" y="-173.3" font-family="Times New Roman,Times,Liberation Serif,serif" font-size="14.00">name</text>
<polygon fill="none" stroke="black" points="95,-166.5 95,-187.5 314,-187.5 314,-166.5 95,-166.5"/>
<text text-anchor="start" x="116.5" y="-173.3" font-family="Times New Roman,Times,Liberation Serif,serif" font-size="14.00">Literal[&#39;AindDynamicForaging&#39;]</text>
<polygon fill="none" stroke="black" points="0,-145.5 0,-166.5 95,-166.5 95,-145.5 0,-145.5"/>
<text text-anchor="start" x="17" y="-152.3" font-family="Times New Roman,Times,Liberation Serif,serif" font-size="14.00">description</text>
<polygon fill="none" stroke="black" points="95,-145.5 95,-166.5 314,-166.5 314,-145.5 95,-145.5"/>
<text text-anchor="start" x="197.5" y="-152.3" font-family="Times New Roman,Times,Liberation Serif,serif" font-size="14.00">str</text>
<polygon fill="none" stroke="black" points="0,-124.5 0,-145.5 95,-145.5 95,-124.5 0,-124.5"/>
<text text-anchor="start" x="3" y="-131.3" font-family="Times New Roman,Times,Liberation Serif,serif" font-size="14.00">task_parameters</text>
<polygon fill="none" stroke="black" points="95,-124.5 95,-145.5 314,-145.5 314,-124.5 95,-124.5"/>
<text text-anchor="start" x="98" y="-131.3" font-family="Times New Roman,Times,Liberation Serif,serif" font-size="14.00">AindDynamicForagingTaskParameters</text>
<polygon fill="none" stroke="black" points="0,-103.5 0,-124.5 95,-124.5 95,-103.5 0,-103.5"/>
<text text-anchor="start" x="27.5" y="-110.3" font-family="Times New Roman,Times,Liberation Serif,serif" font-size="14.00">version</text>
<polygon fill="none" stroke="black" points="95,-103.5 95,-124.5 314,-124.5 314,-103.5 95,-103.5"/>
<text text-anchor="start" x="151.5" y="-110.3" font-family="Times New Roman,Times,Liberation Serif,serif" font-size="14.00">Literal[&#39;0.0.2&#45;rc23&#39;]</text>
<polygon fill="none" stroke="black" points="0,-82.5 0,-103.5 95,-103.5 95,-82.5 0,-82.5"/>
<text text-anchor="start" x="15" y="-89.3" font-family="Times New Roman,Times,Liberation Serif,serif" font-size="14.00">stage_name</text>
<polygon fill="none" stroke="black" points="95,-82.5 95,-103.5 314,-103.5 314,-82.5 95,-82.5"/>
<text text-anchor="start" x="169.5" y="-89.3" font-family="Times New Roman,Times,Liberation Serif,serif" font-size="14.00">Optional[str]</text>
</a>
</g>
</g>
<!-- aind_behavior_dynamic_foraging.task_logic.AindDynamicForagingTaskParameters -->
<g id="node2" class="node">
<title>aind_behavior_dynamic_foraging.task_logic.AindDynamicForagingTaskParameters</title>
<g id="a_node2"><a xlink:title="aind_behavior_dynamic_foraging.task_logic.AindDynamicForagingTaskParameters&#10;&#10;Complete parameter specification for the AIND Dynamic Foraging task.&#10;&#10;This class contains all configurable parameters for the Dynamic Foraging task,&#10;including environment structure, task mode settings, operation control,&#10;and numerical updaters for dynamic parameter modification.&#10;">
<polygon fill="none" stroke="black" points="422.5,-123.5 422.5,-144.5 743.5,-144.5 743.5,-123.5 422.5,-123.5"/>
<text text-anchor="start" x="468.5" y="-131.3" font-family="Times New Roman,Times,Liberation Serif,serif" font-weight="bold" font-size="14.00">AindDynamicForagingTaskParameters</text>
<polygon fill="none" stroke="black" points="422.5,-102.5 422.5,-123.5 630.5,-123.5 630.5,-102.5 422.5,-102.5"/>
<text text-anchor="start" x="502" y="-109.3" font-family="Times New Roman,Times,Liberation Serif,serif" font-size="14.00">rng_seed</text>
<polygon fill="none" stroke="black" points="630.5,-102.5 630.5,-123.5 743.5,-123.5 743.5,-102.5 630.5,-102.5"/>
<text text-anchor="start" x="646" y="-109.3" font-family="Times New Roman,Times,Liberation Serif,serif" font-size="14.00">Optional[float]</text>
<polygon fill="none" stroke="black" points="422.5,-81.5 422.5,-102.5 630.5,-102.5 630.5,-81.5 422.5,-81.5"/>
<text text-anchor="start" x="425.5" y="-88.3" font-family="Times New Roman,Times,Liberation Serif,serif" font-size="14.00">aind_behavior_services_pkg_version</text>
<polygon fill="none" stroke="black" points="630.5,-81.5 630.5,-102.5 743.5,-102.5 743.5,-81.5 630.5,-81.5"/>
<text text-anchor="start" x="644.5" y="-88.3" font-family="Times New Roman,Times,Liberation Serif,serif" font-size="14.00">Literal[&#39;0.13.5&#39;]</text>
<polygon fill="none" stroke="black" points="422.5,-60.5 422.5,-81.5 630.5,-81.5 630.5,-60.5 422.5,-60.5"/>
<text text-anchor="start" x="493.5" y="-67.3" font-family="Times New Roman,Times,Liberation Serif,serif" font-size="14.00">reward_size</text>
<polygon fill="none" stroke="black" points="630.5,-60.5 630.5,-81.5 743.5,-81.5 743.5,-60.5 630.5,-60.5"/>
<text text-anchor="start" x="654" y="-67.3" font-family="Times New Roman,Times,Liberation Serif,serif" font-size="14.00">RewardSize</text>
<polygon fill="none" stroke="black" points="422.5,-39.5 422.5,-60.5 630.5,-60.5 630.5,-39.5 422.5,-39.5"/>
<text text-anchor="start" x="486.5" y="-46.3" font-family="Times New Roman,Times,Liberation Serif,serif" font-size="14.00">trial_generator</text>
<polygon fill="none" stroke="black" points="630.5,-39.5 630.5,-60.5 743.5,-60.5 743.5,-39.5 630.5,-39.5"/>
<text text-anchor="start" x="633.5" y="-46.3" font-family="Times New Roman,Times,Liberation Serif,serif" font-size="14.00">TrialGeneratorSpec</text>
</a>
</g>
</g>
<!-- aind_behavior_dynamic_foraging.task_logic.AindDynamicForagingTaskLogic&#45;&gt;aind_behavior_dynamic_foraging.task_logic.AindDynamicForagingTaskParameters -->
<g id="edge1" class="edge">
<title>aind_behavior_dynamic_foraging.task_logic.AindDynamicForagingTaskLogic:e&#45;&gt;aind_behavior_dynamic_foraging.task_logic.AindDynamicForagingTaskParameters:w</title>
<path fill="none" stroke="black" d="M324.12,-134.5C359,-134.5 373.76,-134.5 406.67,-134.5"/>
<polyline fill="none" stroke="black" points="314,-134.5 319,-134.5 "/>
<polyline fill="none" stroke="black" points="319,-134.5 324,-134.5 "/>
<polyline fill="none" stroke="black" points="422,-134.5 417,-134.5 "/>
<polygon fill="black" stroke="black" points="416,-129.5 416,-139.5 414,-139.5 414,-129.5 416,-129.5"/>
<polyline fill="none" stroke="black" points="417,-134.5 412,-134.5 "/>
<polygon fill="black" stroke="black" points="411,-129.5 411,-139.5 409,-139.5 409,-129.5 411,-129.5"/>
<polyline fill="none" stroke="black" points="412,-134.5 407,-134.5 "/>
</g>
<!-- aind_behavior_dynamic_foraging.task_logic.RewardSize -->
<g id="node3" class="node">
<title>aind_behavior_dynamic_foraging.task_logic.RewardSize</title>
<g id="a_node3"><a xlink:title="aind_behavior_dynamic_foraging.task_logic.RewardSize&#10;&#10;!!! abstract &quot;Usage Documentation&quot;&#10; &#160;&#160;&#160;[Models](../concepts/models.md)&#10;&#10;A base class for creating Pydantic models.&#10;&#10;Attributes:&#10; &#160;&#160;&#160;__class_vars__: The names of the class variables defined on the model.&#10; &#160;&#160;&#160;__private_attributes__: Metadata about the private attributes of the model.&#10; &#160;&#160;&#160;__signature__: The synthesized `__init__` [`Signature`][inspect.Signature] of the model.&#10;&#10; &#160;&#160;&#160;__pydantic_complete__: Whether model building is completed, or if there are still undefined fields.&#10; &#160;&#160;&#160;__pydantic_core_schema__: The core schema of the model.&#10; &#160;&#160;&#160;__pydantic_custom_init__: Whether the model has a custom `__init__` function.&#10; &#160;&#160;&#160;__pydantic_decorators__: Metadata containing the decorators defined on the model.&#10; &#160;&#160;&#160;&#160;&#160;&#160;&#160;This replaces `Model.__validators__` and `Model.__root_validators__` from Pydantic V1.&#10; &#160;&#160;&#160;__pydantic_generic_metadata__: Metadata for generic models; contains data used for a similar purpose to&#10; &#160;&#160;&#160;&#160;&#160;&#160;&#160;__args__, __origin__, __parameters__ in typing&#45;module generics. May eventually be replaced by these.&#10; &#160;&#160;&#160;__pydantic_parent_namespace__: Parent namespace of the model, used for automatic rebuilding of models.&#10; &#160;&#160;&#160;__pydantic_post_init__: The name of the post&#45;init method for the model, if defined.&#10; &#160;&#160;&#160;__pydantic_root_model__: Whether the model is a [`RootModel`][pydantic.root_model.RootModel].&#10; &#160;&#160;&#160;__pydantic_serializer__: The `pydantic&#45;core` `SchemaSerializer` used to dump instances of the model.&#10; &#160;&#160;&#160;__pydantic_validator__: The `pydantic&#45;core` `SchemaValidator` used to validate instances of the model.&#10;&#10; &#160;&#160;&#160;__pydantic_fields__: A dictionary of field names and their corresponding [`FieldInfo`][pydantic.fields.FieldInfo] objects.&#10; &#160;&#160;&#160;__pydantic_computed_fields__: A dictionary of computed field names and their corresponding [`ComputedFieldInfo`][pydantic.fields.ComputedFieldInfo] objects.&#10;&#10; &#160;&#160;&#160;__pydantic_extra__: A dictionary containing extra values, if [`extra`][pydantic.config.ConfigDict.extra]&#10; &#160;&#160;&#160;&#160;&#160;&#160;&#160;is set to `&#39;allow&#39;`.&#10; &#160;&#160;&#160;__pydantic_fields_set__: The names of fields explicitly set during instantiation.&#10; &#160;&#160;&#160;__pydantic_private__: Values of private attributes set on the model instance.&#10;">
<polygon fill="none" stroke="black" points="851.5,-59.5 851.5,-80.5 998.5,-80.5 998.5,-59.5 851.5,-59.5"/>
<text text-anchor="start" x="890" y="-67.3" font-family="Times New Roman,Times,Liberation Serif,serif" font-weight="bold" font-size="14.00">RewardSize</text>
<polygon fill="none" stroke="black" points="851.5,-38.5 851.5,-59.5 967.5,-59.5 967.5,-38.5 851.5,-38.5"/>
<text text-anchor="start" x="854.5" y="-45.3" font-family="Times New Roman,Times,Liberation Serif,serif" font-size="14.00">right_value_volume</text>
<polygon fill="none" stroke="black" points="967.5,-38.5 967.5,-59.5 998.5,-59.5 998.5,-38.5 967.5,-38.5"/>
<text text-anchor="start" x="970.5" y="-45.3" font-family="Times New Roman,Times,Liberation Serif,serif" font-size="14.00">float</text>
<polygon fill="none" stroke="black" points="851.5,-17.5 851.5,-38.5 967.5,-38.5 967.5,-17.5 851.5,-17.5"/>
<text text-anchor="start" x="858" y="-24.3" font-family="Times New Roman,Times,Liberation Serif,serif" font-size="14.00">left_value_volume</text>
<polygon fill="none" stroke="black" points="967.5,-17.5 967.5,-38.5 998.5,-38.5 998.5,-17.5 967.5,-17.5"/>
<text text-anchor="start" x="970.5" y="-24.3" font-family="Times New Roman,Times,Liberation Serif,serif" font-size="14.00">float</text>
</a>
</g>
</g>
<!-- aind_behavior_dynamic_foraging.task_logic.AindDynamicForagingTaskParameters&#45;&gt;aind_behavior_dynamic_foraging.task_logic.RewardSize -->
<g id="edge2" class="edge">
<title>aind_behavior_dynamic_foraging.task_logic.AindDynamicForagingTaskParameters:e&#45;&gt;aind_behavior_dynamic_foraging.task_logic.RewardSize:w</title>
<path fill="none" stroke="black" d="M753.12,-70.5C788,-70.5 802.76,-70.5 835.67,-70.5"/>
<polyline fill="none" stroke="black" points="743,-70.5 748,-70.5 "/>
<polyline fill="none" stroke="black" points="748,-70.5 753,-70.5 "/>
<polyline fill="none" stroke="black" points="851,-70.5 846,-70.5 "/>
<polygon fill="black" stroke="black" points="845,-65.5 845,-75.5 843,-75.5 843,-65.5 845,-65.5"/>
<polyline fill="none" stroke="black" points="846,-70.5 841,-70.5 "/>
<polygon fill="black" stroke="black" points="840,-65.5 840,-75.5 838,-75.5 838,-65.5 840,-65.5"/>
<polyline fill="none" stroke="black" points="841,-70.5 836,-70.5 "/>
</g>
</g>
</svg>
