<?xml version="1.0" encoding="UTF-8" standalone="no"?>
<!DOCTYPE svg PUBLIC "-//W3C//DTD SVG 1.1//EN"
 "http://www.w3.org/Graphics/SVG/1.1/DTD/svg11.dtd">
<!-- Generated by graphviz version 2.43.0 (0)
 -->
<!-- Title: Entity Relationship Diagram created by erdantic Pages: 1 -->
<svg width="824pt" height="523pt"
 viewBox="0.00 0.00 824.00 522.50" xmlns="http://www.w3.org/2000/svg" xmlns:xlink="http://www.w3.org/1999/xlink">
<g id="graph0" class="graph" transform="scale(1 1) rotate(0) translate(4 518.5)">
<title>Entity Relationship Diagram created by erdantic</title>
<polygon fill="white" stroke="transparent" points="-4,4 -4,-518.5 820,-518.5 820,4 -4,4"/>
<text text-anchor="middle" x="408" y="-6.8" font-family="Times New Roman,Times,Liberation Serif,serif" font-size="9.00" fill="#a8a8a8">Created by erdantic v1.2.1 &lt;https://github.com/drivendataorg/erdantic&gt;</text>
<!-- aind_behavior_dynamic_foraging.task_logic.trial_generators.block_based_trial_generator.AutoWaterParameters -->
<g id="node1" class="node">
<title>aind_behavior_dynamic_foraging.task_logic.trial_generators.block_based_trial_generator.AutoWaterParameters</title>
<g id="a_node1"><a xlink:title="aind_behavior_dynamic_foraging.task_logic.trial_generators.block_based_trial_generator.AutoWaterParameters&#10;&#10;!!! abstract &quot;Usage Documentation&quot;&#10; &#160;&#160;&#160;[Models](../concepts/models.md)&#10;&#10;A base class for creating Pydantic models.&#10;&#10;Attributes:&#10; &#160;&#160;&#160;__class_vars__: The names of the class variables defined on the model.&#10; &#160;&#160;&#160;__private_attributes__: Metadata about the private attributes of the model.&#10; &#160;&#160;&#160;__signature__: The synthesized `__init__` [`Signature`][inspect.Signature] of the model.&#10;&#10; &#160;&#160;&#160;__pydantic_complete__: Whether model building is completed, or if there are still undefined fields.&#10; &#160;&#160;&#160;__pydantic_core_schema__: The core schema of the model.&#10; &#160;&#160;&#160;__pydantic_custom_init__: Whether the model has a custom `__init__` function.&#10; &#160;&#160;&#160;__pydantic_decorators__: Metadata containing the decorators defined on the model.&#10; &#160;&#160;&#160;&#160;&#160;&#160;&#160;This replaces `Model.__validators__` and `Model.__root_validators__` from Pydantic V1.&#10; &#160;&#160;&#160;__pydantic_generic_metadata__: Metadata for generic models; contains data used for a similar purpose to&#10; &#160;&#160;&#160;&#160;&#160;&#160;&#160;__args__, __origin__, __parameters__ in typing&#45;module generics. May eventually be replaced by these.&#10; &#160;&#160;&#160;__pydantic_parent_namespace__: Parent namespace of the model, used for automatic rebuilding of models.&#10; &#160;&#160;&#160;__pydantic_post_init__: The name of the post&#45;init method for the model, if defined.&#10; &#160;&#160;&#160;__pydantic_root_model__: Whether the model is a [`RootModel`][pydantic.root_model.RootModel].&#10; &#160;&#160;&#160;__pydantic_serializer__: The `pydantic&#45;core` `SchemaSerializer` used to dump instances of the model.&#10; &#160;&#160;&#160;__pydantic_validator__: The `pydantic&#45;core` `SchemaValidator` used to validate instances of the model.&#10;&#10; &#160;&#160;&#160;__pydantic_fields__: A dictionary of field names and their corresponding [`FieldInfo`][pydantic.fields.FieldInfo] objects.&#10; &#160;&#160;&#160;__pydantic_computed_fields__: A dictionary of computed field names and their corresponding [`ComputedFieldInfo`][pydantic.fields.ComputedFieldInfo] objects.&#10;&#10; &#160;&#160;&#160;__pydantic_extra__: A dictionary containing extra values, if [`extra`][pydantic.config.ConfigDict.extra]&#10; &#160;&#160;&#160;&#160;&#160;&#160;&#160;is set to `&#39;allow&#39;`.&#10; &#160;&#160;&#160;__pydantic_fields_set__: The names of fields explicitly set during instantiation.&#10; &#160;&#160;&#160;__pydantic_private__: Values of private attributes set on the model instance.&#10;">
<polygon fill="none" stroke="black" points="582.5,-463 582.5,-484 746.5,-484 746.5,-463 582.5,-463"/>
<text text-anchor="start" x="598" y="-470.8" font-family="Times New Roman,Times,Liberation Serif,serif" font-weight="bold" font-size="14.00">AutoWaterParameters</text>
<polygon fill="none" stroke="black" points="582.5,-442 582.5,-463 715.5,-463 715.5,-442 582.5,-442"/>
<text text-anchor="start" x="597" y="-448.8" font-family="Times New Roman,Times,Liberation Serif,serif" font-size="14.00">min_ignored_trials</text>
<polygon fill="none" stroke="black" points="715.5,-442 715.5,-463 746.5,-463 746.5,-442 715.5,-442"/>
<text text-anchor="start" x="723.5" y="-448.8" font-family="Times New Roman,Times,Liberation Serif,serif" font-size="14.00">int</text>
<polygon fill="none" stroke="black" points="582.5,-421 582.5,-442 715.5,-442 715.5,-421 582.5,-421"/>
<text text-anchor="start" x="585.5" y="-427.8" font-family="Times New Roman,Times,Liberation Serif,serif" font-size="14.00">min_unrewarded_trials</text>
<polygon fill="none" stroke="black" points="715.5,-421 715.5,-442 746.5,-442 746.5,-421 715.5,-421"/>
<text text-anchor="start" x="723.5" y="-427.8" font-family="Times New Roman,Times,Liberation Serif,serif" font-size="14.00">int</text>
<polygon fill="none" stroke="black" points="582.5,-400 582.5,-421 715.5,-421 715.5,-400 582.5,-400"/>
<text text-anchor="start" x="605.5" y="-406.8" font-family="Times New Roman,Times,Liberation Serif,serif" font-size="14.00">reward_fraction</text>
<polygon fill="none" stroke="black" points="715.5,-400 715.5,-421 746.5,-421 746.5,-400 715.5,-400"/>
<text text-anchor="start" x="718.5" y="-406.8" font-family="Times New Roman,Times,Liberation Serif,serif" font-size="14.00">float</text>
</a>
</g>
</g>
<!-- aind_behavior_dynamic_foraging.task_logic.trial_generators.coupled_trial_generators.base_coupled_trial_generator.RewardProbabilityParameters -->
<g id="node2" class="node">
<title>aind_behavior_dynamic_foraging.task_logic.trial_generators.coupled_trial_generators.base_coupled_trial_generator.RewardProbabilityParameters</title>
<g id="a_node2"><a xlink:title="aind_behavior_dynamic_foraging.task_logic.trial_generators.coupled_trial_generators.base_coupled_trial_generator.RewardProbabilityParameters&#10;&#10;Defines the reward probability structure for a dynamic foraging task.&#10;&#10;Reward probabilities are defined as pairs (p_left, p_right) normalized by&#10;base_reward_sum. Pairs are drawn from a family representing a difficulty level:&#10;&#10; &#160;&#160;&#160;Family 1: &#160;&#160;[[8, 1], [6, 1], [3, 1], [1, 1]]&#10; &#160;&#160;&#160;Family 2: &#160;[[8, 1], [1, 1]]&#10; &#160;&#160;&#160;Family 3: &#160;[[1.0, 0.0], [0.9, 0.1], [0.8, 0.2], [0.7, 0.3], [0.6, 0.4], [0.5, 0.5]]&#10; &#160;&#160;&#160;Family 4: &#160;[[6, 1], [3, 1], [1, 1]]&#10;">
<polygon fill="none" stroke="black" points="571.5,-342 571.5,-363 758.5,-363 758.5,-342 571.5,-342"/>
<text text-anchor="start" x="575.5" y="-349.8" font-family="Times New Roman,Times,Liberation Serif,serif" font-weight="bold" font-size="14.00">RewardProbabilityParameters</text>
<polygon fill="none" stroke="black" points="571.5,-321 571.5,-342 676.5,-342 676.5,-321 571.5,-321"/>
<text text-anchor="start" x="574.5" y="-327.8" font-family="Times New Roman,Times,Liberation Serif,serif" font-size="14.00">base_reward_sum</text>
<polygon fill="none" stroke="black" points="676.5,-321 676.5,-342 758.5,-342 758.5,-321 676.5,-321"/>
<text text-anchor="start" x="705" y="-327.8" font-family="Times New Roman,Times,Liberation Serif,serif" font-size="14.00">float</text>
<polygon fill="none" stroke="black" points="571.5,-300 571.5,-321 676.5,-321 676.5,-300 571.5,-300"/>
<text text-anchor="start" x="588.5" y="-306.8" font-family="Times New Roman,Times,Liberation Serif,serif" font-size="14.00">reward_pairs</text>
<polygon fill="none" stroke="black" points="676.5,-300 676.5,-321 758.5,-321 758.5,-300 676.5,-300"/>
<text text-anchor="start" x="679.5" y="-306.8" font-family="Times New Roman,Times,Liberation Serif,serif" font-size="14.00">list[list[float]]</text>
</a>
</g>
</g>
<!-- aind_behavior_dynamic_foraging.task_logic.trial_generators.coupled_trial_generators.coupled_trial_generator.BehaviorStabilityParameters -->
<g id="node3" class="node">
<title>aind_behavior_dynamic_foraging.task_logic.trial_generators.coupled_trial_generators.coupled_trial_generator.BehaviorStabilityParameters</title>
<g id="a_node3"><a xlink:title="aind_behavior_dynamic_foraging.task_logic.trial_generators.coupled_trial_generators.coupled_trial_generator.BehaviorStabilityParameters&#10;&#10;Parameters controlling when behavior is considered stable enough to switch blocks.&#10;">
<polygon fill="none" stroke="black" points="513.5,-81 513.5,-102 816.5,-102 816.5,-81 513.5,-81"/>
<text text-anchor="start" x="580.5" y="-88.8" font-family="Times New Roman,Times,Liberation Serif,serif" font-weight="bold" font-size="14.00">BehaviorStabilityParameters</text>
<polygon fill="none" stroke="black" points="513.5,-60 513.5,-81 684.5,-81 684.5,-60 513.5,-60"/>
<text text-anchor="start" x="525" y="-66.8" font-family="Times New Roman,Times,Liberation Serif,serif" font-size="14.00">behavior_evaluation_mode</text>
<polygon fill="none" stroke="black" points="684.5,-60 684.5,-81 816.5,-81 816.5,-60 684.5,-60"/>
<text text-anchor="start" x="687.5" y="-66.8" font-family="Times New Roman,Times,Liberation Serif,serif" font-size="14.00">Literal[&#39;end&#39;, &#39;anytime&#39;]</text>
<polygon fill="none" stroke="black" points="513.5,-39 513.5,-60 684.5,-60 684.5,-39 513.5,-39"/>
<text text-anchor="start" x="525.5" y="-45.8" font-family="Times New Roman,Times,Liberation Serif,serif" font-size="14.00">behavior_stability_fraction</text>
<polygon fill="none" stroke="black" points="684.5,-39 684.5,-60 816.5,-60 816.5,-39 684.5,-39"/>
<text text-anchor="start" x="738" y="-45.8" font-family="Times New Roman,Times,Liberation Serif,serif" font-size="14.00">float</text>
<polygon fill="none" stroke="black" points="513.5,-18 513.5,-39 684.5,-39 684.5,-18 513.5,-18"/>
<text text-anchor="start" x="516.5" y="-24.8" font-family="Times New Roman,Times,Liberation Serif,serif" font-size="14.00">min_consecutive_stable_trials</text>
<polygon fill="none" stroke="black" points="684.5,-18 684.5,-39 816.5,-39 816.5,-18 684.5,-18"/>
<text text-anchor="start" x="743" y="-24.8" font-family="Times New Roman,Times,Liberation Serif,serif" font-size="14.00">int</text>
</a>
</g>
</g>
<!-- aind_behavior_dynamic_foraging.task_logic.trial_generators.coupled_trial_generators.coupled_trial_generator.CoupledTrialGenerationEndConditions -->
<g id="node4" class="node">
<title>aind_behavior_dynamic_foraging.task_logic.trial_generators.coupled_trial_generators.coupled_trial_generator.CoupledTrialGenerationEndConditions</title>
<g id="a_node4"><a xlink:title="aind_behavior_dynamic_foraging.task_logic.trial_generators.coupled_trial_generators.coupled_trial_generator.CoupledTrialGenerationEndConditions&#10;&#10;Defines the conditions under which a foraging session should terminate.&#10;">
<polygon fill="none" stroke="black" points="546.5,-243 546.5,-264 783.5,-264 783.5,-243 546.5,-243"/>
<text text-anchor="start" x="549.5" y="-250.8" font-family="Times New Roman,Times,Liberation Serif,serif" font-weight="bold" font-size="14.00">CoupledTrialGenerationEndConditions</text>
<polygon fill="none" stroke="black" points="546.5,-222 546.5,-243 715.5,-243 715.5,-222 546.5,-222"/>
<text text-anchor="start" x="568" y="-228.8" font-family="Times New Roman,Times,Liberation Serif,serif" font-size="14.00">ignore_window_length</text>
<polygon fill="none" stroke="black" points="715.5,-222 715.5,-243 783.5,-243 783.5,-222 715.5,-222"/>
<text text-anchor="start" x="742" y="-228.8" font-family="Times New Roman,Times,Liberation Serif,serif" font-size="14.00">int</text>
<polygon fill="none" stroke="black" points="546.5,-201 546.5,-222 715.5,-222 715.5,-201 546.5,-201"/>
<text text-anchor="start" x="569" y="-207.8" font-family="Times New Roman,Times,Liberation Serif,serif" font-size="14.00">ignore_ratio_threshold</text>
<polygon fill="none" stroke="black" points="715.5,-201 715.5,-222 783.5,-222 783.5,-201 715.5,-201"/>
<text text-anchor="start" x="737" y="-207.8" font-family="Times New Roman,Times,Liberation Serif,serif" font-size="14.00">float</text>
<polygon fill="none" stroke="black" points="546.5,-180 546.5,-201 715.5,-201 715.5,-180 546.5,-180"/>
<text text-anchor="start" x="604.5" y="-186.8" font-family="Times New Roman,Times,Liberation Serif,serif" font-size="14.00">max_trial</text>
<polygon fill="none" stroke="black" points="715.5,-180 715.5,-201 783.5,-201 783.5,-180 715.5,-180"/>
<text text-anchor="start" x="742" y="-186.8" font-family="Times New Roman,Times,Liberation Serif,serif" font-size="14.00">int</text>
<polygon fill="none" stroke="black" points="546.5,-159 546.5,-180 715.5,-180 715.5,-159 546.5,-159"/>
<text text-anchor="start" x="603" y="-165.8" font-family="Times New Roman,Times,Liberation Serif,serif" font-size="14.00">max_time</text>
<polygon fill="none" stroke="black" points="715.5,-159 715.5,-180 783.5,-180 783.5,-159 715.5,-159"/>
<text text-anchor="start" x="737" y="-165.8" font-family="Times New Roman,Times,Liberation Serif,serif" font-size="14.00">float</text>
<polygon fill="none" stroke="black" points="546.5,-138 546.5,-159 715.5,-159 715.5,-138 546.5,-138"/>
<text text-anchor="start" x="604" y="-144.8" font-family="Times New Roman,Times,Liberation Serif,serif" font-size="14.00">min_time</text>
<polygon fill="none" stroke="black" points="715.5,-138 715.5,-159 783.5,-159 783.5,-138 715.5,-138"/>
<text text-anchor="start" x="737" y="-144.8" font-family="Times New Roman,Times,Liberation Serif,serif" font-size="14.00">float</text>
</a>
</g>
</g>
<!-- aind_behavior_dynamic_foraging.task_logic.trial_generators.coupled_trial_generators.coupled_trial_generator.CoupledTrialGeneratorSpec -->
<g id="node5" class="node">
<title>aind_behavior_dynamic_foraging.task_logic.trial_generators.coupled_trial_generators.coupled_trial_generator.CoupledTrialGeneratorSpec</title>
<g id="a_node5"><a xlink:title="aind_behavior_dynamic_foraging.task_logic.trial_generators.coupled_trial_generators.coupled_trial_generator.CoupledTrialGeneratorSpec&#10;&#10;Base model for trial generator specifications.&#10;">
<polygon fill="none" stroke="black" points="0.5,-493 0.5,-514 405.5,-514 405.5,-493 0.5,-493"/>
<text text-anchor="start" x="120" y="-500.8" font-family="Times New Roman,Times,Liberation Serif,serif" font-weight="bold" font-size="14.00">CoupledTrialGeneratorSpec</text>
<polygon fill="none" stroke="black" points="0.5,-472 0.5,-493 185.5,-493 185.5,-472 0.5,-472"/>
<text text-anchor="start" x="81" y="-478.8" font-family="Times New Roman,Times,Liberation Serif,serif" font-size="14.00">type</text>
<polygon fill="none" stroke="black" points="185.5,-472 185.5,-493 405.5,-493 405.5,-472 185.5,-472"/>
<text text-anchor="start" x="207.5" y="-478.8" font-family="Times New Roman,Times,Liberation Serif,serif" font-size="14.00">Literal[&#39;CoupledTrialGenerator&#39;]</text>
<polygon fill="none" stroke="black" points="0.5,-451 0.5,-472 185.5,-472 185.5,-451 0.5,-451"/>
<text text-anchor="start" x="41.5" y="-457.8" font-family="Times New Roman,Times,Liberation Serif,serif" font-size="14.00">quiescent_duration</text>
<polygon fill="none" stroke="black" points="185.5,-451 185.5,-472 405.5,-472 405.5,-451 185.5,-451"/>
<text text-anchor="start" x="262.5" y="-457.8" font-family="Times New Roman,Times,Liberation Serif,serif" font-size="14.00">Distribution</text>
<polygon fill="none" stroke="black" points="0.5,-430 0.5,-451 185.5,-451 185.5,-430 0.5,-430"/>
<text text-anchor="start" x="43" y="-436.8" font-family="Times New Roman,Times,Liberation Serif,serif" font-size="14.00">response_duration</text>
<polygon fill="none" stroke="black" points="185.5,-430 185.5,-451 405.5,-451 405.5,-430 185.5,-430"/>
<text text-anchor="start" x="283" y="-436.8" font-family="Times New Roman,Times,Liberation Serif,serif" font-size="14.00">float</text>
<polygon fill="none" stroke="black" points="0.5,-409 0.5,-430 185.5,-430 185.5,-409 0.5,-409"/>
<text text-anchor="start" x="9.5" y="-415.8" font-family="Times New Roman,Times,Liberation Serif,serif" font-size="14.00">reward_consumption_duration</text>
<polygon fill="none" stroke="black" points="185.5,-409 185.5,-430 405.5,-430 405.5,-409 185.5,-409"/>
<text text-anchor="start" x="283" y="-415.8" font-family="Times New Roman,Times,Liberation Serif,serif" font-size="14.00">float</text>
<polygon fill="none" stroke="black" points="0.5,-388 0.5,-409 185.5,-409 185.5,-388 0.5,-388"/>
<text text-anchor="start" x="16" y="-394.8" font-family="Times New Roman,Times,Liberation Serif,serif" font-size="14.00">inter_trial_interval_duration</text>
<polygon fill="none" stroke="black" points="185.5,-388 185.5,-409 405.5,-409 405.5,-388 185.5,-388"/>
<text text-anchor="start" x="262.5" y="-394.8" font-family="Times New Roman,Times,Liberation Serif,serif" font-size="14.00">Distribution</text>
<polygon fill="none" stroke="black" points="0.5,-367 0.5,-388 185.5,-388 185.5,-367 0.5,-367"/>
<text text-anchor="start" x="57.5" y="-373.8" font-family="Times New Roman,Times,Liberation Serif,serif" font-size="14.00">block_length</text>
<polygon fill="none" stroke="black" points="185.5,-367 185.5,-388 405.5,-388 405.5,-367 185.5,-367"/>
<text text-anchor="start" x="262.5" y="-373.8" font-family="Times New Roman,Times,Liberation Serif,serif" font-size="14.00">Distribution</text>
<polygon fill="none" stroke="black" points="0.5,-346 0.5,-367 185.5,-367 185.5,-346 0.5,-346"/>
<text text-anchor="start" x="32.5" y="-352.8" font-family="Times New Roman,Times,Liberation Serif,serif" font-size="14.00">autowater_parameters</text>
<polygon fill="none" stroke="black" points="185.5,-346 185.5,-367 405.5,-367 405.5,-346 185.5,-346"/>
<text text-anchor="start" x="207" y="-352.8" font-family="Times New Roman,Times,Liberation Serif,serif" font-size="14.00">Optional[AutoWaterParameters]</text>
<polygon fill="none" stroke="black" points="0.5,-325 0.5,-346 185.5,-346 185.5,-325 0.5,-325"/>
<text text-anchor="start" x="66" y="-331.8" font-family="Times New Roman,Times,Liberation Serif,serif" font-size="14.00">is_baiting</text>
<polygon fill="none" stroke="black" points="185.5,-325 185.5,-346 405.5,-346 405.5,-325 185.5,-325"/>
<text text-anchor="start" x="283" y="-331.8" font-family="Times New Roman,Times,Liberation Serif,serif" font-size="14.00">bool</text>
<polygon fill="none" stroke="black" points="0.5,-304 0.5,-325 185.5,-325 185.5,-304 0.5,-304"/>
<text text-anchor="start" x="7.5" y="-310.8" font-family="Times New Roman,Times,Liberation Serif,serif" font-size="14.00">reward_probability_parameters</text>
<polygon fill="none" stroke="black" points="185.5,-304 185.5,-325 405.5,-325 405.5,-304 185.5,-304"/>
<text text-anchor="start" x="214" y="-310.8" font-family="Times New Roman,Times,Liberation Serif,serif" font-size="14.00">RewardProbabilityParameters</text>
<polygon fill="none" stroke="black" points="0.5,-283 0.5,-304 185.5,-304 185.5,-283 0.5,-283"/>
<text text-anchor="start" x="3.5" y="-289.8" font-family="Times New Roman,Times,Liberation Serif,serif" font-size="14.00">trial_generation_end_parameters</text>
<polygon fill="none" stroke="black" points="185.5,-283 185.5,-304 405.5,-304 405.5,-283 185.5,-283"/>
<text text-anchor="start" x="188.5" y="-289.8" font-family="Times New Roman,Times,Liberation Serif,serif" font-size="14.00">CoupledTrialGenerationEndConditions</text>
<polygon fill="none" stroke="black" points="0.5,-262 0.5,-283 185.5,-283 185.5,-262 0.5,-262"/>
<text text-anchor="start" x="10.5" y="-268.8" font-family="Times New Roman,Times,Liberation Serif,serif" font-size="14.00">behavior_stability_parameters</text>
<polygon fill="none" stroke="black" points="185.5,-262 185.5,-283 405.5,-283 405.5,-262 185.5,-262"/>
<text text-anchor="start" x="189" y="-268.8" font-family="Times New Roman,Times,Liberation Serif,serif" font-size="14.00">Optional[BehaviorStabilityParameters]</text>
<polygon fill="none" stroke="black" points="0.5,-241 0.5,-262 185.5,-262 185.5,-241 0.5,-241"/>
<text text-anchor="start" x="9" y="-247.8" font-family="Times New Roman,Times,Liberation Serif,serif" font-size="14.00">extend_block_on_no_response</text>
<polygon fill="none" stroke="black" points="185.5,-241 185.5,-262 405.5,-262 405.5,-241 185.5,-241"/>
<text text-anchor="start" x="283" y="-247.8" font-family="Times New Roman,Times,Liberation Serif,serif" font-size="14.00">bool</text>
<polygon fill="none" stroke="black" points="0.5,-220 0.5,-241 185.5,-241 185.5,-220 0.5,-220"/>
<text text-anchor="start" x="41.5" y="-226.8" font-family="Times New Roman,Times,Liberation Serif,serif" font-size="14.00">min_block_reward</text>
<polygon fill="none" stroke="black" points="185.5,-220 185.5,-241 405.5,-241 405.5,-220 185.5,-220"/>
<text text-anchor="start" x="288" y="-226.8" font-family="Times New Roman,Times,Liberation Serif,serif" font-size="14.00">int</text>
<polygon fill="none" stroke="black" points="0.5,-199 0.5,-220 185.5,-220 185.5,-199 0.5,-199"/>
<text text-anchor="start" x="62" y="-205.8" font-family="Times New Roman,Times,Liberation Serif,serif" font-size="14.00">kernel_size</text>
<polygon fill="none" stroke="black" points="185.5,-199 185.5,-220 405.5,-220 405.5,-199 185.5,-199"/>
<text text-anchor="start" x="288" y="-205.8" font-family="Times New Roman,Times,Liberation Serif,serif" font-size="14.00">int</text>
</a>
</g>
</g>
<!-- aind_behavior_dynamic_foraging.task_logic.trial_generators.coupled_trial_generators.coupled_trial_generator.CoupledTrialGeneratorSpec&#45;&gt;aind_behavior_dynamic_foraging.task_logic.trial_generators.block_based_trial_generator.AutoWaterParameters -->
<g id="edge1" class="edge">
<title>aind_behavior_dynamic_foraging.task_logic.trial_generators.coupled_trial_generators.coupled_trial_generator.CoupledTrialGeneratorSpec:e&#45;&gt;aind_behavior_dynamic_foraging.task_logic.trial_generators.block_based_trial_generator.AutoWaterParameters:w</title>
<path fill="none" stroke="black" d="M415.08,-356.48C492.56,-364.01 491.31,-458.72 563.28,-472.37"/>
<polyline fill="none" stroke="black" points="405,-356 409.99,-356.24 "/>
<polyline fill="none" stroke="black" points="409.99,-356.24 414.99,-356.47 "/>
<polyline fill="none" stroke="black" points="581.5,-474 576.52,-473.55 "/>
<polygon fill="black" stroke="black" points="575.97,-468.48 575.08,-478.44 573.09,-478.27 573.98,-468.31 575.97,-468.48"/>
<polyline fill="none" stroke="black" points="576.52,-473.55 571.54,-473.11 "/>
<ellipse fill="none" stroke="black" cx="567.56" cy="-472.75" rx="4" ry="4"/>
</g>
<!-- aind_behavior_dynamic_foraging.task_logic.trial_generators.coupled_trial_generators.coupled_trial_generator.CoupledTrialGeneratorSpec&#45;&gt;aind_behavior_dynamic_foraging.task_logic.trial_generators.coupled_trial_generators.base_coupled_trial_generator.RewardProbabilityParameters -->
<g id="edge2" class="edge">
<title>aind_behavior_dynamic_foraging.task_logic.trial_generators.coupled_trial_generators.coupled_trial_generator.CoupledTrialGeneratorSpec:e&#45;&gt;aind_behavior_dynamic_foraging.task_logic.trial_generators.coupled_trial_generators.base_coupled_trial_generator.RewardProbabilityParameters:w</title>
<path fill="none" stroke="black" d="M415.24,-314.25C477.09,-317.32 495.76,-347.92 555.34,-352.44"/>
<polyline fill="none" stroke="black" points="405,-314 410,-314.12 "/>
<polyline fill="none" stroke="black" points="410,-314.12 415,-314.24 "/>
<polyline fill="none" stroke="black" points="570.5,-353 565.5,-352.82 "/>
<polygon fill="black" stroke="black" points="564.69,-347.78 564.32,-357.78 562.32,-357.7 562.69,-347.71 564.69,-347.78"/>
<polyline fill="none" stroke="black" points="565.5,-352.82 560.51,-352.63 "/>
<polygon fill="black" stroke="black" points="559.69,-347.6 559.32,-357.59 557.32,-357.52 557.69,-347.53 559.69,-347.6"/>
<polyline fill="none" stroke="black" points="560.51,-352.63 555.51,-352.45 "/>
</g>
<!-- aind_behavior_dynamic_foraging.task_logic.trial_generators.coupled_trial_generators.coupled_trial_generator.CoupledTrialGeneratorSpec&#45;&gt;aind_behavior_dynamic_foraging.task_logic.trial_generators.coupled_trial_generators.coupled_trial_generator.BehaviorStabilityParameters -->
<g id="edge3" class="edge">
<title>aind_behavior_dynamic_foraging.task_logic.trial_generators.coupled_trial_generators.coupled_trial_generator.CoupledTrialGeneratorSpec:e&#45;&gt;aind_behavior_dynamic_foraging.task_logic.trial_generators.coupled_trial_generators.coupled_trial_generator.BehaviorStabilityParameters:w</title>
<path fill="none" stroke="black" d="M415.17,-271.2C486.53,-259.2 433.02,-116.43 495.14,-94.75"/>
<polyline fill="none" stroke="black" points="405,-272 409.98,-271.61 "/>
<polyline fill="none" stroke="black" points="409.98,-271.61 414.97,-271.21 "/>
<polyline fill="none" stroke="black" points="513,-92 508.06,-92.76 "/>
<polygon fill="black" stroke="black" points="506.31,-87.97 507.83,-97.86 505.85,-98.16 504.33,-88.28 506.31,-87.97"/>
<polyline fill="none" stroke="black" points="508.06,-92.76 503.12,-93.52 "/>
<ellipse fill="none" stroke="black" cx="499.16" cy="-94.13" rx="4" ry="4"/>
</g>
<!-- aind_behavior_dynamic_foraging.task_logic.trial_generators.coupled_trial_generators.coupled_trial_generator.CoupledTrialGeneratorSpec&#45;&gt;aind_behavior_dynamic_foraging.task_logic.trial_generators.coupled_trial_generators.coupled_trial_generator.CoupledTrialGenerationEndConditions -->
<g id="edge4" class="edge">
<title>aind_behavior_dynamic_foraging.task_logic.trial_generators.coupled_trial_generators.coupled_trial_generator.CoupledTrialGeneratorSpec:e&#45;&gt;aind_behavior_dynamic_foraging.task_logic.trial_generators.coupled_trial_generators.coupled_trial_generator.CoupledTrialGenerationEndConditions:w</title>
<path fill="none" stroke="black" d="M415.17,-292.66C466.24,-289.19 481.61,-259.89 530.4,-254.76"/>
<polyline fill="none" stroke="black" points="405,-293 410,-292.83 "/>
<polyline fill="none" stroke="black" points="410,-292.83 414.99,-292.67 "/>
<polyline fill="none" stroke="black" points="545.5,-254 540.51,-254.25 "/>
<polygon fill="black" stroke="black" points="539.26,-249.31 539.76,-259.3 537.76,-259.4 537.26,-249.41 539.26,-249.31"/>
<polyline fill="none" stroke="black" points="540.51,-254.25 535.51,-254.5 "/>
<polygon fill="black" stroke="black" points="534.26,-249.56 534.77,-259.55 532.77,-259.65 532.26,-249.66 534.26,-249.56"/>
<polyline fill="none" stroke="black" points="535.51,-254.5 530.52,-254.76 "/>
</g>
</g>
</svg>
