<?xml version="1.0" encoding="UTF-8" standalone="no"?>
<!DOCTYPE svg PUBLIC "-//W3C//DTD SVG 1.1//EN"
 "http://www.w3.org/Graphics/SVG/1.1/DTD/svg11.dtd">
<!-- Generated by graphviz version 2.43.0 (0)
 -->
<!-- Title: Entity Relationship Diagram created by erdantic Pages: 1 -->
<svg width="763pt" height="463pt"
 viewBox="0.00 0.00 763.00 463.00" xmlns="http://www.w3.org/2000/svg" xmlns:xlink="http://www.w3.org/1999/xlink">
<g id="graph0" class="graph" transform="scale(1 1) rotate(0) translate(4 459)">
<title>Entity Relationship Diagram created by erdantic</title>
<polygon fill="white" stroke="transparent" points="-4,4 -4,-459 759,-459 759,4 -4,4"/>
<text text-anchor="middle" x="377.5" y="-6.8" font-family="Times New Roman,Times,Liberation Serif,serif" font-size="9.00" fill="#a8a8a8">Created by erdantic v1.2.1 &lt;https://github.com/drivendataorg/erdantic&gt;</text>
<!-- aind_behavior_dynamic_foraging.task_logic.trial_generators.block_based_trial_generator.AutoWaterParameters -->
<g id="node1" class="node">
<title>aind_behavior_dynamic_foraging.task_logic.trial_generators.block_based_trial_generator.AutoWaterParameters</title>
<g id="a_node1"><a xlink:title="aind_behavior_dynamic_foraging.task_logic.trial_generators.block_based_trial_generator.AutoWaterParameters&#10;&#10;!!! abstract &quot;Usage Documentation&quot;&#10; &#160;&#160;&#160;[Models](../concepts/models.md)&#10;&#10;A base class for creating Pydantic models.&#10;&#10;Attributes:&#10; &#160;&#160;&#160;__class_vars__: The names of the class variables defined on the model.&#10; &#160;&#160;&#160;__private_attributes__: Metadata about the private attributes of the model.&#10; &#160;&#160;&#160;__signature__: The synthesized `__init__` [`Signature`][inspect.Signature] of the model.&#10;&#10; &#160;&#160;&#160;__pydantic_complete__: Whether model building is completed, or if there are still undefined fields.&#10; &#160;&#160;&#160;__pydantic_core_schema__: The core schema of the model.&#10; &#160;&#160;&#160;__pydantic_custom_init__: Whether the model has a custom `__init__` function.&#10; &#160;&#160;&#160;__pydantic_decorators__: Metadata containing the decorators defined on the model.&#10; &#160;&#160;&#160;&#160;&#160;&#160;&#160;This replaces `Model.__validators__` and `Model.__root_validators__` from Pydantic V1.&#10; &#160;&#160;&#160;__pydantic_generic_metadata__: Metadata for generic models; contains data used for a similar purpose to&#10; &#160;&#160;&#160;&#160;&#160;&#160;&#160;__args__, __origin__, __parameters__ in typing&#45;module generics. May eventually be replaced by these.&#10; &#160;&#160;&#160;__pydantic_parent_namespace__: Parent namespace of the model, used for automatic rebuilding of models.&#10; &#160;&#160;&#160;__pydantic_post_init__: The name of the post&#45;init method for the model, if defined.&#10; &#160;&#160;&#160;__pydantic_root_model__: Whether the model is a [`RootModel`][pydantic.root_model.RootModel].&#10; &#160;&#160;&#160;__pydantic_serializer__: The `pydantic&#45;core` `SchemaSerializer` used to dump instances of the model.&#10; &#160;&#160;&#160;__pydantic_validator__: The `pydantic&#45;core` `SchemaValidator` used to validate instances of the model.&#10;&#10; &#160;&#160;&#160;__pydantic_fields__: A dictionary of field names and their corresponding [`FieldInfo`][pydantic.fields.FieldInfo] objects.&#10; &#160;&#160;&#160;__pydantic_computed_fields__: A dictionary of computed field names and their corresponding [`ComputedFieldInfo`][pydantic.fields.ComputedFieldInfo] objects.&#10;&#10; &#160;&#160;&#160;__pydantic_extra__: A dictionary containing extra values, if [`extra`][pydantic.config.ConfigDict.extra]&#10; &#160;&#160;&#160;&#160;&#160;&#160;&#160;is set to `&#39;allow&#39;`.&#10; &#160;&#160;&#160;__pydantic_fields_set__: The names of fields explicitly set during instantiation.&#10; &#160;&#160;&#160;__pydantic_private__: Values of private attributes set on the model instance.&#10;">
<polygon fill="none" stroke="black" points="552.5,-222.5 552.5,-243.5 716.5,-243.5 716.5,-222.5 552.5,-222.5"/>
<text text-anchor="start" x="568" y="-230.3" font-family="Times New Roman,Times,Liberation Serif,serif" font-weight="bold" font-size="14.00">AutoWaterParameters</text>
<polygon fill="none" stroke="black" points="552.5,-201.5 552.5,-222.5 685.5,-222.5 685.5,-201.5 552.5,-201.5"/>
<text text-anchor="start" x="567" y="-208.3" font-family="Times New Roman,Times,Liberation Serif,serif" font-size="14.00">min_ignored_trials</text>
<polygon fill="none" stroke="black" points="685.5,-201.5 685.5,-222.5 716.5,-222.5 716.5,-201.5 685.5,-201.5"/>
<text text-anchor="start" x="693.5" y="-208.3" font-family="Times New Roman,Times,Liberation Serif,serif" font-size="14.00">int</text>
<polygon fill="none" stroke="black" points="552.5,-180.5 552.5,-201.5 685.5,-201.5 685.5,-180.5 552.5,-180.5"/>
<text text-anchor="start" x="555.5" y="-187.3" font-family="Times New Roman,Times,Liberation Serif,serif" font-size="14.00">min_unrewarded_trials</text>
<polygon fill="none" stroke="black" points="685.5,-180.5 685.5,-201.5 716.5,-201.5 716.5,-180.5 685.5,-180.5"/>
<text text-anchor="start" x="693.5" y="-187.3" font-family="Times New Roman,Times,Liberation Serif,serif" font-size="14.00">int</text>
<polygon fill="none" stroke="black" points="552.5,-159.5 552.5,-180.5 685.5,-180.5 685.5,-159.5 552.5,-159.5"/>
<text text-anchor="start" x="575.5" y="-166.3" font-family="Times New Roman,Times,Liberation Serif,serif" font-size="14.00">reward_fraction</text>
<polygon fill="none" stroke="black" points="685.5,-159.5 685.5,-180.5 716.5,-180.5 716.5,-159.5 685.5,-159.5"/>
<text text-anchor="start" x="688.5" y="-166.3" font-family="Times New Roman,Times,Liberation Serif,serif" font-size="14.00">float</text>
</a>
</g>
</g>
<!-- aind_behavior_dynamic_foraging.task_logic.trial_generators.block_based_trial_generator.RewardProbabilityParameters -->
<g id="node2" class="node">
<title>aind_behavior_dynamic_foraging.task_logic.trial_generators.block_based_trial_generator.RewardProbabilityParameters</title>
<g id="a_node2"><a xlink:title="aind_behavior_dynamic_foraging.task_logic.trial_generators.block_based_trial_generator.RewardProbabilityParameters&#10;&#10;Defines the reward probability structure for a dynamic foraging task.&#10;&#10;Reward probabilities are defined as pairs (p_left, p_right) normalized by&#10;base_reward_sum. Pairs are drawn from a family representing a difficulty level:&#10;&#10; &#160;&#160;&#160;Family 1: &#160;&#160;[[8, 1], [6, 1], [3, 1], [1, 1]]&#10; &#160;&#160;&#160;Family 2: &#160;[[8, 1], [1, 1]]&#10; &#160;&#160;&#160;Family 3: &#160;[[1.0, 0.0], [0.9, 0.1], [0.8, 0.2], [0.7, 0.3], [0.6, 0.4], [0.5, 0.5]]&#10; &#160;&#160;&#160;Family 4: &#160;[[6, 1], [3, 1], [1, 1]]&#10;">
<polygon fill="none" stroke="black" points="524.5,-321.5 524.5,-342.5 744.5,-342.5 744.5,-321.5 524.5,-321.5"/>
<text text-anchor="start" x="545" y="-329.3" font-family="Times New Roman,Times,Liberation Serif,serif" font-weight="bold" font-size="14.00">RewardProbabilityParameters</text>
<polygon fill="none" stroke="black" points="524.5,-300.5 524.5,-321.5 629.5,-321.5 629.5,-300.5 524.5,-300.5"/>
<text text-anchor="start" x="527.5" y="-307.3" font-family="Times New Roman,Times,Liberation Serif,serif" font-size="14.00">base_reward_sum</text>
<polygon fill="none" stroke="black" points="629.5,-300.5 629.5,-321.5 744.5,-321.5 744.5,-300.5 629.5,-300.5"/>
<text text-anchor="start" x="674.5" y="-307.3" font-family="Times New Roman,Times,Liberation Serif,serif" font-size="14.00">float</text>
<polygon fill="none" stroke="black" points="524.5,-279.5 524.5,-300.5 629.5,-300.5 629.5,-279.5 524.5,-279.5"/>
<text text-anchor="start" x="541.5" y="-286.3" font-family="Times New Roman,Times,Liberation Serif,serif" font-size="14.00">reward_pairs</text>
<polygon fill="none" stroke="black" points="629.5,-279.5 629.5,-300.5 744.5,-300.5 744.5,-279.5 629.5,-279.5"/>
<text text-anchor="start" x="632.5" y="-286.3" font-family="Times New Roman,Times,Liberation Serif,serif" font-size="14.00">list[list[float, float]]</text>
</a>
</g>
</g>
<!-- aind_behavior_dynamic_foraging.task_logic.trial_generators.warmup_trial_generator.WarmupTrialGenerationEndConditions -->
<g id="node3" class="node">
<title>aind_behavior_dynamic_foraging.task_logic.trial_generators.warmup_trial_generator.WarmupTrialGenerationEndConditions</title>
<g id="a_node3"><a xlink:title="aind_behavior_dynamic_foraging.task_logic.trial_generators.warmup_trial_generator.WarmupTrialGenerationEndConditions&#10;&#10;!!! abstract &quot;Usage Documentation&quot;&#10; &#160;&#160;&#160;[Models](../concepts/models.md)&#10;&#10;A base class for creating Pydantic models.&#10;&#10;Attributes:&#10; &#160;&#160;&#160;__class_vars__: The names of the class variables defined on the model.&#10; &#160;&#160;&#160;__private_attributes__: Metadata about the private attributes of the model.&#10; &#160;&#160;&#160;__signature__: The synthesized `__init__` [`Signature`][inspect.Signature] of the model.&#10;&#10; &#160;&#160;&#160;__pydantic_complete__: Whether model building is completed, or if there are still undefined fields.&#10; &#160;&#160;&#160;__pydantic_core_schema__: The core schema of the model.&#10; &#160;&#160;&#160;__pydantic_custom_init__: Whether the model has a custom `__init__` function.&#10; &#160;&#160;&#160;__pydantic_decorators__: Metadata containing the decorators defined on the model.&#10; &#160;&#160;&#160;&#160;&#160;&#160;&#160;This replaces `Model.__validators__` and `Model.__root_validators__` from Pydantic V1.&#10; &#160;&#160;&#160;__pydantic_generic_metadata__: Metadata for generic models; contains data used for a similar purpose to&#10; &#160;&#160;&#160;&#160;&#160;&#160;&#160;__args__, __origin__, __parameters__ in typing&#45;module generics. May eventually be replaced by these.&#10; &#160;&#160;&#160;__pydantic_parent_namespace__: Parent namespace of the model, used for automatic rebuilding of models.&#10; &#160;&#160;&#160;__pydantic_post_init__: The name of the post&#45;init method for the model, if defined.&#10; &#160;&#160;&#160;__pydantic_root_model__: Whether the model is a [`RootModel`][pydantic.root_model.RootModel].&#10; &#160;&#160;&#160;__pydantic_serializer__: The `pydantic&#45;core` `SchemaSerializer` used to dump instances of the model.&#10; &#160;&#160;&#160;__pydantic_validator__: The `pydantic&#45;core` `SchemaValidator` used to validate instances of the model.&#10;&#10; &#160;&#160;&#160;__pydantic_fields__: A dictionary of field names and their corresponding [`FieldInfo`][pydantic.fields.FieldInfo] objects.&#10; &#160;&#160;&#160;__pydantic_computed_fields__: A dictionary of computed field names and their corresponding [`ComputedFieldInfo`][pydantic.fields.ComputedFieldInfo] objects.&#10;&#10; &#160;&#160;&#160;__pydantic_extra__: A dictionary containing extra values, if [`extra`][pydantic.config.ConfigDict.extra]&#10; &#160;&#160;&#160;&#160;&#160;&#160;&#160;is set to `&#39;allow&#39;`.&#10; &#160;&#160;&#160;__pydantic_fields_set__: The names of fields explicitly set during instantiation.&#10; &#160;&#160;&#160;__pydantic_private__: Values of private attributes set on the model instance.&#10;">
<polygon fill="none" stroke="black" points="514.5,-101.5 514.5,-122.5 755.5,-122.5 755.5,-101.5 514.5,-101.5"/>
<text text-anchor="start" x="517.5" y="-109.3" font-family="Times New Roman,Times,Liberation Serif,serif" font-weight="bold" font-size="14.00">WarmupTrialGenerationEndConditions</text>
<polygon fill="none" stroke="black" points="514.5,-80.5 514.5,-101.5 675.5,-101.5 675.5,-80.5 514.5,-80.5"/>
<text text-anchor="start" x="569.5" y="-87.3" font-family="Times New Roman,Times,Liberation Serif,serif" font-size="14.00">min_trial</text>
<polygon fill="none" stroke="black" points="675.5,-80.5 675.5,-101.5 755.5,-101.5 755.5,-80.5 675.5,-80.5"/>
<text text-anchor="start" x="708" y="-87.3" font-family="Times New Roman,Times,Liberation Serif,serif" font-size="14.00">int</text>
<polygon fill="none" stroke="black" points="514.5,-59.5 514.5,-80.5 675.5,-80.5 675.5,-59.5 514.5,-59.5"/>
<text text-anchor="start" x="547.5" y="-66.3" font-family="Times New Roman,Times,Liberation Serif,serif" font-size="14.00">max_choice_bias</text>
<polygon fill="none" stroke="black" points="675.5,-59.5 675.5,-80.5 755.5,-80.5 755.5,-59.5 675.5,-59.5"/>
<text text-anchor="start" x="703" y="-66.3" font-family="Times New Roman,Times,Liberation Serif,serif" font-size="14.00">float</text>
<polygon fill="none" stroke="black" points="514.5,-38.5 514.5,-59.5 675.5,-59.5 675.5,-38.5 514.5,-38.5"/>
<text text-anchor="start" x="543.5" y="-45.3" font-family="Times New Roman,Times,Liberation Serif,serif" font-size="14.00">min_response_rate</text>
<polygon fill="none" stroke="black" points="675.5,-38.5 675.5,-59.5 755.5,-59.5 755.5,-38.5 675.5,-38.5"/>
<text text-anchor="start" x="703" y="-45.3" font-family="Times New Roman,Times,Liberation Serif,serif" font-size="14.00">float</text>
<polygon fill="none" stroke="black" points="514.5,-17.5 514.5,-38.5 675.5,-38.5 675.5,-17.5 514.5,-17.5"/>
<text text-anchor="start" x="541.5" y="-24.3" font-family="Times New Roman,Times,Liberation Serif,serif" font-size="14.00">evaluation_window</text>
<polygon fill="none" stroke="black" points="675.5,-17.5 675.5,-38.5 755.5,-38.5 755.5,-17.5 675.5,-17.5"/>
<text text-anchor="start" x="708" y="-24.3" font-family="Times New Roman,Times,Liberation Serif,serif" font-size="14.00">int</text>
</a>
</g>
</g>
<!-- aind_behavior_dynamic_foraging.task_logic.trial_generators.warmup_trial_generator.WarmupTrialGeneratorSpec -->
<g id="node4" class="node">
<title>aind_behavior_dynamic_foraging.task_logic.trial_generators.warmup_trial_generator.WarmupTrialGeneratorSpec</title>
<g id="a_node4"><a xlink:title="aind_behavior_dynamic_foraging.task_logic.trial_generators.warmup_trial_generator.WarmupTrialGeneratorSpec&#10;&#10;Base model for trial generator specifications.&#10;">
<polygon fill="none" stroke="black" points="0,-433.5 0,-454.5 406,-454.5 406,-433.5 0,-433.5"/>
<text text-anchor="start" x="118" y="-441.3" font-family="Times New Roman,Times,Liberation Serif,serif" font-weight="bold" font-size="14.00">WarmupTrialGeneratorSpec</text>
<polygon fill="none" stroke="black" points="0,-412.5 0,-433.5 185,-433.5 185,-412.5 0,-412.5"/>
<text text-anchor="start" x="80.5" y="-419.3" font-family="Times New Roman,Times,Liberation Serif,serif" font-size="14.00">type</text>
<polygon fill="none" stroke="black" points="185,-412.5 185,-433.5 406,-433.5 406,-412.5 185,-412.5"/>
<text text-anchor="start" x="206.5" y="-419.3" font-family="Times New Roman,Times,Liberation Serif,serif" font-size="14.00">Literal[&#39;WarmupTrialGenerator&#39;]</text>
<polygon fill="none" stroke="black" points="0,-391.5 0,-412.5 185,-412.5 185,-391.5 0,-391.5"/>
<text text-anchor="start" x="41" y="-398.3" font-family="Times New Roman,Times,Liberation Serif,serif" font-size="14.00">quiescent_duration</text>
<polygon fill="none" stroke="black" points="185,-391.5 185,-412.5 406,-412.5 406,-391.5 185,-391.5"/>
<text text-anchor="start" x="262.5" y="-398.3" font-family="Times New Roman,Times,Liberation Serif,serif" font-size="14.00">Distribution</text>
<polygon fill="none" stroke="black" points="0,-370.5 0,-391.5 185,-391.5 185,-370.5 0,-370.5"/>
<text text-anchor="start" x="42.5" y="-377.3" font-family="Times New Roman,Times,Liberation Serif,serif" font-size="14.00">response_duration</text>
<polygon fill="none" stroke="black" points="185,-370.5 185,-391.5 406,-391.5 406,-370.5 185,-370.5"/>
<text text-anchor="start" x="283" y="-377.3" font-family="Times New Roman,Times,Liberation Serif,serif" font-size="14.00">float</text>
<polygon fill="none" stroke="black" points="0,-349.5 0,-370.5 185,-370.5 185,-349.5 0,-349.5"/>
<text text-anchor="start" x="9" y="-356.3" font-family="Times New Roman,Times,Liberation Serif,serif" font-size="14.00">reward_consumption_duration</text>
<polygon fill="none" stroke="black" points="185,-349.5 185,-370.5 406,-370.5 406,-349.5 185,-349.5"/>
<text text-anchor="start" x="283" y="-356.3" font-family="Times New Roman,Times,Liberation Serif,serif" font-size="14.00">float</text>
<polygon fill="none" stroke="black" points="0,-328.5 0,-349.5 185,-349.5 185,-328.5 0,-328.5"/>
<text text-anchor="start" x="15.5" y="-335.3" font-family="Times New Roman,Times,Liberation Serif,serif" font-size="14.00">inter_trial_interval_duration</text>
<polygon fill="none" stroke="black" points="185,-328.5 185,-349.5 406,-349.5 406,-328.5 185,-328.5"/>
<text text-anchor="start" x="262.5" y="-335.3" font-family="Times New Roman,Times,Liberation Serif,serif" font-size="14.00">Distribution</text>
<polygon fill="none" stroke="black" points="0,-307.5 0,-328.5 185,-328.5 185,-307.5 0,-307.5"/>
<text text-anchor="start" x="65.5" y="-314.3" font-family="Times New Roman,Times,Liberation Serif,serif" font-size="14.00">block_len</text>
<polygon fill="none" stroke="black" points="185,-307.5 185,-328.5 406,-328.5 406,-307.5 185,-307.5"/>
<text text-anchor="start" x="262.5" y="-314.3" font-family="Times New Roman,Times,Liberation Serif,serif" font-size="14.00">Distribution</text>
<polygon fill="none" stroke="black" points="0,-286.5 0,-307.5 185,-307.5 185,-286.5 0,-286.5"/>
<text text-anchor="start" x="41" y="-293.3" font-family="Times New Roman,Times,Liberation Serif,serif" font-size="14.00">min_block_reward</text>
<polygon fill="none" stroke="black" points="185,-286.5 185,-307.5 406,-307.5 406,-286.5 185,-286.5"/>
<text text-anchor="start" x="269.5" y="-293.3" font-family="Times New Roman,Times,Liberation Serif,serif" font-size="14.00">Literal[1]</text>
<polygon fill="none" stroke="black" points="0,-265.5 0,-286.5 185,-286.5 185,-265.5 0,-265.5"/>
<text text-anchor="start" x="61.5" y="-272.3" font-family="Times New Roman,Times,Liberation Serif,serif" font-size="14.00">kernel_size</text>
<polygon fill="none" stroke="black" points="185,-265.5 185,-286.5 406,-286.5 406,-265.5 185,-265.5"/>
<text text-anchor="start" x="288" y="-272.3" font-family="Times New Roman,Times,Liberation Serif,serif" font-size="14.00">int</text>
<polygon fill="none" stroke="black" points="0,-244.5 0,-265.5 185,-265.5 185,-244.5 0,-244.5"/>
<text text-anchor="start" x="7" y="-251.3" font-family="Times New Roman,Times,Liberation Serif,serif" font-size="14.00">reward_probability_parameters</text>
<polygon fill="none" stroke="black" points="185,-244.5 185,-265.5 406,-265.5 406,-244.5 185,-244.5"/>
<text text-anchor="start" x="214" y="-251.3" font-family="Times New Roman,Times,Liberation Serif,serif" font-size="14.00">RewardProbabilityParameters</text>
<polygon fill="none" stroke="black" points="0,-223.5 0,-244.5 185,-244.5 185,-223.5 0,-223.5"/>
<text text-anchor="start" x="32" y="-230.3" font-family="Times New Roman,Times,Liberation Serif,serif" font-size="14.00">autowater_parameters</text>
<polygon fill="none" stroke="black" points="185,-223.5 185,-244.5 406,-244.5 406,-223.5 185,-223.5"/>
<text text-anchor="start" x="207" y="-230.3" font-family="Times New Roman,Times,Liberation Serif,serif" font-size="14.00">Optional[AutoWaterParameters]</text>
<polygon fill="none" stroke="black" points="0,-202.5 0,-223.5 185,-223.5 185,-202.5 0,-202.5"/>
<text text-anchor="start" x="65.5" y="-209.3" font-family="Times New Roman,Times,Liberation Serif,serif" font-size="14.00">is_baiting</text>
<polygon fill="none" stroke="black" points="185,-202.5 185,-223.5 406,-223.5 406,-202.5 185,-202.5"/>
<text text-anchor="start" x="260" y="-209.3" font-family="Times New Roman,Times,Liberation Serif,serif" font-size="14.00">Literal[True]</text>
<polygon fill="none" stroke="black" points="0,-181.5 0,-202.5 185,-202.5 185,-181.5 0,-181.5"/>
<text text-anchor="start" x="3" y="-188.3" font-family="Times New Roman,Times,Liberation Serif,serif" font-size="14.00">trial_generation_end_parameters</text>
<polygon fill="none" stroke="black" points="185,-181.5 185,-202.5 406,-202.5 406,-181.5 185,-181.5"/>
<text text-anchor="start" x="188" y="-188.3" font-family="Times New Roman,Times,Liberation Serif,serif" font-size="14.00">WarmupTrialGenerationEndConditions</text>
</a>
</g>
</g>
<!-- aind_behavior_dynamic_foraging.task_logic.trial_generators.warmup_trial_generator.WarmupTrialGeneratorSpec&#45;&gt;aind_behavior_dynamic_foraging.task_logic.trial_generators.block_based_trial_generator.AutoWaterParameters -->
<g id="edge1" class="edge">
<title>aind_behavior_dynamic_foraging.task_logic.trial_generators.warmup_trial_generator.WarmupTrialGeneratorSpec:e&#45;&gt;aind_behavior_dynamic_foraging.task_logic.trial_generators.block_based_trial_generator.AutoWaterParameters:w</title>
<path fill="none" stroke="black" d="M416.19,-233.5C466.52,-233.5 486.1,-233.5 533.2,-233.5"/>
<polyline fill="none" stroke="black" points="406,-233.5 411,-233.5 "/>
<polyline fill="none" stroke="black" points="411,-233.5 416,-233.5 "/>
<polyline fill="none" stroke="black" points="551.5,-233.5 546.5,-233.5 "/>
<polygon fill="black" stroke="black" points="545.5,-228.5 545.5,-238.5 543.5,-238.5 543.5,-228.5 545.5,-228.5"/>
<polyline fill="none" stroke="black" points="546.5,-233.5 541.5,-233.5 "/>
<ellipse fill="none" stroke="black" cx="537.5" cy="-233.5" rx="4" ry="4"/>
</g>
<!-- aind_behavior_dynamic_foraging.task_logic.trial_generators.warmup_trial_generator.WarmupTrialGeneratorSpec&#45;&gt;aind_behavior_dynamic_foraging.task_logic.trial_generators.block_based_trial_generator.RewardProbabilityParameters -->
<g id="edge2" class="edge">
<title>aind_behavior_dynamic_foraging.task_logic.trial_generators.warmup_trial_generator.WarmupTrialGeneratorSpec:e&#45;&gt;aind_behavior_dynamic_foraging.task_logic.trial_generators.block_based_trial_generator.RewardProbabilityParameters:w</title>
<path fill="none" stroke="black" d="M416,-255.22C463.14,-262.35 464.56,-320.03 508.43,-330.78"/>
<polyline fill="none" stroke="black" points="406,-254.5 410.99,-254.86 "/>
<polyline fill="none" stroke="black" points="410.99,-254.86 415.97,-255.22 "/>
<polyline fill="none" stroke="black" points="523.5,-332.5 518.53,-331.93 "/>
<polygon fill="black" stroke="black" points="518.11,-326.85 516.97,-336.79 514.98,-336.56 516.12,-326.62 518.11,-326.85"/>
<polyline fill="none" stroke="black" points="518.53,-331.93 513.56,-331.36 "/>
<polygon fill="black" stroke="black" points="513.14,-326.28 512,-336.22 510.02,-335.99 511.15,-326.06 513.14,-326.28"/>
<polyline fill="none" stroke="black" points="513.56,-331.36 508.6,-330.8 "/>
</g>
<!-- aind_behavior_dynamic_foraging.task_logic.trial_generators.warmup_trial_generator.WarmupTrialGeneratorSpec&#45;&gt;aind_behavior_dynamic_foraging.task_logic.trial_generators.warmup_trial_generator.WarmupTrialGenerationEndConditions -->
<g id="edge3" class="edge">
<title>aind_behavior_dynamic_foraging.task_logic.trial_generators.warmup_trial_generator.WarmupTrialGeneratorSpec:e&#45;&gt;aind_behavior_dynamic_foraging.task_logic.trial_generators.warmup_trial_generator.WarmupTrialGenerationEndConditions:w</title>
<path fill="none" stroke="black" d="M416.06,-190.67C459.59,-183.06 458.84,-125.78 499.04,-114.45"/>
<polyline fill="none" stroke="black" points="406,-191.5 410.98,-191.09 "/>
<polyline fill="none" stroke="black" points="410.98,-191.09 415.97,-190.67 "/>
<polyline fill="none" stroke="black" points="514,-112.5 509.04,-113.14 "/>
<polygon fill="black" stroke="black" points="507.41,-108.32 508.7,-118.23 506.71,-118.49 505.42,-108.57 507.41,-108.32"/>
<polyline fill="none" stroke="black" points="509.04,-113.14 504.08,-113.79 "/>
<polygon fill="black" stroke="black" points="502.45,-108.96 503.74,-118.88 501.75,-119.14 500.46,-109.22 502.45,-108.96"/>
<polyline fill="none" stroke="black" points="504.08,-113.79 499.13,-114.43 "/>
</g>
</g>
</svg>
