<?xml version="1.0" encoding="UTF-8" standalone="no"?>
<!DOCTYPE svg PUBLIC "-//W3C//DTD SVG 1.1//EN"
 "http://www.w3.org/Graphics/SVG/1.1/DTD/svg11.dtd">
<!-- Generated by graphviz version 2.43.0 (0)
 -->
<!-- Title: Entity Relationship Diagram created by erdantic Pages: 1 -->
<svg width="763pt" height="391pt"
 viewBox="0.00 0.00 763.00 390.50" xmlns="http://www.w3.org/2000/svg" xmlns:xlink="http://www.w3.org/1999/xlink">
<g id="graph0" class="graph" transform="scale(1 1) rotate(0) translate(4 386.5)">
<title>Entity Relationship Diagram created by erdantic</title>
<polygon fill="white" stroke="transparent" points="-4,4 -4,-386.5 759,-386.5 759,4 -4,4"/>
<text text-anchor="middle" x="377.5" y="-6.8" font-family="Times New Roman,Times,Liberation Serif,serif" font-size="9.00" fill="#a8a8a8">Created by erdantic v1.2.1 &lt;https://github.com/drivendataorg/erdantic&gt;</text>
<!-- aind_behavior_dynamic_foraging.task_logic.trial_generators.block_based_trial_generator.RewardProbabilityParameters -->
<g id="node1" class="node">
<title>aind_behavior_dynamic_foraging.task_logic.trial_generators.block_based_trial_generator.RewardProbabilityParameters</title>
<g id="a_node1"><a xlink:title="aind_behavior_dynamic_foraging.task_logic.trial_generators.block_based_trial_generator.RewardProbabilityParameters&#10;&#10;Defines the reward probability structure for a dynamic foraging task.&#10;&#10;Reward probabilities are defined as pairs (p_left, p_right) normalized by&#10;base_reward_sum. Pairs are drawn from a family representing a difficulty level:&#10;&#10; &#160;&#160;&#160;Family 0: &#160;&#160;[[8, 1], [6, 1], [3, 1], [1, 1]]&#10; &#160;&#160;&#160;Family 1: &#160;[[8, 1], [1, 1]]&#10; &#160;&#160;&#160;Family 2: &#160;[[1.0, 0.0], [0.9, 0.1], [0.8, 0.2], [0.7, 0.3], [0.6, 0.4], [0.5, 0.5]]&#10; &#160;&#160;&#160;Family 3: &#160;[[6, 1], [3, 1], [1, 1]]&#10;">
<polygon fill="none" stroke="black" points="524.5,-200.5 524.5,-221.5 744.5,-221.5 744.5,-200.5 524.5,-200.5"/>
<text text-anchor="start" x="545" y="-208.3" font-family="Times New Roman,Times,Liberation Serif,serif" font-weight="bold" font-size="14.00">RewardProbabilityParameters</text>
<polygon fill="none" stroke="black" points="524.5,-179.5 524.5,-200.5 629.5,-200.5 629.5,-179.5 524.5,-179.5"/>
<text text-anchor="start" x="527.5" y="-186.3" font-family="Times New Roman,Times,Liberation Serif,serif" font-size="14.00">base_reward_sum</text>
<polygon fill="none" stroke="black" points="629.5,-179.5 629.5,-200.5 744.5,-200.5 744.5,-179.5 629.5,-179.5"/>
<text text-anchor="start" x="674.5" y="-186.3" font-family="Times New Roman,Times,Liberation Serif,serif" font-size="14.00">float</text>
<polygon fill="none" stroke="black" points="524.5,-158.5 524.5,-179.5 629.5,-179.5 629.5,-158.5 524.5,-158.5"/>
<text text-anchor="start" x="541.5" y="-165.3" font-family="Times New Roman,Times,Liberation Serif,serif" font-size="14.00">reward_pairs</text>
<polygon fill="none" stroke="black" points="629.5,-158.5 629.5,-179.5 744.5,-179.5 744.5,-158.5 629.5,-158.5"/>
<text text-anchor="start" x="632.5" y="-165.3" font-family="Times New Roman,Times,Liberation Serif,serif" font-size="14.00">list[list[float, float]]</text>
</a>
</g>
</g>
<!-- aind_behavior_dynamic_foraging.task_logic.trial_generators.warmup_trial_generator.WarmupTrialGenerationEndConditions -->
<g id="node2" class="node">
<title>aind_behavior_dynamic_foraging.task_logic.trial_generators.warmup_trial_generator.WarmupTrialGenerationEndConditions</title>
<g id="a_node2"><a xlink:title="aind_behavior_dynamic_foraging.task_logic.trial_generators.warmup_trial_generator.WarmupTrialGenerationEndConditions&#10;&#10;!!! abstract &quot;Usage Documentation&quot;&#10; &#160;&#160;&#160;[Models](../concepts/models.md)&#10;&#10;A base class for creating Pydantic models.&#10;&#10;Attributes:&#10; &#160;&#160;&#160;__class_vars__: The names of the class variables defined on the model.&#10; &#160;&#160;&#160;__private_attributes__: Metadata about the private attributes of the model.&#10; &#160;&#160;&#160;__signature__: The synthesized `__init__` [`Signature`][inspect.Signature] of the model.&#10;&#10; &#160;&#160;&#160;__pydantic_complete__: Whether model building is completed, or if there are still undefined fields.&#10; &#160;&#160;&#160;__pydantic_core_schema__: The core schema of the model.&#10; &#160;&#160;&#160;__pydantic_custom_init__: Whether the model has a custom `__init__` function.&#10; &#160;&#160;&#160;__pydantic_decorators__: Metadata containing the decorators defined on the model.&#10; &#160;&#160;&#160;&#160;&#160;&#160;&#160;This replaces `Model.__validators__` and `Model.__root_validators__` from Pydantic V1.&#10; &#160;&#160;&#160;__pydantic_generic_metadata__: Metadata for generic models; contains data used for a similar purpose to&#10; &#160;&#160;&#160;&#160;&#160;&#160;&#160;__args__, __origin__, __parameters__ in typing&#45;module generics. May eventually be replaced by these.&#10; &#160;&#160;&#160;__pydantic_parent_namespace__: Parent namespace of the model, used for automatic rebuilding of models.&#10; &#160;&#160;&#160;__pydantic_post_init__: The name of the post&#45;init method for the model, if defined.&#10; &#160;&#160;&#160;__pydantic_root_model__: Whether the model is a [`RootModel`][pydantic.root_model.RootModel].&#10; &#160;&#160;&#160;__pydantic_serializer__: The `pydantic&#45;core` `SchemaSerializer` used to dump instances of the model.&#10; &#160;&#160;&#160;__pydantic_validator__: The `pydantic&#45;core` `SchemaValidator` used to validate instances of the model.&#10;&#10; &#160;&#160;&#160;__pydantic_fields__: A dictionary of field names and their corresponding [`FieldInfo`][pydantic.fields.FieldInfo] objects.&#10; &#160;&#160;&#160;__pydantic_computed_fields__: A dictionary of computed field names and their corresponding [`ComputedFieldInfo`][pydantic.fields.ComputedFieldInfo] objects.&#10;&#10; &#160;&#160;&#160;__pydantic_extra__: A dictionary containing extra values, if [`extra`][pydantic.config.ConfigDict.extra]&#10; &#160;&#160;&#160;&#160;&#160;&#160;&#160;is set to `&#39;allow&#39;`.&#10; &#160;&#160;&#160;__pydantic_fields_set__: The names of fields explicitly set during instantiation.&#10; &#160;&#160;&#160;__pydantic_private__: Values of private attributes set on the model instance.&#10;">
<polygon fill="none" stroke="black" points="514.5,-101.5 514.5,-122.5 755.5,-122.5 755.5,-101.5 514.5,-101.5"/>
<text text-anchor="start" x="517.5" y="-109.3" font-family="Times New Roman,Times,Liberation Serif,serif" font-weight="bold" font-size="14.00">WarmupTrialGenerationEndConditions</text>
<polygon fill="none" stroke="black" points="514.5,-80.5 514.5,-101.5 675.5,-101.5 675.5,-80.5 514.5,-80.5"/>
<text text-anchor="start" x="569.5" y="-87.3" font-family="Times New Roman,Times,Liberation Serif,serif" font-size="14.00">min_trial</text>
<polygon fill="none" stroke="black" points="675.5,-80.5 675.5,-101.5 755.5,-101.5 755.5,-80.5 675.5,-80.5"/>
<text text-anchor="start" x="708" y="-87.3" font-family="Times New Roman,Times,Liberation Serif,serif" font-size="14.00">int</text>
<polygon fill="none" stroke="black" points="514.5,-59.5 514.5,-80.5 675.5,-80.5 675.5,-59.5 514.5,-59.5"/>
<text text-anchor="start" x="547.5" y="-66.3" font-family="Times New Roman,Times,Liberation Serif,serif" font-size="14.00">max_choice_bias</text>
<polygon fill="none" stroke="black" points="675.5,-59.5 675.5,-80.5 755.5,-80.5 755.5,-59.5 675.5,-59.5"/>
<text text-anchor="start" x="703" y="-66.3" font-family="Times New Roman,Times,Liberation Serif,serif" font-size="14.00">float</text>
<polygon fill="none" stroke="black" points="514.5,-38.5 514.5,-59.5 675.5,-59.5 675.5,-38.5 514.5,-38.5"/>
<text text-anchor="start" x="543.5" y="-45.3" font-family="Times New Roman,Times,Liberation Serif,serif" font-size="14.00">min_response_rate</text>
<polygon fill="none" stroke="black" points="675.5,-38.5 675.5,-59.5 755.5,-59.5 755.5,-38.5 675.5,-38.5"/>
<text text-anchor="start" x="703" y="-45.3" font-family="Times New Roman,Times,Liberation Serif,serif" font-size="14.00">float</text>
<polygon fill="none" stroke="black" points="514.5,-17.5 514.5,-38.5 675.5,-38.5 675.5,-17.5 514.5,-17.5"/>
<text text-anchor="start" x="541.5" y="-24.3" font-family="Times New Roman,Times,Liberation Serif,serif" font-size="14.00">evaluation_window</text>
<polygon fill="none" stroke="black" points="675.5,-17.5 675.5,-38.5 755.5,-38.5 755.5,-17.5 675.5,-17.5"/>
<text text-anchor="start" x="708" y="-24.3" font-family="Times New Roman,Times,Liberation Serif,serif" font-size="14.00">int</text>
</a>
</g>
</g>
<!-- aind_behavior_dynamic_foraging.task_logic.trial_generators.warmup_trial_generator.WarmupTrialGeneratorSpec -->
<g id="node3" class="node">
<title>aind_behavior_dynamic_foraging.task_logic.trial_generators.warmup_trial_generator.WarmupTrialGeneratorSpec</title>
<g id="a_node3"><a xlink:title="aind_behavior_dynamic_foraging.task_logic.trial_generators.warmup_trial_generator.WarmupTrialGeneratorSpec&#10;&#10;Base model for trial generator specifications.&#10;">
<polygon fill="none" stroke="black" points="0,-361.5 0,-382.5 406,-382.5 406,-361.5 0,-361.5"/>
<text text-anchor="start" x="118" y="-369.3" font-family="Times New Roman,Times,Liberation Serif,serif" font-weight="bold" font-size="14.00">WarmupTrialGeneratorSpec</text>
<polygon fill="none" stroke="black" points="0,-340.5 0,-361.5 185,-361.5 185,-340.5 0,-340.5"/>
<text text-anchor="start" x="80.5" y="-347.3" font-family="Times New Roman,Times,Liberation Serif,serif" font-size="14.00">type</text>
<polygon fill="none" stroke="black" points="185,-340.5 185,-361.5 406,-361.5 406,-340.5 185,-340.5"/>
<text text-anchor="start" x="206.5" y="-347.3" font-family="Times New Roman,Times,Liberation Serif,serif" font-size="14.00">Literal[&#39;WarmupTrialGenerator&#39;]</text>
<polygon fill="none" stroke="black" points="0,-319.5 0,-340.5 185,-340.5 185,-319.5 0,-319.5"/>
<text text-anchor="start" x="41" y="-326.3" font-family="Times New Roman,Times,Liberation Serif,serif" font-size="14.00">quiescent_duration</text>
<polygon fill="none" stroke="black" points="185,-319.5 185,-340.5 406,-340.5 406,-319.5 185,-319.5"/>
<text text-anchor="start" x="262.5" y="-326.3" font-family="Times New Roman,Times,Liberation Serif,serif" font-size="14.00">Distribution</text>
<polygon fill="none" stroke="black" points="0,-298.5 0,-319.5 185,-319.5 185,-298.5 0,-298.5"/>
<text text-anchor="start" x="42.5" y="-305.3" font-family="Times New Roman,Times,Liberation Serif,serif" font-size="14.00">response_duration</text>
<polygon fill="none" stroke="black" points="185,-298.5 185,-319.5 406,-319.5 406,-298.5 185,-298.5"/>
<text text-anchor="start" x="283" y="-305.3" font-family="Times New Roman,Times,Liberation Serif,serif" font-size="14.00">float</text>
<polygon fill="none" stroke="black" points="0,-277.5 0,-298.5 185,-298.5 185,-277.5 0,-277.5"/>
<text text-anchor="start" x="9" y="-284.3" font-family="Times New Roman,Times,Liberation Serif,serif" font-size="14.00">reward_consumption_duration</text>
<polygon fill="none" stroke="black" points="185,-277.5 185,-298.5 406,-298.5 406,-277.5 185,-277.5"/>
<text text-anchor="start" x="283" y="-284.3" font-family="Times New Roman,Times,Liberation Serif,serif" font-size="14.00">float</text>
<polygon fill="none" stroke="black" points="0,-256.5 0,-277.5 185,-277.5 185,-256.5 0,-256.5"/>
<text text-anchor="start" x="15.5" y="-263.3" font-family="Times New Roman,Times,Liberation Serif,serif" font-size="14.00">inter_trial_interval_duration</text>
<polygon fill="none" stroke="black" points="185,-256.5 185,-277.5 406,-277.5 406,-256.5 185,-256.5"/>
<text text-anchor="start" x="262.5" y="-263.3" font-family="Times New Roman,Times,Liberation Serif,serif" font-size="14.00">Distribution</text>
<polygon fill="none" stroke="black" points="0,-235.5 0,-256.5 185,-256.5 185,-235.5 0,-235.5"/>
<text text-anchor="start" x="65.5" y="-242.3" font-family="Times New Roman,Times,Liberation Serif,serif" font-size="14.00">block_len</text>
<polygon fill="none" stroke="black" points="185,-235.5 185,-256.5 406,-256.5 406,-235.5 185,-235.5"/>
<text text-anchor="start" x="262.5" y="-242.3" font-family="Times New Roman,Times,Liberation Serif,serif" font-size="14.00">Distribution</text>
<polygon fill="none" stroke="black" points="0,-214.5 0,-235.5 185,-235.5 185,-214.5 0,-214.5"/>
<text text-anchor="start" x="41" y="-221.3" font-family="Times New Roman,Times,Liberation Serif,serif" font-size="14.00">min_block_reward</text>
<polygon fill="none" stroke="black" points="185,-214.5 185,-235.5 406,-235.5 406,-214.5 185,-214.5"/>
<text text-anchor="start" x="269.5" y="-221.3" font-family="Times New Roman,Times,Liberation Serif,serif" font-size="14.00">Literal[1]</text>
<polygon fill="none" stroke="black" points="0,-193.5 0,-214.5 185,-214.5 185,-193.5 0,-193.5"/>
<text text-anchor="start" x="61.5" y="-200.3" font-family="Times New Roman,Times,Liberation Serif,serif" font-size="14.00">kernel_size</text>
<polygon fill="none" stroke="black" points="185,-193.5 185,-214.5 406,-214.5 406,-193.5 185,-193.5"/>
<text text-anchor="start" x="288" y="-200.3" font-family="Times New Roman,Times,Liberation Serif,serif" font-size="14.00">int</text>
<polygon fill="none" stroke="black" points="0,-172.5 0,-193.5 185,-193.5 185,-172.5 0,-172.5"/>
<text text-anchor="start" x="7" y="-179.3" font-family="Times New Roman,Times,Liberation Serif,serif" font-size="14.00">reward_probability_parameters</text>
<polygon fill="none" stroke="black" points="185,-172.5 185,-193.5 406,-193.5 406,-172.5 185,-172.5"/>
<text text-anchor="start" x="214" y="-179.3" font-family="Times New Roman,Times,Liberation Serif,serif" font-size="14.00">RewardProbabilityParameters</text>
<polygon fill="none" stroke="black" points="0,-151.5 0,-172.5 185,-172.5 185,-151.5 0,-151.5"/>
<text text-anchor="start" x="65.5" y="-158.3" font-family="Times New Roman,Times,Liberation Serif,serif" font-size="14.00">is_baiting</text>
<polygon fill="none" stroke="black" points="185,-151.5 185,-172.5 406,-172.5 406,-151.5 185,-151.5"/>
<text text-anchor="start" x="260" y="-158.3" font-family="Times New Roman,Times,Liberation Serif,serif" font-size="14.00">Literal[True]</text>
<polygon fill="none" stroke="black" points="0,-130.5 0,-151.5 185,-151.5 185,-130.5 0,-130.5"/>
<text text-anchor="start" x="3" y="-137.3" font-family="Times New Roman,Times,Liberation Serif,serif" font-size="14.00">trial_generation_end_parameters</text>
<polygon fill="none" stroke="black" points="185,-130.5 185,-151.5 406,-151.5 406,-130.5 185,-130.5"/>
<text text-anchor="start" x="188" y="-137.3" font-family="Times New Roman,Times,Liberation Serif,serif" font-size="14.00">WarmupTrialGenerationEndConditions</text>
</a>
</g>
</g>
<!-- aind_behavior_dynamic_foraging.task_logic.trial_generators.warmup_trial_generator.WarmupTrialGeneratorSpec&#45;&gt;aind_behavior_dynamic_foraging.task_logic.trial_generators.block_based_trial_generator.RewardProbabilityParameters -->
<g id="edge1" class="edge">
<title>aind_behavior_dynamic_foraging.task_logic.trial_generators.warmup_trial_generator.WarmupTrialGeneratorSpec:e&#45;&gt;aind_behavior_dynamic_foraging.task_logic.trial_generators.block_based_trial_generator.RewardProbabilityParameters:w</title>
<path fill="none" stroke="black" d="M416.16,-182.87C456.36,-185.86 470.26,-206.23 508.3,-210.65"/>
<polyline fill="none" stroke="black" points="406,-182.5 411,-182.68 "/>
<polyline fill="none" stroke="black" points="411,-182.68 415.99,-182.86 "/>
<polyline fill="none" stroke="black" points="523.5,-211.5 518.51,-211.22 "/>
<polygon fill="black" stroke="black" points="517.79,-206.17 517.23,-216.16 515.23,-216.05 515.79,-206.06 517.79,-206.17"/>
<polyline fill="none" stroke="black" points="518.51,-211.22 513.52,-210.94 "/>
<polygon fill="black" stroke="black" points="512.79,-205.9 512.24,-215.88 510.24,-215.77 510.8,-205.79 512.79,-205.9"/>
<polyline fill="none" stroke="black" points="513.52,-210.94 508.52,-210.67 "/>
</g>
<!-- aind_behavior_dynamic_foraging.task_logic.trial_generators.warmup_trial_generator.WarmupTrialGeneratorSpec&#45;&gt;aind_behavior_dynamic_foraging.task_logic.trial_generators.warmup_trial_generator.WarmupTrialGenerationEndConditions -->
<g id="edge2" class="edge">
<title>aind_behavior_dynamic_foraging.task_logic.trial_generators.warmup_trial_generator.WarmupTrialGeneratorSpec:e&#45;&gt;aind_behavior_dynamic_foraging.task_logic.trial_generators.warmup_trial_generator.WarmupTrialGenerationEndConditions:w</title>
<path fill="none" stroke="black" d="M416.14,-140.08C452.12,-137.02 464.91,-118.03 498.72,-113.48"/>
<polyline fill="none" stroke="black" points="406,-140.5 411,-140.29 "/>
<polyline fill="none" stroke="black" points="411,-140.29 415.99,-140.09 "/>
<polyline fill="none" stroke="black" points="514,-112.5 509.01,-112.82 "/>
<polygon fill="black" stroke="black" points="507.69,-107.89 508.33,-117.87 506.34,-118 505.7,-108.02 507.69,-107.89"/>
<polyline fill="none" stroke="black" points="509.01,-112.82 504.02,-113.14 "/>
<polygon fill="black" stroke="black" points="502.7,-108.21 503.34,-118.19 501.35,-118.32 500.71,-108.34 502.7,-108.21"/>
<polyline fill="none" stroke="black" points="504.02,-113.14 499.03,-113.46 "/>
</g>
</g>
</svg>
