<?xml version="1.0" encoding="UTF-8" standalone="no"?>
<!DOCTYPE svg PUBLIC "-//W3C//DTD SVG 1.1//EN"
 "http://www.w3.org/Graphics/SVG/1.1/DTD/svg11.dtd">
<!-- Generated by graphviz version 14.1.5 (20260411.2331)
 -->
<!-- Title: Entity Relationship Diagram created by erdantic Pages: 1 -->
<svg width="778pt" height="184pt"
 viewBox="0.00 0.00 778.00 184.00" xmlns="http://www.w3.org/2000/svg" xmlns:xlink="http://www.w3.org/1999/xlink">
<g id="graph0" class="graph" transform="scale(1 1) rotate(0) translate(4 180)">
<title>Entity Relationship Diagram created by erdantic</title>
<polygon fill="white" stroke="none" points="-4,4 -4,-180 773.5,-180 773.5,4 -4,4"/>
<text xml:space="preserve" text-anchor="middle" x="384.75" y="-5.95" font-family="Times New Roman,Times,Liberation Serif,serif" font-size="9.00" fill="#a8a8a8">Created by erdantic v1.2.1 &lt;https://github.com/drivendataorg/erdantic&gt;</text>
<!-- aind_behavior_dynamic_foraging.task_logic.AindDynamicForagingTaskLogic -->
<g id="node1" class="node">
<title>aind_behavior_dynamic_foraging.task_logic.AindDynamicForagingTaskLogic</title>
<g id="a_node1"><a xlink:title="aind_behavior_dynamic_foraging.task_logic.AindDynamicForagingTaskLogic&#10;&#10;Main task logic model for the AIND Dynamic Foraging task.&#10;&#10;This is the top&#45;level class that encapsulates the complete task logic&#10;specification for the dynamic foraging behavioral experiment.&#10;It includes all task parameters, environment specifications, and control settings.&#10;">
<polygon fill="none" stroke="black" points="0,-153.5 0,-176 325.5,-176 325.5,-153.5 0,-153.5"/>
<text xml:space="preserve" text-anchor="start" x="59.25" y="-160.7" font-family="Times New Roman,Times,Liberation Serif,serif" font-weight="bold" font-size="14.00">AindDynamicForagingTaskLogic</text>
<polygon fill="none" stroke="black" points="0,-131 0,-153.5 96.75,-153.5 96.75,-131 0,-131"/>
<text xml:space="preserve" text-anchor="start" x="33" y="-137.75" font-family="Times New Roman,Times,Liberation Serif,serif" font-size="14.00">name</text>
<polygon fill="none" stroke="black" points="96.75,-131 96.75,-153.5 325.5,-153.5 325.5,-131 96.75,-131"/>
<text xml:space="preserve" text-anchor="start" x="118.88" y="-137.75" font-family="Times New Roman,Times,Liberation Serif,serif" font-size="14.00">Literal[&#39;AindDynamicForaging&#39;]</text>
<polygon fill="none" stroke="black" points="0,-108.5 0,-131 96.75,-131 96.75,-108.5 0,-108.5"/>
<text xml:space="preserve" text-anchor="start" x="16.88" y="-115.25" font-family="Times New Roman,Times,Liberation Serif,serif" font-size="14.00">description</text>
<polygon fill="none" stroke="black" points="96.75,-108.5 96.75,-131 325.5,-131 325.5,-108.5 96.75,-108.5"/>
<text xml:space="preserve" text-anchor="start" x="204.38" y="-115.25" font-family="Times New Roman,Times,Liberation Serif,serif" font-size="14.00">str</text>
<polygon fill="none" stroke="black" points="0,-86 0,-108.5 96.75,-108.5 96.75,-86 0,-86"/>
<text xml:space="preserve" text-anchor="start" x="3" y="-92.75" font-family="Times New Roman,Times,Liberation Serif,serif" font-size="14.00">task_parameters</text>
<polygon fill="none" stroke="black" points="96.75,-86 96.75,-108.5 325.5,-108.5 325.5,-86 96.75,-86"/>
<text xml:space="preserve" text-anchor="start" x="99.75" y="-92.75" font-family="Times New Roman,Times,Liberation Serif,serif" font-size="14.00">AindDynamicForagingTaskParameters</text>
<polygon fill="none" stroke="black" points="0,-63.5 0,-86 96.75,-86 96.75,-63.5 0,-63.5"/>
<text xml:space="preserve" text-anchor="start" x="27.38" y="-70.25" font-family="Times New Roman,Times,Liberation Serif,serif" font-size="14.00">version</text>
<polygon fill="none" stroke="black" points="96.75,-63.5 96.75,-86 325.5,-86 325.5,-63.5 96.75,-63.5"/>
<text xml:space="preserve" text-anchor="start" x="171" y="-70.25" font-family="Times New Roman,Times,Liberation Serif,serif" font-size="14.00">Literal[&#39;0.0.3&#39;]</text>
<polygon fill="none" stroke="black" points="0,-41 0,-63.5 96.75,-63.5 96.75,-41 0,-41"/>
<text xml:space="preserve" text-anchor="start" x="15" y="-47.75" font-family="Times New Roman,Times,Liberation Serif,serif" font-size="14.00">stage_name</text>
<polygon fill="none" stroke="black" points="96.75,-41 96.75,-63.5 325.5,-63.5 325.5,-41 96.75,-41"/>
<text xml:space="preserve" text-anchor="start" x="174.75" y="-47.75" font-family="Times New Roman,Times,Liberation Serif,serif" font-size="14.00">Optional[str]</text>
</a>
</g>
</g>
<!-- aind_behavior_dynamic_foraging.task_logic.AindDynamicForagingTaskParameters -->
<g id="node2" class="node">
<title>aind_behavior_dynamic_foraging.task_logic.AindDynamicForagingTaskParameters</title>
<g id="a_node2"><a xlink:title="aind_behavior_dynamic_foraging.task_logic.AindDynamicForagingTaskParameters&#10;&#10;Complete parameter specification for the AIND Dynamic Foraging task.&#10;&#10;This class contains all configurable parameters for the Dynamic Foraging task,&#10;including environment structure, task mode settings, operation control,&#10;and numerical updaters for dynamic parameter modification.&#10;">
<polygon fill="none" stroke="black" points="433.5,-86 433.5,-108.5 769.5,-108.5 769.5,-86 433.5,-86"/>
<text xml:space="preserve" text-anchor="start" x="480.38" y="-93.2" font-family="Times New Roman,Times,Liberation Serif,serif" font-weight="bold" font-size="14.00">AindDynamicForagingTaskParameters</text>
<polygon fill="none" stroke="black" points="433.5,-63.5 433.5,-86 653.25,-86 653.25,-63.5 433.5,-63.5"/>
<text xml:space="preserve" text-anchor="start" x="517.5" y="-70.25" font-family="Times New Roman,Times,Liberation Serif,serif" font-size="14.00">rng_seed</text>
<polygon fill="none" stroke="black" points="653.25,-63.5 653.25,-86 769.5,-86 769.5,-63.5 653.25,-63.5"/>
<text xml:space="preserve" text-anchor="start" x="669" y="-70.25" font-family="Times New Roman,Times,Liberation Serif,serif" font-size="14.00">Optional[float]</text>
<polygon fill="none" stroke="black" points="433.5,-41 433.5,-63.5 653.25,-63.5 653.25,-41 433.5,-41"/>
<text xml:space="preserve" text-anchor="start" x="436.5" y="-47.75" font-family="Times New Roman,Times,Liberation Serif,serif" font-size="14.00">aind_behavior_services_pkg_version</text>
<polygon fill="none" stroke="black" points="653.25,-41 653.25,-63.5 769.5,-63.5 769.5,-41 653.25,-41"/>
<text xml:space="preserve" text-anchor="start" x="667.5" y="-47.75" font-family="Times New Roman,Times,Liberation Serif,serif" font-size="14.00">Literal[&#39;0.13.7&#39;]</text>
<polygon fill="none" stroke="black" points="433.5,-18.5 433.5,-41 653.25,-41 653.25,-18.5 433.5,-18.5"/>
<text xml:space="preserve" text-anchor="start" x="502.12" y="-25.25" font-family="Times New Roman,Times,Liberation Serif,serif" font-size="14.00">trial_generator</text>
<polygon fill="none" stroke="black" points="653.25,-18.5 653.25,-41 769.5,-41 769.5,-18.5 653.25,-18.5"/>
<text xml:space="preserve" text-anchor="start" x="656.25" y="-25.25" font-family="Times New Roman,Times,Liberation Serif,serif" font-size="14.00">TrialGeneratorSpec</text>
</a>
</g>
</g>
<!-- aind_behavior_dynamic_foraging.task_logic.AindDynamicForagingTaskLogic&#45;&gt;aind_behavior_dynamic_foraging.task_logic.AindDynamicForagingTaskParameters -->
<g id="edge1" class="edge">
<title>aind_behavior_dynamic_foraging.task_logic.AindDynamicForagingTaskLogic:e&#45;&gt;aind_behavior_dynamic_foraging.task_logic.AindDynamicForagingTaskParameters:w</title>
<path fill="none" stroke="black" d="M335.37,-97.25C370.57,-97.25 385.3,-97.25 418.58,-97.25"/>
<polyline fill="none" stroke="black" points="325.5,-97.25 330.5,-97.25"/>
<polyline fill="none" stroke="black" points="330.5,-97.25 335.5,-97.25"/>
<polyline fill="none" stroke="black" points="433.5,-97.25 428.5,-97.25"/>
<polygon fill="black" stroke="black" points="427.5,-92.25 427.5,-102.25 425.5,-102.25 425.5,-92.25 427.5,-92.25"/>
<polyline fill="none" stroke="black" points="428.5,-97.25 423.5,-97.25"/>
<polygon fill="black" stroke="black" points="422.5,-92.25 422.5,-102.25 420.5,-102.25 420.5,-92.25 422.5,-92.25"/>
<polyline fill="none" stroke="black" points="423.5,-97.25 418.5,-97.25"/>
</g>
</g>
</svg>
