<?xml version="1.0" encoding="UTF-8" standalone="no"?>
<!DOCTYPE svg PUBLIC "-//W3C//DTD SVG 1.1//EN"
 "http://www.w3.org/Graphics/SVG/1.1/DTD/svg11.dtd">
<!-- Generated by graphviz version 2.43.0 (0)
 -->
<!-- Title: Entity Relationship Diagram created by erdantic Pages: 1 -->
<svg width="958pt" height="421pt"
 viewBox="0.00 0.00 958.00 421.00" xmlns="http://www.w3.org/2000/svg" xmlns:xlink="http://www.w3.org/1999/xlink">
<g id="graph0" class="graph" transform="scale(1 1) rotate(0) translate(4 417)">
<title>Entity Relationship Diagram created by erdantic</title>
<polygon fill="white" stroke="transparent" points="-4,4 -4,-417 954,-417 954,4 -4,4"/>
<text text-anchor="middle" x="475" y="-6.8" font-family="Times New Roman,Times,Liberation Serif,serif" font-size="9.00" fill="#a8a8a8">Created by erdantic v1.2.1 &lt;https://github.com/drivendataorg/erdantic&gt;</text>
<!-- aind_behavior_dynamic_foraging.task_logic.interventions.bias_intervention.BiasInterventionParameters -->
<g id="node1" class="node">
<title>aind_behavior_dynamic_foraging.task_logic.interventions.bias_intervention.BiasInterventionParameters</title>
<g id="a_node1"><a xlink:title="aind_behavior_dynamic_foraging.task_logic.interventions.bias_intervention.BiasInterventionParameters&#10;&#10;!!! abstract &quot;Usage Documentation&quot;&#10; &#160;&#160;&#160;[Models](../concepts/models.md)&#10;&#10;A base class for creating Pydantic models.&#10;&#10;Attributes:&#10; &#160;&#160;&#160;__class_vars__: The names of the class variables defined on the model.&#10; &#160;&#160;&#160;__private_attributes__: Metadata about the private attributes of the model.&#10; &#160;&#160;&#160;__signature__: The synthesized `__init__` [`Signature`][inspect.Signature] of the model.&#10;&#10; &#160;&#160;&#160;__pydantic_complete__: Whether model building is completed, or if there are still undefined fields.&#10; &#160;&#160;&#160;__pydantic_core_schema__: The core schema of the model.&#10; &#160;&#160;&#160;__pydantic_custom_init__: Whether the model has a custom `__init__` function.&#10; &#160;&#160;&#160;__pydantic_decorators__: Metadata containing the decorators defined on the model.&#10; &#160;&#160;&#160;&#160;&#160;&#160;&#160;This replaces `Model.__validators__` and `Model.__root_validators__` from Pydantic V1.&#10; &#160;&#160;&#160;__pydantic_generic_metadata__: Metadata for generic models; contains data used for a similar purpose to&#10; &#160;&#160;&#160;&#160;&#160;&#160;&#160;__args__, __origin__, __parameters__ in typing&#45;module generics. May eventually be replaced by these.&#10; &#160;&#160;&#160;__pydantic_parent_namespace__: Parent namespace of the model, used for automatic rebuilding of models.&#10; &#160;&#160;&#160;__pydantic_post_init__: The name of the post&#45;init method for the model, if defined.&#10; &#160;&#160;&#160;__pydantic_root_model__: Whether the model is a [`RootModel`][pydantic.root_model.RootModel].&#10; &#160;&#160;&#160;__pydantic_serializer__: The `pydantic&#45;core` `SchemaSerializer` used to dump instances of the model.&#10; &#160;&#160;&#160;__pydantic_validator__: The `pydantic&#45;core` `SchemaValidator` used to validate instances of the model.&#10;&#10; &#160;&#160;&#160;__pydantic_fields__: A dictionary of field names and their corresponding [`FieldInfo`][pydantic.fields.FieldInfo] objects.&#10; &#160;&#160;&#160;__pydantic_computed_fields__: A dictionary of computed field names and their corresponding [`ComputedFieldInfo`][pydantic.fields.ComputedFieldInfo] objects.&#10;&#10; &#160;&#160;&#160;__pydantic_extra__: A dictionary containing extra values, if [`extra`][pydantic.config.ConfigDict.extra]&#10; &#160;&#160;&#160;&#160;&#160;&#160;&#160;is set to `&#39;allow&#39;`.&#10; &#160;&#160;&#160;__pydantic_fields_set__: The names of fields explicitly set during instantiation.&#10; &#160;&#160;&#160;__pydantic_private__: Values of private attributes set on the model instance.&#10;">
<polygon fill="none" stroke="black" points="499,-222.5 499,-243.5 751,-243.5 751,-222.5 499,-222.5"/>
<text text-anchor="start" x="542.5" y="-230.3" font-family="Times New Roman,Times,Liberation Serif,serif" font-weight="bold" font-size="14.00">BiasInterventionParameters</text>
<polygon fill="none" stroke="black" points="499,-201.5 499,-222.5 666,-222.5 666,-201.5 499,-201.5"/>
<text text-anchor="start" x="557" y="-208.3" font-family="Times New Roman,Times,Liberation Serif,serif" font-size="14.00">threshold</text>
<polygon fill="none" stroke="black" points="666,-201.5 666,-222.5 751,-222.5 751,-201.5 666,-201.5"/>
<text text-anchor="start" x="669" y="-208.3" font-family="Times New Roman,Times,Liberation Serif,serif" font-size="14.00">BiasThreshold</text>
<polygon fill="none" stroke="black" points="499,-180.5 499,-201.5 666,-201.5 666,-180.5 499,-180.5"/>
<text text-anchor="start" x="525.5" y="-187.3" font-family="Times New Roman,Times,Liberation Serif,serif" font-size="14.00">intervention_interval</text>
<polygon fill="none" stroke="black" points="666,-180.5 666,-201.5 751,-201.5 751,-180.5 666,-180.5"/>
<text text-anchor="start" x="701" y="-187.3" font-family="Times New Roman,Times,Liberation Serif,serif" font-size="14.00">int</text>
<polygon fill="none" stroke="black" points="499,-159.5 499,-180.5 666,-180.5 666,-159.5 499,-159.5"/>
<text text-anchor="start" x="502" y="-166.3" font-family="Times New Roman,Times,Liberation Serif,serif" font-size="14.00">maximum_water_corrections</text>
<polygon fill="none" stroke="black" points="666,-159.5 666,-180.5 751,-180.5 751,-159.5 666,-159.5"/>
<text text-anchor="start" x="701" y="-166.3" font-family="Times New Roman,Times,Liberation Serif,serif" font-size="14.00">int</text>
<polygon fill="none" stroke="black" points="499,-138.5 499,-159.5 666,-159.5 666,-138.5 499,-138.5"/>
<text text-anchor="start" x="526" y="-145.3" font-family="Times New Roman,Times,Liberation Serif,serif" font-size="14.00">bias_window_length</text>
<polygon fill="none" stroke="black" points="666,-138.5 666,-159.5 751,-159.5 751,-138.5 666,-138.5"/>
<text text-anchor="start" x="701" y="-145.3" font-family="Times New Roman,Times,Liberation Serif,serif" font-size="14.00">int</text>
<polygon fill="none" stroke="black" points="499,-117.5 499,-138.5 666,-138.5 666,-117.5 499,-117.5"/>
<text text-anchor="start" x="522" y="-124.3" font-family="Times New Roman,Times,Liberation Serif,serif" font-size="14.00">lickspout_offset_delta</text>
<polygon fill="none" stroke="black" points="666,-117.5 666,-138.5 751,-138.5 751,-117.5 666,-117.5"/>
<text text-anchor="start" x="696" y="-124.3" font-family="Times New Roman,Times,Liberation Serif,serif" font-size="14.00">float</text>
</a>
</g>
</g>
<!-- aind_behavior_dynamic_foraging.task_logic.interventions.bias_intervention.BiasThreshold -->
<g id="node2" class="node">
<title>aind_behavior_dynamic_foraging.task_logic.interventions.bias_intervention.BiasThreshold</title>
<g id="a_node2"><a xlink:title="aind_behavior_dynamic_foraging.task_logic.interventions.bias_intervention.BiasThreshold&#10;&#10;!!! abstract &quot;Usage Documentation&quot;&#10; &#160;&#160;&#160;[Models](../concepts/models.md)&#10;&#10;A base class for creating Pydantic models.&#10;&#10;Attributes:&#10; &#160;&#160;&#160;__class_vars__: The names of the class variables defined on the model.&#10; &#160;&#160;&#160;__private_attributes__: Metadata about the private attributes of the model.&#10; &#160;&#160;&#160;__signature__: The synthesized `__init__` [`Signature`][inspect.Signature] of the model.&#10;&#10; &#160;&#160;&#160;__pydantic_complete__: Whether model building is completed, or if there are still undefined fields.&#10; &#160;&#160;&#160;__pydantic_core_schema__: The core schema of the model.&#10; &#160;&#160;&#160;__pydantic_custom_init__: Whether the model has a custom `__init__` function.&#10; &#160;&#160;&#160;__pydantic_decorators__: Metadata containing the decorators defined on the model.&#10; &#160;&#160;&#160;&#160;&#160;&#160;&#160;This replaces `Model.__validators__` and `Model.__root_validators__` from Pydantic V1.&#10; &#160;&#160;&#160;__pydantic_generic_metadata__: Metadata for generic models; contains data used for a similar purpose to&#10; &#160;&#160;&#160;&#160;&#160;&#160;&#160;__args__, __origin__, __parameters__ in typing&#45;module generics. May eventually be replaced by these.&#10; &#160;&#160;&#160;__pydantic_parent_namespace__: Parent namespace of the model, used for automatic rebuilding of models.&#10; &#160;&#160;&#160;__pydantic_post_init__: The name of the post&#45;init method for the model, if defined.&#10; &#160;&#160;&#160;__pydantic_root_model__: Whether the model is a [`RootModel`][pydantic.root_model.RootModel].&#10; &#160;&#160;&#160;__pydantic_serializer__: The `pydantic&#45;core` `SchemaSerializer` used to dump instances of the model.&#10; &#160;&#160;&#160;__pydantic_validator__: The `pydantic&#45;core` `SchemaValidator` used to validate instances of the model.&#10;&#10; &#160;&#160;&#160;__pydantic_fields__: A dictionary of field names and their corresponding [`FieldInfo`][pydantic.fields.FieldInfo] objects.&#10; &#160;&#160;&#160;__pydantic_computed_fields__: A dictionary of computed field names and their corresponding [`ComputedFieldInfo`][pydantic.fields.ComputedFieldInfo] objects.&#10;&#10; &#160;&#160;&#160;__pydantic_extra__: A dictionary containing extra values, if [`extra`][pydantic.config.ConfigDict.extra]&#10; &#160;&#160;&#160;&#160;&#160;&#160;&#160;is set to `&#39;allow&#39;`.&#10; &#160;&#160;&#160;__pydantic_fields_set__: The names of fields explicitly set during instantiation.&#10; &#160;&#160;&#160;__pydantic_private__: Values of private attributes set on the model instance.&#10;">
<polygon fill="none" stroke="black" points="859.5,-201.5 859.5,-222.5 950.5,-222.5 950.5,-201.5 859.5,-201.5"/>
<text text-anchor="start" x="862.5" y="-209.3" font-family="Times New Roman,Times,Liberation Serif,serif" font-weight="bold" font-size="14.00">BiasThreshold</text>
<polygon fill="none" stroke="black" points="859.5,-180.5 859.5,-201.5 907.5,-201.5 907.5,-180.5 859.5,-180.5"/>
<text text-anchor="start" x="868" y="-187.3" font-family="Times New Roman,Times,Liberation Serif,serif" font-size="14.00">upper</text>
<polygon fill="none" stroke="black" points="907.5,-180.5 907.5,-201.5 950.5,-201.5 950.5,-180.5 907.5,-180.5"/>
<text text-anchor="start" x="916.5" y="-187.3" font-family="Times New Roman,Times,Liberation Serif,serif" font-size="14.00">float</text>
<polygon fill="none" stroke="black" points="859.5,-159.5 859.5,-180.5 907.5,-180.5 907.5,-159.5 859.5,-159.5"/>
<text text-anchor="start" x="868" y="-166.3" font-family="Times New Roman,Times,Liberation Serif,serif" font-size="14.00">lower</text>
<polygon fill="none" stroke="black" points="907.5,-159.5 907.5,-180.5 950.5,-180.5 950.5,-159.5 907.5,-159.5"/>
<text text-anchor="start" x="916.5" y="-166.3" font-family="Times New Roman,Times,Liberation Serif,serif" font-size="14.00">float</text>
</a>
</g>
</g>
<!-- aind_behavior_dynamic_foraging.task_logic.interventions.bias_intervention.BiasInterventionParameters&#45;&gt;aind_behavior_dynamic_foraging.task_logic.interventions.bias_intervention.BiasThreshold -->
<g id="edge1" class="edge">
<title>aind_behavior_dynamic_foraging.task_logic.interventions.bias_intervention.BiasInterventionParameters:e&#45;&gt;aind_behavior_dynamic_foraging.task_logic.interventions.bias_intervention.BiasThreshold:w</title>
<path fill="none" stroke="black" d="M761.12,-212.5C796,-212.5 810.76,-212.5 843.67,-212.5"/>
<polyline fill="none" stroke="black" points="751,-212.5 756,-212.5 "/>
<polyline fill="none" stroke="black" points="756,-212.5 761,-212.5 "/>
<polyline fill="none" stroke="black" points="859,-212.5 854,-212.5 "/>
<polygon fill="black" stroke="black" points="853,-207.5 853,-217.5 851,-217.5 851,-207.5 853,-207.5"/>
<polyline fill="none" stroke="black" points="854,-212.5 849,-212.5 "/>
<polygon fill="black" stroke="black" points="848,-207.5 848,-217.5 846,-217.5 846,-207.5 848,-207.5"/>
<polyline fill="none" stroke="black" points="849,-212.5 844,-212.5 "/>
</g>
<!-- aind_behavior_dynamic_foraging.task_logic.trial_generators.block_based_trial_generator.AutoWaterParameters -->
<g id="node3" class="node">
<title>aind_behavior_dynamic_foraging.task_logic.trial_generators.block_based_trial_generator.AutoWaterParameters</title>
<g id="a_node3"><a xlink:title="aind_behavior_dynamic_foraging.task_logic.trial_generators.block_based_trial_generator.AutoWaterParameters&#10;&#10;!!! abstract &quot;Usage Documentation&quot;&#10; &#160;&#160;&#160;[Models](../concepts/models.md)&#10;&#10;A base class for creating Pydantic models.&#10;&#10;Attributes:&#10; &#160;&#160;&#160;__class_vars__: The names of the class variables defined on the model.&#10; &#160;&#160;&#160;__private_attributes__: Metadata about the private attributes of the model.&#10; &#160;&#160;&#160;__signature__: The synthesized `__init__` [`Signature`][inspect.Signature] of the model.&#10;&#10; &#160;&#160;&#160;__pydantic_complete__: Whether model building is completed, or if there are still undefined fields.&#10; &#160;&#160;&#160;__pydantic_core_schema__: The core schema of the model.&#10; &#160;&#160;&#160;__pydantic_custom_init__: Whether the model has a custom `__init__` function.&#10; &#160;&#160;&#160;__pydantic_decorators__: Metadata containing the decorators defined on the model.&#10; &#160;&#160;&#160;&#160;&#160;&#160;&#160;This replaces `Model.__validators__` and `Model.__root_validators__` from Pydantic V1.&#10; &#160;&#160;&#160;__pydantic_generic_metadata__: Metadata for generic models; contains data used for a similar purpose to&#10; &#160;&#160;&#160;&#160;&#160;&#160;&#160;__args__, __origin__, __parameters__ in typing&#45;module generics. May eventually be replaced by these.&#10; &#160;&#160;&#160;__pydantic_parent_namespace__: Parent namespace of the model, used for automatic rebuilding of models.&#10; &#160;&#160;&#160;__pydantic_post_init__: The name of the post&#45;init method for the model, if defined.&#10; &#160;&#160;&#160;__pydantic_root_model__: Whether the model is a [`RootModel`][pydantic.root_model.RootModel].&#10; &#160;&#160;&#160;__pydantic_serializer__: The `pydantic&#45;core` `SchemaSerializer` used to dump instances of the model.&#10; &#160;&#160;&#160;__pydantic_validator__: The `pydantic&#45;core` `SchemaValidator` used to validate instances of the model.&#10;&#10; &#160;&#160;&#160;__pydantic_fields__: A dictionary of field names and their corresponding [`FieldInfo`][pydantic.fields.FieldInfo] objects.&#10; &#160;&#160;&#160;__pydantic_computed_fields__: A dictionary of computed field names and their corresponding [`ComputedFieldInfo`][pydantic.fields.ComputedFieldInfo] objects.&#10;&#10; &#160;&#160;&#160;__pydantic_extra__: A dictionary containing extra values, if [`extra`][pydantic.config.ConfigDict.extra]&#10; &#160;&#160;&#160;&#160;&#160;&#160;&#160;is set to `&#39;allow&#39;`.&#10; &#160;&#160;&#160;__pydantic_fields_set__: The names of fields explicitly set during instantiation.&#10; &#160;&#160;&#160;__pydantic_private__: Values of private attributes set on the model instance.&#10;">
<polygon fill="none" stroke="black" points="543,-342.5 543,-363.5 707,-363.5 707,-342.5 543,-342.5"/>
<text text-anchor="start" x="558.5" y="-350.3" font-family="Times New Roman,Times,Liberation Serif,serif" font-weight="bold" font-size="14.00">AutoWaterParameters</text>
<polygon fill="none" stroke="black" points="543,-321.5 543,-342.5 676,-342.5 676,-321.5 543,-321.5"/>
<text text-anchor="start" x="557.5" y="-328.3" font-family="Times New Roman,Times,Liberation Serif,serif" font-size="14.00">min_ignored_trials</text>
<polygon fill="none" stroke="black" points="676,-321.5 676,-342.5 707,-342.5 707,-321.5 676,-321.5"/>
<text text-anchor="start" x="684" y="-328.3" font-family="Times New Roman,Times,Liberation Serif,serif" font-size="14.00">int</text>
<polygon fill="none" stroke="black" points="543,-300.5 543,-321.5 676,-321.5 676,-300.5 543,-300.5"/>
<text text-anchor="start" x="546" y="-307.3" font-family="Times New Roman,Times,Liberation Serif,serif" font-size="14.00">min_unrewarded_trials</text>
<polygon fill="none" stroke="black" points="676,-300.5 676,-321.5 707,-321.5 707,-300.5 676,-300.5"/>
<text text-anchor="start" x="684" y="-307.3" font-family="Times New Roman,Times,Liberation Serif,serif" font-size="14.00">int</text>
<polygon fill="none" stroke="black" points="543,-279.5 543,-300.5 676,-300.5 676,-279.5 543,-279.5"/>
<text text-anchor="start" x="566" y="-286.3" font-family="Times New Roman,Times,Liberation Serif,serif" font-size="14.00">reward_fraction</text>
<polygon fill="none" stroke="black" points="676,-279.5 676,-300.5 707,-300.5 707,-279.5 676,-279.5"/>
<text text-anchor="start" x="679" y="-286.3" font-family="Times New Roman,Times,Liberation Serif,serif" font-size="14.00">float</text>
</a>
</g>
</g>
<!-- aind_behavior_dynamic_foraging.task_logic.trial_generators.coupled_trial_generators.base_coupled_trial_generator.BaseCoupledTrialGeneratorSpec -->
<g id="node4" class="node">
<title>aind_behavior_dynamic_foraging.task_logic.trial_generators.coupled_trial_generators.base_coupled_trial_generator.BaseCoupledTrialGeneratorSpec</title>
<g id="a_node4"><a xlink:title="aind_behavior_dynamic_foraging.task_logic.trial_generators.coupled_trial_generators.base_coupled_trial_generator.BaseCoupledTrialGeneratorSpec&#10;&#10;Base model for trial generator specifications.&#10;">
<polygon fill="none" stroke="black" points="0.5,-391.5 0.5,-412.5 391.5,-412.5 391.5,-391.5 0.5,-391.5"/>
<text text-anchor="start" x="99.5" y="-399.3" font-family="Times New Roman,Times,Liberation Serif,serif" font-weight="bold" font-size="14.00">BaseCoupledTrialGeneratorSpec</text>
<polygon fill="none" stroke="black" points="0.5,-370.5 0.5,-391.5 177.5,-391.5 177.5,-370.5 0.5,-370.5"/>
<text text-anchor="start" x="77" y="-377.3" font-family="Times New Roman,Times,Liberation Serif,serif" font-size="14.00">type</text>
<polygon fill="none" stroke="black" points="177.5,-370.5 177.5,-391.5 391.5,-391.5 391.5,-370.5 177.5,-370.5"/>
<text text-anchor="start" x="183.5" y="-377.3" font-family="Times New Roman,Times,Liberation Serif,serif" font-size="14.00">Literal[&#39;BaseCoupledTrialGenerator&#39;]</text>
<polygon fill="none" stroke="black" points="0.5,-349.5 0.5,-370.5 177.5,-370.5 177.5,-349.5 0.5,-349.5"/>
<text text-anchor="start" x="37.5" y="-356.3" font-family="Times New Roman,Times,Liberation Serif,serif" font-size="14.00">quiescent_duration</text>
<polygon fill="none" stroke="black" points="177.5,-349.5 177.5,-370.5 391.5,-370.5 391.5,-349.5 177.5,-349.5"/>
<text text-anchor="start" x="251.5" y="-356.3" font-family="Times New Roman,Times,Liberation Serif,serif" font-size="14.00">Distribution</text>
<polygon fill="none" stroke="black" points="0.5,-328.5 0.5,-349.5 177.5,-349.5 177.5,-328.5 0.5,-328.5"/>
<text text-anchor="start" x="39" y="-335.3" font-family="Times New Roman,Times,Liberation Serif,serif" font-size="14.00">response_duration</text>
<polygon fill="none" stroke="black" points="177.5,-328.5 177.5,-349.5 391.5,-349.5 391.5,-328.5 177.5,-328.5"/>
<text text-anchor="start" x="272" y="-335.3" font-family="Times New Roman,Times,Liberation Serif,serif" font-size="14.00">float</text>
<polygon fill="none" stroke="black" points="0.5,-307.5 0.5,-328.5 177.5,-328.5 177.5,-307.5 0.5,-307.5"/>
<text text-anchor="start" x="5.5" y="-314.3" font-family="Times New Roman,Times,Liberation Serif,serif" font-size="14.00">reward_consumption_duration</text>
<polygon fill="none" stroke="black" points="177.5,-307.5 177.5,-328.5 391.5,-328.5 391.5,-307.5 177.5,-307.5"/>
<text text-anchor="start" x="272" y="-314.3" font-family="Times New Roman,Times,Liberation Serif,serif" font-size="14.00">float</text>
<polygon fill="none" stroke="black" points="0.5,-286.5 0.5,-307.5 177.5,-307.5 177.5,-286.5 0.5,-286.5"/>
<text text-anchor="start" x="12" y="-293.3" font-family="Times New Roman,Times,Liberation Serif,serif" font-size="14.00">inter_trial_interval_duration</text>
<polygon fill="none" stroke="black" points="177.5,-286.5 177.5,-307.5 391.5,-307.5 391.5,-286.5 177.5,-286.5"/>
<text text-anchor="start" x="251.5" y="-293.3" font-family="Times New Roman,Times,Liberation Serif,serif" font-size="14.00">Distribution</text>
<polygon fill="none" stroke="black" points="0.5,-265.5 0.5,-286.5 177.5,-286.5 177.5,-265.5 0.5,-265.5"/>
<text text-anchor="start" x="53.5" y="-272.3" font-family="Times New Roman,Times,Liberation Serif,serif" font-size="14.00">block_length</text>
<polygon fill="none" stroke="black" points="177.5,-265.5 177.5,-286.5 391.5,-286.5 391.5,-265.5 177.5,-265.5"/>
<text text-anchor="start" x="251.5" y="-272.3" font-family="Times New Roman,Times,Liberation Serif,serif" font-size="14.00">Distribution</text>
<polygon fill="none" stroke="black" points="0.5,-244.5 0.5,-265.5 177.5,-265.5 177.5,-244.5 0.5,-244.5"/>
<text text-anchor="start" x="28.5" y="-251.3" font-family="Times New Roman,Times,Liberation Serif,serif" font-size="14.00">autowater_parameters</text>
<polygon fill="none" stroke="black" points="177.5,-244.5 177.5,-265.5 391.5,-265.5 391.5,-244.5 177.5,-244.5"/>
<text text-anchor="start" x="196" y="-251.3" font-family="Times New Roman,Times,Liberation Serif,serif" font-size="14.00">Optional[AutoWaterParameters]</text>
<polygon fill="none" stroke="black" points="0.5,-223.5 0.5,-244.5 177.5,-244.5 177.5,-223.5 0.5,-223.5"/>
<text text-anchor="start" x="8.5" y="-230.3" font-family="Times New Roman,Times,Liberation Serif,serif" font-size="14.00">bias_intervention_parameters</text>
<polygon fill="none" stroke="black" points="177.5,-223.5 177.5,-244.5 391.5,-244.5 391.5,-223.5 177.5,-223.5"/>
<text text-anchor="start" x="180.5" y="-230.3" font-family="Times New Roman,Times,Liberation Serif,serif" font-size="14.00">Optional[BiasInterventionParameters]</text>
<polygon fill="none" stroke="black" points="0.5,-202.5 0.5,-223.5 177.5,-223.5 177.5,-202.5 0.5,-202.5"/>
<text text-anchor="start" x="62" y="-209.3" font-family="Times New Roman,Times,Liberation Serif,serif" font-size="14.00">is_baiting</text>
<polygon fill="none" stroke="black" points="177.5,-202.5 177.5,-223.5 391.5,-223.5 391.5,-202.5 177.5,-202.5"/>
<text text-anchor="start" x="272" y="-209.3" font-family="Times New Roman,Times,Liberation Serif,serif" font-size="14.00">bool</text>
<polygon fill="none" stroke="black" points="0.5,-181.5 0.5,-202.5 177.5,-202.5 177.5,-181.5 0.5,-181.5"/>
<text text-anchor="start" x="3.5" y="-188.3" font-family="Times New Roman,Times,Liberation Serif,serif" font-size="14.00">reward_probability_parameters</text>
<polygon fill="none" stroke="black" points="177.5,-181.5 177.5,-202.5 391.5,-202.5 391.5,-181.5 177.5,-181.5"/>
<text text-anchor="start" x="203" y="-188.3" font-family="Times New Roman,Times,Liberation Serif,serif" font-size="14.00">RewardProbabilityParameters</text>
</a>
</g>
</g>
<!-- aind_behavior_dynamic_foraging.task_logic.trial_generators.coupled_trial_generators.base_coupled_trial_generator.BaseCoupledTrialGeneratorSpec&#45;&gt;aind_behavior_dynamic_foraging.task_logic.interventions.bias_intervention.BiasInterventionParameters -->
<g id="edge2" class="edge">
<title>aind_behavior_dynamic_foraging.task_logic.trial_generators.coupled_trial_generators.base_coupled_trial_generator.BaseCoupledTrialGeneratorSpec:e&#45;&gt;aind_behavior_dynamic_foraging.task_logic.interventions.bias_intervention.BiasInterventionParameters:w</title>
<path fill="none" stroke="black" d="M401.12,-233.5C434.91,-233.5 449.81,-233.5 480.64,-233.5"/>
<polyline fill="none" stroke="black" points="391,-233.5 396,-233.5 "/>
<polyline fill="none" stroke="black" points="396,-233.5 401,-233.5 "/>
<polyline fill="none" stroke="black" points="499,-233.5 494,-233.5 "/>
<polygon fill="black" stroke="black" points="493,-228.5 493,-238.5 491,-238.5 491,-228.5 493,-228.5"/>
<polyline fill="none" stroke="black" points="494,-233.5 489,-233.5 "/>
<ellipse fill="none" stroke="black" cx="485" cy="-233.5" rx="4" ry="4"/>
</g>
<!-- aind_behavior_dynamic_foraging.task_logic.trial_generators.coupled_trial_generators.base_coupled_trial_generator.BaseCoupledTrialGeneratorSpec&#45;&gt;aind_behavior_dynamic_foraging.task_logic.trial_generators.block_based_trial_generator.AutoWaterParameters -->
<g id="edge3" class="edge">
<title>aind_behavior_dynamic_foraging.task_logic.trial_generators.coupled_trial_generators.base_coupled_trial_generator.BaseCoupledTrialGeneratorSpec:e&#45;&gt;aind_behavior_dynamic_foraging.task_logic.trial_generators.block_based_trial_generator.AutoWaterParameters:w</title>
<path fill="none" stroke="black" d="M401.29,-255.08C464.62,-262.5 465.7,-338.59 523.95,-351.61"/>
<polyline fill="none" stroke="black" points="391,-254.5 395.99,-254.78 "/>
<polyline fill="none" stroke="black" points="395.99,-254.78 400.98,-255.06 "/>
<polyline fill="none" stroke="black" points="542,-353.5 537.03,-352.98 "/>
<polygon fill="black" stroke="black" points="536.55,-347.9 535.51,-357.85 533.52,-357.64 534.56,-347.69 536.55,-347.9"/>
<polyline fill="none" stroke="black" points="537.03,-352.98 532.05,-352.46 "/>
<ellipse fill="none" stroke="black" cx="528.08" cy="-352.04" rx="4" ry="4"/>
</g>
<!-- aind_behavior_dynamic_foraging.task_logic.trial_generators.coupled_trial_generators.base_coupled_trial_generator.RewardProbabilityParameters -->
<g id="node5" class="node">
<title>aind_behavior_dynamic_foraging.task_logic.trial_generators.coupled_trial_generators.base_coupled_trial_generator.RewardProbabilityParameters</title>
<g id="a_node5"><a xlink:title="aind_behavior_dynamic_foraging.task_logic.trial_generators.coupled_trial_generators.base_coupled_trial_generator.RewardProbabilityParameters&#10;&#10;Defines the reward probability structure for a dynamic foraging task.&#10;&#10;Reward probabilities are defined as pairs (p_left, p_right) normalized by&#10;base_reward_sum. Pairs are drawn from a family representing a difficulty level:&#10;&#10; &#160;&#160;&#160;Family 1: &#160;&#160;[[8, 1], [6, 1], [3, 1], [1, 1]]&#10; &#160;&#160;&#160;Family 2: &#160;[[8, 1], [1, 1]]&#10; &#160;&#160;&#160;Family 3: &#160;[[1.0, 0.0], [0.9, 0.1], [0.8, 0.2], [0.7, 0.3], [0.6, 0.4], [0.5, 0.5]]&#10; &#160;&#160;&#160;Family 4: &#160;[[6, 1], [3, 1], [1, 1]]&#10;">
<polygon fill="none" stroke="black" points="532,-59.5 532,-80.5 719,-80.5 719,-59.5 532,-59.5"/>
<text text-anchor="start" x="536" y="-67.3" font-family="Times New Roman,Times,Liberation Serif,serif" font-weight="bold" font-size="14.00">RewardProbabilityParameters</text>
<polygon fill="none" stroke="black" points="532,-38.5 532,-59.5 637,-59.5 637,-38.5 532,-38.5"/>
<text text-anchor="start" x="535" y="-45.3" font-family="Times New Roman,Times,Liberation Serif,serif" font-size="14.00">base_reward_sum</text>
<polygon fill="none" stroke="black" points="637,-38.5 637,-59.5 719,-59.5 719,-38.5 637,-38.5"/>
<text text-anchor="start" x="665.5" y="-45.3" font-family="Times New Roman,Times,Liberation Serif,serif" font-size="14.00">float</text>
<polygon fill="none" stroke="black" points="532,-17.5 532,-38.5 637,-38.5 637,-17.5 532,-17.5"/>
<text text-anchor="start" x="549" y="-24.3" font-family="Times New Roman,Times,Liberation Serif,serif" font-size="14.00">reward_pairs</text>
<polygon fill="none" stroke="black" points="637,-17.5 637,-38.5 719,-38.5 719,-17.5 637,-17.5"/>
<text text-anchor="start" x="640" y="-24.3" font-family="Times New Roman,Times,Liberation Serif,serif" font-size="14.00">list[list[float]]</text>
</a>
</g>
</g>
<!-- aind_behavior_dynamic_foraging.task_logic.trial_generators.coupled_trial_generators.base_coupled_trial_generator.BaseCoupledTrialGeneratorSpec&#45;&gt;aind_behavior_dynamic_foraging.task_logic.trial_generators.coupled_trial_generators.base_coupled_trial_generator.RewardProbabilityParameters -->
<g id="edge4" class="edge">
<title>aind_behavior_dynamic_foraging.task_logic.trial_generators.coupled_trial_generators.base_coupled_trial_generator.BaseCoupledTrialGeneratorSpec:e&#45;&gt;aind_behavior_dynamic_foraging.task_logic.trial_generators.coupled_trial_generators.base_coupled_trial_generator.RewardProbabilityParameters:w</title>
<path fill="none" stroke="black" d="M401.03,-190.85C466.39,-181.99 454.53,-85.58 515.78,-72.07"/>
<polyline fill="none" stroke="black" points="391,-191.5 395.99,-191.18 "/>
<polyline fill="none" stroke="black" points="395.99,-191.18 400.98,-190.85 "/>
<polyline fill="none" stroke="black" points="531,-70.5 526.03,-71.01 "/>
<polygon fill="black" stroke="black" points="524.52,-66.14 525.54,-76.09 523.56,-76.29 522.53,-66.35 524.52,-66.14"/>
<polyline fill="none" stroke="black" points="526.03,-71.01 521.05,-71.53 "/>
<polygon fill="black" stroke="black" points="519.54,-66.66 520.57,-76.6 518.58,-76.81 517.56,-66.86 519.54,-66.66"/>
<polyline fill="none" stroke="black" points="521.05,-71.53 516.08,-72.04 "/>
</g>
</g>
</svg>
