<?xml version="1.0" encoding="UTF-8" standalone="no"?>
<!DOCTYPE svg PUBLIC "-//W3C//DTD SVG 1.1//EN"
 "http://www.w3.org/Graphics/SVG/1.1/DTD/svg11.dtd">
<!-- Generated by graphviz version 2.43.0 (0)
 -->
<!-- Title: Entity Relationship Diagram created by erdantic Pages: 1 -->
<svg width="688pt" height="318pt"
 viewBox="0.00 0.00 688.00 317.50" xmlns="http://www.w3.org/2000/svg" xmlns:xlink="http://www.w3.org/1999/xlink">
<g id="graph0" class="graph" transform="scale(1 1) rotate(0) translate(4 313.5)">
<title>Entity Relationship Diagram created by erdantic</title>
<polygon fill="white" stroke="transparent" points="-4,4 -4,-313.5 684,-313.5 684,4 -4,4"/>
<text text-anchor="middle" x="340" y="-6.8" font-family="Times New Roman,Times,Liberation Serif,serif" font-size="9.00" fill="#a8a8a8">Created by erdantic v1.2.1 &lt;https://github.com/drivendataorg/erdantic&gt;</text>
<!-- aind_behavior_dynamic_foraging.task_logic.trial_generators.block_based_trial_generator.AutoWaterParameters -->
<g id="node1" class="node">
<title>aind_behavior_dynamic_foraging.task_logic.trial_generators.block_based_trial_generator.AutoWaterParameters</title>
<g id="a_node1"><a xlink:title="aind_behavior_dynamic_foraging.task_logic.trial_generators.block_based_trial_generator.AutoWaterParameters&#10;&#10;!!! abstract &quot;Usage Documentation&quot;&#10; &#160;&#160;&#160;[Models](../concepts/models.md)&#10;&#10;A base class for creating Pydantic models.&#10;&#10;Attributes:&#10; &#160;&#160;&#160;__class_vars__: The names of the class variables defined on the model.&#10; &#160;&#160;&#160;__private_attributes__: Metadata about the private attributes of the model.&#10; &#160;&#160;&#160;__signature__: The synthesized `__init__` [`Signature`][inspect.Signature] of the model.&#10;&#10; &#160;&#160;&#160;__pydantic_complete__: Whether model building is completed, or if there are still undefined fields.&#10; &#160;&#160;&#160;__pydantic_core_schema__: The core schema of the model.&#10; &#160;&#160;&#160;__pydantic_custom_init__: Whether the model has a custom `__init__` function.&#10; &#160;&#160;&#160;__pydantic_decorators__: Metadata containing the decorators defined on the model.&#10; &#160;&#160;&#160;&#160;&#160;&#160;&#160;This replaces `Model.__validators__` and `Model.__root_validators__` from Pydantic V1.&#10; &#160;&#160;&#160;__pydantic_generic_metadata__: Metadata for generic models; contains data used for a similar purpose to&#10; &#160;&#160;&#160;&#160;&#160;&#160;&#160;__args__, __origin__, __parameters__ in typing&#45;module generics. May eventually be replaced by these.&#10; &#160;&#160;&#160;__pydantic_parent_namespace__: Parent namespace of the model, used for automatic rebuilding of models.&#10; &#160;&#160;&#160;__pydantic_post_init__: The name of the post&#45;init method for the model, if defined.&#10; &#160;&#160;&#160;__pydantic_root_model__: Whether the model is a [`RootModel`][pydantic.root_model.RootModel].&#10; &#160;&#160;&#160;__pydantic_serializer__: The `pydantic&#45;core` `SchemaSerializer` used to dump instances of the model.&#10; &#160;&#160;&#160;__pydantic_validator__: The `pydantic&#45;core` `SchemaValidator` used to validate instances of the model.&#10;&#10; &#160;&#160;&#160;__pydantic_fields__: A dictionary of field names and their corresponding [`FieldInfo`][pydantic.fields.FieldInfo] objects.&#10; &#160;&#160;&#160;__pydantic_computed_fields__: A dictionary of computed field names and their corresponding [`ComputedFieldInfo`][pydantic.fields.ComputedFieldInfo] objects.&#10;&#10; &#160;&#160;&#160;__pydantic_extra__: A dictionary containing extra values, if [`extra`][pydantic.config.ConfigDict.extra]&#10; &#160;&#160;&#160;&#160;&#160;&#160;&#160;is set to `&#39;allow&#39;`.&#10; &#160;&#160;&#160;__pydantic_fields_set__: The names of fields explicitly set during instantiation.&#10; &#160;&#160;&#160;__pydantic_private__: Values of private attributes set on the model instance.&#10;">
<polygon fill="none" stroke="black" points="504.5,-180.5 504.5,-201.5 668.5,-201.5 668.5,-180.5 504.5,-180.5"/>
<text text-anchor="start" x="520" y="-188.3" font-family="Times New Roman,Times,Liberation Serif,serif" font-weight="bold" font-size="14.00">AutoWaterParameters</text>
<polygon fill="none" stroke="black" points="504.5,-159.5 504.5,-180.5 637.5,-180.5 637.5,-159.5 504.5,-159.5"/>
<text text-anchor="start" x="519" y="-166.3" font-family="Times New Roman,Times,Liberation Serif,serif" font-size="14.00">min_ignored_trials</text>
<polygon fill="none" stroke="black" points="637.5,-159.5 637.5,-180.5 668.5,-180.5 668.5,-159.5 637.5,-159.5"/>
<text text-anchor="start" x="645.5" y="-166.3" font-family="Times New Roman,Times,Liberation Serif,serif" font-size="14.00">int</text>
<polygon fill="none" stroke="black" points="504.5,-138.5 504.5,-159.5 637.5,-159.5 637.5,-138.5 504.5,-138.5"/>
<text text-anchor="start" x="507.5" y="-145.3" font-family="Times New Roman,Times,Liberation Serif,serif" font-size="14.00">min_unrewarded_trials</text>
<polygon fill="none" stroke="black" points="637.5,-138.5 637.5,-159.5 668.5,-159.5 668.5,-138.5 637.5,-138.5"/>
<text text-anchor="start" x="645.5" y="-145.3" font-family="Times New Roman,Times,Liberation Serif,serif" font-size="14.00">int</text>
<polygon fill="none" stroke="black" points="504.5,-117.5 504.5,-138.5 637.5,-138.5 637.5,-117.5 504.5,-117.5"/>
<text text-anchor="start" x="527.5" y="-124.3" font-family="Times New Roman,Times,Liberation Serif,serif" font-size="14.00">reward_fraction</text>
<polygon fill="none" stroke="black" points="637.5,-117.5 637.5,-138.5 668.5,-138.5 668.5,-117.5 637.5,-117.5"/>
<text text-anchor="start" x="640.5" y="-124.3" font-family="Times New Roman,Times,Liberation Serif,serif" font-size="14.00">float</text>
</a>
</g>
</g>
<!-- aind_behavior_dynamic_foraging.task_logic.trial_generators.coupled_trial_generators.base_coupled_trial_generator.BaseCoupledTrialGeneratorSpec -->
<g id="node2" class="node">
<title>aind_behavior_dynamic_foraging.task_logic.trial_generators.coupled_trial_generators.base_coupled_trial_generator.BaseCoupledTrialGeneratorSpec</title>
<g id="a_node2"><a xlink:title="aind_behavior_dynamic_foraging.task_logic.trial_generators.coupled_trial_generators.base_coupled_trial_generator.BaseCoupledTrialGeneratorSpec&#10;&#10;Base model for trial generator specifications.&#10;">
<polygon fill="none" stroke="black" points="0.5,-288.5 0.5,-309.5 385.5,-309.5 385.5,-288.5 0.5,-288.5"/>
<text text-anchor="start" x="96.5" y="-296.3" font-family="Times New Roman,Times,Liberation Serif,serif" font-weight="bold" font-size="14.00">BaseCoupledTrialGeneratorSpec</text>
<polygon fill="none" stroke="black" points="0.5,-267.5 0.5,-288.5 177.5,-288.5 177.5,-267.5 0.5,-267.5"/>
<text text-anchor="start" x="77" y="-274.3" font-family="Times New Roman,Times,Liberation Serif,serif" font-size="14.00">type</text>
<polygon fill="none" stroke="black" points="177.5,-267.5 177.5,-288.5 385.5,-288.5 385.5,-267.5 177.5,-267.5"/>
<text text-anchor="start" x="180.5" y="-274.3" font-family="Times New Roman,Times,Liberation Serif,serif" font-size="14.00">Literal[&#39;BaseCoupledTrialGenerator&#39;]</text>
<polygon fill="none" stroke="black" points="0.5,-246.5 0.5,-267.5 177.5,-267.5 177.5,-246.5 0.5,-246.5"/>
<text text-anchor="start" x="37.5" y="-253.3" font-family="Times New Roman,Times,Liberation Serif,serif" font-size="14.00">quiescent_duration</text>
<polygon fill="none" stroke="black" points="177.5,-246.5 177.5,-267.5 385.5,-267.5 385.5,-246.5 177.5,-246.5"/>
<text text-anchor="start" x="248.5" y="-253.3" font-family="Times New Roman,Times,Liberation Serif,serif" font-size="14.00">Distribution</text>
<polygon fill="none" stroke="black" points="0.5,-225.5 0.5,-246.5 177.5,-246.5 177.5,-225.5 0.5,-225.5"/>
<text text-anchor="start" x="39" y="-232.3" font-family="Times New Roman,Times,Liberation Serif,serif" font-size="14.00">response_duration</text>
<polygon fill="none" stroke="black" points="177.5,-225.5 177.5,-246.5 385.5,-246.5 385.5,-225.5 177.5,-225.5"/>
<text text-anchor="start" x="269" y="-232.3" font-family="Times New Roman,Times,Liberation Serif,serif" font-size="14.00">float</text>
<polygon fill="none" stroke="black" points="0.5,-204.5 0.5,-225.5 177.5,-225.5 177.5,-204.5 0.5,-204.5"/>
<text text-anchor="start" x="5.5" y="-211.3" font-family="Times New Roman,Times,Liberation Serif,serif" font-size="14.00">reward_consumption_duration</text>
<polygon fill="none" stroke="black" points="177.5,-204.5 177.5,-225.5 385.5,-225.5 385.5,-204.5 177.5,-204.5"/>
<text text-anchor="start" x="269" y="-211.3" font-family="Times New Roman,Times,Liberation Serif,serif" font-size="14.00">float</text>
<polygon fill="none" stroke="black" points="0.5,-183.5 0.5,-204.5 177.5,-204.5 177.5,-183.5 0.5,-183.5"/>
<text text-anchor="start" x="12" y="-190.3" font-family="Times New Roman,Times,Liberation Serif,serif" font-size="14.00">inter_trial_interval_duration</text>
<polygon fill="none" stroke="black" points="177.5,-183.5 177.5,-204.5 385.5,-204.5 385.5,-183.5 177.5,-183.5"/>
<text text-anchor="start" x="248.5" y="-190.3" font-family="Times New Roman,Times,Liberation Serif,serif" font-size="14.00">Distribution</text>
<polygon fill="none" stroke="black" points="0.5,-162.5 0.5,-183.5 177.5,-183.5 177.5,-162.5 0.5,-162.5"/>
<text text-anchor="start" x="53.5" y="-169.3" font-family="Times New Roman,Times,Liberation Serif,serif" font-size="14.00">block_length</text>
<polygon fill="none" stroke="black" points="177.5,-162.5 177.5,-183.5 385.5,-183.5 385.5,-162.5 177.5,-162.5"/>
<text text-anchor="start" x="248.5" y="-169.3" font-family="Times New Roman,Times,Liberation Serif,serif" font-size="14.00">Distribution</text>
<polygon fill="none" stroke="black" points="0.5,-141.5 0.5,-162.5 177.5,-162.5 177.5,-141.5 0.5,-141.5"/>
<text text-anchor="start" x="28.5" y="-148.3" font-family="Times New Roman,Times,Liberation Serif,serif" font-size="14.00">autowater_parameters</text>
<polygon fill="none" stroke="black" points="177.5,-141.5 177.5,-162.5 385.5,-162.5 385.5,-141.5 177.5,-141.5"/>
<text text-anchor="start" x="193" y="-148.3" font-family="Times New Roman,Times,Liberation Serif,serif" font-size="14.00">Optional[AutoWaterParameters]</text>
<polygon fill="none" stroke="black" points="0.5,-120.5 0.5,-141.5 177.5,-141.5 177.5,-120.5 0.5,-120.5"/>
<text text-anchor="start" x="62" y="-127.3" font-family="Times New Roman,Times,Liberation Serif,serif" font-size="14.00">is_baiting</text>
<polygon fill="none" stroke="black" points="177.5,-120.5 177.5,-141.5 385.5,-141.5 385.5,-120.5 177.5,-120.5"/>
<text text-anchor="start" x="269" y="-127.3" font-family="Times New Roman,Times,Liberation Serif,serif" font-size="14.00">bool</text>
<polygon fill="none" stroke="black" points="0.5,-99.5 0.5,-120.5 177.5,-120.5 177.5,-99.5 0.5,-99.5"/>
<text text-anchor="start" x="3.5" y="-106.3" font-family="Times New Roman,Times,Liberation Serif,serif" font-size="14.00">reward_probability_parameters</text>
<polygon fill="none" stroke="black" points="177.5,-99.5 177.5,-120.5 385.5,-120.5 385.5,-99.5 177.5,-99.5"/>
<text text-anchor="start" x="200" y="-106.3" font-family="Times New Roman,Times,Liberation Serif,serif" font-size="14.00">RewardProbabilityParameters</text>
</a>
</g>
</g>
<!-- aind_behavior_dynamic_foraging.task_logic.trial_generators.coupled_trial_generators.base_coupled_trial_generator.BaseCoupledTrialGeneratorSpec&#45;&gt;aind_behavior_dynamic_foraging.task_logic.trial_generators.block_based_trial_generator.AutoWaterParameters -->
<g id="edge1" class="edge">
<title>aind_behavior_dynamic_foraging.task_logic.trial_generators.coupled_trial_generators.base_coupled_trial_generator.BaseCoupledTrialGeneratorSpec:e&#45;&gt;aind_behavior_dynamic_foraging.task_logic.trial_generators.block_based_trial_generator.AutoWaterParameters:w</title>
<path fill="none" stroke="black" d="M395.17,-151.98C435.73,-155.91 448.37,-182.98 485.33,-189.9"/>
<polyline fill="none" stroke="black" points="385,-151.5 389.99,-151.73 "/>
<polyline fill="none" stroke="black" points="389.99,-151.73 394.99,-151.97 "/>
<polyline fill="none" stroke="black" points="503.5,-191.5 498.52,-191.06 "/>
<polygon fill="black" stroke="black" points="497.96,-185.99 497.08,-195.95 495.09,-195.78 495.97,-185.82 497.96,-185.99"/>
<polyline fill="none" stroke="black" points="498.52,-191.06 493.54,-190.62 "/>
<ellipse fill="none" stroke="black" cx="489.55" cy="-190.27" rx="4" ry="4"/>
</g>
<!-- aind_behavior_dynamic_foraging.task_logic.trial_generators.coupled_trial_generators.base_coupled_trial_generator.RewardProbabilityParameters -->
<g id="node3" class="node">
<title>aind_behavior_dynamic_foraging.task_logic.trial_generators.coupled_trial_generators.base_coupled_trial_generator.RewardProbabilityParameters</title>
<g id="a_node3"><a xlink:title="aind_behavior_dynamic_foraging.task_logic.trial_generators.coupled_trial_generators.base_coupled_trial_generator.RewardProbabilityParameters&#10;&#10;Defines the reward probability structure for a dynamic foraging task.&#10;&#10;Reward probabilities are defined as pairs (p_left, p_right) normalized by&#10;base_reward_sum. Pairs are drawn from a family representing a difficulty level:&#10;&#10; &#160;&#160;&#160;Family 1: &#160;&#160;[[8, 1], [6, 1], [3, 1], [1, 1]]&#10; &#160;&#160;&#160;Family 2: &#160;[[8, 1], [1, 1]]&#10; &#160;&#160;&#160;Family 3: &#160;[[1.0, 0.0], [0.9, 0.1], [0.8, 0.2], [0.7, 0.3], [0.6, 0.4], [0.5, 0.5]]&#10; &#160;&#160;&#160;Family 4: &#160;[[6, 1], [3, 1], [1, 1]]&#10;">
<polygon fill="none" stroke="black" points="493.5,-59.5 493.5,-80.5 680.5,-80.5 680.5,-59.5 493.5,-59.5"/>
<text text-anchor="start" x="497.5" y="-67.3" font-family="Times New Roman,Times,Liberation Serif,serif" font-weight="bold" font-size="14.00">RewardProbabilityParameters</text>
<polygon fill="none" stroke="black" points="493.5,-38.5 493.5,-59.5 598.5,-59.5 598.5,-38.5 493.5,-38.5"/>
<text text-anchor="start" x="496.5" y="-45.3" font-family="Times New Roman,Times,Liberation Serif,serif" font-size="14.00">base_reward_sum</text>
<polygon fill="none" stroke="black" points="598.5,-38.5 598.5,-59.5 680.5,-59.5 680.5,-38.5 598.5,-38.5"/>
<text text-anchor="start" x="627" y="-45.3" font-family="Times New Roman,Times,Liberation Serif,serif" font-size="14.00">float</text>
<polygon fill="none" stroke="black" points="493.5,-17.5 493.5,-38.5 598.5,-38.5 598.5,-17.5 493.5,-17.5"/>
<text text-anchor="start" x="510.5" y="-24.3" font-family="Times New Roman,Times,Liberation Serif,serif" font-size="14.00">reward_pairs</text>
<polygon fill="none" stroke="black" points="598.5,-17.5 598.5,-38.5 680.5,-38.5 680.5,-17.5 598.5,-17.5"/>
<text text-anchor="start" x="601.5" y="-24.3" font-family="Times New Roman,Times,Liberation Serif,serif" font-size="14.00">list[list[float]]</text>
</a>
</g>
</g>
<!-- aind_behavior_dynamic_foraging.task_logic.trial_generators.coupled_trial_generators.base_coupled_trial_generator.BaseCoupledTrialGeneratorSpec&#45;&gt;aind_behavior_dynamic_foraging.task_logic.trial_generators.coupled_trial_generators.base_coupled_trial_generator.RewardProbabilityParameters -->
<g id="edge2" class="edge">
<title>aind_behavior_dynamic_foraging.task_logic.trial_generators.coupled_trial_generators.base_coupled_trial_generator.BaseCoupledTrialGeneratorSpec:e&#45;&gt;aind_behavior_dynamic_foraging.task_logic.trial_generators.coupled_trial_generators.base_coupled_trial_generator.RewardProbabilityParameters:w</title>
<path fill="none" stroke="black" d="M395.13,-108.95C432.17,-104.76 443.11,-78 477.81,-71.79"/>
<polyline fill="none" stroke="black" points="385,-109.5 389.99,-109.23 "/>
<polyline fill="none" stroke="black" points="389.99,-109.23 394.99,-108.96 "/>
<polyline fill="none" stroke="black" points="493,-70.5 488.02,-70.92 "/>
<polygon fill="black" stroke="black" points="486.6,-66.02 487.44,-75.99 485.45,-76.16 484.61,-66.19 486.6,-66.02"/>
<polyline fill="none" stroke="black" points="488.02,-70.92 483.04,-71.34 "/>
<polygon fill="black" stroke="black" points="481.62,-66.45 482.46,-76.41 480.47,-76.58 479.62,-66.62 481.62,-66.45"/>
<polyline fill="none" stroke="black" points="483.04,-71.34 478.05,-71.77 "/>
</g>
</g>
</svg>
