<?xml version="1.0" encoding="UTF-8" standalone="no"?>
<!DOCTYPE svg PUBLIC "-//W3C//DTD SVG 1.1//EN"
 "http://www.w3.org/Graphics/SVG/1.1/DTD/svg11.dtd">
<!-- Generated by graphviz version 14.1.5 (20260411.2331)
 -->
<!-- Title: Entity Relationship Diagram created by erdantic Pages: 1 -->
<svg width="986pt" height="548pt"
 viewBox="0.00 0.00 986.00 548.00" xmlns="http://www.w3.org/2000/svg" xmlns:xlink="http://www.w3.org/1999/xlink">
<g id="graph0" class="graph" transform="scale(1 1) rotate(0) translate(4 544.25)">
<title>Entity Relationship Diagram created by erdantic</title>
<polygon fill="white" stroke="none" points="-4,4 -4,-544.25 982,-544.25 982,4 -4,4"/>
<text xml:space="preserve" text-anchor="middle" x="489" y="-5.95" font-family="Times New Roman,Times,Liberation Serif,serif" font-size="9.00" fill="#a8a8a8">Created by erdantic v1.2.1 &lt;https://github.com/drivendataorg/erdantic&gt;</text>
<!-- aind_behavior_dynamic_foraging.task_logic.interventions.bias_intervention.BiasInterventionParameters -->
<g id="node1" class="node">
<title>aind_behavior_dynamic_foraging.task_logic.interventions.bias_intervention.BiasInterventionParameters</title>
<g id="a_node1"><a xlink:title="aind_behavior_dynamic_foraging.task_logic.interventions.bias_intervention.BiasInterventionParameters&#10;&#10;!!! abstract &quot;Usage Documentation&quot;&#10; &#160;&#160;&#160;[Models](../concepts/models.md)&#10;&#10;A base class for creating Pydantic models.&#10;&#10;Attributes:&#10; &#160;&#160;&#160;__class_vars__: The names of the class variables defined on the model.&#10; &#160;&#160;&#160;__private_attributes__: Metadata about the private attributes of the model.&#10; &#160;&#160;&#160;__signature__: The synthesized `__init__` [`Signature`][inspect.Signature] of the model.&#10;&#10; &#160;&#160;&#160;__pydantic_complete__: Whether model building is completed, or if there are still undefined fields.&#10; &#160;&#160;&#160;__pydantic_core_schema__: The core schema of the model.&#10; &#160;&#160;&#160;__pydantic_custom_init__: Whether the model has a custom `__init__` function.&#10; &#160;&#160;&#160;__pydantic_decorators__: Metadata containing the decorators defined on the model.&#10; &#160;&#160;&#160;&#160;&#160;&#160;&#160;This replaces `Model.__validators__` and `Model.__root_validators__` from Pydantic V1.&#10; &#160;&#160;&#160;__pydantic_generic_metadata__: Metadata for generic models; contains data used for a similar purpose to&#10; &#160;&#160;&#160;&#160;&#160;&#160;&#160;__args__, __origin__, __parameters__ in typing&#45;module generics. May eventually be replaced by these.&#10; &#160;&#160;&#160;__pydantic_parent_namespace__: Parent namespace of the model, used for automatic rebuilding of models.&#10; &#160;&#160;&#160;__pydantic_post_init__: The name of the post&#45;init method for the model, if defined.&#10; &#160;&#160;&#160;__pydantic_root_model__: Whether the model is a [`RootModel`][pydantic.root_model.RootModel].&#10; &#160;&#160;&#160;__pydantic_serializer__: The `pydantic&#45;core` `SchemaSerializer` used to dump instances of the model.&#10; &#160;&#160;&#160;__pydantic_validator__: The `pydantic&#45;core` `SchemaValidator` used to validate instances of the model.&#10;&#10; &#160;&#160;&#160;__pydantic_fields__: A dictionary of field names and their corresponding [`FieldInfo`][pydantic.fields.FieldInfo] objects.&#10; &#160;&#160;&#160;__pydantic_computed_fields__: A dictionary of computed field names and their corresponding [`ComputedFieldInfo`][pydantic.fields.ComputedFieldInfo] objects.&#10;&#10; &#160;&#160;&#160;__pydantic_extra__: A dictionary containing extra values, if [`extra`][pydantic.config.ConfigDict.extra]&#10; &#160;&#160;&#160;&#160;&#160;&#160;&#160;is set to `&#39;allow&#39;`.&#10; &#160;&#160;&#160;__pydantic_fields_set__: The names of fields explicitly set during instantiation.&#10; &#160;&#160;&#160;__pydantic_private__: Values of private attributes set on the model instance.&#10;">
<polygon fill="none" stroke="black" points="513,-279.75 513,-302.25 774.75,-302.25 774.75,-279.75 513,-279.75"/>
<text xml:space="preserve" text-anchor="start" x="558" y="-286.95" font-family="Times New Roman,Times,Liberation Serif,serif" font-weight="bold" font-size="14.00">BiasInterventionParameters</text>
<polygon fill="none" stroke="black" points="513,-257.25 513,-279.75 685.5,-279.75 685.5,-257.25 513,-257.25"/>
<text xml:space="preserve" text-anchor="start" x="572.62" y="-264" font-family="Times New Roman,Times,Liberation Serif,serif" font-size="14.00">threshold</text>
<polygon fill="none" stroke="black" points="685.5,-257.25 685.5,-279.75 774.75,-279.75 774.75,-257.25 685.5,-257.25"/>
<text xml:space="preserve" text-anchor="start" x="688.5" y="-264" font-family="Times New Roman,Times,Liberation Serif,serif" font-size="14.00">BiasThreshold</text>
<polygon fill="none" stroke="black" points="513,-234.75 513,-257.25 685.5,-257.25 685.5,-234.75 513,-234.75"/>
<text xml:space="preserve" text-anchor="start" x="539.62" y="-241.5" font-family="Times New Roman,Times,Liberation Serif,serif" font-size="14.00">intervention_interval</text>
<polygon fill="none" stroke="black" points="685.5,-234.75 685.5,-257.25 774.75,-257.25 774.75,-234.75 685.5,-234.75"/>
<text xml:space="preserve" text-anchor="start" x="722.62" y="-241.5" font-family="Times New Roman,Times,Liberation Serif,serif" font-size="14.00">int</text>
<polygon fill="none" stroke="black" points="513,-212.25 513,-234.75 685.5,-234.75 685.5,-212.25 513,-212.25"/>
<text xml:space="preserve" text-anchor="start" x="516" y="-219" font-family="Times New Roman,Times,Liberation Serif,serif" font-size="14.00">maximum_water_corrections</text>
<polygon fill="none" stroke="black" points="685.5,-212.25 685.5,-234.75 774.75,-234.75 774.75,-212.25 685.5,-212.25"/>
<text xml:space="preserve" text-anchor="start" x="722.62" y="-219" font-family="Times New Roman,Times,Liberation Serif,serif" font-size="14.00">int</text>
<polygon fill="none" stroke="black" points="513,-189.75 513,-212.25 685.5,-212.25 685.5,-189.75 513,-189.75"/>
<text xml:space="preserve" text-anchor="start" x="538.88" y="-196.5" font-family="Times New Roman,Times,Liberation Serif,serif" font-size="14.00">bias_window_length</text>
<polygon fill="none" stroke="black" points="685.5,-189.75 685.5,-212.25 774.75,-212.25 774.75,-189.75 685.5,-189.75"/>
<text xml:space="preserve" text-anchor="start" x="722.62" y="-196.5" font-family="Times New Roman,Times,Liberation Serif,serif" font-size="14.00">int</text>
<polygon fill="none" stroke="black" points="513,-167.25 513,-189.75 685.5,-189.75 685.5,-167.25 513,-167.25"/>
<text xml:space="preserve" text-anchor="start" x="536.25" y="-174" font-family="Times New Roman,Times,Liberation Serif,serif" font-size="14.00">lickspout_offset_delta</text>
<polygon fill="none" stroke="black" points="685.5,-167.25 685.5,-189.75 774.75,-189.75 774.75,-167.25 685.5,-167.25"/>
<text xml:space="preserve" text-anchor="start" x="717.38" y="-174" font-family="Times New Roman,Times,Liberation Serif,serif" font-size="14.00">float</text>
<polygon fill="none" stroke="black" points="513,-144.75 513,-167.25 685.5,-167.25 685.5,-144.75 513,-144.75"/>
<text xml:space="preserve" text-anchor="start" x="554.25" y="-151.5" font-family="Times New Roman,Times,Liberation Serif,serif" font-size="14.00">reward_fraction</text>
<polygon fill="none" stroke="black" points="685.5,-144.75 685.5,-167.25 774.75,-167.25 774.75,-144.75 685.5,-144.75"/>
<text xml:space="preserve" text-anchor="start" x="717.38" y="-151.5" font-family="Times New Roman,Times,Liberation Serif,serif" font-size="14.00">float</text>
<polygon fill="none" stroke="black" points="513,-122.25 513,-144.75 685.5,-144.75 685.5,-122.25 513,-122.25"/>
<text xml:space="preserve" text-anchor="start" x="558" y="-129" font-family="Times New Roman,Times,Liberation Serif,serif" font-size="14.00">trial_threshold</text>
<polygon fill="none" stroke="black" points="685.5,-122.25 685.5,-144.75 774.75,-144.75 774.75,-122.25 685.5,-122.25"/>
<text xml:space="preserve" text-anchor="start" x="722.62" y="-129" font-family="Times New Roman,Times,Liberation Serif,serif" font-size="14.00">int</text>
</a>
</g>
</g>
<!-- aind_behavior_dynamic_foraging.task_logic.interventions.bias_intervention.BiasThreshold -->
<g id="node2" class="node">
<title>aind_behavior_dynamic_foraging.task_logic.interventions.bias_intervention.BiasThreshold</title>
<g id="a_node2"><a xlink:title="aind_behavior_dynamic_foraging.task_logic.interventions.bias_intervention.BiasThreshold&#10;&#10;!!! abstract &quot;Usage Documentation&quot;&#10; &#160;&#160;&#160;[Models](../concepts/models.md)&#10;&#10;A base class for creating Pydantic models.&#10;&#10;Attributes:&#10; &#160;&#160;&#160;__class_vars__: The names of the class variables defined on the model.&#10; &#160;&#160;&#160;__private_attributes__: Metadata about the private attributes of the model.&#10; &#160;&#160;&#160;__signature__: The synthesized `__init__` [`Signature`][inspect.Signature] of the model.&#10;&#10; &#160;&#160;&#160;__pydantic_complete__: Whether model building is completed, or if there are still undefined fields.&#10; &#160;&#160;&#160;__pydantic_core_schema__: The core schema of the model.&#10; &#160;&#160;&#160;__pydantic_custom_init__: Whether the model has a custom `__init__` function.&#10; &#160;&#160;&#160;__pydantic_decorators__: Metadata containing the decorators defined on the model.&#10; &#160;&#160;&#160;&#160;&#160;&#160;&#160;This replaces `Model.__validators__` and `Model.__root_validators__` from Pydantic V1.&#10; &#160;&#160;&#160;__pydantic_generic_metadata__: Metadata for generic models; contains data used for a similar purpose to&#10; &#160;&#160;&#160;&#160;&#160;&#160;&#160;__args__, __origin__, __parameters__ in typing&#45;module generics. May eventually be replaced by these.&#10; &#160;&#160;&#160;__pydantic_parent_namespace__: Parent namespace of the model, used for automatic rebuilding of models.&#10; &#160;&#160;&#160;__pydantic_post_init__: The name of the post&#45;init method for the model, if defined.&#10; &#160;&#160;&#160;__pydantic_root_model__: Whether the model is a [`RootModel`][pydantic.root_model.RootModel].&#10; &#160;&#160;&#160;__pydantic_serializer__: The `pydantic&#45;core` `SchemaSerializer` used to dump instances of the model.&#10; &#160;&#160;&#160;__pydantic_validator__: The `pydantic&#45;core` `SchemaValidator` used to validate instances of the model.&#10;&#10; &#160;&#160;&#160;__pydantic_fields__: A dictionary of field names and their corresponding [`FieldInfo`][pydantic.fields.FieldInfo] objects.&#10; &#160;&#160;&#160;__pydantic_computed_fields__: A dictionary of computed field names and their corresponding [`ComputedFieldInfo`][pydantic.fields.ComputedFieldInfo] objects.&#10;&#10; &#160;&#160;&#160;__pydantic_extra__: A dictionary containing extra values, if [`extra`][pydantic.config.ConfigDict.extra]&#10; &#160;&#160;&#160;&#160;&#160;&#160;&#160;is set to `&#39;allow&#39;`.&#10; &#160;&#160;&#160;__pydantic_fields_set__: The names of fields explicitly set during instantiation.&#10; &#160;&#160;&#160;__pydantic_private__: Values of private attributes set on the model instance.&#10;">
<polygon fill="none" stroke="black" points="882.75,-256.5 882.75,-279 978,-279 978,-256.5 882.75,-256.5"/>
<text xml:space="preserve" text-anchor="start" x="885.75" y="-263.7" font-family="Times New Roman,Times,Liberation Serif,serif" font-weight="bold" font-size="14.00">BiasThreshold</text>
<polygon fill="none" stroke="black" points="882.75,-234 882.75,-256.5 934.12,-256.5 934.12,-234 882.75,-234"/>
<text xml:space="preserve" text-anchor="start" x="891.94" y="-240.75" font-family="Times New Roman,Times,Liberation Serif,serif" font-size="14.00">upper</text>
<polygon fill="none" stroke="black" points="934.12,-234 934.12,-256.5 978,-256.5 978,-234 934.12,-234"/>
<text xml:space="preserve" text-anchor="start" x="943.31" y="-240.75" font-family="Times New Roman,Times,Liberation Serif,serif" font-size="14.00">float</text>
<polygon fill="none" stroke="black" points="882.75,-211.5 882.75,-234 934.12,-234 934.12,-211.5 882.75,-211.5"/>
<text xml:space="preserve" text-anchor="start" x="892.31" y="-218.25" font-family="Times New Roman,Times,Liberation Serif,serif" font-size="14.00">lower</text>
<polygon fill="none" stroke="black" points="934.12,-211.5 934.12,-234 978,-234 978,-211.5 934.12,-211.5"/>
<text xml:space="preserve" text-anchor="start" x="943.31" y="-218.25" font-family="Times New Roman,Times,Liberation Serif,serif" font-size="14.00">float</text>
</a>
</g>
</g>
<!-- aind_behavior_dynamic_foraging.task_logic.interventions.bias_intervention.BiasInterventionParameters&#45;&gt;aind_behavior_dynamic_foraging.task_logic.interventions.bias_intervention.BiasThreshold -->
<g id="edge1" class="edge">
<title>aind_behavior_dynamic_foraging.task_logic.interventions.bias_intervention.BiasInterventionParameters:e&#45;&gt;aind_behavior_dynamic_foraging.task_logic.interventions.bias_intervention.BiasThreshold:w</title>
<path fill="none" stroke="black" d="M784.62,-268.49C819.82,-268.41 834.55,-267.9 867.83,-267.78"/>
<polyline fill="none" stroke="black" points="774.75,-268.5 779.75,-268.49"/>
<polyline fill="none" stroke="black" points="779.75,-268.49 784.75,-268.49"/>
<polyline fill="none" stroke="black" points="882.75,-267.75 877.75,-267.76"/>
<polygon fill="black" stroke="black" points="876.74,-262.76 876.76,-272.76 874.76,-272.76 874.74,-262.76 876.74,-262.76"/>
<polyline fill="none" stroke="black" points="877.75,-267.76 872.75,-267.77"/>
<polygon fill="black" stroke="black" points="871.74,-262.77 871.76,-272.77 869.76,-272.77 869.74,-262.77 871.74,-262.77"/>
<polyline fill="none" stroke="black" points="872.75,-267.77 867.75,-267.78"/>
</g>
<!-- aind_behavior_dynamic_foraging.task_logic.trial_generators.block_based_trial_generator.AutoWaterParameters -->
<g id="node3" class="node">
<title>aind_behavior_dynamic_foraging.task_logic.trial_generators.block_based_trial_generator.AutoWaterParameters</title>
<g id="a_node3"><a xlink:title="aind_behavior_dynamic_foraging.task_logic.trial_generators.block_based_trial_generator.AutoWaterParameters&#10;&#10;!!! abstract &quot;Usage Documentation&quot;&#10; &#160;&#160;&#160;[Models](../concepts/models.md)&#10;&#10;A base class for creating Pydantic models.&#10;&#10;Attributes:&#10; &#160;&#160;&#160;__class_vars__: The names of the class variables defined on the model.&#10; &#160;&#160;&#160;__private_attributes__: Metadata about the private attributes of the model.&#10; &#160;&#160;&#160;__signature__: The synthesized `__init__` [`Signature`][inspect.Signature] of the model.&#10;&#10; &#160;&#160;&#160;__pydantic_complete__: Whether model building is completed, or if there are still undefined fields.&#10; &#160;&#160;&#160;__pydantic_core_schema__: The core schema of the model.&#10; &#160;&#160;&#160;__pydantic_custom_init__: Whether the model has a custom `__init__` function.&#10; &#160;&#160;&#160;__pydantic_decorators__: Metadata containing the decorators defined on the model.&#10; &#160;&#160;&#160;&#160;&#160;&#160;&#160;This replaces `Model.__validators__` and `Model.__root_validators__` from Pydantic V1.&#10; &#160;&#160;&#160;__pydantic_generic_metadata__: Metadata for generic models; contains data used for a similar purpose to&#10; &#160;&#160;&#160;&#160;&#160;&#160;&#160;__args__, __origin__, __parameters__ in typing&#45;module generics. May eventually be replaced by these.&#10; &#160;&#160;&#160;__pydantic_parent_namespace__: Parent namespace of the model, used for automatic rebuilding of models.&#10; &#160;&#160;&#160;__pydantic_post_init__: The name of the post&#45;init method for the model, if defined.&#10; &#160;&#160;&#160;__pydantic_root_model__: Whether the model is a [`RootModel`][pydantic.root_model.RootModel].&#10; &#160;&#160;&#160;__pydantic_serializer__: The `pydantic&#45;core` `SchemaSerializer` used to dump instances of the model.&#10; &#160;&#160;&#160;__pydantic_validator__: The `pydantic&#45;core` `SchemaValidator` used to validate instances of the model.&#10;&#10; &#160;&#160;&#160;__pydantic_fields__: A dictionary of field names and their corresponding [`FieldInfo`][pydantic.fields.FieldInfo] objects.&#10; &#160;&#160;&#160;__pydantic_computed_fields__: A dictionary of computed field names and their corresponding [`ComputedFieldInfo`][pydantic.fields.ComputedFieldInfo] objects.&#10;&#10; &#160;&#160;&#160;__pydantic_extra__: A dictionary containing extra values, if [`extra`][pydantic.config.ConfigDict.extra]&#10; &#160;&#160;&#160;&#160;&#160;&#160;&#160;is set to `&#39;allow&#39;`.&#10; &#160;&#160;&#160;__pydantic_fields_set__: The names of fields explicitly set during instantiation.&#10; &#160;&#160;&#160;__pydantic_private__: Values of private attributes set on the model instance.&#10;">
<polygon fill="none" stroke="black" points="559.12,-405.75 559.12,-428.25 728.62,-428.25 728.62,-405.75 559.12,-405.75"/>
<text xml:space="preserve" text-anchor="start" x="574.88" y="-412.95" font-family="Times New Roman,Times,Liberation Serif,serif" font-weight="bold" font-size="14.00">AutoWaterParameters</text>
<polygon fill="none" stroke="black" points="559.12,-383.25 559.12,-405.75 697.12,-405.75 697.12,-383.25 559.12,-383.25"/>
<text xml:space="preserve" text-anchor="start" x="573.75" y="-390" font-family="Times New Roman,Times,Liberation Serif,serif" font-size="14.00">min_ignored_trials</text>
<polygon fill="none" stroke="black" points="697.12,-383.25 697.12,-405.75 728.62,-405.75 728.62,-383.25 697.12,-383.25"/>
<text xml:space="preserve" text-anchor="start" x="705.38" y="-390" font-family="Times New Roman,Times,Liberation Serif,serif" font-size="14.00">int</text>
<polygon fill="none" stroke="black" points="559.12,-360.75 559.12,-383.25 697.12,-383.25 697.12,-360.75 559.12,-360.75"/>
<text xml:space="preserve" text-anchor="start" x="562.12" y="-367.5" font-family="Times New Roman,Times,Liberation Serif,serif" font-size="14.00">min_unrewarded_trials</text>
<polygon fill="none" stroke="black" points="697.12,-360.75 697.12,-383.25 728.62,-383.25 728.62,-360.75 697.12,-360.75"/>
<text xml:space="preserve" text-anchor="start" x="705.38" y="-367.5" font-family="Times New Roman,Times,Liberation Serif,serif" font-size="14.00">int</text>
<polygon fill="none" stroke="black" points="559.12,-338.25 559.12,-360.75 697.12,-360.75 697.12,-338.25 559.12,-338.25"/>
<text xml:space="preserve" text-anchor="start" x="583.12" y="-345" font-family="Times New Roman,Times,Liberation Serif,serif" font-size="14.00">reward_fraction</text>
<polygon fill="none" stroke="black" points="697.12,-338.25 697.12,-360.75 728.62,-360.75 728.62,-338.25 697.12,-338.25"/>
<text xml:space="preserve" text-anchor="start" x="700.12" y="-345" font-family="Times New Roman,Times,Liberation Serif,serif" font-size="14.00">float</text>
</a>
</g>
</g>
<!-- aind_behavior_dynamic_foraging.task_logic.trial_generators.coupled_trial_generators.base_coupled_trial_generator.BaseCoupledTrialGeneratorSpec -->
<g id="node4" class="node">
<title>aind_behavior_dynamic_foraging.task_logic.trial_generators.coupled_trial_generators.base_coupled_trial_generator.BaseCoupledTrialGeneratorSpec</title>
<g id="a_node4"><a xlink:title="aind_behavior_dynamic_foraging.task_logic.trial_generators.coupled_trial_generators.base_coupled_trial_generator.BaseCoupledTrialGeneratorSpec&#10;&#10;Base model for trial generator specifications.&#10;">
<polygon fill="none" stroke="black" points="0,-517.75 0,-540.25 405,-540.25 405,-517.75 0,-517.75"/>
<text xml:space="preserve" text-anchor="start" x="101.25" y="-524.95" font-family="Times New Roman,Times,Liberation Serif,serif" font-weight="bold" font-size="14.00">BaseCoupledTrialGeneratorSpec</text>
<polygon fill="none" stroke="black" points="0,-495.25 0,-517.75 183.75,-517.75 183.75,-495.25 0,-495.25"/>
<text xml:space="preserve" text-anchor="start" x="79.5" y="-502" font-family="Times New Roman,Times,Liberation Serif,serif" font-size="14.00">type</text>
<polygon fill="none" stroke="black" points="183.75,-495.25 183.75,-517.75 405,-517.75 405,-495.25 183.75,-495.25"/>
<text xml:space="preserve" text-anchor="start" x="189.75" y="-502" font-family="Times New Roman,Times,Liberation Serif,serif" font-size="14.00">Literal[&#39;BaseCoupledTrialGenerator&#39;]</text>
<polygon fill="none" stroke="black" points="0,-472.75 0,-495.25 183.75,-495.25 183.75,-472.75 0,-472.75"/>
<text xml:space="preserve" text-anchor="start" x="58.12" y="-479.5" font-family="Times New Roman,Times,Liberation Serif,serif" font-size="14.00">reward_size</text>
<polygon fill="none" stroke="black" points="183.75,-472.75 183.75,-495.25 405,-495.25 405,-472.75 183.75,-472.75"/>
<text xml:space="preserve" text-anchor="start" x="260.25" y="-479.5" font-family="Times New Roman,Times,Liberation Serif,serif" font-size="14.00">RewardSize</text>
<polygon fill="none" stroke="black" points="0,-450.25 0,-472.75 183.75,-472.75 183.75,-450.25 0,-450.25"/>
<text xml:space="preserve" text-anchor="start" x="37.5" y="-457" font-family="Times New Roman,Times,Liberation Serif,serif" font-size="14.00">quiescent_duration</text>
<polygon fill="none" stroke="black" points="183.75,-450.25 183.75,-472.75 405,-472.75 405,-450.25 183.75,-450.25"/>
<text xml:space="preserve" text-anchor="start" x="259.88" y="-457" font-family="Times New Roman,Times,Liberation Serif,serif" font-size="14.00">Distribution</text>
<polygon fill="none" stroke="black" points="0,-427.75 0,-450.25 183.75,-450.25 183.75,-427.75 0,-427.75"/>
<text xml:space="preserve" text-anchor="start" x="39.38" y="-434.5" font-family="Times New Roman,Times,Liberation Serif,serif" font-size="14.00">response_duration</text>
<polygon fill="none" stroke="black" points="183.75,-427.75 183.75,-450.25 405,-450.25 405,-427.75 183.75,-427.75"/>
<text xml:space="preserve" text-anchor="start" x="281.62" y="-434.5" font-family="Times New Roman,Times,Liberation Serif,serif" font-size="14.00">float</text>
<polygon fill="none" stroke="black" points="0,-405.25 0,-427.75 183.75,-427.75 183.75,-405.25 0,-405.25"/>
<text xml:space="preserve" text-anchor="start" x="3.38" y="-412" font-family="Times New Roman,Times,Liberation Serif,serif" font-size="14.00">reward_consumption_duration</text>
<polygon fill="none" stroke="black" points="183.75,-405.25 183.75,-427.75 405,-427.75 405,-405.25 183.75,-405.25"/>
<text xml:space="preserve" text-anchor="start" x="281.62" y="-412" font-family="Times New Roman,Times,Liberation Serif,serif" font-size="14.00">float</text>
<polygon fill="none" stroke="black" points="0,-382.75 0,-405.25 183.75,-405.25 183.75,-382.75 0,-382.75"/>
<text xml:space="preserve" text-anchor="start" x="11.62" y="-389.5" font-family="Times New Roman,Times,Liberation Serif,serif" font-size="14.00">inter_trial_interval_duration</text>
<polygon fill="none" stroke="black" points="183.75,-382.75 183.75,-405.25 405,-405.25 405,-382.75 183.75,-382.75"/>
<text xml:space="preserve" text-anchor="start" x="259.88" y="-389.5" font-family="Times New Roman,Times,Liberation Serif,serif" font-size="14.00">Distribution</text>
<polygon fill="none" stroke="black" points="0,-360.25 0,-382.75 183.75,-382.75 183.75,-360.25 0,-360.25"/>
<text xml:space="preserve" text-anchor="start" x="54" y="-367" font-family="Times New Roman,Times,Liberation Serif,serif" font-size="14.00">block_length</text>
<polygon fill="none" stroke="black" points="183.75,-360.25 183.75,-382.75 405,-382.75 405,-360.25 183.75,-360.25"/>
<text xml:space="preserve" text-anchor="start" x="259.88" y="-367" font-family="Times New Roman,Times,Liberation Serif,serif" font-size="14.00">Distribution</text>
<polygon fill="none" stroke="black" points="0,-337.75 0,-360.25 183.75,-360.25 183.75,-337.75 0,-337.75"/>
<text xml:space="preserve" text-anchor="start" x="30" y="-344.5" font-family="Times New Roman,Times,Liberation Serif,serif" font-size="14.00">autowater_parameters</text>
<polygon fill="none" stroke="black" points="183.75,-337.75 183.75,-360.25 405,-360.25 405,-337.75 183.75,-337.75"/>
<text xml:space="preserve" text-anchor="start" x="202.88" y="-344.5" font-family="Times New Roman,Times,Liberation Serif,serif" font-size="14.00">Optional[AutoWaterParameters]</text>
<polygon fill="none" stroke="black" points="0,-315.25 0,-337.75 183.75,-337.75 183.75,-315.25 0,-315.25"/>
<text xml:space="preserve" text-anchor="start" x="8.25" y="-322" font-family="Times New Roman,Times,Liberation Serif,serif" font-size="14.00">bias_intervention_parameters</text>
<polygon fill="none" stroke="black" points="183.75,-315.25 183.75,-337.75 405,-337.75 405,-315.25 183.75,-315.25"/>
<text xml:space="preserve" text-anchor="start" x="186.75" y="-322" font-family="Times New Roman,Times,Liberation Serif,serif" font-size="14.00">Optional[BiasInterventionParameters]</text>
<polygon fill="none" stroke="black" points="0,-292.75 0,-315.25 183.75,-315.25 183.75,-292.75 0,-292.75"/>
<text xml:space="preserve" text-anchor="start" x="63.75" y="-299.5" font-family="Times New Roman,Times,Liberation Serif,serif" font-size="14.00">is_baiting</text>
<polygon fill="none" stroke="black" points="183.75,-292.75 183.75,-315.25 405,-315.25 405,-292.75 183.75,-292.75"/>
<text xml:space="preserve" text-anchor="start" x="281.25" y="-299.5" font-family="Times New Roman,Times,Liberation Serif,serif" font-size="14.00">bool</text>
<polygon fill="none" stroke="black" points="0,-270.25 0,-292.75 183.75,-292.75 183.75,-270.25 0,-270.25"/>
<text xml:space="preserve" text-anchor="start" x="3" y="-277" font-family="Times New Roman,Times,Liberation Serif,serif" font-size="14.00">reward_probability_parameters</text>
<polygon fill="none" stroke="black" points="183.75,-270.25 183.75,-292.75 405,-292.75 405,-270.25 183.75,-270.25"/>
<text xml:space="preserve" text-anchor="start" x="209.62" y="-277" font-family="Times New Roman,Times,Liberation Serif,serif" font-size="14.00">RewardProbabilityParameters</text>
</a>
</g>
</g>
<!-- aind_behavior_dynamic_foraging.task_logic.trial_generators.coupled_trial_generators.base_coupled_trial_generator.BaseCoupledTrialGeneratorSpec&#45;&gt;aind_behavior_dynamic_foraging.task_logic.interventions.bias_intervention.BiasInterventionParameters -->
<g id="edge3" class="edge">
<title>aind_behavior_dynamic_foraging.task_logic.trial_generators.coupled_trial_generators.base_coupled_trial_generator.BaseCoupledTrialGeneratorSpec:e&#45;&gt;aind_behavior_dynamic_foraging.task_logic.interventions.bias_intervention.BiasInterventionParameters:w</title>
<path fill="none" stroke="black" d="M414.78,-326.03C450.46,-322.44 462.46,-299.56 494.31,-292.85"/>
<polyline fill="none" stroke="black" points="405,-326.5 409.99,-326.26"/>
<polyline fill="none" stroke="black" points="409.99,-326.26 414.99,-326.01"/>
<polyline fill="none" stroke="black" points="513,-291 508.02,-291.49"/>
<polygon fill="black" stroke="black" points="506.54,-286.61 507.52,-296.57 505.53,-296.76 504.55,-286.81 506.54,-286.61"/>
<polyline fill="none" stroke="black" points="508.02,-291.49 503.05,-291.98"/>
<ellipse fill="none" stroke="black" cx="498.57" cy="-292.43" rx="4" ry="4"/>
</g>
<!-- aind_behavior_dynamic_foraging.task_logic.trial_generators.coupled_trial_generators.base_coupled_trial_generator.BaseCoupledTrialGeneratorSpec&#45;&gt;aind_behavior_dynamic_foraging.task_logic.trial_generators.block_based_trial_generator.AutoWaterParameters -->
<g id="edge2" class="edge">
<title>aind_behavior_dynamic_foraging.task_logic.trial_generators.coupled_trial_generators.base_coupled_trial_generator.BaseCoupledTrialGeneratorSpec:e&#45;&gt;aind_behavior_dynamic_foraging.task_logic.trial_generators.block_based_trial_generator.AutoWaterParameters:w</title>
<path fill="none" stroke="black" d="M414.62,-349.4C473.73,-354.44 485.13,-405.64 539.36,-415.4"/>
<polyline fill="none" stroke="black" points="405,-349 410,-349.21"/>
<polyline fill="none" stroke="black" points="410,-349.21 414.99,-349.41"/>
<polyline fill="none" stroke="black" points="558.12,-417 553.14,-416.58"/>
<polygon fill="black" stroke="black" points="552.57,-411.51 551.72,-421.47 549.73,-421.3 550.58,-411.34 552.57,-411.51"/>
<polyline fill="none" stroke="black" points="553.14,-416.58 548.16,-416.15"/>
<ellipse fill="none" stroke="black" cx="543.68" cy="-415.77" rx="4" ry="4"/>
</g>
<!-- aind_behavior_dynamic_foraging.task_logic.trial_generators.coupled_trial_generators.base_coupled_trial_generator.RewardProbabilityParameters -->
<g id="node5" class="node">
<title>aind_behavior_dynamic_foraging.task_logic.trial_generators.coupled_trial_generators.base_coupled_trial_generator.RewardProbabilityParameters</title>
<g id="a_node5"><a xlink:title="aind_behavior_dynamic_foraging.task_logic.trial_generators.coupled_trial_generators.base_coupled_trial_generator.RewardProbabilityParameters&#10;&#10;Defines the reward probability structure for a dynamic foraging task.&#10;&#10;Reward probabilities are defined as pairs (p_left, p_right) normalized by&#10;base_reward_sum. Pairs are drawn from a family representing a difficulty level:&#10;&#10; &#160;&#160;&#160;Family 1: &#160;&#160;[[8, 1], [6, 1], [3, 1], [1, 1]]&#10; &#160;&#160;&#160;Family 2: &#160;[[8, 1], [1, 1]]&#10; &#160;&#160;&#160;Family 3: &#160;[[1.0, 0.0], [0.9, 0.1], [0.8, 0.2], [0.7, 0.3], [0.6, 0.4], [0.5, 0.5]]&#10; &#160;&#160;&#160;Family 4: &#160;[[6, 1], [3, 1], [1, 1]]&#10;">
<polygon fill="none" stroke="black" points="546.75,-63.5 546.75,-86 741,-86 741,-63.5 546.75,-63.5"/>
<text xml:space="preserve" text-anchor="start" x="549.75" y="-70.7" font-family="Times New Roman,Times,Liberation Serif,serif" font-weight="bold" font-size="14.00">RewardProbabilityParameters</text>
<polygon fill="none" stroke="black" points="546.75,-41 546.75,-63.5 657,-63.5 657,-41 546.75,-41"/>
<text xml:space="preserve" text-anchor="start" x="550.5" y="-47.75" font-family="Times New Roman,Times,Liberation Serif,serif" font-size="14.00">base_reward_sum</text>
<polygon fill="none" stroke="black" points="657,-41 657,-63.5 741,-63.5 741,-41 657,-41"/>
<text xml:space="preserve" text-anchor="start" x="686.25" y="-47.75" font-family="Times New Roman,Times,Liberation Serif,serif" font-size="14.00">float</text>
<polygon fill="none" stroke="black" points="546.75,-18.5 546.75,-41 657,-41 657,-18.5 546.75,-18.5"/>
<text xml:space="preserve" text-anchor="start" x="565.12" y="-25.25" font-family="Times New Roman,Times,Liberation Serif,serif" font-size="14.00">reward_pairs</text>
<polygon fill="none" stroke="black" points="657,-18.5 657,-41 741,-41 741,-18.5 657,-18.5"/>
<text xml:space="preserve" text-anchor="start" x="660.75" y="-25.25" font-family="Times New Roman,Times,Liberation Serif,serif" font-size="14.00">list[list[float]]</text>
</a>
</g>
</g>
<!-- aind_behavior_dynamic_foraging.task_logic.trial_generators.coupled_trial_generators.base_coupled_trial_generator.BaseCoupledTrialGeneratorSpec&#45;&gt;aind_behavior_dynamic_foraging.task_logic.trial_generators.coupled_trial_generators.base_coupled_trial_generator.RewardProbabilityParameters -->
<g id="edge4" class="edge">
<title>aind_behavior_dynamic_foraging.task_logic.trial_generators.coupled_trial_generators.base_coupled_trial_generator.BaseCoupledTrialGeneratorSpec:e&#45;&gt;aind_behavior_dynamic_foraging.task_logic.trial_generators.coupled_trial_generators.base_coupled_trial_generator.RewardProbabilityParameters:w</title>
<path fill="none" stroke="black" d="M414.87,-280.91C506.45,-269.38 444.93,-93.63 530.96,-76.15"/>
<polyline fill="none" stroke="black" points="405,-281.5 409.99,-281.2"/>
<polyline fill="none" stroke="black" points="409.99,-281.2 414.98,-280.9"/>
<polyline fill="none" stroke="black" points="545.75,-74.75 540.77,-75.22"/>
<polygon fill="black" stroke="black" points="539.31,-70.34 540.25,-80.29 538.26,-80.48 537.32,-70.52 539.31,-70.34"/>
<polyline fill="none" stroke="black" points="540.77,-75.22 535.79,-75.69"/>
<polygon fill="black" stroke="black" points="534.33,-70.81 535.27,-80.76 533.28,-80.95 532.34,-71 534.33,-70.81"/>
<polyline fill="none" stroke="black" points="535.79,-75.69 530.82,-76.16"/>
</g>
<!-- aind_behavior_dynamic_foraging.task_logic.trial_models.RewardSize -->
<g id="node6" class="node">
<title>aind_behavior_dynamic_foraging.task_logic.trial_models.RewardSize</title>
<g id="a_node6"><a xlink:title="aind_behavior_dynamic_foraging.task_logic.trial_models.RewardSize&#10;&#10;!!! abstract &quot;Usage Documentation&quot;&#10; &#160;&#160;&#160;[Models](../concepts/models.md)&#10;&#10;A base class for creating Pydantic models.&#10;&#10;Attributes:&#10; &#160;&#160;&#160;__class_vars__: The names of the class variables defined on the model.&#10; &#160;&#160;&#160;__private_attributes__: Metadata about the private attributes of the model.&#10; &#160;&#160;&#160;__signature__: The synthesized `__init__` [`Signature`][inspect.Signature] of the model.&#10;&#10; &#160;&#160;&#160;__pydantic_complete__: Whether model building is completed, or if there are still undefined fields.&#10; &#160;&#160;&#160;__pydantic_core_schema__: The core schema of the model.&#10; &#160;&#160;&#160;__pydantic_custom_init__: Whether the model has a custom `__init__` function.&#10; &#160;&#160;&#160;__pydantic_decorators__: Metadata containing the decorators defined on the model.&#10; &#160;&#160;&#160;&#160;&#160;&#160;&#160;This replaces `Model.__validators__` and `Model.__root_validators__` from Pydantic V1.&#10; &#160;&#160;&#160;__pydantic_generic_metadata__: Metadata for generic models; contains data used for a similar purpose to&#10; &#160;&#160;&#160;&#160;&#160;&#160;&#160;__args__, __origin__, __parameters__ in typing&#45;module generics. May eventually be replaced by these.&#10; &#160;&#160;&#160;__pydantic_parent_namespace__: Parent namespace of the model, used for automatic rebuilding of models.&#10; &#160;&#160;&#160;__pydantic_post_init__: The name of the post&#45;init method for the model, if defined.&#10; &#160;&#160;&#160;__pydantic_root_model__: Whether the model is a [`RootModel`][pydantic.root_model.RootModel].&#10; &#160;&#160;&#160;__pydantic_serializer__: The `pydantic&#45;core` `SchemaSerializer` used to dump instances of the model.&#10; &#160;&#160;&#160;__pydantic_validator__: The `pydantic&#45;core` `SchemaValidator` used to validate instances of the model.&#10;&#10; &#160;&#160;&#160;__pydantic_fields__: A dictionary of field names and their corresponding [`FieldInfo`][pydantic.fields.FieldInfo] objects.&#10; &#160;&#160;&#160;__pydantic_computed_fields__: A dictionary of computed field names and their corresponding [`ComputedFieldInfo`][pydantic.fields.ComputedFieldInfo] objects.&#10;&#10; &#160;&#160;&#160;__pydantic_extra__: A dictionary containing extra values, if [`extra`][pydantic.config.ConfigDict.extra]&#10; &#160;&#160;&#160;&#160;&#160;&#160;&#160;is set to `&#39;allow&#39;`.&#10; &#160;&#160;&#160;__pydantic_fields_set__: The names of fields explicitly set during instantiation.&#10; &#160;&#160;&#160;__pydantic_private__: Values of private attributes set on the model instance.&#10;">
<polygon fill="none" stroke="black" points="604.5,-509.5 604.5,-532 683.25,-532 683.25,-509.5 604.5,-509.5"/>
<text xml:space="preserve" text-anchor="start" x="607.5" y="-516.7" font-family="Times New Roman,Times,Liberation Serif,serif" font-weight="bold" font-size="14.00">RewardSize</text>
<polygon fill="none" stroke="black" points="604.5,-487 604.5,-509.5 644.62,-509.5 644.62,-487 604.5,-487"/>
<text xml:space="preserve" text-anchor="start" x="611.06" y="-493.75" font-family="Times New Roman,Times,Liberation Serif,serif" font-size="14.00">right</text>
<polygon fill="none" stroke="black" points="644.62,-487 644.62,-509.5 683.25,-509.5 683.25,-487 644.62,-487"/>
<text xml:space="preserve" text-anchor="start" x="651.19" y="-493.75" font-family="Times New Roman,Times,Liberation Serif,serif" font-size="14.00">float</text>
<polygon fill="none" stroke="black" points="604.5,-464.5 604.5,-487 644.62,-487 644.62,-464.5 604.5,-464.5"/>
<text xml:space="preserve" text-anchor="start" x="615.56" y="-471.25" font-family="Times New Roman,Times,Liberation Serif,serif" font-size="14.00">left</text>
<polygon fill="none" stroke="black" points="644.62,-464.5 644.62,-487 683.25,-487 683.25,-464.5 644.62,-464.5"/>
<text xml:space="preserve" text-anchor="start" x="651.19" y="-471.25" font-family="Times New Roman,Times,Liberation Serif,serif" font-size="14.00">float</text>
</a>
</g>
</g>
<!-- aind_behavior_dynamic_foraging.task_logic.trial_generators.coupled_trial_generators.base_coupled_trial_generator.BaseCoupledTrialGeneratorSpec&#45;&gt;aind_behavior_dynamic_foraging.task_logic.trial_models.RewardSize -->
<g id="edge5" class="edge">
<title>aind_behavior_dynamic_foraging.task_logic.trial_generators.coupled_trial_generators.base_coupled_trial_generator.BaseCoupledTrialGeneratorSpec:e&#45;&gt;aind_behavior_dynamic_foraging.task_logic.trial_models.RewardSize:w</title>
<path fill="none" stroke="black" d="M414.7,-484.15C491.46,-486.53 514.45,-516.87 588.96,-520.41"/>
<polyline fill="none" stroke="black" points="405,-484 410,-484.08"/>
<polyline fill="none" stroke="black" points="410,-484.08 415,-484.15"/>
<polyline fill="none" stroke="black" points="603.5,-520.75 598.5,-520.63"/>
<polygon fill="black" stroke="black" points="597.62,-515.61 597.39,-525.61 595.39,-525.56 595.62,-515.57 597.62,-515.61"/>
<polyline fill="none" stroke="black" points="598.5,-520.63 593.5,-520.52"/>
<polygon fill="black" stroke="black" points="592.62,-515.5 592.39,-525.49 590.39,-525.45 590.62,-515.45 592.62,-515.5"/>
<polyline fill="none" stroke="black" points="593.5,-520.52 588.5,-520.4"/>
</g>
</g>
</svg>
