<?xml version="1.0" encoding="UTF-8" standalone="no"?>
<!DOCTYPE svg PUBLIC "-//W3C//DTD SVG 1.1//EN"
 "http://www.w3.org/Graphics/SVG/1.1/DTD/svg11.dtd">
<!-- Generated by graphviz version 2.43.0 (0)
 -->
<!-- Title: Entity Relationship Diagram created by erdantic Pages: 1 -->
<svg width="655pt" height="259pt"
 viewBox="0.00 0.00 655.00 258.50" xmlns="http://www.w3.org/2000/svg" xmlns:xlink="http://www.w3.org/1999/xlink">
<g id="graph0" class="graph" transform="scale(1 1) rotate(0) translate(4 254.5)">
<title>Entity Relationship Diagram created by erdantic</title>
<polygon fill="white" stroke="transparent" points="-4,4 -4,-254.5 651,-254.5 651,4 -4,4"/>
<text text-anchor="middle" x="323.5" y="-6.8" font-family="Times New Roman,Times,Liberation Serif,serif" font-size="9.00" fill="#a8a8a8">Created by erdantic v1.2.1 &lt;https://github.com/drivendataorg/erdantic&gt;</text>
<!-- aind_behavior_dynamic_foraging.task_logic.trial_generators.block_based_trial_generator.AutoWaterParameters -->
<g id="node1" class="node">
<title>aind_behavior_dynamic_foraging.task_logic.trial_generators.block_based_trial_generator.AutoWaterParameters</title>
<g id="a_node1"><a xlink:title="aind_behavior_dynamic_foraging.task_logic.trial_generators.block_based_trial_generator.AutoWaterParameters&#10;&#10;!!! abstract &quot;Usage Documentation&quot;&#10; &#160;&#160;&#160;[Models](../concepts/models.md)&#10;&#10;A base class for creating Pydantic models.&#10;&#10;Attributes:&#10; &#160;&#160;&#160;__class_vars__: The names of the class variables defined on the model.&#10; &#160;&#160;&#160;__private_attributes__: Metadata about the private attributes of the model.&#10; &#160;&#160;&#160;__signature__: The synthesized `__init__` [`Signature`][inspect.Signature] of the model.&#10;&#10; &#160;&#160;&#160;__pydantic_complete__: Whether model building is completed, or if there are still undefined fields.&#10; &#160;&#160;&#160;__pydantic_core_schema__: The core schema of the model.&#10; &#160;&#160;&#160;__pydantic_custom_init__: Whether the model has a custom `__init__` function.&#10; &#160;&#160;&#160;__pydantic_decorators__: Metadata containing the decorators defined on the model.&#10; &#160;&#160;&#160;&#160;&#160;&#160;&#160;This replaces `Model.__validators__` and `Model.__root_validators__` from Pydantic V1.&#10; &#160;&#160;&#160;__pydantic_generic_metadata__: Metadata for generic models; contains data used for a similar purpose to&#10; &#160;&#160;&#160;&#160;&#160;&#160;&#160;__args__, __origin__, __parameters__ in typing&#45;module generics. May eventually be replaced by these.&#10; &#160;&#160;&#160;__pydantic_parent_namespace__: Parent namespace of the model, used for automatic rebuilding of models.&#10; &#160;&#160;&#160;__pydantic_post_init__: The name of the post&#45;init method for the model, if defined.&#10; &#160;&#160;&#160;__pydantic_root_model__: Whether the model is a [`RootModel`][pydantic.root_model.RootModel].&#10; &#160;&#160;&#160;__pydantic_serializer__: The `pydantic&#45;core` `SchemaSerializer` used to dump instances of the model.&#10; &#160;&#160;&#160;__pydantic_validator__: The `pydantic&#45;core` `SchemaValidator` used to validate instances of the model.&#10;&#10; &#160;&#160;&#160;__pydantic_fields__: A dictionary of field names and their corresponding [`FieldInfo`][pydantic.fields.FieldInfo] objects.&#10; &#160;&#160;&#160;__pydantic_computed_fields__: A dictionary of computed field names and their corresponding [`ComputedFieldInfo`][pydantic.fields.ComputedFieldInfo] objects.&#10;&#10; &#160;&#160;&#160;__pydantic_extra__: A dictionary containing extra values, if [`extra`][pydantic.config.ConfigDict.extra]&#10; &#160;&#160;&#160;&#160;&#160;&#160;&#160;is set to `&#39;allow&#39;`.&#10; &#160;&#160;&#160;__pydantic_fields_set__: The names of fields explicitly set during instantiation.&#10; &#160;&#160;&#160;__pydantic_private__: Values of private attributes set on the model instance.&#10;">
<polygon fill="none" stroke="black" points="483,-81 483,-102 647,-102 647,-81 483,-81"/>
<text text-anchor="start" x="498.5" y="-88.8" font-family="Times New Roman,Times,Liberation Serif,serif" font-weight="bold" font-size="14.00">AutoWaterParameters</text>
<polygon fill="none" stroke="black" points="483,-60 483,-81 616,-81 616,-60 483,-60"/>
<text text-anchor="start" x="497.5" y="-66.8" font-family="Times New Roman,Times,Liberation Serif,serif" font-size="14.00">min_ignored_trials</text>
<polygon fill="none" stroke="black" points="616,-60 616,-81 647,-81 647,-60 616,-60"/>
<text text-anchor="start" x="624" y="-66.8" font-family="Times New Roman,Times,Liberation Serif,serif" font-size="14.00">int</text>
<polygon fill="none" stroke="black" points="483,-39 483,-60 616,-60 616,-39 483,-39"/>
<text text-anchor="start" x="486" y="-45.8" font-family="Times New Roman,Times,Liberation Serif,serif" font-size="14.00">min_unrewarded_trials</text>
<polygon fill="none" stroke="black" points="616,-39 616,-60 647,-60 647,-39 616,-39"/>
<text text-anchor="start" x="624" y="-45.8" font-family="Times New Roman,Times,Liberation Serif,serif" font-size="14.00">int</text>
<polygon fill="none" stroke="black" points="483,-18 483,-39 616,-39 616,-18 483,-18"/>
<text text-anchor="start" x="506" y="-24.8" font-family="Times New Roman,Times,Liberation Serif,serif" font-size="14.00">reward_fraction</text>
<polygon fill="none" stroke="black" points="616,-18 616,-39 647,-39 647,-18 616,-18"/>
<text text-anchor="start" x="619" y="-24.8" font-family="Times New Roman,Times,Liberation Serif,serif" font-size="14.00">float</text>
</a>
</g>
</g>
<!-- aind_behavior_dynamic_foraging.task_logic.trial_generators.block_based_trial_generator.BlockBasedTrialGeneratorSpec -->
<g id="node2" class="node">
<title>aind_behavior_dynamic_foraging.task_logic.trial_generators.block_based_trial_generator.BlockBasedTrialGeneratorSpec</title>
<g id="a_node2"><a xlink:title="aind_behavior_dynamic_foraging.task_logic.trial_generators.block_based_trial_generator.BlockBasedTrialGeneratorSpec&#10;&#10;Base model for trial generator specifications.&#10;">
<polygon fill="none" stroke="black" points="0.5,-229 0.5,-250 375.5,-250 375.5,-229 0.5,-229"/>
<text text-anchor="start" x="96" y="-236.8" font-family="Times New Roman,Times,Liberation Serif,serif" font-weight="bold" font-size="14.00">BlockBasedTrialGeneratorSpec</text>
<polygon fill="none" stroke="black" points="0.5,-208 0.5,-229 173.5,-229 173.5,-208 0.5,-208"/>
<text text-anchor="start" x="75" y="-214.8" font-family="Times New Roman,Times,Liberation Serif,serif" font-size="14.00">type</text>
<polygon fill="none" stroke="black" points="173.5,-208 173.5,-229 375.5,-229 375.5,-208 173.5,-208"/>
<text text-anchor="start" x="176.5" y="-214.8" font-family="Times New Roman,Times,Liberation Serif,serif" font-size="14.00">Literal[&#39;BlockBasedTrialGenerator&#39;]</text>
<polygon fill="none" stroke="black" points="0.5,-187 0.5,-208 173.5,-208 173.5,-187 0.5,-187"/>
<text text-anchor="start" x="35.5" y="-193.8" font-family="Times New Roman,Times,Liberation Serif,serif" font-size="14.00">quiescent_duration</text>
<polygon fill="none" stroke="black" points="173.5,-187 173.5,-208 375.5,-208 375.5,-187 173.5,-187"/>
<text text-anchor="start" x="241.5" y="-193.8" font-family="Times New Roman,Times,Liberation Serif,serif" font-size="14.00">Distribution</text>
<polygon fill="none" stroke="black" points="0.5,-166 0.5,-187 173.5,-187 173.5,-166 0.5,-166"/>
<text text-anchor="start" x="37" y="-172.8" font-family="Times New Roman,Times,Liberation Serif,serif" font-size="14.00">response_duration</text>
<polygon fill="none" stroke="black" points="173.5,-166 173.5,-187 375.5,-187 375.5,-166 173.5,-166"/>
<text text-anchor="start" x="262" y="-172.8" font-family="Times New Roman,Times,Liberation Serif,serif" font-size="14.00">float</text>
<polygon fill="none" stroke="black" points="0.5,-145 0.5,-166 173.5,-166 173.5,-145 0.5,-145"/>
<text text-anchor="start" x="3.5" y="-151.8" font-family="Times New Roman,Times,Liberation Serif,serif" font-size="14.00">reward_consumption_duration</text>
<polygon fill="none" stroke="black" points="173.5,-145 173.5,-166 375.5,-166 375.5,-145 173.5,-145"/>
<text text-anchor="start" x="262" y="-151.8" font-family="Times New Roman,Times,Liberation Serif,serif" font-size="14.00">float</text>
<polygon fill="none" stroke="black" points="0.5,-124 0.5,-145 173.5,-145 173.5,-124 0.5,-124"/>
<text text-anchor="start" x="10" y="-130.8" font-family="Times New Roman,Times,Liberation Serif,serif" font-size="14.00">inter_trial_interval_duration</text>
<polygon fill="none" stroke="black" points="173.5,-124 173.5,-145 375.5,-145 375.5,-124 173.5,-124"/>
<text text-anchor="start" x="241.5" y="-130.8" font-family="Times New Roman,Times,Liberation Serif,serif" font-size="14.00">Distribution</text>
<polygon fill="none" stroke="black" points="0.5,-103 0.5,-124 173.5,-124 173.5,-103 0.5,-103"/>
<text text-anchor="start" x="51.5" y="-109.8" font-family="Times New Roman,Times,Liberation Serif,serif" font-size="14.00">block_length</text>
<polygon fill="none" stroke="black" points="173.5,-103 173.5,-124 375.5,-124 375.5,-103 173.5,-103"/>
<text text-anchor="start" x="241.5" y="-109.8" font-family="Times New Roman,Times,Liberation Serif,serif" font-size="14.00">Distribution</text>
<polygon fill="none" stroke="black" points="0.5,-82 0.5,-103 173.5,-103 173.5,-82 0.5,-82"/>
<text text-anchor="start" x="26.5" y="-88.8" font-family="Times New Roman,Times,Liberation Serif,serif" font-size="14.00">autowater_parameters</text>
<polygon fill="none" stroke="black" points="173.5,-82 173.5,-103 375.5,-103 375.5,-82 173.5,-82"/>
<text text-anchor="start" x="186" y="-88.8" font-family="Times New Roman,Times,Liberation Serif,serif" font-size="14.00">Optional[AutoWaterParameters]</text>
<polygon fill="none" stroke="black" points="0.5,-61 0.5,-82 173.5,-82 173.5,-61 0.5,-61"/>
<text text-anchor="start" x="60" y="-67.8" font-family="Times New Roman,Times,Liberation Serif,serif" font-size="14.00">is_baiting</text>
<polygon fill="none" stroke="black" points="173.5,-61 173.5,-82 375.5,-82 375.5,-61 173.5,-61"/>
<text text-anchor="start" x="262" y="-67.8" font-family="Times New Roman,Times,Liberation Serif,serif" font-size="14.00">bool</text>
</a>
</g>
</g>
<!-- aind_behavior_dynamic_foraging.task_logic.trial_generators.block_based_trial_generator.BlockBasedTrialGeneratorSpec&#45;&gt;aind_behavior_dynamic_foraging.task_logic.trial_generators.block_based_trial_generator.AutoWaterParameters -->
<g id="edge1" class="edge">
<title>aind_behavior_dynamic_foraging.task_logic.trial_generators.block_based_trial_generator.BlockBasedTrialGeneratorSpec:e&#45;&gt;aind_behavior_dynamic_foraging.task_logic.trial_generators.block_based_trial_generator.AutoWaterParameters:w</title>
<path fill="none" stroke="black" d="M385.12,-92C418.91,-92 433.81,-92 464.64,-92"/>
<polyline fill="none" stroke="black" points="375,-92 380,-92 "/>
<polyline fill="none" stroke="black" points="380,-92 385,-92 "/>
<polyline fill="none" stroke="black" points="483,-92 478,-92 "/>
<polygon fill="black" stroke="black" points="477,-87 477,-97 475,-97 475,-87 477,-87"/>
<polyline fill="none" stroke="black" points="478,-92 473,-92 "/>
<ellipse fill="none" stroke="black" cx="469" cy="-92" rx="4" ry="4"/>
</g>
</g>
</svg>
