<?xml version="1.0" encoding="UTF-8" standalone="no"?>
<!DOCTYPE svg PUBLIC "-//W3C//DTD SVG 1.1//EN"
 "http://www.w3.org/Graphics/SVG/1.1/DTD/svg11.dtd">
<!-- Generated by graphviz version 14.1.5 (20260411.2331)
 -->
<!-- Title: Entity Relationship Diagram created by erdantic Pages: 1 -->
<svg width="985pt" height="496pt"
 viewBox="0.00 0.00 985.00 496.00" xmlns="http://www.w3.org/2000/svg" xmlns:xlink="http://www.w3.org/1999/xlink">
<g id="graph0" class="graph" transform="scale(1 1) rotate(0) translate(4 492.25)">
<title>Entity Relationship Diagram created by erdantic</title>
<polygon fill="white" stroke="none" points="-4,4 -4,-492.25 981.25,-492.25 981.25,4 -4,4"/>
<text xml:space="preserve" text-anchor="middle" x="488.62" y="-5.95" font-family="Times New Roman,Times,Liberation Serif,serif" font-size="9.00" fill="#a8a8a8">Created by erdantic v1.2.1 &lt;https://github.com/drivendataorg/erdantic&gt;</text>
<!-- aind_behavior_dynamic_foraging.task_logic.interventions.bias_intervention.BiasInterventionParameters -->
<g id="node1" class="node">
<title>aind_behavior_dynamic_foraging.task_logic.interventions.bias_intervention.BiasInterventionParameters</title>
<g id="a_node1"><a xlink:title="aind_behavior_dynamic_foraging.task_logic.interventions.bias_intervention.BiasInterventionParameters&#10;&#10;!!! abstract &quot;Usage Documentation&quot;&#10; &#160;&#160;&#160;[Models](../concepts/models.md)&#10;&#10;A base class for creating Pydantic models.&#10;&#10;Attributes:&#10; &#160;&#160;&#160;__class_vars__: The names of the class variables defined on the model.&#10; &#160;&#160;&#160;__private_attributes__: Metadata about the private attributes of the model.&#10; &#160;&#160;&#160;__signature__: The synthesized `__init__` [`Signature`][inspect.Signature] of the model.&#10;&#10; &#160;&#160;&#160;__pydantic_complete__: Whether model building is completed, or if there are still undefined fields.&#10; &#160;&#160;&#160;__pydantic_core_schema__: The core schema of the model.&#10; &#160;&#160;&#160;__pydantic_custom_init__: Whether the model has a custom `__init__` function.&#10; &#160;&#160;&#160;__pydantic_decorators__: Metadata containing the decorators defined on the model.&#10; &#160;&#160;&#160;&#160;&#160;&#160;&#160;This replaces `Model.__validators__` and `Model.__root_validators__` from Pydantic V1.&#10; &#160;&#160;&#160;__pydantic_generic_metadata__: Metadata for generic models; contains data used for a similar purpose to&#10; &#160;&#160;&#160;&#160;&#160;&#160;&#160;__args__, __origin__, __parameters__ in typing&#45;module generics. May eventually be replaced by these.&#10; &#160;&#160;&#160;__pydantic_parent_namespace__: Parent namespace of the model, used for automatic rebuilding of models.&#10; &#160;&#160;&#160;__pydantic_post_init__: The name of the post&#45;init method for the model, if defined.&#10; &#160;&#160;&#160;__pydantic_root_model__: Whether the model is a [`RootModel`][pydantic.root_model.RootModel].&#10; &#160;&#160;&#160;__pydantic_serializer__: The `pydantic&#45;core` `SchemaSerializer` used to dump instances of the model.&#10; &#160;&#160;&#160;__pydantic_validator__: The `pydantic&#45;core` `SchemaValidator` used to validate instances of the model.&#10;&#10; &#160;&#160;&#160;__pydantic_fields__: A dictionary of field names and their corresponding [`FieldInfo`][pydantic.fields.FieldInfo] objects.&#10; &#160;&#160;&#160;__pydantic_computed_fields__: A dictionary of computed field names and their corresponding [`ComputedFieldInfo`][pydantic.fields.ComputedFieldInfo] objects.&#10;&#10; &#160;&#160;&#160;__pydantic_extra__: A dictionary containing extra values, if [`extra`][pydantic.config.ConfigDict.extra]&#10; &#160;&#160;&#160;&#160;&#160;&#160;&#160;is set to `&#39;allow&#39;`.&#10; &#160;&#160;&#160;__pydantic_fields_set__: The names of fields explicitly set during instantiation.&#10; &#160;&#160;&#160;__pydantic_private__: Values of private attributes set on the model instance.&#10;">
<polygon fill="none" stroke="black" points="512.25,-176 512.25,-198.5 774,-198.5 774,-176 512.25,-176"/>
<text xml:space="preserve" text-anchor="start" x="557.25" y="-183.2" font-family="Times New Roman,Times,Liberation Serif,serif" font-weight="bold" font-size="14.00">BiasInterventionParameters</text>
<polygon fill="none" stroke="black" points="512.25,-153.5 512.25,-176 684.75,-176 684.75,-153.5 512.25,-153.5"/>
<text xml:space="preserve" text-anchor="start" x="571.88" y="-160.25" font-family="Times New Roman,Times,Liberation Serif,serif" font-size="14.00">threshold</text>
<polygon fill="none" stroke="black" points="684.75,-153.5 684.75,-176 774,-176 774,-153.5 684.75,-153.5"/>
<text xml:space="preserve" text-anchor="start" x="687.75" y="-160.25" font-family="Times New Roman,Times,Liberation Serif,serif" font-size="14.00">BiasThreshold</text>
<polygon fill="none" stroke="black" points="512.25,-131 512.25,-153.5 684.75,-153.5 684.75,-131 512.25,-131"/>
<text xml:space="preserve" text-anchor="start" x="538.88" y="-137.75" font-family="Times New Roman,Times,Liberation Serif,serif" font-size="14.00">intervention_interval</text>
<polygon fill="none" stroke="black" points="684.75,-131 684.75,-153.5 774,-153.5 774,-131 684.75,-131"/>
<text xml:space="preserve" text-anchor="start" x="721.88" y="-137.75" font-family="Times New Roman,Times,Liberation Serif,serif" font-size="14.00">int</text>
<polygon fill="none" stroke="black" points="512.25,-108.5 512.25,-131 684.75,-131 684.75,-108.5 512.25,-108.5"/>
<text xml:space="preserve" text-anchor="start" x="515.25" y="-115.25" font-family="Times New Roman,Times,Liberation Serif,serif" font-size="14.00">maximum_water_corrections</text>
<polygon fill="none" stroke="black" points="684.75,-108.5 684.75,-131 774,-131 774,-108.5 684.75,-108.5"/>
<text xml:space="preserve" text-anchor="start" x="721.88" y="-115.25" font-family="Times New Roman,Times,Liberation Serif,serif" font-size="14.00">int</text>
<polygon fill="none" stroke="black" points="512.25,-86 512.25,-108.5 684.75,-108.5 684.75,-86 512.25,-86"/>
<text xml:space="preserve" text-anchor="start" x="538.12" y="-92.75" font-family="Times New Roman,Times,Liberation Serif,serif" font-size="14.00">bias_window_length</text>
<polygon fill="none" stroke="black" points="684.75,-86 684.75,-108.5 774,-108.5 774,-86 684.75,-86"/>
<text xml:space="preserve" text-anchor="start" x="721.88" y="-92.75" font-family="Times New Roman,Times,Liberation Serif,serif" font-size="14.00">int</text>
<polygon fill="none" stroke="black" points="512.25,-63.5 512.25,-86 684.75,-86 684.75,-63.5 512.25,-63.5"/>
<text xml:space="preserve" text-anchor="start" x="535.5" y="-70.25" font-family="Times New Roman,Times,Liberation Serif,serif" font-size="14.00">lickspout_offset_delta</text>
<polygon fill="none" stroke="black" points="684.75,-63.5 684.75,-86 774,-86 774,-63.5 684.75,-63.5"/>
<text xml:space="preserve" text-anchor="start" x="716.62" y="-70.25" font-family="Times New Roman,Times,Liberation Serif,serif" font-size="14.00">float</text>
<polygon fill="none" stroke="black" points="512.25,-41 512.25,-63.5 684.75,-63.5 684.75,-41 512.25,-41"/>
<text xml:space="preserve" text-anchor="start" x="553.5" y="-47.75" font-family="Times New Roman,Times,Liberation Serif,serif" font-size="14.00">reward_fraction</text>
<polygon fill="none" stroke="black" points="684.75,-41 684.75,-63.5 774,-63.5 774,-41 684.75,-41"/>
<text xml:space="preserve" text-anchor="start" x="716.62" y="-47.75" font-family="Times New Roman,Times,Liberation Serif,serif" font-size="14.00">float</text>
<polygon fill="none" stroke="black" points="512.25,-18.5 512.25,-41 684.75,-41 684.75,-18.5 512.25,-18.5"/>
<text xml:space="preserve" text-anchor="start" x="557.25" y="-25.25" font-family="Times New Roman,Times,Liberation Serif,serif" font-size="14.00">trial_threshold</text>
<polygon fill="none" stroke="black" points="684.75,-18.5 684.75,-41 774,-41 774,-18.5 684.75,-18.5"/>
<text xml:space="preserve" text-anchor="start" x="721.88" y="-25.25" font-family="Times New Roman,Times,Liberation Serif,serif" font-size="14.00">int</text>
</a>
</g>
</g>
<!-- aind_behavior_dynamic_foraging.task_logic.interventions.bias_intervention.BiasThreshold -->
<g id="node2" class="node">
<title>aind_behavior_dynamic_foraging.task_logic.interventions.bias_intervention.BiasThreshold</title>
<g id="a_node2"><a xlink:title="aind_behavior_dynamic_foraging.task_logic.interventions.bias_intervention.BiasThreshold&#10;&#10;!!! abstract &quot;Usage Documentation&quot;&#10; &#160;&#160;&#160;[Models](../concepts/models.md)&#10;&#10;A base class for creating Pydantic models.&#10;&#10;Attributes:&#10; &#160;&#160;&#160;__class_vars__: The names of the class variables defined on the model.&#10; &#160;&#160;&#160;__private_attributes__: Metadata about the private attributes of the model.&#10; &#160;&#160;&#160;__signature__: The synthesized `__init__` [`Signature`][inspect.Signature] of the model.&#10;&#10; &#160;&#160;&#160;__pydantic_complete__: Whether model building is completed, or if there are still undefined fields.&#10; &#160;&#160;&#160;__pydantic_core_schema__: The core schema of the model.&#10; &#160;&#160;&#160;__pydantic_custom_init__: Whether the model has a custom `__init__` function.&#10; &#160;&#160;&#160;__pydantic_decorators__: Metadata containing the decorators defined on the model.&#10; &#160;&#160;&#160;&#160;&#160;&#160;&#160;This replaces `Model.__validators__` and `Model.__root_validators__` from Pydantic V1.&#10; &#160;&#160;&#160;__pydantic_generic_metadata__: Metadata for generic models; contains data used for a similar purpose to&#10; &#160;&#160;&#160;&#160;&#160;&#160;&#160;__args__, __origin__, __parameters__ in typing&#45;module generics. May eventually be replaced by these.&#10; &#160;&#160;&#160;__pydantic_parent_namespace__: Parent namespace of the model, used for automatic rebuilding of models.&#10; &#160;&#160;&#160;__pydantic_post_init__: The name of the post&#45;init method for the model, if defined.&#10; &#160;&#160;&#160;__pydantic_root_model__: Whether the model is a [`RootModel`][pydantic.root_model.RootModel].&#10; &#160;&#160;&#160;__pydantic_serializer__: The `pydantic&#45;core` `SchemaSerializer` used to dump instances of the model.&#10; &#160;&#160;&#160;__pydantic_validator__: The `pydantic&#45;core` `SchemaValidator` used to validate instances of the model.&#10;&#10; &#160;&#160;&#160;__pydantic_fields__: A dictionary of field names and their corresponding [`FieldInfo`][pydantic.fields.FieldInfo] objects.&#10; &#160;&#160;&#160;__pydantic_computed_fields__: A dictionary of computed field names and their corresponding [`ComputedFieldInfo`][pydantic.fields.ComputedFieldInfo] objects.&#10;&#10; &#160;&#160;&#160;__pydantic_extra__: A dictionary containing extra values, if [`extra`][pydantic.config.ConfigDict.extra]&#10; &#160;&#160;&#160;&#160;&#160;&#160;&#160;is set to `&#39;allow&#39;`.&#10; &#160;&#160;&#160;__pydantic_fields_set__: The names of fields explicitly set during instantiation.&#10; &#160;&#160;&#160;__pydantic_private__: Values of private attributes set on the model instance.&#10;">
<polygon fill="none" stroke="black" points="882,-152.75 882,-175.25 977.25,-175.25 977.25,-152.75 882,-152.75"/>
<text xml:space="preserve" text-anchor="start" x="885" y="-159.95" font-family="Times New Roman,Times,Liberation Serif,serif" font-weight="bold" font-size="14.00">BiasThreshold</text>
<polygon fill="none" stroke="black" points="882,-130.25 882,-152.75 933.38,-152.75 933.38,-130.25 882,-130.25"/>
<text xml:space="preserve" text-anchor="start" x="891.19" y="-137" font-family="Times New Roman,Times,Liberation Serif,serif" font-size="14.00">upper</text>
<polygon fill="none" stroke="black" points="933.38,-130.25 933.38,-152.75 977.25,-152.75 977.25,-130.25 933.38,-130.25"/>
<text xml:space="preserve" text-anchor="start" x="942.56" y="-137" font-family="Times New Roman,Times,Liberation Serif,serif" font-size="14.00">float</text>
<polygon fill="none" stroke="black" points="882,-107.75 882,-130.25 933.38,-130.25 933.38,-107.75 882,-107.75"/>
<text xml:space="preserve" text-anchor="start" x="891.56" y="-114.5" font-family="Times New Roman,Times,Liberation Serif,serif" font-size="14.00">lower</text>
<polygon fill="none" stroke="black" points="933.38,-107.75 933.38,-130.25 977.25,-130.25 977.25,-107.75 933.38,-107.75"/>
<text xml:space="preserve" text-anchor="start" x="942.56" y="-114.5" font-family="Times New Roman,Times,Liberation Serif,serif" font-size="14.00">float</text>
</a>
</g>
</g>
<!-- aind_behavior_dynamic_foraging.task_logic.interventions.bias_intervention.BiasInterventionParameters&#45;&gt;aind_behavior_dynamic_foraging.task_logic.interventions.bias_intervention.BiasThreshold -->
<g id="edge1" class="edge">
<title>aind_behavior_dynamic_foraging.task_logic.interventions.bias_intervention.BiasInterventionParameters:e&#45;&gt;aind_behavior_dynamic_foraging.task_logic.interventions.bias_intervention.BiasThreshold:w</title>
<path fill="none" stroke="black" d="M783.87,-164.74C819.07,-164.66 833.8,-164.15 867.08,-164.03"/>
<polyline fill="none" stroke="black" points="774,-164.75 779,-164.74"/>
<polyline fill="none" stroke="black" points="779,-164.74 784,-164.74"/>
<polyline fill="none" stroke="black" points="882,-164 877,-164.01"/>
<polygon fill="black" stroke="black" points="875.99,-159.01 876.01,-169.01 874.01,-169.01 873.99,-159.01 875.99,-159.01"/>
<polyline fill="none" stroke="black" points="877,-164.01 872,-164.02"/>
<polygon fill="black" stroke="black" points="870.99,-159.02 871.01,-169.02 869.01,-169.02 868.99,-159.02 870.99,-159.02"/>
<polyline fill="none" stroke="black" points="872,-164.02 867,-164.03"/>
</g>
<!-- aind_behavior_dynamic_foraging.task_logic.trial_generators.block_based_trial_generator.AutoWaterParameters -->
<g id="node3" class="node">
<title>aind_behavior_dynamic_foraging.task_logic.trial_generators.block_based_trial_generator.AutoWaterParameters</title>
<g id="a_node3"><a xlink:title="aind_behavior_dynamic_foraging.task_logic.trial_generators.block_based_trial_generator.AutoWaterParameters&#10;&#10;!!! abstract &quot;Usage Documentation&quot;&#10; &#160;&#160;&#160;[Models](../concepts/models.md)&#10;&#10;A base class for creating Pydantic models.&#10;&#10;Attributes:&#10; &#160;&#160;&#160;__class_vars__: The names of the class variables defined on the model.&#10; &#160;&#160;&#160;__private_attributes__: Metadata about the private attributes of the model.&#10; &#160;&#160;&#160;__signature__: The synthesized `__init__` [`Signature`][inspect.Signature] of the model.&#10;&#10; &#160;&#160;&#160;__pydantic_complete__: Whether model building is completed, or if there are still undefined fields.&#10; &#160;&#160;&#160;__pydantic_core_schema__: The core schema of the model.&#10; &#160;&#160;&#160;__pydantic_custom_init__: Whether the model has a custom `__init__` function.&#10; &#160;&#160;&#160;__pydantic_decorators__: Metadata containing the decorators defined on the model.&#10; &#160;&#160;&#160;&#160;&#160;&#160;&#160;This replaces `Model.__validators__` and `Model.__root_validators__` from Pydantic V1.&#10; &#160;&#160;&#160;__pydantic_generic_metadata__: Metadata for generic models; contains data used for a similar purpose to&#10; &#160;&#160;&#160;&#160;&#160;&#160;&#160;__args__, __origin__, __parameters__ in typing&#45;module generics. May eventually be replaced by these.&#10; &#160;&#160;&#160;__pydantic_parent_namespace__: Parent namespace of the model, used for automatic rebuilding of models.&#10; &#160;&#160;&#160;__pydantic_post_init__: The name of the post&#45;init method for the model, if defined.&#10; &#160;&#160;&#160;__pydantic_root_model__: Whether the model is a [`RootModel`][pydantic.root_model.RootModel].&#10; &#160;&#160;&#160;__pydantic_serializer__: The `pydantic&#45;core` `SchemaSerializer` used to dump instances of the model.&#10; &#160;&#160;&#160;__pydantic_validator__: The `pydantic&#45;core` `SchemaValidator` used to validate instances of the model.&#10;&#10; &#160;&#160;&#160;__pydantic_fields__: A dictionary of field names and their corresponding [`FieldInfo`][pydantic.fields.FieldInfo] objects.&#10; &#160;&#160;&#160;__pydantic_computed_fields__: A dictionary of computed field names and their corresponding [`ComputedFieldInfo`][pydantic.fields.ComputedFieldInfo] objects.&#10;&#10; &#160;&#160;&#160;__pydantic_extra__: A dictionary containing extra values, if [`extra`][pydantic.config.ConfigDict.extra]&#10; &#160;&#160;&#160;&#160;&#160;&#160;&#160;is set to `&#39;allow&#39;`.&#10; &#160;&#160;&#160;__pydantic_fields_set__: The names of fields explicitly set during instantiation.&#10; &#160;&#160;&#160;__pydantic_private__: Values of private attributes set on the model instance.&#10;">
<polygon fill="none" stroke="black" points="558.38,-302 558.38,-324.5 727.88,-324.5 727.88,-302 558.38,-302"/>
<text xml:space="preserve" text-anchor="start" x="574.12" y="-309.2" font-family="Times New Roman,Times,Liberation Serif,serif" font-weight="bold" font-size="14.00">AutoWaterParameters</text>
<polygon fill="none" stroke="black" points="558.38,-279.5 558.38,-302 696.38,-302 696.38,-279.5 558.38,-279.5"/>
<text xml:space="preserve" text-anchor="start" x="573" y="-286.25" font-family="Times New Roman,Times,Liberation Serif,serif" font-size="14.00">min_ignored_trials</text>
<polygon fill="none" stroke="black" points="696.38,-279.5 696.38,-302 727.88,-302 727.88,-279.5 696.38,-279.5"/>
<text xml:space="preserve" text-anchor="start" x="704.62" y="-286.25" font-family="Times New Roman,Times,Liberation Serif,serif" font-size="14.00">int</text>
<polygon fill="none" stroke="black" points="558.38,-257 558.38,-279.5 696.38,-279.5 696.38,-257 558.38,-257"/>
<text xml:space="preserve" text-anchor="start" x="561.38" y="-263.75" font-family="Times New Roman,Times,Liberation Serif,serif" font-size="14.00">min_unrewarded_trials</text>
<polygon fill="none" stroke="black" points="696.38,-257 696.38,-279.5 727.88,-279.5 727.88,-257 696.38,-257"/>
<text xml:space="preserve" text-anchor="start" x="704.62" y="-263.75" font-family="Times New Roman,Times,Liberation Serif,serif" font-size="14.00">int</text>
<polygon fill="none" stroke="black" points="558.38,-234.5 558.38,-257 696.38,-257 696.38,-234.5 558.38,-234.5"/>
<text xml:space="preserve" text-anchor="start" x="582.38" y="-241.25" font-family="Times New Roman,Times,Liberation Serif,serif" font-size="14.00">reward_fraction</text>
<polygon fill="none" stroke="black" points="696.38,-234.5 696.38,-257 727.88,-257 727.88,-234.5 696.38,-234.5"/>
<text xml:space="preserve" text-anchor="start" x="699.38" y="-241.25" font-family="Times New Roman,Times,Liberation Serif,serif" font-size="14.00">float</text>
</a>
</g>
</g>
<!-- aind_behavior_dynamic_foraging.task_logic.trial_generators.block_based_trial_generator.BlockBasedTrialGeneratorSpec -->
<g id="node4" class="node">
<title>aind_behavior_dynamic_foraging.task_logic.trial_generators.block_based_trial_generator.BlockBasedTrialGeneratorSpec</title>
<g id="a_node4"><a xlink:title="aind_behavior_dynamic_foraging.task_logic.trial_generators.block_based_trial_generator.BlockBasedTrialGeneratorSpec&#10;&#10;Base model for trial generator specifications.&#10;">
<polygon fill="none" stroke="black" points="0,-465.75 0,-488.25 404.25,-488.25 404.25,-465.75 0,-465.75"/>
<text xml:space="preserve" text-anchor="start" x="105.38" y="-472.95" font-family="Times New Roman,Times,Liberation Serif,serif" font-weight="bold" font-size="14.00">BlockBasedTrialGeneratorSpec</text>
<polygon fill="none" stroke="black" points="0,-443.25 0,-465.75 183,-465.75 183,-443.25 0,-443.25"/>
<text xml:space="preserve" text-anchor="start" x="79.12" y="-450" font-family="Times New Roman,Times,Liberation Serif,serif" font-size="14.00">type</text>
<polygon fill="none" stroke="black" points="183,-443.25 183,-465.75 404.25,-465.75 404.25,-443.25 183,-443.25"/>
<text xml:space="preserve" text-anchor="start" x="192.75" y="-450" font-family="Times New Roman,Times,Liberation Serif,serif" font-size="14.00">Literal[&#39;BlockBasedTrialGenerator&#39;]</text>
<polygon fill="none" stroke="black" points="0,-420.75 0,-443.25 183,-443.25 183,-420.75 0,-420.75"/>
<text xml:space="preserve" text-anchor="start" x="57.75" y="-427.5" font-family="Times New Roman,Times,Liberation Serif,serif" font-size="14.00">reward_size</text>
<polygon fill="none" stroke="black" points="183,-420.75 183,-443.25 404.25,-443.25 404.25,-420.75 183,-420.75"/>
<text xml:space="preserve" text-anchor="start" x="259.5" y="-427.5" font-family="Times New Roman,Times,Liberation Serif,serif" font-size="14.00">RewardSize</text>
<polygon fill="none" stroke="black" points="0,-398.25 0,-420.75 183,-420.75 183,-398.25 0,-398.25"/>
<text xml:space="preserve" text-anchor="start" x="37.12" y="-405" font-family="Times New Roman,Times,Liberation Serif,serif" font-size="14.00">quiescent_duration</text>
<polygon fill="none" stroke="black" points="183,-398.25 183,-420.75 404.25,-420.75 404.25,-398.25 183,-398.25"/>
<text xml:space="preserve" text-anchor="start" x="259.12" y="-405" font-family="Times New Roman,Times,Liberation Serif,serif" font-size="14.00">Distribution</text>
<polygon fill="none" stroke="black" points="0,-375.75 0,-398.25 183,-398.25 183,-375.75 0,-375.75"/>
<text xml:space="preserve" text-anchor="start" x="39" y="-382.5" font-family="Times New Roman,Times,Liberation Serif,serif" font-size="14.00">response_duration</text>
<polygon fill="none" stroke="black" points="183,-375.75 183,-398.25 404.25,-398.25 404.25,-375.75 183,-375.75"/>
<text xml:space="preserve" text-anchor="start" x="280.88" y="-382.5" font-family="Times New Roman,Times,Liberation Serif,serif" font-size="14.00">float</text>
<polygon fill="none" stroke="black" points="0,-353.25 0,-375.75 183,-375.75 183,-353.25 0,-353.25"/>
<text xml:space="preserve" text-anchor="start" x="3" y="-360" font-family="Times New Roman,Times,Liberation Serif,serif" font-size="14.00">reward_consumption_duration</text>
<polygon fill="none" stroke="black" points="183,-353.25 183,-375.75 404.25,-375.75 404.25,-353.25 183,-353.25"/>
<text xml:space="preserve" text-anchor="start" x="280.88" y="-360" font-family="Times New Roman,Times,Liberation Serif,serif" font-size="14.00">float</text>
<polygon fill="none" stroke="black" points="0,-330.75 0,-353.25 183,-353.25 183,-330.75 0,-330.75"/>
<text xml:space="preserve" text-anchor="start" x="11.25" y="-337.5" font-family="Times New Roman,Times,Liberation Serif,serif" font-size="14.00">inter_trial_interval_duration</text>
<polygon fill="none" stroke="black" points="183,-330.75 183,-353.25 404.25,-353.25 404.25,-330.75 183,-330.75"/>
<text xml:space="preserve" text-anchor="start" x="259.12" y="-337.5" font-family="Times New Roman,Times,Liberation Serif,serif" font-size="14.00">Distribution</text>
<polygon fill="none" stroke="black" points="0,-308.25 0,-330.75 183,-330.75 183,-308.25 0,-308.25"/>
<text xml:space="preserve" text-anchor="start" x="53.62" y="-315" font-family="Times New Roman,Times,Liberation Serif,serif" font-size="14.00">block_length</text>
<polygon fill="none" stroke="black" points="183,-308.25 183,-330.75 404.25,-330.75 404.25,-308.25 183,-308.25"/>
<text xml:space="preserve" text-anchor="start" x="259.12" y="-315" font-family="Times New Roman,Times,Liberation Serif,serif" font-size="14.00">Distribution</text>
<polygon fill="none" stroke="black" points="0,-285.75 0,-308.25 183,-308.25 183,-285.75 0,-285.75"/>
<text xml:space="preserve" text-anchor="start" x="29.62" y="-292.5" font-family="Times New Roman,Times,Liberation Serif,serif" font-size="14.00">autowater_parameters</text>
<polygon fill="none" stroke="black" points="183,-285.75 183,-308.25 404.25,-308.25 404.25,-285.75 183,-285.75"/>
<text xml:space="preserve" text-anchor="start" x="202.12" y="-292.5" font-family="Times New Roman,Times,Liberation Serif,serif" font-size="14.00">Optional[AutoWaterParameters]</text>
<polygon fill="none" stroke="black" points="0,-263.25 0,-285.75 183,-285.75 183,-263.25 0,-263.25"/>
<text xml:space="preserve" text-anchor="start" x="7.88" y="-270" font-family="Times New Roman,Times,Liberation Serif,serif" font-size="14.00">bias_intervention_parameters</text>
<polygon fill="none" stroke="black" points="183,-263.25 183,-285.75 404.25,-285.75 404.25,-263.25 183,-263.25"/>
<text xml:space="preserve" text-anchor="start" x="186" y="-270" font-family="Times New Roman,Times,Liberation Serif,serif" font-size="14.00">Optional[BiasInterventionParameters]</text>
<polygon fill="none" stroke="black" points="0,-240.75 0,-263.25 183,-263.25 183,-240.75 0,-240.75"/>
<text xml:space="preserve" text-anchor="start" x="63.38" y="-247.5" font-family="Times New Roman,Times,Liberation Serif,serif" font-size="14.00">is_baiting</text>
<polygon fill="none" stroke="black" points="183,-240.75 183,-263.25 404.25,-263.25 404.25,-240.75 183,-240.75"/>
<text xml:space="preserve" text-anchor="start" x="280.5" y="-247.5" font-family="Times New Roman,Times,Liberation Serif,serif" font-size="14.00">bool</text>
</a>
</g>
</g>
<!-- aind_behavior_dynamic_foraging.task_logic.trial_generators.block_based_trial_generator.BlockBasedTrialGeneratorSpec&#45;&gt;aind_behavior_dynamic_foraging.task_logic.interventions.bias_intervention.BiasInterventionParameters -->
<g id="edge3" class="edge">
<title>aind_behavior_dynamic_foraging.task_logic.trial_generators.block_based_trial_generator.BlockBasedTrialGeneratorSpec:e&#45;&gt;aind_behavior_dynamic_foraging.task_logic.interventions.bias_intervention.BiasInterventionParameters:w</title>
<path fill="none" stroke="black" d="M414.02,-273.69C458.25,-265.98 455.68,-205.32 493.64,-190.5"/>
<polyline fill="none" stroke="black" points="404.25,-274.5 409.23,-274.09"/>
<polyline fill="none" stroke="black" points="409.23,-274.09 414.22,-273.68"/>
<polyline fill="none" stroke="black" points="512.25,-187.25 507.32,-188.11"/>
<polygon fill="black" stroke="black" points="505.48,-183.36 507.2,-193.21 505.23,-193.55 503.51,-183.7 505.48,-183.36"/>
<polyline fill="none" stroke="black" points="507.32,-188.11 502.4,-188.97"/>
<ellipse fill="none" stroke="black" cx="497.97" cy="-189.75" rx="4" ry="4"/>
</g>
<!-- aind_behavior_dynamic_foraging.task_logic.trial_generators.block_based_trial_generator.BlockBasedTrialGeneratorSpec&#45;&gt;aind_behavior_dynamic_foraging.task_logic.trial_generators.block_based_trial_generator.AutoWaterParameters -->
<g id="edge2" class="edge">
<title>aind_behavior_dynamic_foraging.task_logic.trial_generators.block_based_trial_generator.BlockBasedTrialGeneratorSpec:e&#45;&gt;aind_behavior_dynamic_foraging.task_logic.trial_generators.block_based_trial_generator.AutoWaterParameters:w</title>
<path fill="none" stroke="black" d="M413.91,-297.11C468.14,-298.4 488.12,-310.35 538.58,-312.81"/>
<polyline fill="none" stroke="black" points="404.25,-297 409.25,-297.06"/>
<polyline fill="none" stroke="black" points="409.25,-297.06 414.25,-297.12"/>
<polyline fill="none" stroke="black" points="557.38,-313.25 552.38,-313.13"/>
<polygon fill="black" stroke="black" points="551.49,-308.11 551.26,-318.11 549.26,-318.06 549.49,-308.06 551.49,-308.11"/>
<polyline fill="none" stroke="black" points="552.38,-313.13 547.38,-313.02"/>
<ellipse fill="none" stroke="black" cx="542.88" cy="-312.91" rx="4" ry="4"/>
</g>
<!-- aind_behavior_dynamic_foraging.task_logic.trial_models.RewardSize -->
<g id="node5" class="node">
<title>aind_behavior_dynamic_foraging.task_logic.trial_models.RewardSize</title>
<g id="a_node5"><a xlink:title="aind_behavior_dynamic_foraging.task_logic.trial_models.RewardSize&#10;&#10;!!! abstract &quot;Usage Documentation&quot;&#10; &#160;&#160;&#160;[Models](../concepts/models.md)&#10;&#10;A base class for creating Pydantic models.&#10;&#10;Attributes:&#10; &#160;&#160;&#160;__class_vars__: The names of the class variables defined on the model.&#10; &#160;&#160;&#160;__private_attributes__: Metadata about the private attributes of the model.&#10; &#160;&#160;&#160;__signature__: The synthesized `__init__` [`Signature`][inspect.Signature] of the model.&#10;&#10; &#160;&#160;&#160;__pydantic_complete__: Whether model building is completed, or if there are still undefined fields.&#10; &#160;&#160;&#160;__pydantic_core_schema__: The core schema of the model.&#10; &#160;&#160;&#160;__pydantic_custom_init__: Whether the model has a custom `__init__` function.&#10; &#160;&#160;&#160;__pydantic_decorators__: Metadata containing the decorators defined on the model.&#10; &#160;&#160;&#160;&#160;&#160;&#160;&#160;This replaces `Model.__validators__` and `Model.__root_validators__` from Pydantic V1.&#10; &#160;&#160;&#160;__pydantic_generic_metadata__: Metadata for generic models; contains data used for a similar purpose to&#10; &#160;&#160;&#160;&#160;&#160;&#160;&#160;__args__, __origin__, __parameters__ in typing&#45;module generics. May eventually be replaced by these.&#10; &#160;&#160;&#160;__pydantic_parent_namespace__: Parent namespace of the model, used for automatic rebuilding of models.&#10; &#160;&#160;&#160;__pydantic_post_init__: The name of the post&#45;init method for the model, if defined.&#10; &#160;&#160;&#160;__pydantic_root_model__: Whether the model is a [`RootModel`][pydantic.root_model.RootModel].&#10; &#160;&#160;&#160;__pydantic_serializer__: The `pydantic&#45;core` `SchemaSerializer` used to dump instances of the model.&#10; &#160;&#160;&#160;__pydantic_validator__: The `pydantic&#45;core` `SchemaValidator` used to validate instances of the model.&#10;&#10; &#160;&#160;&#160;__pydantic_fields__: A dictionary of field names and their corresponding [`FieldInfo`][pydantic.fields.FieldInfo] objects.&#10; &#160;&#160;&#160;__pydantic_computed_fields__: A dictionary of computed field names and their corresponding [`ComputedFieldInfo`][pydantic.fields.ComputedFieldInfo] objects.&#10;&#10; &#160;&#160;&#160;__pydantic_extra__: A dictionary containing extra values, if [`extra`][pydantic.config.ConfigDict.extra]&#10; &#160;&#160;&#160;&#160;&#160;&#160;&#160;is set to `&#39;allow&#39;`.&#10; &#160;&#160;&#160;__pydantic_fields_set__: The names of fields explicitly set during instantiation.&#10; &#160;&#160;&#160;__pydantic_private__: Values of private attributes set on the model instance.&#10;">
<polygon fill="none" stroke="black" points="603.75,-420.75 603.75,-443.25 682.5,-443.25 682.5,-420.75 603.75,-420.75"/>
<text xml:space="preserve" text-anchor="start" x="606.75" y="-427.95" font-family="Times New Roman,Times,Liberation Serif,serif" font-weight="bold" font-size="14.00">RewardSize</text>
<polygon fill="none" stroke="black" points="603.75,-398.25 603.75,-420.75 643.88,-420.75 643.88,-398.25 603.75,-398.25"/>
<text xml:space="preserve" text-anchor="start" x="610.31" y="-405" font-family="Times New Roman,Times,Liberation Serif,serif" font-size="14.00">right</text>
<polygon fill="none" stroke="black" points="643.88,-398.25 643.88,-420.75 682.5,-420.75 682.5,-398.25 643.88,-398.25"/>
<text xml:space="preserve" text-anchor="start" x="650.44" y="-405" font-family="Times New Roman,Times,Liberation Serif,serif" font-size="14.00">float</text>
<polygon fill="none" stroke="black" points="603.75,-375.75 603.75,-398.25 643.88,-398.25 643.88,-375.75 603.75,-375.75"/>
<text xml:space="preserve" text-anchor="start" x="614.81" y="-382.5" font-family="Times New Roman,Times,Liberation Serif,serif" font-size="14.00">left</text>
<polygon fill="none" stroke="black" points="643.88,-375.75 643.88,-398.25 682.5,-398.25 682.5,-375.75 643.88,-375.75"/>
<text xml:space="preserve" text-anchor="start" x="650.44" y="-382.5" font-family="Times New Roman,Times,Liberation Serif,serif" font-size="14.00">float</text>
</a>
</g>
</g>
<!-- aind_behavior_dynamic_foraging.task_logic.trial_generators.block_based_trial_generator.BlockBasedTrialGeneratorSpec&#45;&gt;aind_behavior_dynamic_foraging.task_logic.trial_models.RewardSize -->
<g id="edge4" class="edge">
<title>aind_behavior_dynamic_foraging.task_logic.trial_generators.block_based_trial_generator.BlockBasedTrialGeneratorSpec:e&#45;&gt;aind_behavior_dynamic_foraging.task_logic.trial_models.RewardSize:w</title>
<path fill="none" stroke="black" d="M413.81,-432C489.33,-432 514.74,-432 587.97,-432"/>
<polyline fill="none" stroke="black" points="404.25,-432 409.25,-432"/>
<polyline fill="none" stroke="black" points="409.25,-432 414.25,-432"/>
<polyline fill="none" stroke="black" points="602.75,-432 597.75,-432"/>
<polygon fill="black" stroke="black" points="596.75,-427 596.75,-437 594.75,-437 594.75,-427 596.75,-427"/>
<polyline fill="none" stroke="black" points="597.75,-432 592.75,-432"/>
<polygon fill="black" stroke="black" points="591.75,-427 591.75,-437 589.75,-437 589.75,-427 591.75,-427"/>
<polyline fill="none" stroke="black" points="592.75,-432 587.75,-432"/>
</g>
</g>
</svg>
