<?xml version="1.0" encoding="UTF-8" standalone="no"?>
<!DOCTYPE svg PUBLIC "-//W3C//DTD SVG 1.1//EN"
 "http://www.w3.org/Graphics/SVG/1.1/DTD/svg11.dtd">
<!-- Generated by graphviz version 2.43.0 (0)
 -->
<!-- Title: Entity Relationship Diagram created by erdantic Pages: 1 -->
<svg width="824pt" height="504pt"
 viewBox="0.00 0.00 824.00 504.00" xmlns="http://www.w3.org/2000/svg" xmlns:xlink="http://www.w3.org/1999/xlink">
<g id="graph0" class="graph" transform="scale(1 1) rotate(0) translate(4 500)">
<title>Entity Relationship Diagram created by erdantic</title>
<polygon fill="white" stroke="transparent" points="-4,4 -4,-500 820,-500 820,4 -4,4"/>
<text text-anchor="middle" x="408" y="-6.8" font-family="Times New Roman,Times,Liberation Serif,serif" font-size="9.00" fill="#a8a8a8">Created by erdantic v1.2.1 &lt;https://github.com/drivendataorg/erdantic&gt;</text>
<!-- aind_behavior_dynamic_foraging.task_logic.trial_generators.block_based_trial_generator.RewardProbabilityParameters -->
<g id="node1" class="node">
<title>aind_behavior_dynamic_foraging.task_logic.trial_generators.block_based_trial_generator.RewardProbabilityParameters</title>
<g id="a_node1"><a xlink:title="aind_behavior_dynamic_foraging.task_logic.trial_generators.block_based_trial_generator.RewardProbabilityParameters&#10;&#10;Defines the reward probability structure for a dynamic foraging task.&#10;&#10;Reward probabilities are defined as pairs (p_left, p_right) normalized by&#10;base_reward_sum. Pairs are drawn from a family representing a difficulty level:&#10;&#10; &#160;&#160;&#160;Family 0: &#160;&#160;[[8, 1], [6, 1], [3, 1], [1, 1]]&#10; &#160;&#160;&#160;Family 1: &#160;[[8, 1], [1, 1]]&#10; &#160;&#160;&#160;Family 2: &#160;[[1.0, 0.0], [0.9, 0.1], [0.8, 0.2], [0.7, 0.3], [0.6, 0.4], [0.5, 0.5]]&#10; &#160;&#160;&#160;Family 3: &#160;[[6, 1], [3, 1], [1, 1]]&#10;">
<polygon fill="none" stroke="black" points="554.5,-342 554.5,-363 774.5,-363 774.5,-342 554.5,-342"/>
<text text-anchor="start" x="575" y="-349.8" font-family="Times New Roman,Times,Liberation Serif,serif" font-weight="bold" font-size="14.00">RewardProbabilityParameters</text>
<polygon fill="none" stroke="black" points="554.5,-321 554.5,-342 659.5,-342 659.5,-321 554.5,-321"/>
<text text-anchor="start" x="557.5" y="-327.8" font-family="Times New Roman,Times,Liberation Serif,serif" font-size="14.00">base_reward_sum</text>
<polygon fill="none" stroke="black" points="659.5,-321 659.5,-342 774.5,-342 774.5,-321 659.5,-321"/>
<text text-anchor="start" x="704.5" y="-327.8" font-family="Times New Roman,Times,Liberation Serif,serif" font-size="14.00">float</text>
<polygon fill="none" stroke="black" points="554.5,-300 554.5,-321 659.5,-321 659.5,-300 554.5,-300"/>
<text text-anchor="start" x="571.5" y="-306.8" font-family="Times New Roman,Times,Liberation Serif,serif" font-size="14.00">reward_pairs</text>
<polygon fill="none" stroke="black" points="659.5,-300 659.5,-321 774.5,-321 774.5,-300 659.5,-300"/>
<text text-anchor="start" x="662.5" y="-306.8" font-family="Times New Roman,Times,Liberation Serif,serif" font-size="14.00">list[list[float, float]]</text>
</a>
</g>
</g>
<!-- aind_behavior_dynamic_foraging.task_logic.trial_generators.coupled_trial_generator.BehaviorStabilityParameters -->
<g id="node2" class="node">
<title>aind_behavior_dynamic_foraging.task_logic.trial_generators.coupled_trial_generator.BehaviorStabilityParameters</title>
<g id="a_node2"><a xlink:title="aind_behavior_dynamic_foraging.task_logic.trial_generators.coupled_trial_generator.BehaviorStabilityParameters&#10;&#10;Parameters controlling when behavior is considered stable enough to switch blocks.&#10;">
<polygon fill="none" stroke="black" points="513.5,-81 513.5,-102 816.5,-102 816.5,-81 513.5,-81"/>
<text text-anchor="start" x="580.5" y="-88.8" font-family="Times New Roman,Times,Liberation Serif,serif" font-weight="bold" font-size="14.00">BehaviorStabilityParameters</text>
<polygon fill="none" stroke="black" points="513.5,-60 513.5,-81 684.5,-81 684.5,-60 513.5,-60"/>
<text text-anchor="start" x="525" y="-66.8" font-family="Times New Roman,Times,Liberation Serif,serif" font-size="14.00">behavior_evaluation_mode</text>
<polygon fill="none" stroke="black" points="684.5,-60 684.5,-81 816.5,-81 816.5,-60 684.5,-60"/>
<text text-anchor="start" x="687.5" y="-66.8" font-family="Times New Roman,Times,Liberation Serif,serif" font-size="14.00">Literal[&#39;end&#39;, &#39;anytime&#39;]</text>
<polygon fill="none" stroke="black" points="513.5,-39 513.5,-60 684.5,-60 684.5,-39 513.5,-39"/>
<text text-anchor="start" x="525.5" y="-45.8" font-family="Times New Roman,Times,Liberation Serif,serif" font-size="14.00">behavior_stability_fraction</text>
<polygon fill="none" stroke="black" points="684.5,-39 684.5,-60 816.5,-60 816.5,-39 684.5,-39"/>
<text text-anchor="start" x="738" y="-45.8" font-family="Times New Roman,Times,Liberation Serif,serif" font-size="14.00">float</text>
<polygon fill="none" stroke="black" points="513.5,-18 513.5,-39 684.5,-39 684.5,-18 513.5,-18"/>
<text text-anchor="start" x="516.5" y="-24.8" font-family="Times New Roman,Times,Liberation Serif,serif" font-size="14.00">min_consecutive_stable_trials</text>
<polygon fill="none" stroke="black" points="684.5,-18 684.5,-39 816.5,-39 816.5,-18 684.5,-18"/>
<text text-anchor="start" x="743" y="-24.8" font-family="Times New Roman,Times,Liberation Serif,serif" font-size="14.00">int</text>
</a>
</g>
</g>
<!-- aind_behavior_dynamic_foraging.task_logic.trial_generators.coupled_trial_generator.CoupledTrialGenerationEndConditions -->
<g id="node3" class="node">
<title>aind_behavior_dynamic_foraging.task_logic.trial_generators.coupled_trial_generator.CoupledTrialGenerationEndConditions</title>
<g id="a_node3"><a xlink:title="aind_behavior_dynamic_foraging.task_logic.trial_generators.coupled_trial_generator.CoupledTrialGenerationEndConditions&#10;&#10;Defines the conditions under which a foraging session should terminate.&#10;">
<polygon fill="none" stroke="black" points="546.5,-243 546.5,-264 783.5,-264 783.5,-243 546.5,-243"/>
<text text-anchor="start" x="549.5" y="-250.8" font-family="Times New Roman,Times,Liberation Serif,serif" font-weight="bold" font-size="14.00">CoupledTrialGenerationEndConditions</text>
<polygon fill="none" stroke="black" points="546.5,-222 546.5,-243 714.5,-243 714.5,-222 546.5,-222"/>
<text text-anchor="start" x="599.5" y="-228.8" font-family="Times New Roman,Times,Liberation Serif,serif" font-size="14.00">ignore_win</text>
<polygon fill="none" stroke="black" points="714.5,-222 714.5,-243 783.5,-243 783.5,-222 714.5,-222"/>
<text text-anchor="start" x="741.5" y="-228.8" font-family="Times New Roman,Times,Liberation Serif,serif" font-size="14.00">int</text>
<polygon fill="none" stroke="black" points="546.5,-201 546.5,-222 714.5,-222 714.5,-201 546.5,-201"/>
<text text-anchor="start" x="568.5" y="-207.8" font-family="Times New Roman,Times,Liberation Serif,serif" font-size="14.00">ignore_ratio_threshold</text>
<polygon fill="none" stroke="black" points="714.5,-201 714.5,-222 783.5,-222 783.5,-201 714.5,-201"/>
<text text-anchor="start" x="736.5" y="-207.8" font-family="Times New Roman,Times,Liberation Serif,serif" font-size="14.00">float</text>
<polygon fill="none" stroke="black" points="546.5,-180 546.5,-201 714.5,-201 714.5,-180 546.5,-180"/>
<text text-anchor="start" x="604" y="-186.8" font-family="Times New Roman,Times,Liberation Serif,serif" font-size="14.00">max_trial</text>
<polygon fill="none" stroke="black" points="714.5,-180 714.5,-201 783.5,-201 783.5,-180 714.5,-180"/>
<text text-anchor="start" x="741.5" y="-186.8" font-family="Times New Roman,Times,Liberation Serif,serif" font-size="14.00">int</text>
<polygon fill="none" stroke="black" points="546.5,-159 546.5,-180 714.5,-180 714.5,-159 546.5,-159"/>
<text text-anchor="start" x="602.5" y="-165.8" font-family="Times New Roman,Times,Liberation Serif,serif" font-size="14.00">max_time</text>
<polygon fill="none" stroke="black" points="714.5,-159 714.5,-180 783.5,-180 783.5,-159 714.5,-159"/>
<text text-anchor="start" x="736.5" y="-165.8" font-family="Times New Roman,Times,Liberation Serif,serif" font-size="14.00">float</text>
<polygon fill="none" stroke="black" points="546.5,-138 546.5,-159 714.5,-159 714.5,-138 546.5,-138"/>
<text text-anchor="start" x="603.5" y="-144.8" font-family="Times New Roman,Times,Liberation Serif,serif" font-size="14.00">min_time</text>
<polygon fill="none" stroke="black" points="714.5,-138 714.5,-159 783.5,-159 783.5,-138 714.5,-138"/>
<text text-anchor="start" x="736.5" y="-144.8" font-family="Times New Roman,Times,Liberation Serif,serif" font-size="14.00">float</text>
</a>
</g>
</g>
<!-- aind_behavior_dynamic_foraging.task_logic.trial_generators.coupled_trial_generator.CoupledTrialGeneratorSpec -->
<g id="node4" class="node">
<title>aind_behavior_dynamic_foraging.task_logic.trial_generators.coupled_trial_generator.CoupledTrialGeneratorSpec</title>
<g id="a_node4"><a xlink:title="aind_behavior_dynamic_foraging.task_logic.trial_generators.coupled_trial_generator.CoupledTrialGeneratorSpec&#10;&#10;Base model for trial generator specifications.&#10;">
<polygon fill="none" stroke="black" points="0.5,-475 0.5,-496 405.5,-496 405.5,-475 0.5,-475"/>
<text text-anchor="start" x="120" y="-482.8" font-family="Times New Roman,Times,Liberation Serif,serif" font-weight="bold" font-size="14.00">CoupledTrialGeneratorSpec</text>
<polygon fill="none" stroke="black" points="0.5,-454 0.5,-475 185.5,-475 185.5,-454 0.5,-454"/>
<text text-anchor="start" x="81" y="-460.8" font-family="Times New Roman,Times,Liberation Serif,serif" font-size="14.00">type</text>
<polygon fill="none" stroke="black" points="185.5,-454 185.5,-475 405.5,-475 405.5,-454 185.5,-454"/>
<text text-anchor="start" x="207.5" y="-460.8" font-family="Times New Roman,Times,Liberation Serif,serif" font-size="14.00">Literal[&#39;CoupledTrialGenerator&#39;]</text>
<polygon fill="none" stroke="black" points="0.5,-433 0.5,-454 185.5,-454 185.5,-433 0.5,-433"/>
<text text-anchor="start" x="41.5" y="-439.8" font-family="Times New Roman,Times,Liberation Serif,serif" font-size="14.00">quiescent_duration</text>
<polygon fill="none" stroke="black" points="185.5,-433 185.5,-454 405.5,-454 405.5,-433 185.5,-433"/>
<text text-anchor="start" x="262.5" y="-439.8" font-family="Times New Roman,Times,Liberation Serif,serif" font-size="14.00">Distribution</text>
<polygon fill="none" stroke="black" points="0.5,-412 0.5,-433 185.5,-433 185.5,-412 0.5,-412"/>
<text text-anchor="start" x="43" y="-418.8" font-family="Times New Roman,Times,Liberation Serif,serif" font-size="14.00">response_duration</text>
<polygon fill="none" stroke="black" points="185.5,-412 185.5,-433 405.5,-433 405.5,-412 185.5,-412"/>
<text text-anchor="start" x="283" y="-418.8" font-family="Times New Roman,Times,Liberation Serif,serif" font-size="14.00">float</text>
<polygon fill="none" stroke="black" points="0.5,-391 0.5,-412 185.5,-412 185.5,-391 0.5,-391"/>
<text text-anchor="start" x="9.5" y="-397.8" font-family="Times New Roman,Times,Liberation Serif,serif" font-size="14.00">reward_consumption_duration</text>
<polygon fill="none" stroke="black" points="185.5,-391 185.5,-412 405.5,-412 405.5,-391 185.5,-391"/>
<text text-anchor="start" x="283" y="-397.8" font-family="Times New Roman,Times,Liberation Serif,serif" font-size="14.00">float</text>
<polygon fill="none" stroke="black" points="0.5,-370 0.5,-391 185.5,-391 185.5,-370 0.5,-370"/>
<text text-anchor="start" x="16" y="-376.8" font-family="Times New Roman,Times,Liberation Serif,serif" font-size="14.00">inter_trial_interval_duration</text>
<polygon fill="none" stroke="black" points="185.5,-370 185.5,-391 405.5,-391 405.5,-370 185.5,-370"/>
<text text-anchor="start" x="262.5" y="-376.8" font-family="Times New Roman,Times,Liberation Serif,serif" font-size="14.00">Distribution</text>
<polygon fill="none" stroke="black" points="0.5,-349 0.5,-370 185.5,-370 185.5,-349 0.5,-349"/>
<text text-anchor="start" x="66" y="-355.8" font-family="Times New Roman,Times,Liberation Serif,serif" font-size="14.00">block_len</text>
<polygon fill="none" stroke="black" points="185.5,-349 185.5,-370 405.5,-370 405.5,-349 185.5,-349"/>
<text text-anchor="start" x="262.5" y="-355.8" font-family="Times New Roman,Times,Liberation Serif,serif" font-size="14.00">Distribution</text>
<polygon fill="none" stroke="black" points="0.5,-328 0.5,-349 185.5,-349 185.5,-328 0.5,-328"/>
<text text-anchor="start" x="41.5" y="-334.8" font-family="Times New Roman,Times,Liberation Serif,serif" font-size="14.00">min_block_reward</text>
<polygon fill="none" stroke="black" points="185.5,-328 185.5,-349 405.5,-349 405.5,-328 185.5,-328"/>
<text text-anchor="start" x="288" y="-334.8" font-family="Times New Roman,Times,Liberation Serif,serif" font-size="14.00">int</text>
<polygon fill="none" stroke="black" points="0.5,-307 0.5,-328 185.5,-328 185.5,-307 0.5,-307"/>
<text text-anchor="start" x="62" y="-313.8" font-family="Times New Roman,Times,Liberation Serif,serif" font-size="14.00">kernel_size</text>
<polygon fill="none" stroke="black" points="185.5,-307 185.5,-328 405.5,-328 405.5,-307 185.5,-307"/>
<text text-anchor="start" x="288" y="-313.8" font-family="Times New Roman,Times,Liberation Serif,serif" font-size="14.00">int</text>
<polygon fill="none" stroke="black" points="0.5,-286 0.5,-307 185.5,-307 185.5,-286 0.5,-286"/>
<text text-anchor="start" x="7.5" y="-292.8" font-family="Times New Roman,Times,Liberation Serif,serif" font-size="14.00">reward_probability_parameters</text>
<polygon fill="none" stroke="black" points="185.5,-286 185.5,-307 405.5,-307 405.5,-286 185.5,-286"/>
<text text-anchor="start" x="214" y="-292.8" font-family="Times New Roman,Times,Liberation Serif,serif" font-size="14.00">RewardProbabilityParameters</text>
<polygon fill="none" stroke="black" points="0.5,-265 0.5,-286 185.5,-286 185.5,-265 0.5,-265"/>
<text text-anchor="start" x="66" y="-271.8" font-family="Times New Roman,Times,Liberation Serif,serif" font-size="14.00">is_baiting</text>
<polygon fill="none" stroke="black" points="185.5,-265 185.5,-286 405.5,-286 405.5,-265 185.5,-265"/>
<text text-anchor="start" x="283" y="-271.8" font-family="Times New Roman,Times,Liberation Serif,serif" font-size="14.00">bool</text>
<polygon fill="none" stroke="black" points="0.5,-244 0.5,-265 185.5,-265 185.5,-244 0.5,-244"/>
<text text-anchor="start" x="3.5" y="-250.8" font-family="Times New Roman,Times,Liberation Serif,serif" font-size="14.00">trial_generation_end_parameters</text>
<polygon fill="none" stroke="black" points="185.5,-244 185.5,-265 405.5,-265 405.5,-244 185.5,-244"/>
<text text-anchor="start" x="188.5" y="-250.8" font-family="Times New Roman,Times,Liberation Serif,serif" font-size="14.00">CoupledTrialGenerationEndConditions</text>
<polygon fill="none" stroke="black" points="0.5,-223 0.5,-244 185.5,-244 185.5,-223 0.5,-223"/>
<text text-anchor="start" x="10.5" y="-229.8" font-family="Times New Roman,Times,Liberation Serif,serif" font-size="14.00">behavior_stability_parameters</text>
<polygon fill="none" stroke="black" points="185.5,-223 185.5,-244 405.5,-244 405.5,-223 185.5,-223"/>
<text text-anchor="start" x="189" y="-229.8" font-family="Times New Roman,Times,Liberation Serif,serif" font-size="14.00">Optional[BehaviorStabilityParameters]</text>
<polygon fill="none" stroke="black" points="0.5,-202 0.5,-223 185.5,-223 185.5,-202 0.5,-202"/>
<text text-anchor="start" x="9" y="-208.8" font-family="Times New Roman,Times,Liberation Serif,serif" font-size="14.00">extend_block_on_no_response</text>
<polygon fill="none" stroke="black" points="185.5,-202 185.5,-223 405.5,-223 405.5,-202 185.5,-202"/>
<text text-anchor="start" x="283" y="-208.8" font-family="Times New Roman,Times,Liberation Serif,serif" font-size="14.00">bool</text>
</a>
</g>
</g>
<!-- aind_behavior_dynamic_foraging.task_logic.trial_generators.coupled_trial_generator.CoupledTrialGeneratorSpec&#45;&gt;aind_behavior_dynamic_foraging.task_logic.trial_generators.block_based_trial_generator.RewardProbabilityParameters -->
<g id="edge1" class="edge">
<title>aind_behavior_dynamic_foraging.task_logic.trial_generators.coupled_trial_generator.CoupledTrialGeneratorSpec:e&#45;&gt;aind_behavior_dynamic_foraging.task_logic.trial_generators.block_based_trial_generator.RewardProbabilityParameters:w</title>
<path fill="none" stroke="black" d="M415.29,-296.43C471.67,-301.22 484.49,-345.07 538.43,-352.06"/>
<polyline fill="none" stroke="black" points="405,-296 410,-296.21 "/>
<polyline fill="none" stroke="black" points="410,-296.21 414.99,-296.41 "/>
<polyline fill="none" stroke="black" points="553.5,-353 548.51,-352.69 "/>
<polygon fill="black" stroke="black" points="547.82,-347.64 547.2,-357.62 545.2,-357.49 545.83,-347.51 547.82,-347.64"/>
<polyline fill="none" stroke="black" points="548.51,-352.69 543.52,-352.38 "/>
<polygon fill="black" stroke="black" points="542.83,-347.33 542.21,-357.31 540.21,-357.18 540.84,-347.2 542.83,-347.33"/>
<polyline fill="none" stroke="black" points="543.52,-352.38 538.53,-352.07 "/>
</g>
<!-- aind_behavior_dynamic_foraging.task_logic.trial_generators.coupled_trial_generator.CoupledTrialGeneratorSpec&#45;&gt;aind_behavior_dynamic_foraging.task_logic.trial_generators.coupled_trial_generator.BehaviorStabilityParameters -->
<g id="edge2" class="edge">
<title>aind_behavior_dynamic_foraging.task_logic.trial_generators.coupled_trial_generator.CoupledTrialGeneratorSpec:e&#45;&gt;aind_behavior_dynamic_foraging.task_logic.trial_generators.coupled_trial_generator.BehaviorStabilityParameters:w</title>
<path fill="none" stroke="black" d="M415.28,-232.1C473.65,-221.19 444.54,-114.54 495.07,-95.05"/>
<polyline fill="none" stroke="black" points="405,-233 409.98,-232.56 "/>
<polyline fill="none" stroke="black" points="409.98,-232.56 414.96,-232.13 "/>
<polyline fill="none" stroke="black" points="513,-92 508.07,-92.84 "/>
<polygon fill="black" stroke="black" points="506.25,-88.08 507.92,-97.94 505.95,-98.27 504.28,-88.41 506.25,-88.08"/>
<polyline fill="none" stroke="black" points="508.07,-92.84 503.14,-93.68 "/>
<ellipse fill="none" stroke="black" cx="499.2" cy="-94.35" rx="4" ry="4"/>
</g>
<!-- aind_behavior_dynamic_foraging.task_logic.trial_generators.coupled_trial_generator.CoupledTrialGeneratorSpec&#45;&gt;aind_behavior_dynamic_foraging.task_logic.trial_generators.coupled_trial_generator.CoupledTrialGenerationEndConditions -->
<g id="edge3" class="edge">
<title>aind_behavior_dynamic_foraging.task_logic.trial_generators.coupled_trial_generator.CoupledTrialGeneratorSpec:e&#45;&gt;aind_behavior_dynamic_foraging.task_logic.trial_generators.coupled_trial_generator.CoupledTrialGenerationEndConditions:w</title>
<path fill="none" stroke="black" d="M415.18,-254C464.39,-254 483.12,-254 530.27,-254"/>
<polyline fill="none" stroke="black" points="405,-254 410,-254 "/>
<polyline fill="none" stroke="black" points="410,-254 415,-254 "/>
<polyline fill="none" stroke="black" points="545.5,-254 540.5,-254 "/>
<polygon fill="black" stroke="black" points="539.5,-249 539.5,-259 537.5,-259 537.5,-249 539.5,-249"/>
<polyline fill="none" stroke="black" points="540.5,-254 535.5,-254 "/>
<polygon fill="black" stroke="black" points="534.5,-249 534.5,-259 532.5,-259 532.5,-249 534.5,-249"/>
<polyline fill="none" stroke="black" points="535.5,-254 530.5,-254 "/>
</g>
</g>
</svg>
