<?xml version="1.0" encoding="UTF-8" standalone="no"?>
<!DOCTYPE svg PUBLIC "-//W3C//DTD SVG 1.1//EN"
 "http://www.w3.org/Graphics/SVG/1.1/DTD/svg11.dtd">
<!-- Generated by graphviz version 2.43.0 (0)
 -->
<!-- Title: Entity Relationship Diagram created by erdantic Pages: 1 -->
<svg width="858pt" height="420pt"
 viewBox="0.00 0.00 858.00 420.00" xmlns="http://www.w3.org/2000/svg" xmlns:xlink="http://www.w3.org/1999/xlink">
<g id="graph0" class="graph" transform="scale(1 1) rotate(0) translate(4 416)">
<title>Entity Relationship Diagram created by erdantic</title>
<polygon fill="white" stroke="transparent" points="-4,4 -4,-416 854,-416 854,4 -4,4"/>
<text text-anchor="middle" x="425" y="-6.8" font-family="Times New Roman,Times,Liberation Serif,serif" font-size="9.00" fill="#a8a8a8">Created by erdantic v1.2.1 &lt;https://github.com/drivendataorg/erdantic&gt;</text>
<!-- aind_behavior_dynamic_foraging.task_logic.trial_generators.block_based_trial_generator.AutoWaterParameters -->
<g id="node1" class="node">
<title>aind_behavior_dynamic_foraging.task_logic.trial_generators.block_based_trial_generator.AutoWaterParameters</title>
<g id="a_node1"><a xlink:title="aind_behavior_dynamic_foraging.task_logic.trial_generators.block_based_trial_generator.AutoWaterParameters&#10;&#10;!!! abstract &quot;Usage Documentation&quot;&#10; &#160;&#160;&#160;[Models](../concepts/models.md)&#10;&#10;A base class for creating Pydantic models.&#10;&#10;Attributes:&#10; &#160;&#160;&#160;__class_vars__: The names of the class variables defined on the model.&#10; &#160;&#160;&#160;__private_attributes__: Metadata about the private attributes of the model.&#10; &#160;&#160;&#160;__signature__: The synthesized `__init__` [`Signature`][inspect.Signature] of the model.&#10;&#10; &#160;&#160;&#160;__pydantic_complete__: Whether model building is completed, or if there are still undefined fields.&#10; &#160;&#160;&#160;__pydantic_core_schema__: The core schema of the model.&#10; &#160;&#160;&#160;__pydantic_custom_init__: Whether the model has a custom `__init__` function.&#10; &#160;&#160;&#160;__pydantic_decorators__: Metadata containing the decorators defined on the model.&#10; &#160;&#160;&#160;&#160;&#160;&#160;&#160;This replaces `Model.__validators__` and `Model.__root_validators__` from Pydantic V1.&#10; &#160;&#160;&#160;__pydantic_generic_metadata__: Metadata for generic models; contains data used for a similar purpose to&#10; &#160;&#160;&#160;&#160;&#160;&#160;&#160;__args__, __origin__, __parameters__ in typing&#45;module generics. May eventually be replaced by these.&#10; &#160;&#160;&#160;__pydantic_parent_namespace__: Parent namespace of the model, used for automatic rebuilding of models.&#10; &#160;&#160;&#160;__pydantic_post_init__: The name of the post&#45;init method for the model, if defined.&#10; &#160;&#160;&#160;__pydantic_root_model__: Whether the model is a [`RootModel`][pydantic.root_model.RootModel].&#10; &#160;&#160;&#160;__pydantic_serializer__: The `pydantic&#45;core` `SchemaSerializer` used to dump instances of the model.&#10; &#160;&#160;&#160;__pydantic_validator__: The `pydantic&#45;core` `SchemaValidator` used to validate instances of the model.&#10;&#10; &#160;&#160;&#160;__pydantic_fields__: A dictionary of field names and their corresponding [`FieldInfo`][pydantic.fields.FieldInfo] objects.&#10; &#160;&#160;&#160;__pydantic_computed_fields__: A dictionary of computed field names and their corresponding [`ComputedFieldInfo`][pydantic.fields.ComputedFieldInfo] objects.&#10;&#10; &#160;&#160;&#160;__pydantic_extra__: A dictionary containing extra values, if [`extra`][pydantic.config.ConfigDict.extra]&#10; &#160;&#160;&#160;&#160;&#160;&#160;&#160;is set to `&#39;allow&#39;`.&#10; &#160;&#160;&#160;__pydantic_fields_set__: The names of fields explicitly set during instantiation.&#10; &#160;&#160;&#160;__pydantic_private__: Values of private attributes set on the model instance.&#10;">
<polygon fill="none" stroke="black" points="623,-321.5 623,-342.5 787,-342.5 787,-321.5 623,-321.5"/>
<text text-anchor="start" x="638.5" y="-329.3" font-family="Times New Roman,Times,Liberation Serif,serif" font-weight="bold" font-size="14.00">AutoWaterParameters</text>
<polygon fill="none" stroke="black" points="623,-300.5 623,-321.5 756,-321.5 756,-300.5 623,-300.5"/>
<text text-anchor="start" x="637.5" y="-307.3" font-family="Times New Roman,Times,Liberation Serif,serif" font-size="14.00">min_ignored_trials</text>
<polygon fill="none" stroke="black" points="756,-300.5 756,-321.5 787,-321.5 787,-300.5 756,-300.5"/>
<text text-anchor="start" x="764" y="-307.3" font-family="Times New Roman,Times,Liberation Serif,serif" font-size="14.00">int</text>
<polygon fill="none" stroke="black" points="623,-279.5 623,-300.5 756,-300.5 756,-279.5 623,-279.5"/>
<text text-anchor="start" x="626" y="-286.3" font-family="Times New Roman,Times,Liberation Serif,serif" font-size="14.00">min_unrewarded_trials</text>
<polygon fill="none" stroke="black" points="756,-279.5 756,-300.5 787,-300.5 787,-279.5 756,-279.5"/>
<text text-anchor="start" x="764" y="-286.3" font-family="Times New Roman,Times,Liberation Serif,serif" font-size="14.00">int</text>
<polygon fill="none" stroke="black" points="623,-258.5 623,-279.5 756,-279.5 756,-258.5 623,-258.5"/>
<text text-anchor="start" x="646" y="-265.3" font-family="Times New Roman,Times,Liberation Serif,serif" font-size="14.00">reward_fraction</text>
<polygon fill="none" stroke="black" points="756,-258.5 756,-279.5 787,-279.5 787,-258.5 756,-258.5"/>
<text text-anchor="start" x="759" y="-265.3" font-family="Times New Roman,Times,Liberation Serif,serif" font-size="14.00">float</text>
</a>
</g>
</g>
<!-- aind_behavior_dynamic_foraging.task_logic.trial_generators.coupled_trial_generators.base_coupled_trial_generator.RewardProbabilityParameters -->
<g id="node2" class="node">
<title>aind_behavior_dynamic_foraging.task_logic.trial_generators.coupled_trial_generators.base_coupled_trial_generator.RewardProbabilityParameters</title>
<g id="a_node2"><a xlink:title="aind_behavior_dynamic_foraging.task_logic.trial_generators.coupled_trial_generators.base_coupled_trial_generator.RewardProbabilityParameters&#10;&#10;Defines the reward probability structure for a dynamic foraging task.&#10;&#10;Reward probabilities are defined as pairs (p_left, p_right) normalized by&#10;base_reward_sum. Pairs are drawn from a family representing a difficulty level:&#10;&#10; &#160;&#160;&#160;Family 1: &#160;&#160;[[8, 1], [6, 1], [3, 1], [1, 1]]&#10; &#160;&#160;&#160;Family 2: &#160;[[8, 1], [1, 1]]&#10; &#160;&#160;&#160;Family 3: &#160;[[1.0, 0.0], [0.9, 0.1], [0.8, 0.2], [0.7, 0.3], [0.6, 0.4], [0.5, 0.5]]&#10; &#160;&#160;&#160;Family 4: &#160;[[6, 1], [3, 1], [1, 1]]&#10;">
<polygon fill="none" stroke="black" points="612,-200.5 612,-221.5 799,-221.5 799,-200.5 612,-200.5"/>
<text text-anchor="start" x="616" y="-208.3" font-family="Times New Roman,Times,Liberation Serif,serif" font-weight="bold" font-size="14.00">RewardProbabilityParameters</text>
<polygon fill="none" stroke="black" points="612,-179.5 612,-200.5 717,-200.5 717,-179.5 612,-179.5"/>
<text text-anchor="start" x="615" y="-186.3" font-family="Times New Roman,Times,Liberation Serif,serif" font-size="14.00">base_reward_sum</text>
<polygon fill="none" stroke="black" points="717,-179.5 717,-200.5 799,-200.5 799,-179.5 717,-179.5"/>
<text text-anchor="start" x="745.5" y="-186.3" font-family="Times New Roman,Times,Liberation Serif,serif" font-size="14.00">float</text>
<polygon fill="none" stroke="black" points="612,-158.5 612,-179.5 717,-179.5 717,-158.5 612,-158.5"/>
<text text-anchor="start" x="629" y="-165.3" font-family="Times New Roman,Times,Liberation Serif,serif" font-size="14.00">reward_pairs</text>
<polygon fill="none" stroke="black" points="717,-158.5 717,-179.5 799,-179.5 799,-158.5 717,-158.5"/>
<text text-anchor="start" x="720" y="-165.3" font-family="Times New Roman,Times,Liberation Serif,serif" font-size="14.00">list[list[float]]</text>
</a>
</g>
</g>
<!-- aind_behavior_dynamic_foraging.task_logic.trial_generators.coupled_trial_generators.coupled_warmup_trial_generator.CoupledWarmupTrialGenerationEndConditions -->
<g id="node3" class="node">
<title>aind_behavior_dynamic_foraging.task_logic.trial_generators.coupled_trial_generators.coupled_warmup_trial_generator.CoupledWarmupTrialGenerationEndConditions</title>
<g id="a_node3"><a xlink:title="aind_behavior_dynamic_foraging.task_logic.trial_generators.coupled_trial_generators.coupled_warmup_trial_generator.CoupledWarmupTrialGenerationEndConditions&#10;&#10;!!! abstract &quot;Usage Documentation&quot;&#10; &#160;&#160;&#160;[Models](../concepts/models.md)&#10;&#10;A base class for creating Pydantic models.&#10;&#10;Attributes:&#10; &#160;&#160;&#160;__class_vars__: The names of the class variables defined on the model.&#10; &#160;&#160;&#160;__private_attributes__: Metadata about the private attributes of the model.&#10; &#160;&#160;&#160;__signature__: The synthesized `__init__` [`Signature`][inspect.Signature] of the model.&#10;&#10; &#160;&#160;&#160;__pydantic_complete__: Whether model building is completed, or if there are still undefined fields.&#10; &#160;&#160;&#160;__pydantic_core_schema__: The core schema of the model.&#10; &#160;&#160;&#160;__pydantic_custom_init__: Whether the model has a custom `__init__` function.&#10; &#160;&#160;&#160;__pydantic_decorators__: Metadata containing the decorators defined on the model.&#10; &#160;&#160;&#160;&#160;&#160;&#160;&#160;This replaces `Model.__validators__` and `Model.__root_validators__` from Pydantic V1.&#10; &#160;&#160;&#160;__pydantic_generic_metadata__: Metadata for generic models; contains data used for a similar purpose to&#10; &#160;&#160;&#160;&#160;&#160;&#160;&#160;__args__, __origin__, __parameters__ in typing&#45;module generics. May eventually be replaced by these.&#10; &#160;&#160;&#160;__pydantic_parent_namespace__: Parent namespace of the model, used for automatic rebuilding of models.&#10; &#160;&#160;&#160;__pydantic_post_init__: The name of the post&#45;init method for the model, if defined.&#10; &#160;&#160;&#160;__pydantic_root_model__: Whether the model is a [`RootModel`][pydantic.root_model.RootModel].&#10; &#160;&#160;&#160;__pydantic_serializer__: The `pydantic&#45;core` `SchemaSerializer` used to dump instances of the model.&#10; &#160;&#160;&#160;__pydantic_validator__: The `pydantic&#45;core` `SchemaValidator` used to validate instances of the model.&#10;&#10; &#160;&#160;&#160;__pydantic_fields__: A dictionary of field names and their corresponding [`FieldInfo`][pydantic.fields.FieldInfo] objects.&#10; &#160;&#160;&#160;__pydantic_computed_fields__: A dictionary of computed field names and their corresponding [`ComputedFieldInfo`][pydantic.fields.ComputedFieldInfo] objects.&#10;&#10; &#160;&#160;&#160;__pydantic_extra__: A dictionary containing extra values, if [`extra`][pydantic.config.ConfigDict.extra]&#10; &#160;&#160;&#160;&#160;&#160;&#160;&#160;is set to `&#39;allow&#39;`.&#10; &#160;&#160;&#160;__pydantic_fields_set__: The names of fields explicitly set during instantiation.&#10; &#160;&#160;&#160;__pydantic_private__: Values of private attributes set on the model instance.&#10;">
<polygon fill="none" stroke="black" points="560,-101.5 560,-122.5 850,-122.5 850,-101.5 560,-101.5"/>
<text text-anchor="start" x="563" y="-109.3" font-family="Times New Roman,Times,Liberation Serif,serif" font-weight="bold" font-size="14.00">CoupledWarmupTrialGenerationEndConditions</text>
<polygon fill="none" stroke="black" points="560,-80.5 560,-101.5 746,-101.5 746,-80.5 560,-80.5"/>
<text text-anchor="start" x="627.5" y="-87.3" font-family="Times New Roman,Times,Liberation Serif,serif" font-size="14.00">min_trial</text>
<polygon fill="none" stroke="black" points="746,-80.5 746,-101.5 850,-101.5 850,-80.5 746,-80.5"/>
<text text-anchor="start" x="790.5" y="-87.3" font-family="Times New Roman,Times,Liberation Serif,serif" font-size="14.00">int</text>
<polygon fill="none" stroke="black" points="560,-59.5 560,-80.5 746,-80.5 746,-59.5 560,-59.5"/>
<text text-anchor="start" x="605.5" y="-66.3" font-family="Times New Roman,Times,Liberation Serif,serif" font-size="14.00">max_choice_bias</text>
<polygon fill="none" stroke="black" points="746,-59.5 746,-80.5 850,-80.5 850,-59.5 746,-59.5"/>
<text text-anchor="start" x="785.5" y="-66.3" font-family="Times New Roman,Times,Liberation Serif,serif" font-size="14.00">float</text>
<polygon fill="none" stroke="black" points="560,-38.5 560,-59.5 746,-59.5 746,-38.5 560,-38.5"/>
<text text-anchor="start" x="601.5" y="-45.3" font-family="Times New Roman,Times,Liberation Serif,serif" font-size="14.00">min_response_rate</text>
<polygon fill="none" stroke="black" points="746,-38.5 746,-59.5 850,-59.5 850,-38.5 746,-38.5"/>
<text text-anchor="start" x="785.5" y="-45.3" font-family="Times New Roman,Times,Liberation Serif,serif" font-size="14.00">float</text>
<polygon fill="none" stroke="black" points="560,-17.5 560,-38.5 746,-38.5 746,-17.5 560,-17.5"/>
<text text-anchor="start" x="599.5" y="-24.3" font-family="Times New Roman,Times,Liberation Serif,serif" font-size="14.00">evaluation_window</text>
<polygon fill="none" stroke="black" points="746,-17.5 746,-38.5 850,-38.5 850,-17.5 746,-17.5"/>
<text text-anchor="start" x="790.5" y="-24.3" font-family="Times New Roman,Times,Liberation Serif,serif" font-size="14.00">int</text>
</a>
</g>
</g>
<!-- aind_behavior_dynamic_foraging.task_logic.trial_generators.coupled_trial_generators.coupled_warmup_trial_generator.CoupledWarmupTrialGeneratorSpec -->
<g id="node4" class="node">
<title>aind_behavior_dynamic_foraging.task_logic.trial_generators.coupled_trial_generators.coupled_warmup_trial_generator.CoupledWarmupTrialGeneratorSpec</title>
<g id="a_node4"><a xlink:title="aind_behavior_dynamic_foraging.task_logic.trial_generators.coupled_trial_generators.coupled_warmup_trial_generator.CoupledWarmupTrialGeneratorSpec&#10;&#10;Base model for trial generator specifications.&#10;">
<polygon fill="none" stroke="black" points="0,-390.5 0,-411.5 452,-411.5 452,-390.5 0,-390.5"/>
<text text-anchor="start" x="116.5" y="-398.3" font-family="Times New Roman,Times,Liberation Serif,serif" font-weight="bold" font-size="14.00">CoupledWarmupTrialGeneratorSpec</text>
<polygon fill="none" stroke="black" points="0,-369.5 0,-390.5 185,-390.5 185,-369.5 0,-369.5"/>
<text text-anchor="start" x="80.5" y="-376.3" font-family="Times New Roman,Times,Liberation Serif,serif" font-size="14.00">type</text>
<polygon fill="none" stroke="black" points="185,-369.5 185,-390.5 452,-390.5 452,-369.5 185,-369.5"/>
<text text-anchor="start" x="207" y="-376.3" font-family="Times New Roman,Times,Liberation Serif,serif" font-size="14.00">Literal[&#39;CoupledWarmupTrialGenerator&#39;]</text>
<polygon fill="none" stroke="black" points="0,-348.5 0,-369.5 185,-369.5 185,-348.5 0,-348.5"/>
<text text-anchor="start" x="41" y="-355.3" font-family="Times New Roman,Times,Liberation Serif,serif" font-size="14.00">quiescent_duration</text>
<polygon fill="none" stroke="black" points="185,-348.5 185,-369.5 452,-369.5 452,-348.5 185,-348.5"/>
<text text-anchor="start" x="285.5" y="-355.3" font-family="Times New Roman,Times,Liberation Serif,serif" font-size="14.00">Distribution</text>
<polygon fill="none" stroke="black" points="0,-327.5 0,-348.5 185,-348.5 185,-327.5 0,-327.5"/>
<text text-anchor="start" x="42.5" y="-334.3" font-family="Times New Roman,Times,Liberation Serif,serif" font-size="14.00">response_duration</text>
<polygon fill="none" stroke="black" points="185,-327.5 185,-348.5 452,-348.5 452,-327.5 185,-327.5"/>
<text text-anchor="start" x="306" y="-334.3" font-family="Times New Roman,Times,Liberation Serif,serif" font-size="14.00">float</text>
<polygon fill="none" stroke="black" points="0,-306.5 0,-327.5 185,-327.5 185,-306.5 0,-306.5"/>
<text text-anchor="start" x="9" y="-313.3" font-family="Times New Roman,Times,Liberation Serif,serif" font-size="14.00">reward_consumption_duration</text>
<polygon fill="none" stroke="black" points="185,-306.5 185,-327.5 452,-327.5 452,-306.5 185,-306.5"/>
<text text-anchor="start" x="306" y="-313.3" font-family="Times New Roman,Times,Liberation Serif,serif" font-size="14.00">float</text>
<polygon fill="none" stroke="black" points="0,-285.5 0,-306.5 185,-306.5 185,-285.5 0,-285.5"/>
<text text-anchor="start" x="15.5" y="-292.3" font-family="Times New Roman,Times,Liberation Serif,serif" font-size="14.00">inter_trial_interval_duration</text>
<polygon fill="none" stroke="black" points="185,-285.5 185,-306.5 452,-306.5 452,-285.5 185,-285.5"/>
<text text-anchor="start" x="285.5" y="-292.3" font-family="Times New Roman,Times,Liberation Serif,serif" font-size="14.00">Distribution</text>
<polygon fill="none" stroke="black" points="0,-264.5 0,-285.5 185,-285.5 185,-264.5 0,-264.5"/>
<text text-anchor="start" x="57" y="-271.3" font-family="Times New Roman,Times,Liberation Serif,serif" font-size="14.00">block_length</text>
<polygon fill="none" stroke="black" points="185,-264.5 185,-285.5 452,-285.5 452,-264.5 185,-264.5"/>
<text text-anchor="start" x="285.5" y="-271.3" font-family="Times New Roman,Times,Liberation Serif,serif" font-size="14.00">Distribution</text>
<polygon fill="none" stroke="black" points="0,-243.5 0,-264.5 185,-264.5 185,-243.5 0,-243.5"/>
<text text-anchor="start" x="32" y="-250.3" font-family="Times New Roman,Times,Liberation Serif,serif" font-size="14.00">autowater_parameters</text>
<polygon fill="none" stroke="black" points="185,-243.5 185,-264.5 452,-264.5 452,-243.5 185,-243.5"/>
<text text-anchor="start" x="230" y="-250.3" font-family="Times New Roman,Times,Liberation Serif,serif" font-size="14.00">Optional[AutoWaterParameters]</text>
<polygon fill="none" stroke="black" points="0,-222.5 0,-243.5 185,-243.5 185,-222.5 0,-222.5"/>
<text text-anchor="start" x="65.5" y="-229.3" font-family="Times New Roman,Times,Liberation Serif,serif" font-size="14.00">is_baiting</text>
<polygon fill="none" stroke="black" points="185,-222.5 185,-243.5 452,-243.5 452,-222.5 185,-222.5"/>
<text text-anchor="start" x="283" y="-229.3" font-family="Times New Roman,Times,Liberation Serif,serif" font-size="14.00">Literal[True]</text>
<polygon fill="none" stroke="black" points="0,-201.5 0,-222.5 185,-222.5 185,-201.5 0,-201.5"/>
<text text-anchor="start" x="7" y="-208.3" font-family="Times New Roman,Times,Liberation Serif,serif" font-size="14.00">reward_probability_parameters</text>
<polygon fill="none" stroke="black" points="185,-201.5 185,-222.5 452,-222.5 452,-201.5 185,-201.5"/>
<text text-anchor="start" x="237" y="-208.3" font-family="Times New Roman,Times,Liberation Serif,serif" font-size="14.00">RewardProbabilityParameters</text>
<polygon fill="none" stroke="black" points="0,-180.5 0,-201.5 185,-201.5 185,-180.5 0,-180.5"/>
<text text-anchor="start" x="3" y="-187.3" font-family="Times New Roman,Times,Liberation Serif,serif" font-size="14.00">trial_generation_end_parameters</text>
<polygon fill="none" stroke="black" points="185,-180.5 185,-201.5 452,-201.5 452,-180.5 185,-180.5"/>
<text text-anchor="start" x="188" y="-187.3" font-family="Times New Roman,Times,Liberation Serif,serif" font-size="14.00">CoupledWarmupTrialGenerationEndConditions</text>
</a>
</g>
</g>
<!-- aind_behavior_dynamic_foraging.task_logic.trial_generators.coupled_trial_generators.coupled_warmup_trial_generator.CoupledWarmupTrialGeneratorSpec&#45;&gt;aind_behavior_dynamic_foraging.task_logic.trial_generators.block_based_trial_generator.AutoWaterParameters -->
<g id="edge1" class="edge">
<title>aind_behavior_dynamic_foraging.task_logic.trial_generators.coupled_trial_generators.coupled_warmup_trial_generator.CoupledWarmupTrialGeneratorSpec:e&#45;&gt;aind_behavior_dynamic_foraging.task_logic.trial_generators.block_based_trial_generator.AutoWaterParameters:w</title>
<path fill="none" stroke="black" d="M462.31,-253.93C529.73,-259.63 540.75,-321.07 603.78,-331.12"/>
<polyline fill="none" stroke="black" points="452,-253.5 457,-253.71 "/>
<polyline fill="none" stroke="black" points="457,-253.71 461.99,-253.91 "/>
<polyline fill="none" stroke="black" points="622,-332.5 617.01,-332.12 "/>
<polygon fill="black" stroke="black" points="616.4,-327.06 615.64,-337.03 613.64,-336.88 614.4,-326.91 616.4,-327.06"/>
<polyline fill="none" stroke="black" points="617.01,-332.12 612.03,-331.74 "/>
<ellipse fill="none" stroke="black" cx="608.04" cy="-331.44" rx="4" ry="4"/>
</g>
<!-- aind_behavior_dynamic_foraging.task_logic.trial_generators.coupled_trial_generators.coupled_warmup_trial_generator.CoupledWarmupTrialGeneratorSpec&#45;&gt;aind_behavior_dynamic_foraging.task_logic.trial_generators.coupled_trial_generators.base_coupled_trial_generator.RewardProbabilityParameters -->
<g id="edge2" class="edge">
<title>aind_behavior_dynamic_foraging.task_logic.trial_generators.coupled_trial_generators.coupled_warmup_trial_generator.CoupledWarmupTrialGeneratorSpec:e&#45;&gt;aind_behavior_dynamic_foraging.task_logic.trial_generators.coupled_trial_generators.base_coupled_trial_generator.RewardProbabilityParameters:w</title>
<path fill="none" stroke="black" d="M462.37,-211.5C519.61,-211.5 540.55,-211.5 595.76,-211.5"/>
<polyline fill="none" stroke="black" points="452,-211.5 457,-211.5 "/>
<polyline fill="none" stroke="black" points="457,-211.5 462,-211.5 "/>
<polyline fill="none" stroke="black" points="611,-211.5 606,-211.5 "/>
<polygon fill="black" stroke="black" points="605,-206.5 605,-216.5 603,-216.5 603,-206.5 605,-206.5"/>
<polyline fill="none" stroke="black" points="606,-211.5 601,-211.5 "/>
<polygon fill="black" stroke="black" points="600,-206.5 600,-216.5 598,-216.5 598,-206.5 600,-206.5"/>
<polyline fill="none" stroke="black" points="601,-211.5 596,-211.5 "/>
</g>
<!-- aind_behavior_dynamic_foraging.task_logic.trial_generators.coupled_trial_generators.coupled_warmup_trial_generator.CoupledWarmupTrialGeneratorSpec&#45;&gt;aind_behavior_dynamic_foraging.task_logic.trial_generators.coupled_trial_generators.coupled_warmup_trial_generator.CoupledWarmupTrialGenerationEndConditions -->
<g id="edge3" class="edge">
<title>aind_behavior_dynamic_foraging.task_logic.trial_generators.coupled_trial_generators.coupled_warmup_trial_generator.CoupledWarmupTrialGeneratorSpec:e&#45;&gt;aind_behavior_dynamic_foraging.task_logic.trial_generators.coupled_trial_generators.coupled_warmup_trial_generator.CoupledWarmupTrialGenerationEndConditions:w</title>
<path fill="none" stroke="black" d="M462.02,-189.68C505.4,-182.17 505,-125.61 545.09,-114.42"/>
<polyline fill="none" stroke="black" points="452,-190.5 456.98,-190.09 "/>
<polyline fill="none" stroke="black" points="456.98,-190.09 461.97,-189.68 "/>
<polyline fill="none" stroke="black" points="560,-112.5 555.04,-113.14 "/>
<polygon fill="black" stroke="black" points="553.41,-108.31 554.69,-118.23 552.7,-118.48 551.43,-108.56 553.41,-108.31"/>
<polyline fill="none" stroke="black" points="555.04,-113.14 550.08,-113.78 "/>
<polygon fill="black" stroke="black" points="548.45,-108.95 549.73,-118.87 547.75,-119.12 546.47,-109.2 548.45,-108.95"/>
<polyline fill="none" stroke="black" points="550.08,-113.78 545.12,-114.42 "/>
</g>
</g>
</svg>
