<?xml version="1.0" encoding="UTF-8" standalone="no"?>
<!DOCTYPE svg PUBLIC "-//W3C//DTD SVG 1.1//EN"
 "http://www.w3.org/Graphics/SVG/1.1/DTD/svg11.dtd">
<!-- Generated by graphviz version 14.1.5 (20260411.2331)
 -->
<!-- Title: Entity Relationship Diagram created by erdantic Pages: 1 -->
<svg width="1056pt" height="837pt"
 viewBox="0.00 0.00 1056.00 837.00" xmlns="http://www.w3.org/2000/svg" xmlns:xlink="http://www.w3.org/1999/xlink">
<g id="graph0" class="graph" transform="scale(1 1) rotate(0) translate(4 833.25)">
<title>Entity Relationship Diagram created by erdantic</title>
<polygon fill="white" stroke="none" points="-4,4 -4,-833.25 1051.75,-833.25 1051.75,4 -4,4"/>
<text xml:space="preserve" text-anchor="middle" x="523.88" y="-5.95" font-family="Times New Roman,Times,Liberation Serif,serif" font-size="9.00" fill="#a8a8a8">Created by erdantic v1.2.1 &lt;https://github.com/drivendataorg/erdantic&gt;</text>
<!-- aind_behavior_dynamic_foraging.task_logic.interventions.bias_intervention.BiasInterventionParameters -->
<g id="node1" class="node">
<title>aind_behavior_dynamic_foraging.task_logic.interventions.bias_intervention.BiasInterventionParameters</title>
<g id="a_node1"><a xlink:title="aind_behavior_dynamic_foraging.task_logic.interventions.bias_intervention.BiasInterventionParameters&#10;&#10;!!! abstract &quot;Usage Documentation&quot;&#10; &#160;&#160;&#160;[Models](../concepts/models.md)&#10;&#10;A base class for creating Pydantic models.&#10;&#10;Attributes:&#10; &#160;&#160;&#160;__class_vars__: The names of the class variables defined on the model.&#10; &#160;&#160;&#160;__private_attributes__: Metadata about the private attributes of the model.&#10; &#160;&#160;&#160;__signature__: The synthesized `__init__` [`Signature`][inspect.Signature] of the model.&#10;&#10; &#160;&#160;&#160;__pydantic_complete__: Whether model building is completed, or if there are still undefined fields.&#10; &#160;&#160;&#160;__pydantic_core_schema__: The core schema of the model.&#10; &#160;&#160;&#160;__pydantic_custom_init__: Whether the model has a custom `__init__` function.&#10; &#160;&#160;&#160;__pydantic_decorators__: Metadata containing the decorators defined on the model.&#10; &#160;&#160;&#160;&#160;&#160;&#160;&#160;This replaces `Model.__validators__` and `Model.__root_validators__` from Pydantic V1.&#10; &#160;&#160;&#160;__pydantic_generic_metadata__: Metadata for generic models; contains data used for a similar purpose to&#10; &#160;&#160;&#160;&#160;&#160;&#160;&#160;__args__, __origin__, __parameters__ in typing&#45;module generics. May eventually be replaced by these.&#10; &#160;&#160;&#160;__pydantic_parent_namespace__: Parent namespace of the model, used for automatic rebuilding of models.&#10; &#160;&#160;&#160;__pydantic_post_init__: The name of the post&#45;init method for the model, if defined.&#10; &#160;&#160;&#160;__pydantic_root_model__: Whether the model is a [`RootModel`][pydantic.root_model.RootModel].&#10; &#160;&#160;&#160;__pydantic_serializer__: The `pydantic&#45;core` `SchemaSerializer` used to dump instances of the model.&#10; &#160;&#160;&#160;__pydantic_validator__: The `pydantic&#45;core` `SchemaValidator` used to validate instances of the model.&#10;&#10; &#160;&#160;&#160;__pydantic_fields__: A dictionary of field names and their corresponding [`FieldInfo`][pydantic.fields.FieldInfo] objects.&#10; &#160;&#160;&#160;__pydantic_computed_fields__: A dictionary of computed field names and their corresponding [`ComputedFieldInfo`][pydantic.fields.ComputedFieldInfo] objects.&#10;&#10; &#160;&#160;&#160;__pydantic_extra__: A dictionary containing extra values, if [`extra`][pydantic.config.ConfigDict.extra]&#10; &#160;&#160;&#160;&#160;&#160;&#160;&#160;is set to `&#39;allow&#39;`.&#10; &#160;&#160;&#160;__pydantic_fields_set__: The names of fields explicitly set during instantiation.&#10; &#160;&#160;&#160;__pydantic_private__: Values of private attributes set on the model instance.&#10;">
<polygon fill="none" stroke="black" points="557.62,-577 557.62,-599.5 819.38,-599.5 819.38,-577 557.62,-577"/>
<text xml:space="preserve" text-anchor="start" x="602.62" y="-584.2" font-family="Times New Roman,Times,Liberation Serif,serif" font-weight="bold" font-size="14.00">BiasInterventionParameters</text>
<polygon fill="none" stroke="black" points="557.62,-554.5 557.62,-577 730.12,-577 730.12,-554.5 557.62,-554.5"/>
<text xml:space="preserve" text-anchor="start" x="617.25" y="-561.25" font-family="Times New Roman,Times,Liberation Serif,serif" font-size="14.00">threshold</text>
<polygon fill="none" stroke="black" points="730.12,-554.5 730.12,-577 819.38,-577 819.38,-554.5 730.12,-554.5"/>
<text xml:space="preserve" text-anchor="start" x="733.12" y="-561.25" font-family="Times New Roman,Times,Liberation Serif,serif" font-size="14.00">BiasThreshold</text>
<polygon fill="none" stroke="black" points="557.62,-532 557.62,-554.5 730.12,-554.5 730.12,-532 557.62,-532"/>
<text xml:space="preserve" text-anchor="start" x="584.25" y="-538.75" font-family="Times New Roman,Times,Liberation Serif,serif" font-size="14.00">intervention_interval</text>
<polygon fill="none" stroke="black" points="730.12,-532 730.12,-554.5 819.38,-554.5 819.38,-532 730.12,-532"/>
<text xml:space="preserve" text-anchor="start" x="767.25" y="-538.75" font-family="Times New Roman,Times,Liberation Serif,serif" font-size="14.00">int</text>
<polygon fill="none" stroke="black" points="557.62,-509.5 557.62,-532 730.12,-532 730.12,-509.5 557.62,-509.5"/>
<text xml:space="preserve" text-anchor="start" x="560.62" y="-516.25" font-family="Times New Roman,Times,Liberation Serif,serif" font-size="14.00">maximum_water_corrections</text>
<polygon fill="none" stroke="black" points="730.12,-509.5 730.12,-532 819.38,-532 819.38,-509.5 730.12,-509.5"/>
<text xml:space="preserve" text-anchor="start" x="767.25" y="-516.25" font-family="Times New Roman,Times,Liberation Serif,serif" font-size="14.00">int</text>
<polygon fill="none" stroke="black" points="557.62,-487 557.62,-509.5 730.12,-509.5 730.12,-487 557.62,-487"/>
<text xml:space="preserve" text-anchor="start" x="583.5" y="-493.75" font-family="Times New Roman,Times,Liberation Serif,serif" font-size="14.00">bias_window_length</text>
<polygon fill="none" stroke="black" points="730.12,-487 730.12,-509.5 819.38,-509.5 819.38,-487 730.12,-487"/>
<text xml:space="preserve" text-anchor="start" x="767.25" y="-493.75" font-family="Times New Roman,Times,Liberation Serif,serif" font-size="14.00">int</text>
<polygon fill="none" stroke="black" points="557.62,-464.5 557.62,-487 730.12,-487 730.12,-464.5 557.62,-464.5"/>
<text xml:space="preserve" text-anchor="start" x="580.88" y="-471.25" font-family="Times New Roman,Times,Liberation Serif,serif" font-size="14.00">lickspout_offset_delta</text>
<polygon fill="none" stroke="black" points="730.12,-464.5 730.12,-487 819.38,-487 819.38,-464.5 730.12,-464.5"/>
<text xml:space="preserve" text-anchor="start" x="762" y="-471.25" font-family="Times New Roman,Times,Liberation Serif,serif" font-size="14.00">float</text>
<polygon fill="none" stroke="black" points="557.62,-442 557.62,-464.5 730.12,-464.5 730.12,-442 557.62,-442"/>
<text xml:space="preserve" text-anchor="start" x="598.88" y="-448.75" font-family="Times New Roman,Times,Liberation Serif,serif" font-size="14.00">reward_fraction</text>
<polygon fill="none" stroke="black" points="730.12,-442 730.12,-464.5 819.38,-464.5 819.38,-442 730.12,-442"/>
<text xml:space="preserve" text-anchor="start" x="762" y="-448.75" font-family="Times New Roman,Times,Liberation Serif,serif" font-size="14.00">float</text>
<polygon fill="none" stroke="black" points="557.62,-419.5 557.62,-442 730.12,-442 730.12,-419.5 557.62,-419.5"/>
<text xml:space="preserve" text-anchor="start" x="602.62" y="-426.25" font-family="Times New Roman,Times,Liberation Serif,serif" font-size="14.00">trial_threshold</text>
<polygon fill="none" stroke="black" points="730.12,-419.5 730.12,-442 819.38,-442 819.38,-419.5 730.12,-419.5"/>
<text xml:space="preserve" text-anchor="start" x="767.25" y="-426.25" font-family="Times New Roman,Times,Liberation Serif,serif" font-size="14.00">int</text>
</a>
</g>
</g>
<!-- aind_behavior_dynamic_foraging.task_logic.interventions.bias_intervention.BiasThreshold -->
<g id="node2" class="node">
<title>aind_behavior_dynamic_foraging.task_logic.interventions.bias_intervention.BiasThreshold</title>
<g id="a_node2"><a xlink:title="aind_behavior_dynamic_foraging.task_logic.interventions.bias_intervention.BiasThreshold&#10;&#10;!!! abstract &quot;Usage Documentation&quot;&#10; &#160;&#160;&#160;[Models](../concepts/models.md)&#10;&#10;A base class for creating Pydantic models.&#10;&#10;Attributes:&#10; &#160;&#160;&#160;__class_vars__: The names of the class variables defined on the model.&#10; &#160;&#160;&#160;__private_attributes__: Metadata about the private attributes of the model.&#10; &#160;&#160;&#160;__signature__: The synthesized `__init__` [`Signature`][inspect.Signature] of the model.&#10;&#10; &#160;&#160;&#160;__pydantic_complete__: Whether model building is completed, or if there are still undefined fields.&#10; &#160;&#160;&#160;__pydantic_core_schema__: The core schema of the model.&#10; &#160;&#160;&#160;__pydantic_custom_init__: Whether the model has a custom `__init__` function.&#10; &#160;&#160;&#160;__pydantic_decorators__: Metadata containing the decorators defined on the model.&#10; &#160;&#160;&#160;&#160;&#160;&#160;&#160;This replaces `Model.__validators__` and `Model.__root_validators__` from Pydantic V1.&#10; &#160;&#160;&#160;__pydantic_generic_metadata__: Metadata for generic models; contains data used for a similar purpose to&#10; &#160;&#160;&#160;&#160;&#160;&#160;&#160;__args__, __origin__, __parameters__ in typing&#45;module generics. May eventually be replaced by these.&#10; &#160;&#160;&#160;__pydantic_parent_namespace__: Parent namespace of the model, used for automatic rebuilding of models.&#10; &#160;&#160;&#160;__pydantic_post_init__: The name of the post&#45;init method for the model, if defined.&#10; &#160;&#160;&#160;__pydantic_root_model__: Whether the model is a [`RootModel`][pydantic.root_model.RootModel].&#10; &#160;&#160;&#160;__pydantic_serializer__: The `pydantic&#45;core` `SchemaSerializer` used to dump instances of the model.&#10; &#160;&#160;&#160;__pydantic_validator__: The `pydantic&#45;core` `SchemaValidator` used to validate instances of the model.&#10;&#10; &#160;&#160;&#160;__pydantic_fields__: A dictionary of field names and their corresponding [`FieldInfo`][pydantic.fields.FieldInfo] objects.&#10; &#160;&#160;&#160;__pydantic_computed_fields__: A dictionary of computed field names and their corresponding [`ComputedFieldInfo`][pydantic.fields.ComputedFieldInfo] objects.&#10;&#10; &#160;&#160;&#160;__pydantic_extra__: A dictionary containing extra values, if [`extra`][pydantic.config.ConfigDict.extra]&#10; &#160;&#160;&#160;&#160;&#160;&#160;&#160;is set to `&#39;allow&#39;`.&#10; &#160;&#160;&#160;__pydantic_fields_set__: The names of fields explicitly set during instantiation.&#10; &#160;&#160;&#160;__pydantic_private__: Values of private attributes set on the model instance.&#10;">
<polygon fill="none" stroke="black" points="952.5,-553.75 952.5,-576.25 1047.75,-576.25 1047.75,-553.75 952.5,-553.75"/>
<text xml:space="preserve" text-anchor="start" x="955.5" y="-560.95" font-family="Times New Roman,Times,Liberation Serif,serif" font-weight="bold" font-size="14.00">BiasThreshold</text>
<polygon fill="none" stroke="black" points="952.5,-531.25 952.5,-553.75 1003.88,-553.75 1003.88,-531.25 952.5,-531.25"/>
<text xml:space="preserve" text-anchor="start" x="961.69" y="-538" font-family="Times New Roman,Times,Liberation Serif,serif" font-size="14.00">upper</text>
<polygon fill="none" stroke="black" points="1003.88,-531.25 1003.88,-553.75 1047.75,-553.75 1047.75,-531.25 1003.88,-531.25"/>
<text xml:space="preserve" text-anchor="start" x="1013.06" y="-538" font-family="Times New Roman,Times,Liberation Serif,serif" font-size="14.00">float</text>
<polygon fill="none" stroke="black" points="952.5,-508.75 952.5,-531.25 1003.88,-531.25 1003.88,-508.75 952.5,-508.75"/>
<text xml:space="preserve" text-anchor="start" x="962.06" y="-515.5" font-family="Times New Roman,Times,Liberation Serif,serif" font-size="14.00">lower</text>
<polygon fill="none" stroke="black" points="1003.88,-508.75 1003.88,-531.25 1047.75,-531.25 1047.75,-508.75 1003.88,-508.75"/>
<text xml:space="preserve" text-anchor="start" x="1013.06" y="-515.5" font-family="Times New Roman,Times,Liberation Serif,serif" font-size="14.00">float</text>
</a>
</g>
</g>
<!-- aind_behavior_dynamic_foraging.task_logic.interventions.bias_intervention.BiasInterventionParameters&#45;&gt;aind_behavior_dynamic_foraging.task_logic.interventions.bias_intervention.BiasThreshold -->
<g id="edge1" class="edge">
<title>aind_behavior_dynamic_foraging.task_logic.interventions.bias_intervention.BiasInterventionParameters:e&#45;&gt;aind_behavior_dynamic_foraging.task_logic.interventions.bias_intervention.BiasThreshold:w</title>
<path fill="none" stroke="black" d="M830.26,-565.74C876.12,-565.67 893.79,-565.12 937.64,-565.02"/>
<polyline fill="none" stroke="black" points="820.38,-565.75 825.37,-565.75"/>
<polyline fill="none" stroke="black" points="825.37,-565.75 830.37,-565.74"/>
<polyline fill="none" stroke="black" points="952.5,-565 947.5,-565.01"/>
<polygon fill="black" stroke="black" points="946.49,-560.01 946.51,-570.01 944.51,-570.01 944.49,-560.01 946.49,-560.01"/>
<polyline fill="none" stroke="black" points="947.5,-565.01 942.5,-565.01"/>
<polygon fill="black" stroke="black" points="941.49,-560.01 941.51,-570.01 939.51,-570.02 939.49,-560.02 941.49,-560.01"/>
<polyline fill="none" stroke="black" points="942.5,-565.01 937.5,-565.02"/>
</g>
<!-- aind_behavior_dynamic_foraging.task_logic.trial_generators.block_based_trial_generator.AutoWaterParameters -->
<g id="node3" class="node">
<title>aind_behavior_dynamic_foraging.task_logic.trial_generators.block_based_trial_generator.AutoWaterParameters</title>
<g id="a_node3"><a xlink:title="aind_behavior_dynamic_foraging.task_logic.trial_generators.block_based_trial_generator.AutoWaterParameters&#10;&#10;!!! abstract &quot;Usage Documentation&quot;&#10; &#160;&#160;&#160;[Models](../concepts/models.md)&#10;&#10;A base class for creating Pydantic models.&#10;&#10;Attributes:&#10; &#160;&#160;&#160;__class_vars__: The names of the class variables defined on the model.&#10; &#160;&#160;&#160;__private_attributes__: Metadata about the private attributes of the model.&#10; &#160;&#160;&#160;__signature__: The synthesized `__init__` [`Signature`][inspect.Signature] of the model.&#10;&#10; &#160;&#160;&#160;__pydantic_complete__: Whether model building is completed, or if there are still undefined fields.&#10; &#160;&#160;&#160;__pydantic_core_schema__: The core schema of the model.&#10; &#160;&#160;&#160;__pydantic_custom_init__: Whether the model has a custom `__init__` function.&#10; &#160;&#160;&#160;__pydantic_decorators__: Metadata containing the decorators defined on the model.&#10; &#160;&#160;&#160;&#160;&#160;&#160;&#160;This replaces `Model.__validators__` and `Model.__root_validators__` from Pydantic V1.&#10; &#160;&#160;&#160;__pydantic_generic_metadata__: Metadata for generic models; contains data used for a similar purpose to&#10; &#160;&#160;&#160;&#160;&#160;&#160;&#160;__args__, __origin__, __parameters__ in typing&#45;module generics. May eventually be replaced by these.&#10; &#160;&#160;&#160;__pydantic_parent_namespace__: Parent namespace of the model, used for automatic rebuilding of models.&#10; &#160;&#160;&#160;__pydantic_post_init__: The name of the post&#45;init method for the model, if defined.&#10; &#160;&#160;&#160;__pydantic_root_model__: Whether the model is a [`RootModel`][pydantic.root_model.RootModel].&#10; &#160;&#160;&#160;__pydantic_serializer__: The `pydantic&#45;core` `SchemaSerializer` used to dump instances of the model.&#10; &#160;&#160;&#160;__pydantic_validator__: The `pydantic&#45;core` `SchemaValidator` used to validate instances of the model.&#10;&#10; &#160;&#160;&#160;__pydantic_fields__: A dictionary of field names and their corresponding [`FieldInfo`][pydantic.fields.FieldInfo] objects.&#10; &#160;&#160;&#160;__pydantic_computed_fields__: A dictionary of computed field names and their corresponding [`ComputedFieldInfo`][pydantic.fields.ComputedFieldInfo] objects.&#10;&#10; &#160;&#160;&#160;__pydantic_extra__: A dictionary containing extra values, if [`extra`][pydantic.config.ConfigDict.extra]&#10; &#160;&#160;&#160;&#160;&#160;&#160;&#160;is set to `&#39;allow&#39;`.&#10; &#160;&#160;&#160;__pydantic_fields_set__: The names of fields explicitly set during instantiation.&#10; &#160;&#160;&#160;__pydantic_private__: Values of private attributes set on the model instance.&#10;">
<polygon fill="none" stroke="black" points="603.75,-703 603.75,-725.5 773.25,-725.5 773.25,-703 603.75,-703"/>
<text xml:space="preserve" text-anchor="start" x="619.5" y="-710.2" font-family="Times New Roman,Times,Liberation Serif,serif" font-weight="bold" font-size="14.00">AutoWaterParameters</text>
<polygon fill="none" stroke="black" points="603.75,-680.5 603.75,-703 741.75,-703 741.75,-680.5 603.75,-680.5"/>
<text xml:space="preserve" text-anchor="start" x="618.38" y="-687.25" font-family="Times New Roman,Times,Liberation Serif,serif" font-size="14.00">min_ignored_trials</text>
<polygon fill="none" stroke="black" points="741.75,-680.5 741.75,-703 773.25,-703 773.25,-680.5 741.75,-680.5"/>
<text xml:space="preserve" text-anchor="start" x="750" y="-687.25" font-family="Times New Roman,Times,Liberation Serif,serif" font-size="14.00">int</text>
<polygon fill="none" stroke="black" points="603.75,-658 603.75,-680.5 741.75,-680.5 741.75,-658 603.75,-658"/>
<text xml:space="preserve" text-anchor="start" x="606.75" y="-664.75" font-family="Times New Roman,Times,Liberation Serif,serif" font-size="14.00">min_unrewarded_trials</text>
<polygon fill="none" stroke="black" points="741.75,-658 741.75,-680.5 773.25,-680.5 773.25,-658 741.75,-658"/>
<text xml:space="preserve" text-anchor="start" x="750" y="-664.75" font-family="Times New Roman,Times,Liberation Serif,serif" font-size="14.00">int</text>
<polygon fill="none" stroke="black" points="603.75,-635.5 603.75,-658 741.75,-658 741.75,-635.5 603.75,-635.5"/>
<text xml:space="preserve" text-anchor="start" x="627.75" y="-642.25" font-family="Times New Roman,Times,Liberation Serif,serif" font-size="14.00">reward_fraction</text>
<polygon fill="none" stroke="black" points="741.75,-635.5 741.75,-658 773.25,-658 773.25,-635.5 741.75,-635.5"/>
<text xml:space="preserve" text-anchor="start" x="744.75" y="-642.25" font-family="Times New Roman,Times,Liberation Serif,serif" font-size="14.00">float</text>
</a>
</g>
</g>
<!-- aind_behavior_dynamic_foraging.task_logic.trial_generators.coupled_trial_generators.base_coupled_trial_generator.RewardProbabilityParameters -->
<g id="node4" class="node">
<title>aind_behavior_dynamic_foraging.task_logic.trial_generators.coupled_trial_generators.base_coupled_trial_generator.RewardProbabilityParameters</title>
<g id="a_node4"><a xlink:title="aind_behavior_dynamic_foraging.task_logic.trial_generators.coupled_trial_generators.base_coupled_trial_generator.RewardProbabilityParameters&#10;&#10;Defines the reward probability structure for a dynamic foraging task.&#10;&#10;Reward probabilities are defined as pairs (p_left, p_right) normalized by&#10;base_reward_sum. Pairs are drawn from a family representing a difficulty level:&#10;&#10; &#160;&#160;&#160;Family 1: &#160;&#160;[[8, 1], [6, 1], [3, 1], [1, 1]]&#10; &#160;&#160;&#160;Family 2: &#160;[[8, 1], [1, 1]]&#10; &#160;&#160;&#160;Family 3: &#160;[[1.0, 0.0], [0.9, 0.1], [0.8, 0.2], [0.7, 0.3], [0.6, 0.4], [0.5, 0.5]]&#10; &#160;&#160;&#160;Family 4: &#160;[[6, 1], [3, 1], [1, 1]]&#10;">
<polygon fill="none" stroke="black" points="591.38,-360.75 591.38,-383.25 785.62,-383.25 785.62,-360.75 591.38,-360.75"/>
<text xml:space="preserve" text-anchor="start" x="594.38" y="-367.95" font-family="Times New Roman,Times,Liberation Serif,serif" font-weight="bold" font-size="14.00">RewardProbabilityParameters</text>
<polygon fill="none" stroke="black" points="591.38,-338.25 591.38,-360.75 701.62,-360.75 701.62,-338.25 591.38,-338.25"/>
<text xml:space="preserve" text-anchor="start" x="595.12" y="-345" font-family="Times New Roman,Times,Liberation Serif,serif" font-size="14.00">base_reward_sum</text>
<polygon fill="none" stroke="black" points="701.62,-338.25 701.62,-360.75 785.62,-360.75 785.62,-338.25 701.62,-338.25"/>
<text xml:space="preserve" text-anchor="start" x="730.88" y="-345" font-family="Times New Roman,Times,Liberation Serif,serif" font-size="14.00">float</text>
<polygon fill="none" stroke="black" points="591.38,-315.75 591.38,-338.25 701.62,-338.25 701.62,-315.75 591.38,-315.75"/>
<text xml:space="preserve" text-anchor="start" x="609.75" y="-322.5" font-family="Times New Roman,Times,Liberation Serif,serif" font-size="14.00">reward_pairs</text>
<polygon fill="none" stroke="black" points="701.62,-315.75 701.62,-338.25 785.62,-338.25 785.62,-315.75 701.62,-315.75"/>
<text xml:space="preserve" text-anchor="start" x="705.38" y="-322.5" font-family="Times New Roman,Times,Liberation Serif,serif" font-size="14.00">list[list[float]]</text>
</a>
</g>
</g>
<!-- aind_behavior_dynamic_foraging.task_logic.trial_generators.coupled_trial_generators.coupled_trial_generator.BehaviorStabilityParameters -->
<g id="node5" class="node">
<title>aind_behavior_dynamic_foraging.task_logic.trial_generators.coupled_trial_generators.coupled_trial_generator.BehaviorStabilityParameters</title>
<g id="a_node5"><a xlink:title="aind_behavior_dynamic_foraging.task_logic.trial_generators.coupled_trial_generators.coupled_trial_generator.BehaviorStabilityParameters&#10;&#10;Parameters controlling when behavior is considered stable enough to switch blocks.&#10;">
<polygon fill="none" stroke="black" points="532.5,-86 532.5,-108.5 844.5,-108.5 844.5,-86 532.5,-86"/>
<text xml:space="preserve" text-anchor="start" x="599.62" y="-93.2" font-family="Times New Roman,Times,Liberation Serif,serif" font-weight="bold" font-size="14.00">BehaviorStabilityParameters</text>
<polygon fill="none" stroke="black" points="532.5,-63.5 532.5,-86 709.5,-86 709.5,-63.5 532.5,-63.5"/>
<text xml:space="preserve" text-anchor="start" x="542.62" y="-70.25" font-family="Times New Roman,Times,Liberation Serif,serif" font-size="14.00">behavior_evaluation_mode</text>
<polygon fill="none" stroke="black" points="709.5,-63.5 709.5,-86 844.5,-86 844.5,-63.5 709.5,-63.5"/>
<text xml:space="preserve" text-anchor="start" x="712.5" y="-70.25" font-family="Times New Roman,Times,Liberation Serif,serif" font-size="14.00">Literal[&#39;end&#39;, &#39;anytime&#39;]</text>
<polygon fill="none" stroke="black" points="532.5,-41 532.5,-63.5 709.5,-63.5 709.5,-41 532.5,-41"/>
<text xml:space="preserve" text-anchor="start" x="544.12" y="-47.75" font-family="Times New Roman,Times,Liberation Serif,serif" font-size="14.00">behavior_stability_fraction</text>
<polygon fill="none" stroke="black" points="709.5,-41 709.5,-63.5 844.5,-63.5 844.5,-41 709.5,-41"/>
<text xml:space="preserve" text-anchor="start" x="764.25" y="-47.75" font-family="Times New Roman,Times,Liberation Serif,serif" font-size="14.00">float</text>
<polygon fill="none" stroke="black" points="532.5,-18.5 532.5,-41 709.5,-41 709.5,-18.5 532.5,-18.5"/>
<text xml:space="preserve" text-anchor="start" x="535.5" y="-25.25" font-family="Times New Roman,Times,Liberation Serif,serif" font-size="14.00">min_consecutive_stable_trials</text>
<polygon fill="none" stroke="black" points="709.5,-18.5 709.5,-41 844.5,-41 844.5,-18.5 709.5,-18.5"/>
<text xml:space="preserve" text-anchor="start" x="769.5" y="-25.25" font-family="Times New Roman,Times,Liberation Serif,serif" font-size="14.00">int</text>
</a>
</g>
</g>
<!-- aind_behavior_dynamic_foraging.task_logic.trial_generators.coupled_trial_generators.coupled_trial_generator.CoupledTrialGenerationEndConditions -->
<g id="node6" class="node">
<title>aind_behavior_dynamic_foraging.task_logic.trial_generators.coupled_trial_generators.coupled_trial_generator.CoupledTrialGenerationEndConditions</title>
<g id="a_node6"><a xlink:title="aind_behavior_dynamic_foraging.task_logic.trial_generators.coupled_trial_generators.coupled_trial_generator.CoupledTrialGenerationEndConditions&#10;&#10;Defines the conditions under which a foraging session should terminate.&#10;">
<polygon fill="none" stroke="black" points="562.88,-257.5 562.88,-280 814.12,-280 814.12,-257.5 562.88,-257.5"/>
<text xml:space="preserve" text-anchor="start" x="565.88" y="-264.7" font-family="Times New Roman,Times,Liberation Serif,serif" font-weight="bold" font-size="14.00">CoupledTrialGenerationEndConditions</text>
<polygon fill="none" stroke="black" points="562.88,-235 562.88,-257.5 743.25,-257.5 743.25,-235 562.88,-235"/>
<text xml:space="preserve" text-anchor="start" x="585.56" y="-241.75" font-family="Times New Roman,Times,Liberation Serif,serif" font-size="14.00">ignore_window_length</text>
<polygon fill="none" stroke="black" points="743.25,-235 743.25,-257.5 814.12,-257.5 814.12,-235 743.25,-235"/>
<text xml:space="preserve" text-anchor="start" x="771.19" y="-241.75" font-family="Times New Roman,Times,Liberation Serif,serif" font-size="14.00">int</text>
<polygon fill="none" stroke="black" points="562.88,-212.5 562.88,-235 743.25,-235 743.25,-212.5 562.88,-212.5"/>
<text xml:space="preserve" text-anchor="start" x="587.81" y="-219.25" font-family="Times New Roman,Times,Liberation Serif,serif" font-size="14.00">ignore_ratio_threshold</text>
<polygon fill="none" stroke="black" points="743.25,-212.5 743.25,-235 814.12,-235 814.12,-212.5 743.25,-212.5"/>
<text xml:space="preserve" text-anchor="start" x="765.94" y="-219.25" font-family="Times New Roman,Times,Liberation Serif,serif" font-size="14.00">float</text>
<polygon fill="none" stroke="black" points="562.88,-190 562.88,-212.5 743.25,-212.5 743.25,-190 562.88,-190"/>
<text xml:space="preserve" text-anchor="start" x="626.06" y="-196.75" font-family="Times New Roman,Times,Liberation Serif,serif" font-size="14.00">max_trial</text>
<polygon fill="none" stroke="black" points="743.25,-190 743.25,-212.5 814.12,-212.5 814.12,-190 743.25,-190"/>
<text xml:space="preserve" text-anchor="start" x="771.19" y="-196.75" font-family="Times New Roman,Times,Liberation Serif,serif" font-size="14.00">int</text>
<polygon fill="none" stroke="black" points="562.88,-167.5 562.88,-190 743.25,-190 743.25,-167.5 562.88,-167.5"/>
<text xml:space="preserve" text-anchor="start" x="624.56" y="-174.25" font-family="Times New Roman,Times,Liberation Serif,serif" font-size="14.00">max_time</text>
<polygon fill="none" stroke="black" points="743.25,-167.5 743.25,-190 814.12,-190 814.12,-167.5 743.25,-167.5"/>
<text xml:space="preserve" text-anchor="start" x="765.94" y="-174.25" font-family="Times New Roman,Times,Liberation Serif,serif" font-size="14.00">float</text>
<polygon fill="none" stroke="black" points="562.88,-145 562.88,-167.5 743.25,-167.5 743.25,-145 562.88,-145"/>
<text xml:space="preserve" text-anchor="start" x="625.69" y="-151.75" font-family="Times New Roman,Times,Liberation Serif,serif" font-size="14.00">min_time</text>
<polygon fill="none" stroke="black" points="743.25,-145 743.25,-167.5 814.12,-167.5 814.12,-145 743.25,-145"/>
<text xml:space="preserve" text-anchor="start" x="765.94" y="-151.75" font-family="Times New Roman,Times,Liberation Serif,serif" font-size="14.00">float</text>
</a>
</g>
</g>
<!-- aind_behavior_dynamic_foraging.task_logic.trial_generators.coupled_trial_generators.coupled_trial_generator.CoupledTrialGeneratorSpec -->
<g id="node7" class="node">
<title>aind_behavior_dynamic_foraging.task_logic.trial_generators.coupled_trial_generators.coupled_trial_generator.CoupledTrialGeneratorSpec</title>
<g id="a_node7"><a xlink:title="aind_behavior_dynamic_foraging.task_logic.trial_generators.coupled_trial_generators.coupled_trial_generator.CoupledTrialGeneratorSpec&#10;&#10;Base model for trial generator specifications.&#10;">
<polygon fill="none" stroke="black" points="0,-693 0,-715.5 424.5,-715.5 424.5,-693 0,-693"/>
<text xml:space="preserve" text-anchor="start" x="125.25" y="-700.2" font-family="Times New Roman,Times,Liberation Serif,serif" font-weight="bold" font-size="14.00">CoupledTrialGeneratorSpec</text>
<polygon fill="none" stroke="black" points="0,-670.5 0,-693 192,-693 192,-670.5 0,-670.5"/>
<text xml:space="preserve" text-anchor="start" x="83.62" y="-677.25" font-family="Times New Roman,Times,Liberation Serif,serif" font-size="14.00">type</text>
<polygon fill="none" stroke="black" points="192,-670.5 192,-693 424.5,-693 424.5,-670.5 192,-670.5"/>
<text xml:space="preserve" text-anchor="start" x="217.12" y="-677.25" font-family="Times New Roman,Times,Liberation Serif,serif" font-size="14.00">Literal[&#39;CoupledTrialGenerator&#39;]</text>
<polygon fill="none" stroke="black" points="0,-648 0,-670.5 192,-670.5 192,-648 0,-648"/>
<text xml:space="preserve" text-anchor="start" x="62.25" y="-654.75" font-family="Times New Roman,Times,Liberation Serif,serif" font-size="14.00">reward_size</text>
<polygon fill="none" stroke="black" points="192,-648 192,-670.5 424.5,-670.5 424.5,-648 192,-648"/>
<text xml:space="preserve" text-anchor="start" x="274.12" y="-654.75" font-family="Times New Roman,Times,Liberation Serif,serif" font-size="14.00">RewardSize</text>
<polygon fill="none" stroke="black" points="0,-625.5 0,-648 192,-648 192,-625.5 0,-625.5"/>
<text xml:space="preserve" text-anchor="start" x="41.62" y="-632.25" font-family="Times New Roman,Times,Liberation Serif,serif" font-size="14.00">quiescent_duration</text>
<polygon fill="none" stroke="black" points="192,-625.5 192,-648 424.5,-648 424.5,-625.5 192,-625.5"/>
<text xml:space="preserve" text-anchor="start" x="273.75" y="-632.25" font-family="Times New Roman,Times,Liberation Serif,serif" font-size="14.00">Distribution</text>
<polygon fill="none" stroke="black" points="0,-603 0,-625.5 192,-625.5 192,-603 0,-603"/>
<text xml:space="preserve" text-anchor="start" x="43.5" y="-609.75" font-family="Times New Roman,Times,Liberation Serif,serif" font-size="14.00">response_duration</text>
<polygon fill="none" stroke="black" points="192,-603 192,-625.5 424.5,-625.5 424.5,-603 192,-603"/>
<text xml:space="preserve" text-anchor="start" x="295.5" y="-609.75" font-family="Times New Roman,Times,Liberation Serif,serif" font-size="14.00">float</text>
<polygon fill="none" stroke="black" points="0,-580.5 0,-603 192,-603 192,-580.5 0,-580.5"/>
<text xml:space="preserve" text-anchor="start" x="7.5" y="-587.25" font-family="Times New Roman,Times,Liberation Serif,serif" font-size="14.00">reward_consumption_duration</text>
<polygon fill="none" stroke="black" points="192,-580.5 192,-603 424.5,-603 424.5,-580.5 192,-580.5"/>
<text xml:space="preserve" text-anchor="start" x="295.5" y="-587.25" font-family="Times New Roman,Times,Liberation Serif,serif" font-size="14.00">float</text>
<polygon fill="none" stroke="black" points="0,-558 0,-580.5 192,-580.5 192,-558 0,-558"/>
<text xml:space="preserve" text-anchor="start" x="15.75" y="-564.75" font-family="Times New Roman,Times,Liberation Serif,serif" font-size="14.00">inter_trial_interval_duration</text>
<polygon fill="none" stroke="black" points="192,-558 192,-580.5 424.5,-580.5 424.5,-558 192,-558"/>
<text xml:space="preserve" text-anchor="start" x="273.75" y="-564.75" font-family="Times New Roman,Times,Liberation Serif,serif" font-size="14.00">Distribution</text>
<polygon fill="none" stroke="black" points="0,-535.5 0,-558 192,-558 192,-535.5 0,-535.5"/>
<text xml:space="preserve" text-anchor="start" x="58.12" y="-542.25" font-family="Times New Roman,Times,Liberation Serif,serif" font-size="14.00">block_length</text>
<polygon fill="none" stroke="black" points="192,-535.5 192,-558 424.5,-558 424.5,-535.5 192,-535.5"/>
<text xml:space="preserve" text-anchor="start" x="273.75" y="-542.25" font-family="Times New Roman,Times,Liberation Serif,serif" font-size="14.00">Distribution</text>
<polygon fill="none" stroke="black" points="0,-513 0,-535.5 192,-535.5 192,-513 0,-513"/>
<text xml:space="preserve" text-anchor="start" x="34.12" y="-519.75" font-family="Times New Roman,Times,Liberation Serif,serif" font-size="14.00">autowater_parameters</text>
<polygon fill="none" stroke="black" points="192,-513 192,-535.5 424.5,-535.5 424.5,-513 192,-513"/>
<text xml:space="preserve" text-anchor="start" x="216.75" y="-519.75" font-family="Times New Roman,Times,Liberation Serif,serif" font-size="14.00">Optional[AutoWaterParameters]</text>
<polygon fill="none" stroke="black" points="0,-490.5 0,-513 192,-513 192,-490.5 0,-490.5"/>
<text xml:space="preserve" text-anchor="start" x="12.38" y="-497.25" font-family="Times New Roman,Times,Liberation Serif,serif" font-size="14.00">bias_intervention_parameters</text>
<polygon fill="none" stroke="black" points="192,-490.5 192,-513 424.5,-513 424.5,-490.5 192,-490.5"/>
<text xml:space="preserve" text-anchor="start" x="200.62" y="-497.25" font-family="Times New Roman,Times,Liberation Serif,serif" font-size="14.00">Optional[BiasInterventionParameters]</text>
<polygon fill="none" stroke="black" points="0,-468 0,-490.5 192,-490.5 192,-468 0,-468"/>
<text xml:space="preserve" text-anchor="start" x="67.88" y="-474.75" font-family="Times New Roman,Times,Liberation Serif,serif" font-size="14.00">is_baiting</text>
<polygon fill="none" stroke="black" points="192,-468 192,-490.5 424.5,-490.5 424.5,-468 192,-468"/>
<text xml:space="preserve" text-anchor="start" x="295.12" y="-474.75" font-family="Times New Roman,Times,Liberation Serif,serif" font-size="14.00">bool</text>
<polygon fill="none" stroke="black" points="0,-445.5 0,-468 192,-468 192,-445.5 0,-445.5"/>
<text xml:space="preserve" text-anchor="start" x="7.12" y="-452.25" font-family="Times New Roman,Times,Liberation Serif,serif" font-size="14.00">reward_probability_parameters</text>
<polygon fill="none" stroke="black" points="192,-445.5 192,-468 424.5,-468 424.5,-445.5 192,-445.5"/>
<text xml:space="preserve" text-anchor="start" x="223.5" y="-452.25" font-family="Times New Roman,Times,Liberation Serif,serif" font-size="14.00">RewardProbabilityParameters</text>
<polygon fill="none" stroke="black" points="0,-423 0,-445.5 192,-445.5 192,-423 0,-423"/>
<text xml:space="preserve" text-anchor="start" x="3" y="-429.75" font-family="Times New Roman,Times,Liberation Serif,serif" font-size="14.00">trial_generation_end_parameters</text>
<polygon fill="none" stroke="black" points="192,-423 192,-445.5 424.5,-445.5 424.5,-423 192,-423"/>
<text xml:space="preserve" text-anchor="start" x="195" y="-429.75" font-family="Times New Roman,Times,Liberation Serif,serif" font-size="14.00">CoupledTrialGenerationEndConditions</text>
<polygon fill="none" stroke="black" points="0,-400.5 0,-423 192,-423 192,-400.5 0,-400.5"/>
<text xml:space="preserve" text-anchor="start" x="10.5" y="-407.25" font-family="Times New Roman,Times,Liberation Serif,serif" font-size="14.00">behavior_stability_parameters</text>
<polygon fill="none" stroke="black" points="192,-400.5 192,-423 424.5,-423 424.5,-400.5 192,-400.5"/>
<text xml:space="preserve" text-anchor="start" x="197.62" y="-407.25" font-family="Times New Roman,Times,Liberation Serif,serif" font-size="14.00">Optional[BehaviorStabilityParameters]</text>
<polygon fill="none" stroke="black" points="0,-378 0,-400.5 192,-400.5 192,-378 0,-378"/>
<text xml:space="preserve" text-anchor="start" x="6" y="-384.75" font-family="Times New Roman,Times,Liberation Serif,serif" font-size="14.00">extend_block_on_no_response</text>
<polygon fill="none" stroke="black" points="192,-378 192,-400.5 424.5,-400.5 424.5,-378 192,-378"/>
<text xml:space="preserve" text-anchor="start" x="295.12" y="-384.75" font-family="Times New Roman,Times,Liberation Serif,serif" font-size="14.00">bool</text>
<polygon fill="none" stroke="black" points="0,-355.5 0,-378 192,-378 192,-355.5 0,-355.5"/>
<text xml:space="preserve" text-anchor="start" x="64.12" y="-362.25" font-family="Times New Roman,Times,Liberation Serif,serif" font-size="14.00">kernel_size</text>
<polygon fill="none" stroke="black" points="192,-355.5 192,-378 424.5,-378 424.5,-355.5 192,-355.5"/>
<text xml:space="preserve" text-anchor="start" x="300.75" y="-362.25" font-family="Times New Roman,Times,Liberation Serif,serif" font-size="14.00">int</text>
</a>
</g>
</g>
<!-- aind_behavior_dynamic_foraging.task_logic.trial_generators.coupled_trial_generators.coupled_trial_generator.CoupledTrialGeneratorSpec&#45;&gt;aind_behavior_dynamic_foraging.task_logic.interventions.bias_intervention.BiasInterventionParameters -->
<g id="edge4" class="edge">
<title>aind_behavior_dynamic_foraging.task_logic.trial_generators.coupled_trial_generators.coupled_trial_generator.CoupledTrialGeneratorSpec:e&#45;&gt;aind_behavior_dynamic_foraging.task_logic.interventions.bias_intervention.BiasInterventionParameters:w</title>
<path fill="none" stroke="black" d="M434.24,-502.35C487.88,-509.2 490.05,-572.8 538.02,-585.9"/>
<polyline fill="none" stroke="black" points="424.5,-501.75 429.49,-502.06"/>
<polyline fill="none" stroke="black" points="429.49,-502.06 434.48,-502.36"/>
<polyline fill="none" stroke="black" points="556.62,-588.25 551.66,-587.62"/>
<polygon fill="black" stroke="black" points="551.3,-582.54 550.05,-592.46 548.06,-592.21 549.32,-582.29 551.3,-582.54"/>
<polyline fill="none" stroke="black" points="551.66,-587.62 546.7,-587"/>
<ellipse fill="none" stroke="black" cx="542.24" cy="-586.43" rx="4" ry="4"/>
</g>
<!-- aind_behavior_dynamic_foraging.task_logic.trial_generators.coupled_trial_generators.coupled_trial_generator.CoupledTrialGeneratorSpec&#45;&gt;aind_behavior_dynamic_foraging.task_logic.trial_generators.block_based_trial_generator.AutoWaterParameters -->
<g id="edge2" class="edge">
<title>aind_behavior_dynamic_foraging.task_logic.trial_generators.coupled_trial_generators.coupled_trial_generator.CoupledTrialGeneratorSpec:e&#45;&gt;aind_behavior_dynamic_foraging.task_logic.trial_generators.block_based_trial_generator.AutoWaterParameters:w</title>
<path fill="none" stroke="black" d="M434.25,-524.73C531.07,-534.58 495.49,-693.19 584.02,-712.36"/>
<polyline fill="none" stroke="black" points="424.5,-524.25 429.49,-524.5"/>
<polyline fill="none" stroke="black" points="429.49,-524.5 434.49,-524.74"/>
<polyline fill="none" stroke="black" points="602.75,-714.25 597.78,-713.75"/>
<polygon fill="black" stroke="black" points="597.28,-708.67 596.28,-718.62 594.29,-718.42 595.29,-708.47 597.28,-708.67"/>
<polyline fill="none" stroke="black" points="597.78,-713.75 592.8,-713.25"/>
<ellipse fill="none" stroke="black" cx="588.32" cy="-712.79" rx="4" ry="4"/>
</g>
<!-- aind_behavior_dynamic_foraging.task_logic.trial_generators.coupled_trial_generators.coupled_trial_generator.CoupledTrialGeneratorSpec&#45;&gt;aind_behavior_dynamic_foraging.task_logic.trial_generators.coupled_trial_generators.base_coupled_trial_generator.RewardProbabilityParameters -->
<g id="edge5" class="edge">
<title>aind_behavior_dynamic_foraging.task_logic.trial_generators.coupled_trial_generators.coupled_trial_generator.CoupledTrialGeneratorSpec:e&#45;&gt;aind_behavior_dynamic_foraging.task_logic.trial_generators.coupled_trial_generators.base_coupled_trial_generator.RewardProbabilityParameters:w</title>
<path fill="none" stroke="black" d="M434.28,-456.33C502.59,-450.36 510.21,-382.04 575.52,-372.99"/>
<polyline fill="none" stroke="black" points="424.5,-456.75 429.5,-456.54"/>
<polyline fill="none" stroke="black" points="429.5,-456.54 434.49,-456.32"/>
<polyline fill="none" stroke="black" points="590.38,-372 585.39,-372.33"/>
<polygon fill="black" stroke="black" points="584.06,-367.41 584.72,-377.39 582.72,-377.52 582.06,-367.54 584.06,-367.41"/>
<polyline fill="none" stroke="black" points="585.39,-372.33 580.4,-372.66"/>
<polygon fill="black" stroke="black" points="579.07,-367.74 579.73,-377.72 577.74,-377.85 577.07,-367.87 579.07,-367.74"/>
<polyline fill="none" stroke="black" points="580.4,-372.66 575.41,-372.99"/>
</g>
<!-- aind_behavior_dynamic_foraging.task_logic.trial_generators.coupled_trial_generators.coupled_trial_generator.CoupledTrialGeneratorSpec&#45;&gt;aind_behavior_dynamic_foraging.task_logic.trial_generators.coupled_trial_generators.coupled_trial_generator.BehaviorStabilityParameters -->
<g id="edge3" class="edge">
<title>aind_behavior_dynamic_foraging.task_logic.trial_generators.coupled_trial_generators.coupled_trial_generator.CoupledTrialGeneratorSpec:e&#45;&gt;aind_behavior_dynamic_foraging.task_logic.trial_generators.coupled_trial_generators.coupled_trial_generator.BehaviorStabilityParameters:w</title>
<path fill="none" stroke="black" d="M434.35,-411.24C557.49,-397.85 404.27,-125.3 513.91,-99.25"/>
<polyline fill="none" stroke="black" points="424.5,-411.75 429.49,-411.49"/>
<polyline fill="none" stroke="black" points="429.49,-411.49 434.49,-411.23"/>
<polyline fill="none" stroke="black" points="532.5,-97.25 527.53,-97.78"/>
<polygon fill="black" stroke="black" points="526,-92.92 527.07,-102.86 525.08,-103.08 524.01,-93.13 526,-92.92"/>
<polyline fill="none" stroke="black" points="527.53,-97.78 522.56,-98.32"/>
<ellipse fill="none" stroke="black" cx="518.08" cy="-98.8" rx="4" ry="4"/>
</g>
<!-- aind_behavior_dynamic_foraging.task_logic.trial_generators.coupled_trial_generators.coupled_trial_generator.CoupledTrialGeneratorSpec&#45;&gt;aind_behavior_dynamic_foraging.task_logic.trial_generators.coupled_trial_generators.coupled_trial_generator.CoupledTrialGenerationEndConditions -->
<g id="edge7" class="edge">
<title>aind_behavior_dynamic_foraging.task_logic.trial_generators.coupled_trial_generators.coupled_trial_generator.CoupledTrialGeneratorSpec:e&#45;&gt;aind_behavior_dynamic_foraging.task_logic.trial_generators.coupled_trial_generators.coupled_trial_generator.CoupledTrialGenerationEndConditions:w</title>
<path fill="none" stroke="black" d="M434.04,-433.65C511.66,-423.45 474.69,-286.31 547.04,-270.28"/>
<polyline fill="none" stroke="black" points="424.5,-434.25 429.49,-433.94"/>
<polyline fill="none" stroke="black" points="429.49,-433.94 434.48,-433.62"/>
<polyline fill="none" stroke="black" points="561.88,-268.75 556.9,-269.26"/>
<polygon fill="black" stroke="black" points="555.39,-264.39 556.42,-274.34 554.43,-274.54 553.41,-264.6 555.39,-264.39"/>
<polyline fill="none" stroke="black" points="556.9,-269.26 551.93,-269.77"/>
<polygon fill="black" stroke="black" points="550.42,-264.9 551.44,-274.85 549.46,-275.05 548.43,-265.11 550.42,-264.9"/>
<polyline fill="none" stroke="black" points="551.93,-269.77 546.95,-270.29"/>
</g>
<!-- aind_behavior_dynamic_foraging.task_logic.trial_models.RewardSize -->
<g id="node8" class="node">
<title>aind_behavior_dynamic_foraging.task_logic.trial_models.RewardSize</title>
<g id="a_node8"><a xlink:title="aind_behavior_dynamic_foraging.task_logic.trial_models.RewardSize&#10;&#10;!!! abstract &quot;Usage Documentation&quot;&#10; &#160;&#160;&#160;[Models](../concepts/models.md)&#10;&#10;A base class for creating Pydantic models.&#10;&#10;Attributes:&#10; &#160;&#160;&#160;__class_vars__: The names of the class variables defined on the model.&#10; &#160;&#160;&#160;__private_attributes__: Metadata about the private attributes of the model.&#10; &#160;&#160;&#160;__signature__: The synthesized `__init__` [`Signature`][inspect.Signature] of the model.&#10;&#10; &#160;&#160;&#160;__pydantic_complete__: Whether model building is completed, or if there are still undefined fields.&#10; &#160;&#160;&#160;__pydantic_core_schema__: The core schema of the model.&#10; &#160;&#160;&#160;__pydantic_custom_init__: Whether the model has a custom `__init__` function.&#10; &#160;&#160;&#160;__pydantic_decorators__: Metadata containing the decorators defined on the model.&#10; &#160;&#160;&#160;&#160;&#160;&#160;&#160;This replaces `Model.__validators__` and `Model.__root_validators__` from Pydantic V1.&#10; &#160;&#160;&#160;__pydantic_generic_metadata__: Metadata for generic models; contains data used for a similar purpose to&#10; &#160;&#160;&#160;&#160;&#160;&#160;&#160;__args__, __origin__, __parameters__ in typing&#45;module generics. May eventually be replaced by these.&#10; &#160;&#160;&#160;__pydantic_parent_namespace__: Parent namespace of the model, used for automatic rebuilding of models.&#10; &#160;&#160;&#160;__pydantic_post_init__: The name of the post&#45;init method for the model, if defined.&#10; &#160;&#160;&#160;__pydantic_root_model__: Whether the model is a [`RootModel`][pydantic.root_model.RootModel].&#10; &#160;&#160;&#160;__pydantic_serializer__: The `pydantic&#45;core` `SchemaSerializer` used to dump instances of the model.&#10; &#160;&#160;&#160;__pydantic_validator__: The `pydantic&#45;core` `SchemaValidator` used to validate instances of the model.&#10;&#10; &#160;&#160;&#160;__pydantic_fields__: A dictionary of field names and their corresponding [`FieldInfo`][pydantic.fields.FieldInfo] objects.&#10; &#160;&#160;&#160;__pydantic_computed_fields__: A dictionary of computed field names and their corresponding [`ComputedFieldInfo`][pydantic.fields.ComputedFieldInfo] objects.&#10;&#10; &#160;&#160;&#160;__pydantic_extra__: A dictionary containing extra values, if [`extra`][pydantic.config.ConfigDict.extra]&#10; &#160;&#160;&#160;&#160;&#160;&#160;&#160;is set to `&#39;allow&#39;`.&#10; &#160;&#160;&#160;__pydantic_fields_set__: The names of fields explicitly set during instantiation.&#10; &#160;&#160;&#160;__pydantic_private__: Values of private attributes set on the model instance.&#10;">
<polygon fill="none" stroke="black" points="649.12,-806.75 649.12,-829.25 727.88,-829.25 727.88,-806.75 649.12,-806.75"/>
<text xml:space="preserve" text-anchor="start" x="652.12" y="-813.95" font-family="Times New Roman,Times,Liberation Serif,serif" font-weight="bold" font-size="14.00">RewardSize</text>
<polygon fill="none" stroke="black" points="649.12,-784.25 649.12,-806.75 689.25,-806.75 689.25,-784.25 649.12,-784.25"/>
<text xml:space="preserve" text-anchor="start" x="655.69" y="-791" font-family="Times New Roman,Times,Liberation Serif,serif" font-size="14.00">right</text>
<polygon fill="none" stroke="black" points="689.25,-784.25 689.25,-806.75 727.88,-806.75 727.88,-784.25 689.25,-784.25"/>
<text xml:space="preserve" text-anchor="start" x="695.81" y="-791" font-family="Times New Roman,Times,Liberation Serif,serif" font-size="14.00">float</text>
<polygon fill="none" stroke="black" points="649.12,-761.75 649.12,-784.25 689.25,-784.25 689.25,-761.75 649.12,-761.75"/>
<text xml:space="preserve" text-anchor="start" x="660.19" y="-768.5" font-family="Times New Roman,Times,Liberation Serif,serif" font-size="14.00">left</text>
<polygon fill="none" stroke="black" points="689.25,-761.75 689.25,-784.25 727.88,-784.25 727.88,-761.75 689.25,-761.75"/>
<text xml:space="preserve" text-anchor="start" x="695.81" y="-768.5" font-family="Times New Roman,Times,Liberation Serif,serif" font-size="14.00">float</text>
</a>
</g>
</g>
<!-- aind_behavior_dynamic_foraging.task_logic.trial_generators.coupled_trial_generators.coupled_trial_generator.CoupledTrialGeneratorSpec&#45;&gt;aind_behavior_dynamic_foraging.task_logic.trial_models.RewardSize -->
<g id="edge6" class="edge">
<title>aind_behavior_dynamic_foraging.task_logic.trial_generators.coupled_trial_generators.coupled_trial_generator.CoupledTrialGeneratorSpec:e&#45;&gt;aind_behavior_dynamic_foraging.task_logic.trial_models.RewardSize:w</title>
<path fill="none" stroke="black" d="M434.26,-659.71C485.26,-664.76 485.67,-710.25 532.5,-743.5 577.96,-775.78 585.83,-811.15 633.25,-817.12"/>
<polyline fill="none" stroke="black" points="424.5,-659.25 429.49,-659.49"/>
<polyline fill="none" stroke="black" points="429.49,-659.49 434.49,-659.72"/>
<polyline fill="none" stroke="black" points="648.12,-818 643.13,-817.71"/>
<polygon fill="black" stroke="black" points="642.43,-812.66 641.84,-822.64 639.84,-822.52 640.43,-812.54 642.43,-812.66"/>
<polyline fill="none" stroke="black" points="643.13,-817.71 638.14,-817.41"/>
<polygon fill="black" stroke="black" points="637.44,-812.36 636.85,-822.34 634.85,-822.23 635.44,-812.24 637.44,-812.36"/>
<polyline fill="none" stroke="black" points="638.14,-817.41 633.15,-817.12"/>
</g>
</g>
</svg>
