<?xml version="1.0" encoding="UTF-8" standalone="no"?>
<!DOCTYPE svg PUBLIC "-//W3C//DTD SVG 1.1//EN"
 "http://www.w3.org/Graphics/SVG/1.1/DTD/svg11.dtd">
<!-- Generated by graphviz version 2.43.0 (0)
 -->
<!-- Title: Entity Relationship Diagram created by erdantic Pages: 1 -->
<svg width="825pt" height="871pt"
 viewBox="0.00 0.00 825.00 870.50" xmlns="http://www.w3.org/2000/svg" xmlns:xlink="http://www.w3.org/1999/xlink">
<g id="graph0" class="graph" transform="scale(1 1) rotate(0) translate(4 866.5)">
<title>Entity Relationship Diagram created by erdantic</title>
<polygon fill="white" stroke="transparent" points="-4,4 -4,-866.5 821,-866.5 821,4 -4,4"/>
<text text-anchor="middle" x="408.5" y="-6.8" font-family="Times New Roman,Times,Liberation Serif,serif" font-size="9.00" fill="#a8a8a8">Created by erdantic v1.2.0 &lt;https://github.com/drivendataorg/erdantic&gt;</text>
<!-- aind_behavior_dynamic_foraging.task_logic.trial_generators.block_based_trial_generator.RewardProbabilityParameters -->
<g id="node1" class="node">
<title>aind_behavior_dynamic_foraging.task_logic.trial_generators.block_based_trial_generator.RewardProbabilityParameters</title>
<g id="a_node1"><a xlink:title="aind_behavior_dynamic_foraging.task_logic.trial_generators.block_based_trial_generator.RewardProbabilityParameters&#10;&#10;Defines the reward probability structure for a dynamic foraging task.&#10;&#10;Reward probabilities are defined as pairs (p_left, p_right) normalized by&#10;base_reward_sum. Pairs are drawn from a family representing a difficulty level:&#10;&#10; &#160;&#160;&#160;Family 0: &#160;&#160;[[8, 1], [6, 1], [3, 1], [1, 1]]&#10; &#160;&#160;&#160;Family 1: &#160;[[8, 1], [1, 1]]&#10; &#160;&#160;&#160;Family 2: &#160;[[1.0, 0.0], [0.9, 0.1], [0.8, 0.2], [0.7, 0.3], [0.6, 0.4], [0.5, 0.5]]&#10; &#160;&#160;&#160;Family 3: &#160;[[6, 1], [3, 1], [1, 1]]&#10;">
<polygon fill="none" stroke="black" points="555.5,-397.5 555.5,-418.5 775.5,-418.5 775.5,-397.5 555.5,-397.5"/>
<text text-anchor="start" x="576" y="-405.3" font-family="Times New Roman,Times,Liberation Serif,serif" font-weight="bold" font-size="14.00">RewardProbabilityParameters</text>
<polygon fill="none" stroke="black" points="555.5,-376.5 555.5,-397.5 660.5,-397.5 660.5,-376.5 555.5,-376.5"/>
<text text-anchor="start" x="558.5" y="-383.3" font-family="Times New Roman,Times,Liberation Serif,serif" font-size="14.00">base_reward_sum</text>
<polygon fill="none" stroke="black" points="660.5,-376.5 660.5,-397.5 775.5,-397.5 775.5,-376.5 660.5,-376.5"/>
<text text-anchor="start" x="705.5" y="-383.3" font-family="Times New Roman,Times,Liberation Serif,serif" font-size="14.00">float</text>
<polygon fill="none" stroke="black" points="555.5,-355.5 555.5,-376.5 660.5,-376.5 660.5,-355.5 555.5,-355.5"/>
<text text-anchor="start" x="572.5" y="-362.3" font-family="Times New Roman,Times,Liberation Serif,serif" font-size="14.00">reward_pairs</text>
<polygon fill="none" stroke="black" points="660.5,-355.5 660.5,-376.5 775.5,-376.5 775.5,-355.5 660.5,-355.5"/>
<text text-anchor="start" x="663.5" y="-362.3" font-family="Times New Roman,Times,Liberation Serif,serif" font-size="14.00">list[list[float, float]]</text>
</a>
</g>
</g>
<!-- aind_behavior_dynamic_foraging.task_logic.trial_generators.composite_trial_generator.TrialGeneratorCompositeSpec[TrialGeneratorSpec] -->
<g id="node2" class="node">
<title>aind_behavior_dynamic_foraging.task_logic.trial_generators.composite_trial_generator.TrialGeneratorCompositeSpec[TrialGeneratorSpec]</title>
<g id="a_node2"><a xlink:title="aind_behavior_dynamic_foraging.task_logic.trial_generators.composite_trial_generator.TrialGeneratorCompositeSpec[TrialGeneratorSpec]&#10;&#10;Specification for a composite trial generator that concatenates multiple generators.&#10;">
<polygon fill="none" stroke="black" points="48,-762.5 48,-783.5 358,-783.5 358,-762.5 48,-762.5"/>
<text text-anchor="start" x="51" y="-770.3" font-family="Times New Roman,Times,Liberation Serif,serif" font-weight="bold" font-size="14.00">TrialGeneratorCompositeSpec[TrialGeneratorSpec]</text>
<polygon fill="none" stroke="black" points="48,-741.5 48,-762.5 136,-762.5 136,-741.5 48,-741.5"/>
<text text-anchor="start" x="80" y="-748.3" font-family="Times New Roman,Times,Liberation Serif,serif" font-size="14.00">type</text>
<polygon fill="none" stroke="black" points="136,-741.5 136,-762.5 358,-762.5 358,-741.5 136,-741.5"/>
<text text-anchor="start" x="152" y="-748.3" font-family="Times New Roman,Times,Liberation Serif,serif" font-size="14.00">Literal[&#39;TrialGeneratorComposite&#39;]</text>
<polygon fill="none" stroke="black" points="48,-720.5 48,-741.5 136,-741.5 136,-720.5 48,-720.5"/>
<text text-anchor="start" x="63.5" y="-727.3" font-family="Times New Roman,Times,Liberation Serif,serif" font-size="14.00">generators</text>
<polygon fill="none" stroke="black" points="136,-720.5 136,-741.5 358,-741.5 358,-720.5 136,-720.5"/>
<text text-anchor="start" x="180.5" y="-727.3" font-family="Times New Roman,Times,Liberation Serif,serif" font-size="14.00">list[TrialGeneratorSpec]</text>
</a>
</g>
</g>
<!-- aind_behavior_dynamic_foraging.task_logic.trial_generators.coupled_trial_generator.BehaviorStabilityParameters -->
<g id="node3" class="node">
<title>aind_behavior_dynamic_foraging.task_logic.trial_generators.coupled_trial_generator.BehaviorStabilityParameters</title>
<g id="a_node3"><a xlink:title="aind_behavior_dynamic_foraging.task_logic.trial_generators.coupled_trial_generator.BehaviorStabilityParameters&#10;&#10;Parameters controlling when behavior is considered stable enough to switch blocks.&#10;">
<polygon fill="none" stroke="black" points="514.5,-298.5 514.5,-319.5 817.5,-319.5 817.5,-298.5 514.5,-298.5"/>
<text text-anchor="start" x="581.5" y="-306.3" font-family="Times New Roman,Times,Liberation Serif,serif" font-weight="bold" font-size="14.00">BehaviorStabilityParameters</text>
<polygon fill="none" stroke="black" points="514.5,-277.5 514.5,-298.5 685.5,-298.5 685.5,-277.5 514.5,-277.5"/>
<text text-anchor="start" x="526" y="-284.3" font-family="Times New Roman,Times,Liberation Serif,serif" font-size="14.00">behavior_evaluation_mode</text>
<polygon fill="none" stroke="black" points="685.5,-277.5 685.5,-298.5 817.5,-298.5 817.5,-277.5 685.5,-277.5"/>
<text text-anchor="start" x="688.5" y="-284.3" font-family="Times New Roman,Times,Liberation Serif,serif" font-size="14.00">Literal[&#39;end&#39;, &#39;anytime&#39;]</text>
<polygon fill="none" stroke="black" points="514.5,-256.5 514.5,-277.5 685.5,-277.5 685.5,-256.5 514.5,-256.5"/>
<text text-anchor="start" x="526.5" y="-263.3" font-family="Times New Roman,Times,Liberation Serif,serif" font-size="14.00">behavior_stability_fraction</text>
<polygon fill="none" stroke="black" points="685.5,-256.5 685.5,-277.5 817.5,-277.5 817.5,-256.5 685.5,-256.5"/>
<text text-anchor="start" x="739" y="-263.3" font-family="Times New Roman,Times,Liberation Serif,serif" font-size="14.00">float</text>
<polygon fill="none" stroke="black" points="514.5,-235.5 514.5,-256.5 685.5,-256.5 685.5,-235.5 514.5,-235.5"/>
<text text-anchor="start" x="517.5" y="-242.3" font-family="Times New Roman,Times,Liberation Serif,serif" font-size="14.00">min_consecutive_stable_trials</text>
<polygon fill="none" stroke="black" points="685.5,-235.5 685.5,-256.5 817.5,-256.5 817.5,-235.5 685.5,-235.5"/>
<text text-anchor="start" x="744" y="-242.3" font-family="Times New Roman,Times,Liberation Serif,serif" font-size="14.00">int</text>
</a>
</g>
</g>
<!-- aind_behavior_dynamic_foraging.task_logic.trial_generators.coupled_trial_generator.CoupledTrialGenerationEndConditions -->
<g id="node4" class="node">
<title>aind_behavior_dynamic_foraging.task_logic.trial_generators.coupled_trial_generator.CoupledTrialGenerationEndConditions</title>
<g id="a_node4"><a xlink:title="aind_behavior_dynamic_foraging.task_logic.trial_generators.coupled_trial_generator.CoupledTrialGenerationEndConditions&#10;&#10;Defines the conditions under which a foraging session should terminate.&#10;">
<polygon fill="none" stroke="black" points="547.5,-560.5 547.5,-581.5 784.5,-581.5 784.5,-560.5 547.5,-560.5"/>
<text text-anchor="start" x="550.5" y="-568.3" font-family="Times New Roman,Times,Liberation Serif,serif" font-weight="bold" font-size="14.00">CoupledTrialGenerationEndConditions</text>
<polygon fill="none" stroke="black" points="547.5,-539.5 547.5,-560.5 715.5,-560.5 715.5,-539.5 547.5,-539.5"/>
<text text-anchor="start" x="600.5" y="-546.3" font-family="Times New Roman,Times,Liberation Serif,serif" font-size="14.00">ignore_win</text>
<polygon fill="none" stroke="black" points="715.5,-539.5 715.5,-560.5 784.5,-560.5 784.5,-539.5 715.5,-539.5"/>
<text text-anchor="start" x="742.5" y="-546.3" font-family="Times New Roman,Times,Liberation Serif,serif" font-size="14.00">int</text>
<polygon fill="none" stroke="black" points="547.5,-518.5 547.5,-539.5 715.5,-539.5 715.5,-518.5 547.5,-518.5"/>
<text text-anchor="start" x="569.5" y="-525.3" font-family="Times New Roman,Times,Liberation Serif,serif" font-size="14.00">ignore_ratio_threshold</text>
<polygon fill="none" stroke="black" points="715.5,-518.5 715.5,-539.5 784.5,-539.5 784.5,-518.5 715.5,-518.5"/>
<text text-anchor="start" x="737.5" y="-525.3" font-family="Times New Roman,Times,Liberation Serif,serif" font-size="14.00">float</text>
<polygon fill="none" stroke="black" points="547.5,-497.5 547.5,-518.5 715.5,-518.5 715.5,-497.5 547.5,-497.5"/>
<text text-anchor="start" x="605" y="-504.3" font-family="Times New Roman,Times,Liberation Serif,serif" font-size="14.00">max_trial</text>
<polygon fill="none" stroke="black" points="715.5,-497.5 715.5,-518.5 784.5,-518.5 784.5,-497.5 715.5,-497.5"/>
<text text-anchor="start" x="742.5" y="-504.3" font-family="Times New Roman,Times,Liberation Serif,serif" font-size="14.00">int</text>
<polygon fill="none" stroke="black" points="547.5,-476.5 547.5,-497.5 715.5,-497.5 715.5,-476.5 547.5,-476.5"/>
<text text-anchor="start" x="603.5" y="-483.3" font-family="Times New Roman,Times,Liberation Serif,serif" font-size="14.00">max_time</text>
<polygon fill="none" stroke="black" points="715.5,-476.5 715.5,-497.5 784.5,-497.5 784.5,-476.5 715.5,-476.5"/>
<text text-anchor="start" x="737.5" y="-483.3" font-family="Times New Roman,Times,Liberation Serif,serif" font-size="14.00">float</text>
<polygon fill="none" stroke="black" points="547.5,-455.5 547.5,-476.5 715.5,-476.5 715.5,-455.5 547.5,-455.5"/>
<text text-anchor="start" x="604.5" y="-462.3" font-family="Times New Roman,Times,Liberation Serif,serif" font-size="14.00">min_time</text>
<polygon fill="none" stroke="black" points="715.5,-455.5 715.5,-476.5 784.5,-476.5 784.5,-455.5 715.5,-455.5"/>
<text text-anchor="start" x="737.5" y="-462.3" font-family="Times New Roman,Times,Liberation Serif,serif" font-size="14.00">float</text>
</a>
</g>
</g>
<!-- aind_behavior_dynamic_foraging.task_logic.trial_generators.coupled_trial_generator.CoupledTrialGeneratorSpec -->
<g id="node5" class="node">
<title>aind_behavior_dynamic_foraging.task_logic.trial_generators.coupled_trial_generator.CoupledTrialGeneratorSpec</title>
<g id="a_node5"><a xlink:title="aind_behavior_dynamic_foraging.task_logic.trial_generators.coupled_trial_generator.CoupledTrialGeneratorSpec&#10;&#10;Base model for trial generator specifications.&#10;">
<polygon fill="none" stroke="black" points="1,-663.5 1,-684.5 406,-684.5 406,-663.5 1,-663.5"/>
<text text-anchor="start" x="120.5" y="-671.3" font-family="Times New Roman,Times,Liberation Serif,serif" font-weight="bold" font-size="14.00">CoupledTrialGeneratorSpec</text>
<polygon fill="none" stroke="black" points="1,-642.5 1,-663.5 186,-663.5 186,-642.5 1,-642.5"/>
<text text-anchor="start" x="81.5" y="-649.3" font-family="Times New Roman,Times,Liberation Serif,serif" font-size="14.00">type</text>
<polygon fill="none" stroke="black" points="186,-642.5 186,-663.5 406,-663.5 406,-642.5 186,-642.5"/>
<text text-anchor="start" x="208" y="-649.3" font-family="Times New Roman,Times,Liberation Serif,serif" font-size="14.00">Literal[&#39;CoupledTrialGenerator&#39;]</text>
<polygon fill="none" stroke="black" points="1,-621.5 1,-642.5 186,-642.5 186,-621.5 1,-621.5"/>
<text text-anchor="start" x="42" y="-628.3" font-family="Times New Roman,Times,Liberation Serif,serif" font-size="14.00">quiescent_duration</text>
<polygon fill="none" stroke="black" points="186,-621.5 186,-642.5 406,-642.5 406,-621.5 186,-621.5"/>
<text text-anchor="start" x="263" y="-628.3" font-family="Times New Roman,Times,Liberation Serif,serif" font-size="14.00">Distribution</text>
<polygon fill="none" stroke="black" points="1,-600.5 1,-621.5 186,-621.5 186,-600.5 1,-600.5"/>
<text text-anchor="start" x="43.5" y="-607.3" font-family="Times New Roman,Times,Liberation Serif,serif" font-size="14.00">response_duration</text>
<polygon fill="none" stroke="black" points="186,-600.5 186,-621.5 406,-621.5 406,-600.5 186,-600.5"/>
<text text-anchor="start" x="283.5" y="-607.3" font-family="Times New Roman,Times,Liberation Serif,serif" font-size="14.00">float</text>
<polygon fill="none" stroke="black" points="1,-579.5 1,-600.5 186,-600.5 186,-579.5 1,-579.5"/>
<text text-anchor="start" x="10" y="-586.3" font-family="Times New Roman,Times,Liberation Serif,serif" font-size="14.00">reward_consumption_duration</text>
<polygon fill="none" stroke="black" points="186,-579.5 186,-600.5 406,-600.5 406,-579.5 186,-579.5"/>
<text text-anchor="start" x="283.5" y="-586.3" font-family="Times New Roman,Times,Liberation Serif,serif" font-size="14.00">float</text>
<polygon fill="none" stroke="black" points="1,-558.5 1,-579.5 186,-579.5 186,-558.5 1,-558.5"/>
<text text-anchor="start" x="16.5" y="-565.3" font-family="Times New Roman,Times,Liberation Serif,serif" font-size="14.00">inter_trial_interval_duration</text>
<polygon fill="none" stroke="black" points="186,-558.5 186,-579.5 406,-579.5 406,-558.5 186,-558.5"/>
<text text-anchor="start" x="263" y="-565.3" font-family="Times New Roman,Times,Liberation Serif,serif" font-size="14.00">Distribution</text>
<polygon fill="none" stroke="black" points="1,-537.5 1,-558.5 186,-558.5 186,-537.5 1,-537.5"/>
<text text-anchor="start" x="66.5" y="-544.3" font-family="Times New Roman,Times,Liberation Serif,serif" font-size="14.00">block_len</text>
<polygon fill="none" stroke="black" points="186,-537.5 186,-558.5 406,-558.5 406,-537.5 186,-537.5"/>
<text text-anchor="start" x="263" y="-544.3" font-family="Times New Roman,Times,Liberation Serif,serif" font-size="14.00">Distribution</text>
<polygon fill="none" stroke="black" points="1,-516.5 1,-537.5 186,-537.5 186,-516.5 1,-516.5"/>
<text text-anchor="start" x="42" y="-523.3" font-family="Times New Roman,Times,Liberation Serif,serif" font-size="14.00">min_block_reward</text>
<polygon fill="none" stroke="black" points="186,-516.5 186,-537.5 406,-537.5 406,-516.5 186,-516.5"/>
<text text-anchor="start" x="288.5" y="-523.3" font-family="Times New Roman,Times,Liberation Serif,serif" font-size="14.00">int</text>
<polygon fill="none" stroke="black" points="1,-495.5 1,-516.5 186,-516.5 186,-495.5 1,-495.5"/>
<text text-anchor="start" x="62.5" y="-502.3" font-family="Times New Roman,Times,Liberation Serif,serif" font-size="14.00">kernel_size</text>
<polygon fill="none" stroke="black" points="186,-495.5 186,-516.5 406,-516.5 406,-495.5 186,-495.5"/>
<text text-anchor="start" x="288.5" y="-502.3" font-family="Times New Roman,Times,Liberation Serif,serif" font-size="14.00">int</text>
<polygon fill="none" stroke="black" points="1,-474.5 1,-495.5 186,-495.5 186,-474.5 1,-474.5"/>
<text text-anchor="start" x="8" y="-481.3" font-family="Times New Roman,Times,Liberation Serif,serif" font-size="14.00">reward_probability_parameters</text>
<polygon fill="none" stroke="black" points="186,-474.5 186,-495.5 406,-495.5 406,-474.5 186,-474.5"/>
<text text-anchor="start" x="214.5" y="-481.3" font-family="Times New Roman,Times,Liberation Serif,serif" font-size="14.00">RewardProbabilityParameters</text>
<polygon fill="none" stroke="black" points="1,-453.5 1,-474.5 186,-474.5 186,-453.5 1,-453.5"/>
<text text-anchor="start" x="66.5" y="-460.3" font-family="Times New Roman,Times,Liberation Serif,serif" font-size="14.00">is_baiting</text>
<polygon fill="none" stroke="black" points="186,-453.5 186,-474.5 406,-474.5 406,-453.5 186,-453.5"/>
<text text-anchor="start" x="283.5" y="-460.3" font-family="Times New Roman,Times,Liberation Serif,serif" font-size="14.00">bool</text>
<polygon fill="none" stroke="black" points="1,-432.5 1,-453.5 186,-453.5 186,-432.5 1,-432.5"/>
<text text-anchor="start" x="4" y="-439.3" font-family="Times New Roman,Times,Liberation Serif,serif" font-size="14.00">trial_generation_end_parameters</text>
<polygon fill="none" stroke="black" points="186,-432.5 186,-453.5 406,-453.5 406,-432.5 186,-432.5"/>
<text text-anchor="start" x="189" y="-439.3" font-family="Times New Roman,Times,Liberation Serif,serif" font-size="14.00">CoupledTrialGenerationEndConditions</text>
<polygon fill="none" stroke="black" points="1,-411.5 1,-432.5 186,-432.5 186,-411.5 1,-411.5"/>
<text text-anchor="start" x="11" y="-418.3" font-family="Times New Roman,Times,Liberation Serif,serif" font-size="14.00">behavior_stability_parameters</text>
<polygon fill="none" stroke="black" points="186,-411.5 186,-432.5 406,-432.5 406,-411.5 186,-411.5"/>
<text text-anchor="start" x="189.5" y="-418.3" font-family="Times New Roman,Times,Liberation Serif,serif" font-size="14.00">Optional[BehaviorStabilityParameters]</text>
<polygon fill="none" stroke="black" points="1,-390.5 1,-411.5 186,-411.5 186,-390.5 1,-390.5"/>
<text text-anchor="start" x="9.5" y="-397.3" font-family="Times New Roman,Times,Liberation Serif,serif" font-size="14.00">extend_block_on_no_response</text>
<polygon fill="none" stroke="black" points="186,-390.5 186,-411.5 406,-411.5 406,-390.5 186,-390.5"/>
<text text-anchor="start" x="283.5" y="-397.3" font-family="Times New Roman,Times,Liberation Serif,serif" font-size="14.00">bool</text>
</a>
</g>
</g>
<!-- aind_behavior_dynamic_foraging.task_logic.trial_generators.coupled_trial_generator.CoupledTrialGeneratorSpec&#45;&gt;aind_behavior_dynamic_foraging.task_logic.trial_generators.block_based_trial_generator.RewardProbabilityParameters -->
<g id="edge1" class="edge">
<title>aind_behavior_dynamic_foraging.task_logic.trial_generators.coupled_trial_generator.CoupledTrialGeneratorSpec:e&#45;&gt;aind_behavior_dynamic_foraging.task_logic.trial_generators.block_based_trial_generator.RewardProbabilityParameters:w</title>
<path fill="none" stroke="black" d="M416.35,-483.97C475.46,-477.77 483.07,-418.62 539.49,-409.64"/>
<polyline fill="none" stroke="black" points="406,-484.5 410.99,-484.25 "/>
<polyline fill="none" stroke="black" points="410.99,-484.25 415.99,-483.99 "/>
<polyline fill="none" stroke="black" points="554.5,-408.5 549.51,-408.88 "/>
<polygon fill="black" stroke="black" points="548.14,-403.97 548.9,-413.94 546.9,-414.09 546.14,-404.12 548.14,-403.97"/>
<polyline fill="none" stroke="black" points="549.51,-408.88 544.53,-409.26 "/>
<polygon fill="black" stroke="black" points="543.15,-404.35 543.91,-414.32 541.92,-414.47 541.16,-404.5 543.15,-404.35"/>
<polyline fill="none" stroke="black" points="544.53,-409.26 539.54,-409.64 "/>
</g>
<!-- aind_behavior_dynamic_foraging.task_logic.trial_generators.coupled_trial_generator.CoupledTrialGeneratorSpec&#45;&gt;aind_behavior_dynamic_foraging.task_logic.trial_generators.coupled_trial_generator.BehaviorStabilityParameters -->
<g id="edge2" class="edge">
<title>aind_behavior_dynamic_foraging.task_logic.trial_generators.coupled_trial_generator.CoupledTrialGeneratorSpec:e&#45;&gt;aind_behavior_dynamic_foraging.task_logic.trial_generators.coupled_trial_generator.BehaviorStabilityParameters:w</title>
<path fill="none" stroke="black" d="M416.14,-420.6C466.32,-411.12 452.61,-329.7 496.05,-312.63"/>
<polyline fill="none" stroke="black" points="406,-421.5 410.98,-421.06 "/>
<polyline fill="none" stroke="black" points="410.98,-421.06 415.96,-420.61 "/>
<polyline fill="none" stroke="black" points="514,-309.5 509.07,-310.36 "/>
<polygon fill="black" stroke="black" points="507.23,-305.61 508.95,-315.46 506.98,-315.8 505.26,-305.95 507.23,-305.61"/>
<polyline fill="none" stroke="black" points="509.07,-310.36 504.15,-311.22 "/>
<ellipse fill="none" stroke="black" cx="500.21" cy="-311.91" rx="4" ry="4"/>
</g>
<!-- aind_behavior_dynamic_foraging.task_logic.trial_generators.coupled_trial_generator.CoupledTrialGeneratorSpec&#45;&gt;aind_behavior_dynamic_foraging.task_logic.trial_generators.coupled_trial_generator.CoupledTrialGenerationEndConditions -->
<g id="edge3" class="edge">
<title>aind_behavior_dynamic_foraging.task_logic.trial_generators.coupled_trial_generator.CoupledTrialGeneratorSpec:e&#45;&gt;aind_behavior_dynamic_foraging.task_logic.trial_generators.coupled_trial_generator.CoupledTrialGenerationEndConditions:w</title>
<path fill="none" stroke="black" d="M416.32,-443.19C483.55,-452.65 468.09,-555.85 531.26,-569.92"/>
<polyline fill="none" stroke="black" points="406,-442.5 410.99,-442.84 "/>
<polyline fill="none" stroke="black" points="410.99,-442.84 415.98,-443.17 "/>
<polyline fill="none" stroke="black" points="546.5,-571.5 541.53,-570.98 "/>
<polygon fill="black" stroke="black" points="541.05,-565.91 540.02,-575.85 538.03,-575.65 539.06,-565.7 541.05,-565.91"/>
<polyline fill="none" stroke="black" points="541.53,-570.98 536.55,-570.47 "/>
<polygon fill="black" stroke="black" points="536.08,-565.39 535.04,-575.34 533.05,-575.13 534.09,-565.18 536.08,-565.39"/>
<polyline fill="none" stroke="black" points="536.55,-570.47 531.58,-569.95 "/>
</g>
<!-- aind_behavior_dynamic_foraging.task_logic.trial_generators.integration_test_trial_generator.IntegrationTestTrialGeneratorSpec -->
<g id="node6" class="node">
<title>aind_behavior_dynamic_foraging.task_logic.trial_generators.integration_test_trial_generator.IntegrationTestTrialGeneratorSpec</title>
<g id="a_node6"><a xlink:title="aind_behavior_dynamic_foraging.task_logic.trial_generators.integration_test_trial_generator.IntegrationTestTrialGeneratorSpec&#10;&#10;Base model for trial generator specifications.&#10;">
<polygon fill="none" stroke="black" points="79,-841.5 79,-862.5 327,-862.5 327,-841.5 79,-841.5"/>
<text text-anchor="start" x="100" y="-849.3" font-family="Times New Roman,Times,Liberation Serif,serif" font-weight="bold" font-size="14.00">IntegrationTestTrialGeneratorSpec</text>
<polygon fill="none" stroke="black" points="79,-820.5 79,-841.5 109,-841.5 109,-820.5 79,-820.5"/>
<text text-anchor="start" x="82" y="-827.3" font-family="Times New Roman,Times,Liberation Serif,serif" font-size="14.00">type</text>
<polygon fill="none" stroke="black" points="109,-820.5 109,-841.5 327,-841.5 327,-820.5 109,-820.5"/>
<text text-anchor="start" x="112" y="-827.3" font-family="Times New Roman,Times,Liberation Serif,serif" font-size="14.00">Literal[&#39;IntegrationTestTrialGenerator&#39;]</text>
</a>
</g>
</g>
<!-- aind_behavior_dynamic_foraging.task_logic.trial_generators.warmup_trial_generator.WarmupTrialGenerationEndConditions -->
<g id="node7" class="node">
<title>aind_behavior_dynamic_foraging.task_logic.trial_generators.warmup_trial_generator.WarmupTrialGenerationEndConditions</title>
<g id="a_node7"><a xlink:title="aind_behavior_dynamic_foraging.task_logic.trial_generators.warmup_trial_generator.WarmupTrialGenerationEndConditions&#10;&#10;!!! abstract &quot;Usage Documentation&quot;&#10; &#160;&#160;&#160;[Models](../concepts/models.md)&#10;&#10;A base class for creating Pydantic models.&#10;&#10;Attributes:&#10; &#160;&#160;&#160;__class_vars__: The names of the class variables defined on the model.&#10; &#160;&#160;&#160;__private_attributes__: Metadata about the private attributes of the model.&#10; &#160;&#160;&#160;__signature__: The synthesized `__init__` [`Signature`][inspect.Signature] of the model.&#10;&#10; &#160;&#160;&#160;__pydantic_complete__: Whether model building is completed, or if there are still undefined fields.&#10; &#160;&#160;&#160;__pydantic_core_schema__: The core schema of the model.&#10; &#160;&#160;&#160;__pydantic_custom_init__: Whether the model has a custom `__init__` function.&#10; &#160;&#160;&#160;__pydantic_decorators__: Metadata containing the decorators defined on the model.&#10; &#160;&#160;&#160;&#160;&#160;&#160;&#160;This replaces `Model.__validators__` and `Model.__root_validators__` from Pydantic V1.&#10; &#160;&#160;&#160;__pydantic_generic_metadata__: Metadata for generic models; contains data used for a similar purpose to&#10; &#160;&#160;&#160;&#160;&#160;&#160;&#160;__args__, __origin__, __parameters__ in typing&#45;module generics. May eventually be replaced by these.&#10; &#160;&#160;&#160;__pydantic_parent_namespace__: Parent namespace of the model, used for automatic rebuilding of models.&#10; &#160;&#160;&#160;__pydantic_post_init__: The name of the post&#45;init method for the model, if defined.&#10; &#160;&#160;&#160;__pydantic_root_model__: Whether the model is a [`RootModel`][pydantic.root_model.RootModel].&#10; &#160;&#160;&#160;__pydantic_serializer__: The `pydantic&#45;core` `SchemaSerializer` used to dump instances of the model.&#10; &#160;&#160;&#160;__pydantic_validator__: The `pydantic&#45;core` `SchemaValidator` used to validate instances of the model.&#10;&#10; &#160;&#160;&#160;__pydantic_fields__: A dictionary of field names and their corresponding [`FieldInfo`][pydantic.fields.FieldInfo] objects.&#10; &#160;&#160;&#160;__pydantic_computed_fields__: A dictionary of computed field names and their corresponding [`ComputedFieldInfo`][pydantic.fields.ComputedFieldInfo] objects.&#10;&#10; &#160;&#160;&#160;__pydantic_extra__: A dictionary containing extra values, if [`extra`][pydantic.config.ConfigDict.extra]&#10; &#160;&#160;&#160;&#160;&#160;&#160;&#160;is set to `&#39;allow&#39;`.&#10; &#160;&#160;&#160;__pydantic_fields_set__: The names of fields explicitly set during instantiation.&#10; &#160;&#160;&#160;__pydantic_private__: Values of private attributes set on the model instance.&#10;">
<polygon fill="none" stroke="black" points="545.5,-101.5 545.5,-122.5 786.5,-122.5 786.5,-101.5 545.5,-101.5"/>
<text text-anchor="start" x="548.5" y="-109.3" font-family="Times New Roman,Times,Liberation Serif,serif" font-weight="bold" font-size="14.00">WarmupTrialGenerationEndConditions</text>
<polygon fill="none" stroke="black" points="545.5,-80.5 545.5,-101.5 706.5,-101.5 706.5,-80.5 545.5,-80.5"/>
<text text-anchor="start" x="600.5" y="-87.3" font-family="Times New Roman,Times,Liberation Serif,serif" font-size="14.00">min_trial</text>
<polygon fill="none" stroke="black" points="706.5,-80.5 706.5,-101.5 786.5,-101.5 786.5,-80.5 706.5,-80.5"/>
<text text-anchor="start" x="739" y="-87.3" font-family="Times New Roman,Times,Liberation Serif,serif" font-size="14.00">int</text>
<polygon fill="none" stroke="black" points="545.5,-59.5 545.5,-80.5 706.5,-80.5 706.5,-59.5 545.5,-59.5"/>
<text text-anchor="start" x="578.5" y="-66.3" font-family="Times New Roman,Times,Liberation Serif,serif" font-size="14.00">max_choice_bias</text>
<polygon fill="none" stroke="black" points="706.5,-59.5 706.5,-80.5 786.5,-80.5 786.5,-59.5 706.5,-59.5"/>
<text text-anchor="start" x="734" y="-66.3" font-family="Times New Roman,Times,Liberation Serif,serif" font-size="14.00">float</text>
<polygon fill="none" stroke="black" points="545.5,-38.5 545.5,-59.5 706.5,-59.5 706.5,-38.5 545.5,-38.5"/>
<text text-anchor="start" x="574.5" y="-45.3" font-family="Times New Roman,Times,Liberation Serif,serif" font-size="14.00">min_response_rate</text>
<polygon fill="none" stroke="black" points="706.5,-38.5 706.5,-59.5 786.5,-59.5 786.5,-38.5 706.5,-38.5"/>
<text text-anchor="start" x="734" y="-45.3" font-family="Times New Roman,Times,Liberation Serif,serif" font-size="14.00">float</text>
<polygon fill="none" stroke="black" points="545.5,-17.5 545.5,-38.5 706.5,-38.5 706.5,-17.5 545.5,-17.5"/>
<text text-anchor="start" x="572.5" y="-24.3" font-family="Times New Roman,Times,Liberation Serif,serif" font-size="14.00">evaluation_window</text>
<polygon fill="none" stroke="black" points="706.5,-17.5 706.5,-38.5 786.5,-38.5 786.5,-17.5 706.5,-17.5"/>
<text text-anchor="start" x="739" y="-24.3" font-family="Times New Roman,Times,Liberation Serif,serif" font-size="14.00">int</text>
</a>
</g>
</g>
<!-- aind_behavior_dynamic_foraging.task_logic.trial_generators.warmup_trial_generator.WarmupTrialGeneratorSpec -->
<g id="node8" class="node">
<title>aind_behavior_dynamic_foraging.task_logic.trial_generators.warmup_trial_generator.WarmupTrialGeneratorSpec</title>
<g id="a_node8"><a xlink:title="aind_behavior_dynamic_foraging.task_logic.trial_generators.warmup_trial_generator.WarmupTrialGeneratorSpec&#10;&#10;Base model for trial generator specifications.&#10;">
<polygon fill="none" stroke="black" points="0,-333.5 0,-354.5 406,-354.5 406,-333.5 0,-333.5"/>
<text text-anchor="start" x="118" y="-341.3" font-family="Times New Roman,Times,Liberation Serif,serif" font-weight="bold" font-size="14.00">WarmupTrialGeneratorSpec</text>
<polygon fill="none" stroke="black" points="0,-312.5 0,-333.5 185,-333.5 185,-312.5 0,-312.5"/>
<text text-anchor="start" x="80.5" y="-319.3" font-family="Times New Roman,Times,Liberation Serif,serif" font-size="14.00">type</text>
<polygon fill="none" stroke="black" points="185,-312.5 185,-333.5 406,-333.5 406,-312.5 185,-312.5"/>
<text text-anchor="start" x="206.5" y="-319.3" font-family="Times New Roman,Times,Liberation Serif,serif" font-size="14.00">Literal[&#39;WarmupTrialGenerator&#39;]</text>
<polygon fill="none" stroke="black" points="0,-291.5 0,-312.5 185,-312.5 185,-291.5 0,-291.5"/>
<text text-anchor="start" x="41" y="-298.3" font-family="Times New Roman,Times,Liberation Serif,serif" font-size="14.00">quiescent_duration</text>
<polygon fill="none" stroke="black" points="185,-291.5 185,-312.5 406,-312.5 406,-291.5 185,-291.5"/>
<text text-anchor="start" x="262.5" y="-298.3" font-family="Times New Roman,Times,Liberation Serif,serif" font-size="14.00">Distribution</text>
<polygon fill="none" stroke="black" points="0,-270.5 0,-291.5 185,-291.5 185,-270.5 0,-270.5"/>
<text text-anchor="start" x="42.5" y="-277.3" font-family="Times New Roman,Times,Liberation Serif,serif" font-size="14.00">response_duration</text>
<polygon fill="none" stroke="black" points="185,-270.5 185,-291.5 406,-291.5 406,-270.5 185,-270.5"/>
<text text-anchor="start" x="283" y="-277.3" font-family="Times New Roman,Times,Liberation Serif,serif" font-size="14.00">float</text>
<polygon fill="none" stroke="black" points="0,-249.5 0,-270.5 185,-270.5 185,-249.5 0,-249.5"/>
<text text-anchor="start" x="9" y="-256.3" font-family="Times New Roman,Times,Liberation Serif,serif" font-size="14.00">reward_consumption_duration</text>
<polygon fill="none" stroke="black" points="185,-249.5 185,-270.5 406,-270.5 406,-249.5 185,-249.5"/>
<text text-anchor="start" x="283" y="-256.3" font-family="Times New Roman,Times,Liberation Serif,serif" font-size="14.00">float</text>
<polygon fill="none" stroke="black" points="0,-228.5 0,-249.5 185,-249.5 185,-228.5 0,-228.5"/>
<text text-anchor="start" x="15.5" y="-235.3" font-family="Times New Roman,Times,Liberation Serif,serif" font-size="14.00">inter_trial_interval_duration</text>
<polygon fill="none" stroke="black" points="185,-228.5 185,-249.5 406,-249.5 406,-228.5 185,-228.5"/>
<text text-anchor="start" x="262.5" y="-235.3" font-family="Times New Roman,Times,Liberation Serif,serif" font-size="14.00">Distribution</text>
<polygon fill="none" stroke="black" points="0,-207.5 0,-228.5 185,-228.5 185,-207.5 0,-207.5"/>
<text text-anchor="start" x="65.5" y="-214.3" font-family="Times New Roman,Times,Liberation Serif,serif" font-size="14.00">block_len</text>
<polygon fill="none" stroke="black" points="185,-207.5 185,-228.5 406,-228.5 406,-207.5 185,-207.5"/>
<text text-anchor="start" x="262.5" y="-214.3" font-family="Times New Roman,Times,Liberation Serif,serif" font-size="14.00">Distribution</text>
<polygon fill="none" stroke="black" points="0,-186.5 0,-207.5 185,-207.5 185,-186.5 0,-186.5"/>
<text text-anchor="start" x="41" y="-193.3" font-family="Times New Roman,Times,Liberation Serif,serif" font-size="14.00">min_block_reward</text>
<polygon fill="none" stroke="black" points="185,-186.5 185,-207.5 406,-207.5 406,-186.5 185,-186.5"/>
<text text-anchor="start" x="269.5" y="-193.3" font-family="Times New Roman,Times,Liberation Serif,serif" font-size="14.00">Literal[1]</text>
<polygon fill="none" stroke="black" points="0,-165.5 0,-186.5 185,-186.5 185,-165.5 0,-165.5"/>
<text text-anchor="start" x="61.5" y="-172.3" font-family="Times New Roman,Times,Liberation Serif,serif" font-size="14.00">kernel_size</text>
<polygon fill="none" stroke="black" points="185,-165.5 185,-186.5 406,-186.5 406,-165.5 185,-165.5"/>
<text text-anchor="start" x="288" y="-172.3" font-family="Times New Roman,Times,Liberation Serif,serif" font-size="14.00">int</text>
<polygon fill="none" stroke="black" points="0,-144.5 0,-165.5 185,-165.5 185,-144.5 0,-144.5"/>
<text text-anchor="start" x="7" y="-151.3" font-family="Times New Roman,Times,Liberation Serif,serif" font-size="14.00">reward_probability_parameters</text>
<polygon fill="none" stroke="black" points="185,-144.5 185,-165.5 406,-165.5 406,-144.5 185,-144.5"/>
<text text-anchor="start" x="214" y="-151.3" font-family="Times New Roman,Times,Liberation Serif,serif" font-size="14.00">RewardProbabilityParameters</text>
<polygon fill="none" stroke="black" points="0,-123.5 0,-144.5 185,-144.5 185,-123.5 0,-123.5"/>
<text text-anchor="start" x="65.5" y="-130.3" font-family="Times New Roman,Times,Liberation Serif,serif" font-size="14.00">is_baiting</text>
<polygon fill="none" stroke="black" points="185,-123.5 185,-144.5 406,-144.5 406,-123.5 185,-123.5"/>
<text text-anchor="start" x="260" y="-130.3" font-family="Times New Roman,Times,Liberation Serif,serif" font-size="14.00">Literal[True]</text>
<polygon fill="none" stroke="black" points="0,-102.5 0,-123.5 185,-123.5 185,-102.5 0,-102.5"/>
<text text-anchor="start" x="3" y="-109.3" font-family="Times New Roman,Times,Liberation Serif,serif" font-size="14.00">trial_generation_end_parameters</text>
<polygon fill="none" stroke="black" points="185,-102.5 185,-123.5 406,-123.5 406,-102.5 185,-102.5"/>
<text text-anchor="start" x="188" y="-109.3" font-family="Times New Roman,Times,Liberation Serif,serif" font-size="14.00">WarmupTrialGenerationEndConditions</text>
</a>
</g>
</g>
<!-- aind_behavior_dynamic_foraging.task_logic.trial_generators.warmup_trial_generator.WarmupTrialGeneratorSpec&#45;&gt;aind_behavior_dynamic_foraging.task_logic.trial_generators.block_based_trial_generator.RewardProbabilityParameters -->
<g id="edge4" class="edge">
<title>aind_behavior_dynamic_foraging.task_logic.trial_generators.warmup_trial_generator.WarmupTrialGeneratorSpec:e&#45;&gt;aind_behavior_dynamic_foraging.task_logic.trial_generators.block_based_trial_generator.RewardProbabilityParameters:w</title>
<path fill="none" stroke="black" d="M416.19,-155.06C525.84,-167.64 435.8,-388.27 539.35,-407.21"/>
<polyline fill="none" stroke="black" points="406,-154.5 410.99,-154.77 "/>
<polyline fill="none" stroke="black" points="410.99,-154.77 415.98,-155.05 "/>
<polyline fill="none" stroke="black" points="554.5,-408.5 549.52,-408.07 "/>
<polygon fill="black" stroke="black" points="548.95,-403.01 548.1,-412.97 546.1,-412.8 546.95,-402.84 548.95,-403.01"/>
<polyline fill="none" stroke="black" points="549.52,-408.07 544.54,-407.65 "/>
<polygon fill="black" stroke="black" points="543.97,-402.58 543.11,-412.55 541.12,-412.38 541.97,-402.41 543.97,-402.58"/>
<polyline fill="none" stroke="black" points="544.54,-407.65 539.55,-407.22 "/>
</g>
<!-- aind_behavior_dynamic_foraging.task_logic.trial_generators.warmup_trial_generator.WarmupTrialGeneratorSpec&#45;&gt;aind_behavior_dynamic_foraging.task_logic.trial_generators.warmup_trial_generator.WarmupTrialGenerationEndConditions -->
<g id="edge5" class="edge">
<title>aind_behavior_dynamic_foraging.task_logic.trial_generators.warmup_trial_generator.WarmupTrialGeneratorSpec:e&#45;&gt;aind_behavior_dynamic_foraging.task_logic.trial_generators.warmup_trial_generator.WarmupTrialGenerationEndConditions:w</title>
<path fill="none" stroke="black" d="M416.03,-112.5C464.54,-112.5 483.01,-112.5 529.49,-112.5"/>
<polyline fill="none" stroke="black" points="406,-112.5 411,-112.5 "/>
<polyline fill="none" stroke="black" points="411,-112.5 416,-112.5 "/>
<polyline fill="none" stroke="black" points="544.5,-112.5 539.5,-112.5 "/>
<polygon fill="black" stroke="black" points="538.5,-107.5 538.5,-117.5 536.5,-117.5 536.5,-107.5 538.5,-107.5"/>
<polyline fill="none" stroke="black" points="539.5,-112.5 534.5,-112.5 "/>
<polygon fill="black" stroke="black" points="533.5,-107.5 533.5,-117.5 531.5,-117.5 531.5,-107.5 533.5,-107.5"/>
<polyline fill="none" stroke="black" points="534.5,-112.5 529.5,-112.5 "/>
</g>
</g>
</svg>
