<?xml version="1.0" encoding="UTF-8" standalone="no"?>
<!DOCTYPE svg PUBLIC "-//W3C//DTD SVG 1.1//EN"
 "http://www.w3.org/Graphics/SVG/1.1/DTD/svg11.dtd">
<!-- Generated by graphviz version 2.43.0 (0)
 -->
<!-- Title: Entity Relationship Diagram created by erdantic Pages: 1 -->
<svg width="825pt" height="1006pt"
 viewBox="0.00 0.00 825.00 1006.00" xmlns="http://www.w3.org/2000/svg" xmlns:xlink="http://www.w3.org/1999/xlink">
<g id="graph0" class="graph" transform="scale(1 1) rotate(0) translate(4 1002)">
<title>Entity Relationship Diagram created by erdantic</title>
<polygon fill="white" stroke="transparent" points="-4,4 -4,-1002 821,-1002 821,4 -4,4"/>
<text text-anchor="middle" x="408.5" y="-6.8" font-family="Times New Roman,Times,Liberation Serif,serif" font-size="9.00" fill="#a8a8a8">Created by erdantic v1.2.1 &lt;https://github.com/drivendataorg/erdantic&gt;</text>
<!-- aind_behavior_dynamic_foraging.task_logic.trial_generators.block_based_trial_generator.AutoWaterParameters -->
<g id="node1" class="node">
<title>aind_behavior_dynamic_foraging.task_logic.trial_generators.block_based_trial_generator.AutoWaterParameters</title>
<g id="a_node1"><a xlink:title="aind_behavior_dynamic_foraging.task_logic.trial_generators.block_based_trial_generator.AutoWaterParameters&#10;&#10;!!! abstract &quot;Usage Documentation&quot;&#10; &#160;&#160;&#160;[Models](../concepts/models.md)&#10;&#10;A base class for creating Pydantic models.&#10;&#10;Attributes:&#10; &#160;&#160;&#160;__class_vars__: The names of the class variables defined on the model.&#10; &#160;&#160;&#160;__private_attributes__: Metadata about the private attributes of the model.&#10; &#160;&#160;&#160;__signature__: The synthesized `__init__` [`Signature`][inspect.Signature] of the model.&#10;&#10; &#160;&#160;&#160;__pydantic_complete__: Whether model building is completed, or if there are still undefined fields.&#10; &#160;&#160;&#160;__pydantic_core_schema__: The core schema of the model.&#10; &#160;&#160;&#160;__pydantic_custom_init__: Whether the model has a custom `__init__` function.&#10; &#160;&#160;&#160;__pydantic_decorators__: Metadata containing the decorators defined on the model.&#10; &#160;&#160;&#160;&#160;&#160;&#160;&#160;This replaces `Model.__validators__` and `Model.__root_validators__` from Pydantic V1.&#10; &#160;&#160;&#160;__pydantic_generic_metadata__: Metadata for generic models; contains data used for a similar purpose to&#10; &#160;&#160;&#160;&#160;&#160;&#160;&#160;__args__, __origin__, __parameters__ in typing&#45;module generics. May eventually be replaced by these.&#10; &#160;&#160;&#160;__pydantic_parent_namespace__: Parent namespace of the model, used for automatic rebuilding of models.&#10; &#160;&#160;&#160;__pydantic_post_init__: The name of the post&#45;init method for the model, if defined.&#10; &#160;&#160;&#160;__pydantic_root_model__: Whether the model is a [`RootModel`][pydantic.root_model.RootModel].&#10; &#160;&#160;&#160;__pydantic_serializer__: The `pydantic&#45;core` `SchemaSerializer` used to dump instances of the model.&#10; &#160;&#160;&#160;__pydantic_validator__: The `pydantic&#45;core` `SchemaValidator` used to validate instances of the model.&#10;&#10; &#160;&#160;&#160;__pydantic_fields__: A dictionary of field names and their corresponding [`FieldInfo`][pydantic.fields.FieldInfo] objects.&#10; &#160;&#160;&#160;__pydantic_computed_fields__: A dictionary of computed field names and their corresponding [`ComputedFieldInfo`][pydantic.fields.ComputedFieldInfo] objects.&#10;&#10; &#160;&#160;&#160;__pydantic_extra__: A dictionary containing extra values, if [`extra`][pydantic.config.ConfigDict.extra]&#10; &#160;&#160;&#160;&#160;&#160;&#160;&#160;is set to `&#39;allow&#39;`.&#10; &#160;&#160;&#160;__pydantic_fields_set__: The names of fields explicitly set during instantiation.&#10; &#160;&#160;&#160;__pydantic_private__: Values of private attributes set on the model instance.&#10;">
<polygon fill="none" stroke="black" points="583.5,-510 583.5,-531 747.5,-531 747.5,-510 583.5,-510"/>
<text text-anchor="start" x="599" y="-517.8" font-family="Times New Roman,Times,Liberation Serif,serif" font-weight="bold" font-size="14.00">AutoWaterParameters</text>
<polygon fill="none" stroke="black" points="583.5,-489 583.5,-510 716.5,-510 716.5,-489 583.5,-489"/>
<text text-anchor="start" x="598" y="-495.8" font-family="Times New Roman,Times,Liberation Serif,serif" font-size="14.00">min_ignored_trials</text>
<polygon fill="none" stroke="black" points="716.5,-489 716.5,-510 747.5,-510 747.5,-489 716.5,-489"/>
<text text-anchor="start" x="724.5" y="-495.8" font-family="Times New Roman,Times,Liberation Serif,serif" font-size="14.00">int</text>
<polygon fill="none" stroke="black" points="583.5,-468 583.5,-489 716.5,-489 716.5,-468 583.5,-468"/>
<text text-anchor="start" x="586.5" y="-474.8" font-family="Times New Roman,Times,Liberation Serif,serif" font-size="14.00">min_unrewarded_trials</text>
<polygon fill="none" stroke="black" points="716.5,-468 716.5,-489 747.5,-489 747.5,-468 716.5,-468"/>
<text text-anchor="start" x="724.5" y="-474.8" font-family="Times New Roman,Times,Liberation Serif,serif" font-size="14.00">int</text>
<polygon fill="none" stroke="black" points="583.5,-447 583.5,-468 716.5,-468 716.5,-447 583.5,-447"/>
<text text-anchor="start" x="606.5" y="-453.8" font-family="Times New Roman,Times,Liberation Serif,serif" font-size="14.00">reward_fraction</text>
<polygon fill="none" stroke="black" points="716.5,-447 716.5,-468 747.5,-468 747.5,-447 716.5,-447"/>
<text text-anchor="start" x="719.5" y="-453.8" font-family="Times New Roman,Times,Liberation Serif,serif" font-size="14.00">float</text>
</a>
</g>
</g>
<!-- aind_behavior_dynamic_foraging.task_logic.trial_generators.block_based_trial_generator.RewardProbabilityParameters -->
<g id="node2" class="node">
<title>aind_behavior_dynamic_foraging.task_logic.trial_generators.block_based_trial_generator.RewardProbabilityParameters</title>
<g id="a_node2"><a xlink:title="aind_behavior_dynamic_foraging.task_logic.trial_generators.block_based_trial_generator.RewardProbabilityParameters&#10;&#10;Defines the reward probability structure for a dynamic foraging task.&#10;&#10;Reward probabilities are defined as pairs (p_left, p_right) normalized by&#10;base_reward_sum. Pairs are drawn from a family representing a difficulty level:&#10;&#10; &#160;&#160;&#160;Family 1: &#160;&#160;[[8, 1], [6, 1], [3, 1], [1, 1]]&#10; &#160;&#160;&#160;Family 2: &#160;[[8, 1], [1, 1]]&#10; &#160;&#160;&#160;Family 3: &#160;[[1.0, 0.0], [0.9, 0.1], [0.8, 0.2], [0.7, 0.3], [0.6, 0.4], [0.5, 0.5]]&#10; &#160;&#160;&#160;Family 4: &#160;[[6, 1], [3, 1], [1, 1]]&#10;">
<polygon fill="none" stroke="black" points="555.5,-609 555.5,-630 775.5,-630 775.5,-609 555.5,-609"/>
<text text-anchor="start" x="576" y="-616.8" font-family="Times New Roman,Times,Liberation Serif,serif" font-weight="bold" font-size="14.00">RewardProbabilityParameters</text>
<polygon fill="none" stroke="black" points="555.5,-588 555.5,-609 660.5,-609 660.5,-588 555.5,-588"/>
<text text-anchor="start" x="558.5" y="-594.8" font-family="Times New Roman,Times,Liberation Serif,serif" font-size="14.00">base_reward_sum</text>
<polygon fill="none" stroke="black" points="660.5,-588 660.5,-609 775.5,-609 775.5,-588 660.5,-588"/>
<text text-anchor="start" x="705.5" y="-594.8" font-family="Times New Roman,Times,Liberation Serif,serif" font-size="14.00">float</text>
<polygon fill="none" stroke="black" points="555.5,-567 555.5,-588 660.5,-588 660.5,-567 555.5,-567"/>
<text text-anchor="start" x="572.5" y="-573.8" font-family="Times New Roman,Times,Liberation Serif,serif" font-size="14.00">reward_pairs</text>
<polygon fill="none" stroke="black" points="660.5,-567 660.5,-588 775.5,-588 775.5,-567 660.5,-567"/>
<text text-anchor="start" x="663.5" y="-573.8" font-family="Times New Roman,Times,Liberation Serif,serif" font-size="14.00">list[list[float, float]]</text>
</a>
</g>
</g>
<!-- aind_behavior_dynamic_foraging.task_logic.trial_generators.composite_trial_generator.TrialGeneratorCompositeSpec[TrialGeneratorSpec] -->
<g id="node3" class="node">
<title>aind_behavior_dynamic_foraging.task_logic.trial_generators.composite_trial_generator.TrialGeneratorCompositeSpec[TrialGeneratorSpec]</title>
<g id="a_node3"><a xlink:title="aind_behavior_dynamic_foraging.task_logic.trial_generators.composite_trial_generator.TrialGeneratorCompositeSpec[TrialGeneratorSpec]&#10;&#10;Specification for a composite trial generator that concatenates multiple generators.&#10;">
<polygon fill="none" stroke="black" points="48,-898 48,-919 358,-919 358,-898 48,-898"/>
<text text-anchor="start" x="51" y="-905.8" font-family="Times New Roman,Times,Liberation Serif,serif" font-weight="bold" font-size="14.00">TrialGeneratorCompositeSpec[TrialGeneratorSpec]</text>
<polygon fill="none" stroke="black" points="48,-877 48,-898 136,-898 136,-877 48,-877"/>
<text text-anchor="start" x="80" y="-883.8" font-family="Times New Roman,Times,Liberation Serif,serif" font-size="14.00">type</text>
<polygon fill="none" stroke="black" points="136,-877 136,-898 358,-898 358,-877 136,-877"/>
<text text-anchor="start" x="152" y="-883.8" font-family="Times New Roman,Times,Liberation Serif,serif" font-size="14.00">Literal[&#39;TrialGeneratorComposite&#39;]</text>
<polygon fill="none" stroke="black" points="48,-856 48,-877 136,-877 136,-856 48,-856"/>
<text text-anchor="start" x="63.5" y="-862.8" font-family="Times New Roman,Times,Liberation Serif,serif" font-size="14.00">generators</text>
<polygon fill="none" stroke="black" points="136,-856 136,-877 358,-877 358,-856 136,-856"/>
<text text-anchor="start" x="180.5" y="-862.8" font-family="Times New Roman,Times,Liberation Serif,serif" font-size="14.00">list[TrialGeneratorSpec]</text>
</a>
</g>
</g>
<!-- aind_behavior_dynamic_foraging.task_logic.trial_generators.coupled_trial_generator.BehaviorStabilityParameters -->
<g id="node4" class="node">
<title>aind_behavior_dynamic_foraging.task_logic.trial_generators.coupled_trial_generator.BehaviorStabilityParameters</title>
<g id="a_node4"><a xlink:title="aind_behavior_dynamic_foraging.task_logic.trial_generators.coupled_trial_generator.BehaviorStabilityParameters&#10;&#10;Parameters controlling when behavior is considered stable enough to switch blocks.&#10;">
<polygon fill="none" stroke="black" points="514.5,-81 514.5,-102 817.5,-102 817.5,-81 514.5,-81"/>
<text text-anchor="start" x="581.5" y="-88.8" font-family="Times New Roman,Times,Liberation Serif,serif" font-weight="bold" font-size="14.00">BehaviorStabilityParameters</text>
<polygon fill="none" stroke="black" points="514.5,-60 514.5,-81 685.5,-81 685.5,-60 514.5,-60"/>
<text text-anchor="start" x="526" y="-66.8" font-family="Times New Roman,Times,Liberation Serif,serif" font-size="14.00">behavior_evaluation_mode</text>
<polygon fill="none" stroke="black" points="685.5,-60 685.5,-81 817.5,-81 817.5,-60 685.5,-60"/>
<text text-anchor="start" x="688.5" y="-66.8" font-family="Times New Roman,Times,Liberation Serif,serif" font-size="14.00">Literal[&#39;end&#39;, &#39;anytime&#39;]</text>
<polygon fill="none" stroke="black" points="514.5,-39 514.5,-60 685.5,-60 685.5,-39 514.5,-39"/>
<text text-anchor="start" x="526.5" y="-45.8" font-family="Times New Roman,Times,Liberation Serif,serif" font-size="14.00">behavior_stability_fraction</text>
<polygon fill="none" stroke="black" points="685.5,-39 685.5,-60 817.5,-60 817.5,-39 685.5,-39"/>
<text text-anchor="start" x="739" y="-45.8" font-family="Times New Roman,Times,Liberation Serif,serif" font-size="14.00">float</text>
<polygon fill="none" stroke="black" points="514.5,-18 514.5,-39 685.5,-39 685.5,-18 514.5,-18"/>
<text text-anchor="start" x="517.5" y="-24.8" font-family="Times New Roman,Times,Liberation Serif,serif" font-size="14.00">min_consecutive_stable_trials</text>
<polygon fill="none" stroke="black" points="685.5,-18 685.5,-39 817.5,-39 817.5,-18 685.5,-18"/>
<text text-anchor="start" x="744" y="-24.8" font-family="Times New Roman,Times,Liberation Serif,serif" font-size="14.00">int</text>
</a>
</g>
</g>
<!-- aind_behavior_dynamic_foraging.task_logic.trial_generators.coupled_trial_generator.CoupledTrialGenerationEndConditions -->
<g id="node5" class="node">
<title>aind_behavior_dynamic_foraging.task_logic.trial_generators.coupled_trial_generator.CoupledTrialGenerationEndConditions</title>
<g id="a_node5"><a xlink:title="aind_behavior_dynamic_foraging.task_logic.trial_generators.coupled_trial_generator.CoupledTrialGenerationEndConditions&#10;&#10;Defines the conditions under which a foraging session should terminate.&#10;">
<polygon fill="none" stroke="black" points="547.5,-243 547.5,-264 784.5,-264 784.5,-243 547.5,-243"/>
<text text-anchor="start" x="550.5" y="-250.8" font-family="Times New Roman,Times,Liberation Serif,serif" font-weight="bold" font-size="14.00">CoupledTrialGenerationEndConditions</text>
<polygon fill="none" stroke="black" points="547.5,-222 547.5,-243 715.5,-243 715.5,-222 547.5,-222"/>
<text text-anchor="start" x="600.5" y="-228.8" font-family="Times New Roman,Times,Liberation Serif,serif" font-size="14.00">ignore_win</text>
<polygon fill="none" stroke="black" points="715.5,-222 715.5,-243 784.5,-243 784.5,-222 715.5,-222"/>
<text text-anchor="start" x="742.5" y="-228.8" font-family="Times New Roman,Times,Liberation Serif,serif" font-size="14.00">int</text>
<polygon fill="none" stroke="black" points="547.5,-201 547.5,-222 715.5,-222 715.5,-201 547.5,-201"/>
<text text-anchor="start" x="569.5" y="-207.8" font-family="Times New Roman,Times,Liberation Serif,serif" font-size="14.00">ignore_ratio_threshold</text>
<polygon fill="none" stroke="black" points="715.5,-201 715.5,-222 784.5,-222 784.5,-201 715.5,-201"/>
<text text-anchor="start" x="737.5" y="-207.8" font-family="Times New Roman,Times,Liberation Serif,serif" font-size="14.00">float</text>
<polygon fill="none" stroke="black" points="547.5,-180 547.5,-201 715.5,-201 715.5,-180 547.5,-180"/>
<text text-anchor="start" x="605" y="-186.8" font-family="Times New Roman,Times,Liberation Serif,serif" font-size="14.00">max_trial</text>
<polygon fill="none" stroke="black" points="715.5,-180 715.5,-201 784.5,-201 784.5,-180 715.5,-180"/>
<text text-anchor="start" x="742.5" y="-186.8" font-family="Times New Roman,Times,Liberation Serif,serif" font-size="14.00">int</text>
<polygon fill="none" stroke="black" points="547.5,-159 547.5,-180 715.5,-180 715.5,-159 547.5,-159"/>
<text text-anchor="start" x="603.5" y="-165.8" font-family="Times New Roman,Times,Liberation Serif,serif" font-size="14.00">max_time</text>
<polygon fill="none" stroke="black" points="715.5,-159 715.5,-180 784.5,-180 784.5,-159 715.5,-159"/>
<text text-anchor="start" x="737.5" y="-165.8" font-family="Times New Roman,Times,Liberation Serif,serif" font-size="14.00">float</text>
<polygon fill="none" stroke="black" points="547.5,-138 547.5,-159 715.5,-159 715.5,-138 547.5,-138"/>
<text text-anchor="start" x="604.5" y="-144.8" font-family="Times New Roman,Times,Liberation Serif,serif" font-size="14.00">min_time</text>
<polygon fill="none" stroke="black" points="715.5,-138 715.5,-159 784.5,-159 784.5,-138 715.5,-138"/>
<text text-anchor="start" x="737.5" y="-144.8" font-family="Times New Roman,Times,Liberation Serif,serif" font-size="14.00">float</text>
</a>
</g>
</g>
<!-- aind_behavior_dynamic_foraging.task_logic.trial_generators.coupled_trial_generator.CoupledTrialGeneratorSpec -->
<g id="node6" class="node">
<title>aind_behavior_dynamic_foraging.task_logic.trial_generators.coupled_trial_generator.CoupledTrialGeneratorSpec</title>
<g id="a_node6"><a xlink:title="aind_behavior_dynamic_foraging.task_logic.trial_generators.coupled_trial_generator.CoupledTrialGeneratorSpec&#10;&#10;Base model for trial generator specifications.&#10;">
<polygon fill="none" stroke="black" points="1,-490 1,-511 406,-511 406,-490 1,-490"/>
<text text-anchor="start" x="120.5" y="-497.8" font-family="Times New Roman,Times,Liberation Serif,serif" font-weight="bold" font-size="14.00">CoupledTrialGeneratorSpec</text>
<polygon fill="none" stroke="black" points="1,-469 1,-490 186,-490 186,-469 1,-469"/>
<text text-anchor="start" x="81.5" y="-475.8" font-family="Times New Roman,Times,Liberation Serif,serif" font-size="14.00">type</text>
<polygon fill="none" stroke="black" points="186,-469 186,-490 406,-490 406,-469 186,-469"/>
<text text-anchor="start" x="208" y="-475.8" font-family="Times New Roman,Times,Liberation Serif,serif" font-size="14.00">Literal[&#39;CoupledTrialGenerator&#39;]</text>
<polygon fill="none" stroke="black" points="1,-448 1,-469 186,-469 186,-448 1,-448"/>
<text text-anchor="start" x="42" y="-454.8" font-family="Times New Roman,Times,Liberation Serif,serif" font-size="14.00">quiescent_duration</text>
<polygon fill="none" stroke="black" points="186,-448 186,-469 406,-469 406,-448 186,-448"/>
<text text-anchor="start" x="263" y="-454.8" font-family="Times New Roman,Times,Liberation Serif,serif" font-size="14.00">Distribution</text>
<polygon fill="none" stroke="black" points="1,-427 1,-448 186,-448 186,-427 1,-427"/>
<text text-anchor="start" x="43.5" y="-433.8" font-family="Times New Roman,Times,Liberation Serif,serif" font-size="14.00">response_duration</text>
<polygon fill="none" stroke="black" points="186,-427 186,-448 406,-448 406,-427 186,-427"/>
<text text-anchor="start" x="283.5" y="-433.8" font-family="Times New Roman,Times,Liberation Serif,serif" font-size="14.00">float</text>
<polygon fill="none" stroke="black" points="1,-406 1,-427 186,-427 186,-406 1,-406"/>
<text text-anchor="start" x="10" y="-412.8" font-family="Times New Roman,Times,Liberation Serif,serif" font-size="14.00">reward_consumption_duration</text>
<polygon fill="none" stroke="black" points="186,-406 186,-427 406,-427 406,-406 186,-406"/>
<text text-anchor="start" x="283.5" y="-412.8" font-family="Times New Roman,Times,Liberation Serif,serif" font-size="14.00">float</text>
<polygon fill="none" stroke="black" points="1,-385 1,-406 186,-406 186,-385 1,-385"/>
<text text-anchor="start" x="16.5" y="-391.8" font-family="Times New Roman,Times,Liberation Serif,serif" font-size="14.00">inter_trial_interval_duration</text>
<polygon fill="none" stroke="black" points="186,-385 186,-406 406,-406 406,-385 186,-385"/>
<text text-anchor="start" x="263" y="-391.8" font-family="Times New Roman,Times,Liberation Serif,serif" font-size="14.00">Distribution</text>
<polygon fill="none" stroke="black" points="1,-364 1,-385 186,-385 186,-364 1,-364"/>
<text text-anchor="start" x="66.5" y="-370.8" font-family="Times New Roman,Times,Liberation Serif,serif" font-size="14.00">block_len</text>
<polygon fill="none" stroke="black" points="186,-364 186,-385 406,-385 406,-364 186,-364"/>
<text text-anchor="start" x="263" y="-370.8" font-family="Times New Roman,Times,Liberation Serif,serif" font-size="14.00">Distribution</text>
<polygon fill="none" stroke="black" points="1,-343 1,-364 186,-364 186,-343 1,-343"/>
<text text-anchor="start" x="42" y="-349.8" font-family="Times New Roman,Times,Liberation Serif,serif" font-size="14.00">min_block_reward</text>
<polygon fill="none" stroke="black" points="186,-343 186,-364 406,-364 406,-343 186,-343"/>
<text text-anchor="start" x="288.5" y="-349.8" font-family="Times New Roman,Times,Liberation Serif,serif" font-size="14.00">int</text>
<polygon fill="none" stroke="black" points="1,-322 1,-343 186,-343 186,-322 1,-322"/>
<text text-anchor="start" x="62.5" y="-328.8" font-family="Times New Roman,Times,Liberation Serif,serif" font-size="14.00">kernel_size</text>
<polygon fill="none" stroke="black" points="186,-322 186,-343 406,-343 406,-322 186,-322"/>
<text text-anchor="start" x="288.5" y="-328.8" font-family="Times New Roman,Times,Liberation Serif,serif" font-size="14.00">int</text>
<polygon fill="none" stroke="black" points="1,-301 1,-322 186,-322 186,-301 1,-301"/>
<text text-anchor="start" x="8" y="-307.8" font-family="Times New Roman,Times,Liberation Serif,serif" font-size="14.00">reward_probability_parameters</text>
<polygon fill="none" stroke="black" points="186,-301 186,-322 406,-322 406,-301 186,-301"/>
<text text-anchor="start" x="214.5" y="-307.8" font-family="Times New Roman,Times,Liberation Serif,serif" font-size="14.00">RewardProbabilityParameters</text>
<polygon fill="none" stroke="black" points="1,-280 1,-301 186,-301 186,-280 1,-280"/>
<text text-anchor="start" x="33" y="-286.8" font-family="Times New Roman,Times,Liberation Serif,serif" font-size="14.00">autowater_parameters</text>
<polygon fill="none" stroke="black" points="186,-280 186,-301 406,-301 406,-280 186,-280"/>
<text text-anchor="start" x="207.5" y="-286.8" font-family="Times New Roman,Times,Liberation Serif,serif" font-size="14.00">Optional[AutoWaterParameters]</text>
<polygon fill="none" stroke="black" points="1,-259 1,-280 186,-280 186,-259 1,-259"/>
<text text-anchor="start" x="66.5" y="-265.8" font-family="Times New Roman,Times,Liberation Serif,serif" font-size="14.00">is_baiting</text>
<polygon fill="none" stroke="black" points="186,-259 186,-280 406,-280 406,-259 186,-259"/>
<text text-anchor="start" x="283.5" y="-265.8" font-family="Times New Roman,Times,Liberation Serif,serif" font-size="14.00">bool</text>
<polygon fill="none" stroke="black" points="1,-238 1,-259 186,-259 186,-238 1,-238"/>
<text text-anchor="start" x="4" y="-244.8" font-family="Times New Roman,Times,Liberation Serif,serif" font-size="14.00">trial_generation_end_parameters</text>
<polygon fill="none" stroke="black" points="186,-238 186,-259 406,-259 406,-238 186,-238"/>
<text text-anchor="start" x="189" y="-244.8" font-family="Times New Roman,Times,Liberation Serif,serif" font-size="14.00">CoupledTrialGenerationEndConditions</text>
<polygon fill="none" stroke="black" points="1,-217 1,-238 186,-238 186,-217 1,-217"/>
<text text-anchor="start" x="11" y="-223.8" font-family="Times New Roman,Times,Liberation Serif,serif" font-size="14.00">behavior_stability_parameters</text>
<polygon fill="none" stroke="black" points="186,-217 186,-238 406,-238 406,-217 186,-217"/>
<text text-anchor="start" x="189.5" y="-223.8" font-family="Times New Roman,Times,Liberation Serif,serif" font-size="14.00">Optional[BehaviorStabilityParameters]</text>
<polygon fill="none" stroke="black" points="1,-196 1,-217 186,-217 186,-196 1,-196"/>
<text text-anchor="start" x="9.5" y="-202.8" font-family="Times New Roman,Times,Liberation Serif,serif" font-size="14.00">extend_block_on_no_response</text>
<polygon fill="none" stroke="black" points="186,-196 186,-217 406,-217 406,-196 186,-196"/>
<text text-anchor="start" x="283.5" y="-202.8" font-family="Times New Roman,Times,Liberation Serif,serif" font-size="14.00">bool</text>
</a>
</g>
</g>
<!-- aind_behavior_dynamic_foraging.task_logic.trial_generators.coupled_trial_generator.CoupledTrialGeneratorSpec&#45;&gt;aind_behavior_dynamic_foraging.task_logic.trial_generators.block_based_trial_generator.AutoWaterParameters -->
<g id="edge1" class="edge">
<title>aind_behavior_dynamic_foraging.task_logic.trial_generators.coupled_trial_generator.CoupledTrialGeneratorSpec:e&#45;&gt;aind_behavior_dynamic_foraging.task_logic.trial_generators.block_based_trial_generator.AutoWaterParameters:w</title>
<path fill="none" stroke="black" d="M416.13,-290.51C524.94,-301.84 463.99,-498.93 564.54,-519.3"/>
<polyline fill="none" stroke="black" points="406,-290 410.99,-290.25 "/>
<polyline fill="none" stroke="black" points="410.99,-290.25 415.99,-290.5 "/>
<polyline fill="none" stroke="black" points="582.5,-521 577.52,-520.53 "/>
<polygon fill="black" stroke="black" points="577,-515.46 576.06,-525.41 574.07,-525.23 575.01,-515.27 577,-515.46"/>
<polyline fill="none" stroke="black" points="577.52,-520.53 572.54,-520.06 "/>
<ellipse fill="none" stroke="black" cx="568.56" cy="-519.68" rx="4" ry="4"/>
</g>
<!-- aind_behavior_dynamic_foraging.task_logic.trial_generators.coupled_trial_generator.CoupledTrialGeneratorSpec&#45;&gt;aind_behavior_dynamic_foraging.task_logic.trial_generators.block_based_trial_generator.RewardProbabilityParameters -->
<g id="edge2" class="edge">
<title>aind_behavior_dynamic_foraging.task_logic.trial_generators.coupled_trial_generator.CoupledTrialGeneratorSpec:e&#45;&gt;aind_behavior_dynamic_foraging.task_logic.trial_generators.block_based_trial_generator.RewardProbabilityParameters:w</title>
<path fill="none" stroke="black" d="M416.21,-311.5C546.34,-324.82 415.85,-599.07 539.5,-618.87"/>
<polyline fill="none" stroke="black" points="406,-311 410.99,-311.25 "/>
<polyline fill="none" stroke="black" points="410.99,-311.25 415.99,-311.49 "/>
<polyline fill="none" stroke="black" points="554.5,-620 549.51,-619.63 "/>
<polygon fill="black" stroke="black" points="548.89,-614.56 548.14,-624.54 546.15,-624.39 546.9,-614.41 548.89,-614.56"/>
<polyline fill="none" stroke="black" points="549.51,-619.63 544.53,-619.25 "/>
<polygon fill="black" stroke="black" points="543.91,-614.19 543.16,-624.16 541.16,-624.01 541.91,-614.04 543.91,-614.19"/>
<polyline fill="none" stroke="black" points="544.53,-619.25 539.54,-618.88 "/>
</g>
<!-- aind_behavior_dynamic_foraging.task_logic.trial_generators.coupled_trial_generator.CoupledTrialGeneratorSpec&#45;&gt;aind_behavior_dynamic_foraging.task_logic.trial_generators.coupled_trial_generator.BehaviorStabilityParameters -->
<g id="edge3" class="edge">
<title>aind_behavior_dynamic_foraging.task_logic.trial_generators.coupled_trial_generator.CoupledTrialGeneratorSpec:e&#45;&gt;aind_behavior_dynamic_foraging.task_logic.trial_generators.coupled_trial_generator.BehaviorStabilityParameters:w</title>
<path fill="none" stroke="black" d="M416.02,-226.14C472.94,-215.72 447.01,-114.02 496.16,-95.04"/>
<polyline fill="none" stroke="black" points="406,-227 410.98,-226.57 "/>
<polyline fill="none" stroke="black" points="410.98,-226.57 415.96,-226.14 "/>
<polyline fill="none" stroke="black" points="514,-92 509.07,-92.84 "/>
<polygon fill="black" stroke="black" points="507.25,-88.08 508.93,-97.94 506.95,-98.27 505.27,-88.42 507.25,-88.08"/>
<polyline fill="none" stroke="black" points="509.07,-92.84 504.14,-93.68 "/>
<ellipse fill="none" stroke="black" cx="500.2" cy="-94.35" rx="4" ry="4"/>
</g>
<!-- aind_behavior_dynamic_foraging.task_logic.trial_generators.coupled_trial_generator.CoupledTrialGeneratorSpec&#45;&gt;aind_behavior_dynamic_foraging.task_logic.trial_generators.coupled_trial_generator.CoupledTrialGenerationEndConditions -->
<g id="edge4" class="edge">
<title>aind_behavior_dynamic_foraging.task_logic.trial_generators.coupled_trial_generator.CoupledTrialGeneratorSpec:e&#45;&gt;aind_behavior_dynamic_foraging.task_logic.trial_generators.coupled_trial_generator.CoupledTrialGenerationEndConditions:w</title>
<path fill="none" stroke="black" d="M416.19,-248.06C465.43,-248.6 484.08,-253.06 531.26,-253.87"/>
<polyline fill="none" stroke="black" points="406,-248 411,-248.03 "/>
<polyline fill="none" stroke="black" points="411,-248.03 416,-248.05 "/>
<polyline fill="none" stroke="black" points="546.5,-254 541.5,-253.96 "/>
<polygon fill="black" stroke="black" points="540.54,-248.95 540.46,-258.95 538.46,-258.93 538.54,-248.93 540.54,-248.95"/>
<polyline fill="none" stroke="black" points="541.5,-253.96 536.5,-253.92 "/>
<polygon fill="black" stroke="black" points="535.54,-248.91 535.46,-258.91 533.46,-258.89 533.54,-248.89 535.54,-248.91"/>
<polyline fill="none" stroke="black" points="536.5,-253.92 531.5,-253.87 "/>
</g>
<!-- aind_behavior_dynamic_foraging.task_logic.trial_generators.integration_test_trial_generator.IntegrationTestTrialGeneratorSpec -->
<g id="node7" class="node">
<title>aind_behavior_dynamic_foraging.task_logic.trial_generators.integration_test_trial_generator.IntegrationTestTrialGeneratorSpec</title>
<g id="a_node7"><a xlink:title="aind_behavior_dynamic_foraging.task_logic.trial_generators.integration_test_trial_generator.IntegrationTestTrialGeneratorSpec&#10;&#10;Base model for trial generator specifications.&#10;">
<polygon fill="none" stroke="black" points="79,-977 79,-998 327,-998 327,-977 79,-977"/>
<text text-anchor="start" x="100" y="-984.8" font-family="Times New Roman,Times,Liberation Serif,serif" font-weight="bold" font-size="14.00">IntegrationTestTrialGeneratorSpec</text>
<polygon fill="none" stroke="black" points="79,-956 79,-977 109,-977 109,-956 79,-956"/>
<text text-anchor="start" x="82" y="-962.8" font-family="Times New Roman,Times,Liberation Serif,serif" font-size="14.00">type</text>
<polygon fill="none" stroke="black" points="109,-956 109,-977 327,-977 327,-956 109,-956"/>
<text text-anchor="start" x="112" y="-962.8" font-family="Times New Roman,Times,Liberation Serif,serif" font-size="14.00">Literal[&#39;IntegrationTestTrialGenerator&#39;]</text>
</a>
</g>
</g>
<!-- aind_behavior_dynamic_foraging.task_logic.trial_generators.warmup_trial_generator.WarmupTrialGenerationEndConditions -->
<g id="node8" class="node">
<title>aind_behavior_dynamic_foraging.task_logic.trial_generators.warmup_trial_generator.WarmupTrialGenerationEndConditions</title>
<g id="a_node8"><a xlink:title="aind_behavior_dynamic_foraging.task_logic.trial_generators.warmup_trial_generator.WarmupTrialGenerationEndConditions&#10;&#10;!!! abstract &quot;Usage Documentation&quot;&#10; &#160;&#160;&#160;[Models](../concepts/models.md)&#10;&#10;A base class for creating Pydantic models.&#10;&#10;Attributes:&#10; &#160;&#160;&#160;__class_vars__: The names of the class variables defined on the model.&#10; &#160;&#160;&#160;__private_attributes__: Metadata about the private attributes of the model.&#10; &#160;&#160;&#160;__signature__: The synthesized `__init__` [`Signature`][inspect.Signature] of the model.&#10;&#10; &#160;&#160;&#160;__pydantic_complete__: Whether model building is completed, or if there are still undefined fields.&#10; &#160;&#160;&#160;__pydantic_core_schema__: The core schema of the model.&#10; &#160;&#160;&#160;__pydantic_custom_init__: Whether the model has a custom `__init__` function.&#10; &#160;&#160;&#160;__pydantic_decorators__: Metadata containing the decorators defined on the model.&#10; &#160;&#160;&#160;&#160;&#160;&#160;&#160;This replaces `Model.__validators__` and `Model.__root_validators__` from Pydantic V1.&#10; &#160;&#160;&#160;__pydantic_generic_metadata__: Metadata for generic models; contains data used for a similar purpose to&#10; &#160;&#160;&#160;&#160;&#160;&#160;&#160;__args__, __origin__, __parameters__ in typing&#45;module generics. May eventually be replaced by these.&#10; &#160;&#160;&#160;__pydantic_parent_namespace__: Parent namespace of the model, used for automatic rebuilding of models.&#10; &#160;&#160;&#160;__pydantic_post_init__: The name of the post&#45;init method for the model, if defined.&#10; &#160;&#160;&#160;__pydantic_root_model__: Whether the model is a [`RootModel`][pydantic.root_model.RootModel].&#10; &#160;&#160;&#160;__pydantic_serializer__: The `pydantic&#45;core` `SchemaSerializer` used to dump instances of the model.&#10; &#160;&#160;&#160;__pydantic_validator__: The `pydantic&#45;core` `SchemaValidator` used to validate instances of the model.&#10;&#10; &#160;&#160;&#160;__pydantic_fields__: A dictionary of field names and their corresponding [`FieldInfo`][pydantic.fields.FieldInfo] objects.&#10; &#160;&#160;&#160;__pydantic_computed_fields__: A dictionary of computed field names and their corresponding [`ComputedFieldInfo`][pydantic.fields.ComputedFieldInfo] objects.&#10;&#10; &#160;&#160;&#160;__pydantic_extra__: A dictionary containing extra values, if [`extra`][pydantic.config.ConfigDict.extra]&#10; &#160;&#160;&#160;&#160;&#160;&#160;&#160;is set to `&#39;allow&#39;`.&#10; &#160;&#160;&#160;__pydantic_fields_set__: The names of fields explicitly set during instantiation.&#10; &#160;&#160;&#160;__pydantic_private__: Values of private attributes set on the model instance.&#10;">
<polygon fill="none" stroke="black" points="545.5,-389 545.5,-410 786.5,-410 786.5,-389 545.5,-389"/>
<text text-anchor="start" x="548.5" y="-396.8" font-family="Times New Roman,Times,Liberation Serif,serif" font-weight="bold" font-size="14.00">WarmupTrialGenerationEndConditions</text>
<polygon fill="none" stroke="black" points="545.5,-368 545.5,-389 706.5,-389 706.5,-368 545.5,-368"/>
<text text-anchor="start" x="600.5" y="-374.8" font-family="Times New Roman,Times,Liberation Serif,serif" font-size="14.00">min_trial</text>
<polygon fill="none" stroke="black" points="706.5,-368 706.5,-389 786.5,-389 786.5,-368 706.5,-368"/>
<text text-anchor="start" x="739" y="-374.8" font-family="Times New Roman,Times,Liberation Serif,serif" font-size="14.00">int</text>
<polygon fill="none" stroke="black" points="545.5,-347 545.5,-368 706.5,-368 706.5,-347 545.5,-347"/>
<text text-anchor="start" x="578.5" y="-353.8" font-family="Times New Roman,Times,Liberation Serif,serif" font-size="14.00">max_choice_bias</text>
<polygon fill="none" stroke="black" points="706.5,-347 706.5,-368 786.5,-368 786.5,-347 706.5,-347"/>
<text text-anchor="start" x="734" y="-353.8" font-family="Times New Roman,Times,Liberation Serif,serif" font-size="14.00">float</text>
<polygon fill="none" stroke="black" points="545.5,-326 545.5,-347 706.5,-347 706.5,-326 545.5,-326"/>
<text text-anchor="start" x="574.5" y="-332.8" font-family="Times New Roman,Times,Liberation Serif,serif" font-size="14.00">min_response_rate</text>
<polygon fill="none" stroke="black" points="706.5,-326 706.5,-347 786.5,-347 786.5,-326 706.5,-326"/>
<text text-anchor="start" x="734" y="-332.8" font-family="Times New Roman,Times,Liberation Serif,serif" font-size="14.00">float</text>
<polygon fill="none" stroke="black" points="545.5,-305 545.5,-326 706.5,-326 706.5,-305 545.5,-305"/>
<text text-anchor="start" x="572.5" y="-311.8" font-family="Times New Roman,Times,Liberation Serif,serif" font-size="14.00">evaluation_window</text>
<polygon fill="none" stroke="black" points="706.5,-305 706.5,-326 786.5,-326 786.5,-305 706.5,-305"/>
<text text-anchor="start" x="739" y="-311.8" font-family="Times New Roman,Times,Liberation Serif,serif" font-size="14.00">int</text>
</a>
</g>
</g>
<!-- aind_behavior_dynamic_foraging.task_logic.trial_generators.warmup_trial_generator.WarmupTrialGeneratorSpec -->
<g id="node9" class="node">
<title>aind_behavior_dynamic_foraging.task_logic.trial_generators.warmup_trial_generator.WarmupTrialGeneratorSpec</title>
<g id="a_node9"><a xlink:title="aind_behavior_dynamic_foraging.task_logic.trial_generators.warmup_trial_generator.WarmupTrialGeneratorSpec&#10;&#10;Base model for trial generator specifications.&#10;">
<polygon fill="none" stroke="black" points="0,-799 0,-820 406,-820 406,-799 0,-799"/>
<text text-anchor="start" x="118" y="-806.8" font-family="Times New Roman,Times,Liberation Serif,serif" font-weight="bold" font-size="14.00">WarmupTrialGeneratorSpec</text>
<polygon fill="none" stroke="black" points="0,-778 0,-799 185,-799 185,-778 0,-778"/>
<text text-anchor="start" x="80.5" y="-784.8" font-family="Times New Roman,Times,Liberation Serif,serif" font-size="14.00">type</text>
<polygon fill="none" stroke="black" points="185,-778 185,-799 406,-799 406,-778 185,-778"/>
<text text-anchor="start" x="206.5" y="-784.8" font-family="Times New Roman,Times,Liberation Serif,serif" font-size="14.00">Literal[&#39;WarmupTrialGenerator&#39;]</text>
<polygon fill="none" stroke="black" points="0,-757 0,-778 185,-778 185,-757 0,-757"/>
<text text-anchor="start" x="41" y="-763.8" font-family="Times New Roman,Times,Liberation Serif,serif" font-size="14.00">quiescent_duration</text>
<polygon fill="none" stroke="black" points="185,-757 185,-778 406,-778 406,-757 185,-757"/>
<text text-anchor="start" x="262.5" y="-763.8" font-family="Times New Roman,Times,Liberation Serif,serif" font-size="14.00">Distribution</text>
<polygon fill="none" stroke="black" points="0,-736 0,-757 185,-757 185,-736 0,-736"/>
<text text-anchor="start" x="42.5" y="-742.8" font-family="Times New Roman,Times,Liberation Serif,serif" font-size="14.00">response_duration</text>
<polygon fill="none" stroke="black" points="185,-736 185,-757 406,-757 406,-736 185,-736"/>
<text text-anchor="start" x="283" y="-742.8" font-family="Times New Roman,Times,Liberation Serif,serif" font-size="14.00">float</text>
<polygon fill="none" stroke="black" points="0,-715 0,-736 185,-736 185,-715 0,-715"/>
<text text-anchor="start" x="9" y="-721.8" font-family="Times New Roman,Times,Liberation Serif,serif" font-size="14.00">reward_consumption_duration</text>
<polygon fill="none" stroke="black" points="185,-715 185,-736 406,-736 406,-715 185,-715"/>
<text text-anchor="start" x="283" y="-721.8" font-family="Times New Roman,Times,Liberation Serif,serif" font-size="14.00">float</text>
<polygon fill="none" stroke="black" points="0,-694 0,-715 185,-715 185,-694 0,-694"/>
<text text-anchor="start" x="15.5" y="-700.8" font-family="Times New Roman,Times,Liberation Serif,serif" font-size="14.00">inter_trial_interval_duration</text>
<polygon fill="none" stroke="black" points="185,-694 185,-715 406,-715 406,-694 185,-694"/>
<text text-anchor="start" x="262.5" y="-700.8" font-family="Times New Roman,Times,Liberation Serif,serif" font-size="14.00">Distribution</text>
<polygon fill="none" stroke="black" points="0,-673 0,-694 185,-694 185,-673 0,-673"/>
<text text-anchor="start" x="65.5" y="-679.8" font-family="Times New Roman,Times,Liberation Serif,serif" font-size="14.00">block_len</text>
<polygon fill="none" stroke="black" points="185,-673 185,-694 406,-694 406,-673 185,-673"/>
<text text-anchor="start" x="262.5" y="-679.8" font-family="Times New Roman,Times,Liberation Serif,serif" font-size="14.00">Distribution</text>
<polygon fill="none" stroke="black" points="0,-652 0,-673 185,-673 185,-652 0,-652"/>
<text text-anchor="start" x="41" y="-658.8" font-family="Times New Roman,Times,Liberation Serif,serif" font-size="14.00">min_block_reward</text>
<polygon fill="none" stroke="black" points="185,-652 185,-673 406,-673 406,-652 185,-652"/>
<text text-anchor="start" x="269.5" y="-658.8" font-family="Times New Roman,Times,Liberation Serif,serif" font-size="14.00">Literal[1]</text>
<polygon fill="none" stroke="black" points="0,-631 0,-652 185,-652 185,-631 0,-631"/>
<text text-anchor="start" x="61.5" y="-637.8" font-family="Times New Roman,Times,Liberation Serif,serif" font-size="14.00">kernel_size</text>
<polygon fill="none" stroke="black" points="185,-631 185,-652 406,-652 406,-631 185,-631"/>
<text text-anchor="start" x="288" y="-637.8" font-family="Times New Roman,Times,Liberation Serif,serif" font-size="14.00">int</text>
<polygon fill="none" stroke="black" points="0,-610 0,-631 185,-631 185,-610 0,-610"/>
<text text-anchor="start" x="7" y="-616.8" font-family="Times New Roman,Times,Liberation Serif,serif" font-size="14.00">reward_probability_parameters</text>
<polygon fill="none" stroke="black" points="185,-610 185,-631 406,-631 406,-610 185,-610"/>
<text text-anchor="start" x="214" y="-616.8" font-family="Times New Roman,Times,Liberation Serif,serif" font-size="14.00">RewardProbabilityParameters</text>
<polygon fill="none" stroke="black" points="0,-589 0,-610 185,-610 185,-589 0,-589"/>
<text text-anchor="start" x="32" y="-595.8" font-family="Times New Roman,Times,Liberation Serif,serif" font-size="14.00">autowater_parameters</text>
<polygon fill="none" stroke="black" points="185,-589 185,-610 406,-610 406,-589 185,-589"/>
<text text-anchor="start" x="207" y="-595.8" font-family="Times New Roman,Times,Liberation Serif,serif" font-size="14.00">Optional[AutoWaterParameters]</text>
<polygon fill="none" stroke="black" points="0,-568 0,-589 185,-589 185,-568 0,-568"/>
<text text-anchor="start" x="65.5" y="-574.8" font-family="Times New Roman,Times,Liberation Serif,serif" font-size="14.00">is_baiting</text>
<polygon fill="none" stroke="black" points="185,-568 185,-589 406,-589 406,-568 185,-568"/>
<text text-anchor="start" x="260" y="-574.8" font-family="Times New Roman,Times,Liberation Serif,serif" font-size="14.00">Literal[True]</text>
<polygon fill="none" stroke="black" points="0,-547 0,-568 185,-568 185,-547 0,-547"/>
<text text-anchor="start" x="3" y="-553.8" font-family="Times New Roman,Times,Liberation Serif,serif" font-size="14.00">trial_generation_end_parameters</text>
<polygon fill="none" stroke="black" points="185,-547 185,-568 406,-568 406,-547 185,-547"/>
<text text-anchor="start" x="188" y="-553.8" font-family="Times New Roman,Times,Liberation Serif,serif" font-size="14.00">WarmupTrialGenerationEndConditions</text>
</a>
</g>
</g>
<!-- aind_behavior_dynamic_foraging.task_logic.trial_generators.warmup_trial_generator.WarmupTrialGeneratorSpec&#45;&gt;aind_behavior_dynamic_foraging.task_logic.trial_generators.block_based_trial_generator.AutoWaterParameters -->
<g id="edge5" class="edge">
<title>aind_behavior_dynamic_foraging.task_logic.trial_generators.warmup_trial_generator.WarmupTrialGeneratorSpec:e&#45;&gt;aind_behavior_dynamic_foraging.task_logic.trial_generators.block_based_trial_generator.AutoWaterParameters:w</title>
<path fill="none" stroke="black" d="M416.16,-598.62C486.36,-593.19 498.6,-531.81 564.52,-522.25"/>
<polyline fill="none" stroke="black" points="406,-599 411,-598.81 "/>
<polyline fill="none" stroke="black" points="411,-598.81 415.99,-598.62 "/>
<polyline fill="none" stroke="black" points="582.5,-521 577.51,-521.35 "/>
<polygon fill="black" stroke="black" points="576.17,-516.43 576.86,-526.4 574.87,-526.54 574.17,-516.57 576.17,-516.43"/>
<polyline fill="none" stroke="black" points="577.51,-521.35 572.52,-521.69 "/>
<ellipse fill="none" stroke="black" cx="568.53" cy="-521.97" rx="4" ry="4"/>
</g>
<!-- aind_behavior_dynamic_foraging.task_logic.trial_generators.warmup_trial_generator.WarmupTrialGeneratorSpec&#45;&gt;aind_behavior_dynamic_foraging.task_logic.trial_generators.block_based_trial_generator.RewardProbabilityParameters -->
<g id="edge6" class="edge">
<title>aind_behavior_dynamic_foraging.task_logic.trial_generators.warmup_trial_generator.WarmupTrialGeneratorSpec:e&#45;&gt;aind_behavior_dynamic_foraging.task_logic.trial_generators.block_based_trial_generator.RewardProbabilityParameters:w</title>
<path fill="none" stroke="black" d="M416.04,-620C468.91,-620 488.58,-620 539.31,-620"/>
<polyline fill="none" stroke="black" points="406,-620 411,-620 "/>
<polyline fill="none" stroke="black" points="411,-620 416,-620 "/>
<polyline fill="none" stroke="black" points="554.5,-620 549.5,-620 "/>
<polygon fill="black" stroke="black" points="548.5,-615 548.5,-625 546.5,-625 546.5,-615 548.5,-615"/>
<polyline fill="none" stroke="black" points="549.5,-620 544.5,-620 "/>
<polygon fill="black" stroke="black" points="543.5,-615 543.5,-625 541.5,-625 541.5,-615 543.5,-615"/>
<polyline fill="none" stroke="black" points="544.5,-620 539.5,-620 "/>
</g>
<!-- aind_behavior_dynamic_foraging.task_logic.trial_generators.warmup_trial_generator.WarmupTrialGeneratorSpec&#45;&gt;aind_behavior_dynamic_foraging.task_logic.trial_generators.warmup_trial_generator.WarmupTrialGenerationEndConditions -->
<g id="edge7" class="edge">
<title>aind_behavior_dynamic_foraging.task_logic.trial_generators.warmup_trial_generator.WarmupTrialGeneratorSpec:e&#45;&gt;aind_behavior_dynamic_foraging.task_logic.trial_generators.warmup_trial_generator.WarmupTrialGenerationEndConditions:w</title>
<path fill="none" stroke="black" d="M416.28,-556.3C490.59,-545.68 459.68,-417.6 529.2,-401.63"/>
<polyline fill="none" stroke="black" points="406,-557 410.99,-556.66 "/>
<polyline fill="none" stroke="black" points="410.99,-556.66 415.98,-556.32 "/>
<polyline fill="none" stroke="black" points="544.5,-400 539.53,-400.53 "/>
<polygon fill="black" stroke="black" points="538,-395.66 539.06,-405.61 537.07,-405.82 536.02,-395.88 538,-395.66"/>
<polyline fill="none" stroke="black" points="539.53,-400.53 534.56,-401.06 "/>
<polygon fill="black" stroke="black" points="533.03,-396.19 534.09,-406.14 532.1,-406.35 531.04,-396.41 533.03,-396.19"/>
<polyline fill="none" stroke="black" points="534.56,-401.06 529.58,-401.59 "/>
</g>
</g>
</svg>
