<?xml version="1.0" encoding="UTF-8" standalone="no"?>
<!DOCTYPE svg PUBLIC "-//W3C//DTD SVG 1.1//EN"
 "http://www.w3.org/Graphics/SVG/1.1/DTD/svg11.dtd">
<!-- Generated by graphviz version 2.43.0 (0)
 -->
<!-- Title: Entity Relationship Diagram created by erdantic Pages: 1 -->
<svg width="318pt" height="89pt"
 viewBox="0.00 0.00 318.00 89.00" xmlns="http://www.w3.org/2000/svg" xmlns:xlink="http://www.w3.org/1999/xlink">
<g id="graph0" class="graph" transform="scale(1 1) rotate(0) translate(4 85)">
<title>Entity Relationship Diagram created by erdantic</title>
<polygon fill="white" stroke="transparent" points="-4,4 -4,-85 314,-85 314,4 -4,4"/>
<text text-anchor="middle" x="155" y="-6.8" font-family="Times New Roman,Times,Liberation Serif,serif" font-size="9.00" fill="#a8a8a8">Created by erdantic v1.2.1 &lt;https://github.com/drivendataorg/erdantic&gt;</text>
<!-- aind_behavior_dynamic_foraging.task_logic.trial_generators.composite_trial_generator.TrialGeneratorCompositeSpec[TrialGeneratorSpec] -->
<g id="node1" class="node">
<title>aind_behavior_dynamic_foraging.task_logic.trial_generators.composite_trial_generator.TrialGeneratorCompositeSpec[TrialGeneratorSpec]</title>
<g id="a_node1"><a xlink:title="aind_behavior_dynamic_foraging.task_logic.trial_generators.composite_trial_generator.TrialGeneratorCompositeSpec[TrialGeneratorSpec]&#10;&#10;Specification for a composite trial generator that concatenates multiple generators.&#10;">
<polygon fill="none" stroke="black" points="0,-59.5 0,-80.5 310,-80.5 310,-59.5 0,-59.5"/>
<text text-anchor="start" x="3" y="-67.3" font-family="Times New Roman,Times,Liberation Serif,serif" font-weight="bold" font-size="14.00">TrialGeneratorCompositeSpec[TrialGeneratorSpec]</text>
<polygon fill="none" stroke="black" points="0,-38.5 0,-59.5 88,-59.5 88,-38.5 0,-38.5"/>
<text text-anchor="start" x="32" y="-45.3" font-family="Times New Roman,Times,Liberation Serif,serif" font-size="14.00">type</text>
<polygon fill="none" stroke="black" points="88,-38.5 88,-59.5 310,-59.5 310,-38.5 88,-38.5"/>
<text text-anchor="start" x="104" y="-45.3" font-family="Times New Roman,Times,Liberation Serif,serif" font-size="14.00">Literal[&#39;TrialGeneratorComposite&#39;]</text>
<polygon fill="none" stroke="black" points="0,-17.5 0,-38.5 88,-38.5 88,-17.5 0,-17.5"/>
<text text-anchor="start" x="15.5" y="-24.3" font-family="Times New Roman,Times,Liberation Serif,serif" font-size="14.00">generators</text>
<polygon fill="none" stroke="black" points="88,-17.5 88,-38.5 310,-38.5 310,-17.5 88,-17.5"/>
<text text-anchor="start" x="132.5" y="-24.3" font-family="Times New Roman,Times,Liberation Serif,serif" font-size="14.00">list[TrialGeneratorSpec]</text>
</a>
</g>
</g>
</g>
</svg>
