<?xml version="1.0" encoding="UTF-8" standalone="no"?>
<!DOCTYPE svg PUBLIC "-//W3C//DTD SVG 1.1//EN"
 "http://www.w3.org/Graphics/SVG/1.1/DTD/svg11.dtd">
<!-- Generated by graphviz version 2.43.0 (0)
 -->
<!-- Title: Entity Relationship Diagram created by erdantic Pages: 1 -->
<svg width="644pt" height="320pt"
 viewBox="0.00 0.00 644.00 319.50" xmlns="http://www.w3.org/2000/svg" xmlns:xlink="http://www.w3.org/1999/xlink">
<g id="graph0" class="graph" transform="scale(1 1) rotate(0) translate(4 315.5)">
<title>Entity Relationship Diagram created by erdantic</title>
<polygon fill="white" stroke="transparent" points="-4,4 -4,-315.5 640,-315.5 640,4 -4,4"/>
<text text-anchor="middle" x="318" y="-6.8" font-family="Times New Roman,Times,Liberation Serif,serif" font-size="9.00" fill="#a8a8a8">Created by erdantic v1.2.1 &lt;https://github.com/drivendataorg/erdantic&gt;</text>
<!-- aind_behavior_dynamic_foraging.task_logic.trial_models.Trial -->
<g id="node1" class="node">
<title>aind_behavior_dynamic_foraging.task_logic.trial_models.Trial</title>
<g id="a_node1"><a xlink:title="aind_behavior_dynamic_foraging.task_logic.trial_models.Trial&#10;&#10;Represents a single trial that can be instantiated by the Bonsai state machine.&#10;">
<polygon fill="none" stroke="black" points="285.5,-269.5 285.5,-290.5 636.5,-290.5 636.5,-269.5 285.5,-269.5"/>
<text text-anchor="start" x="446.5" y="-277.3" font-family="Times New Roman,Times,Liberation Serif,serif" font-weight="bold" font-size="14.00">Trial</text>
<polygon fill="none" stroke="black" points="285.5,-248.5 285.5,-269.5 458.5,-269.5 458.5,-248.5 285.5,-248.5"/>
<text text-anchor="start" x="334" y="-255.3" font-family="Times New Roman,Times,Liberation Serif,serif" font-size="14.00">p_reward_left</text>
<polygon fill="none" stroke="black" points="458.5,-248.5 458.5,-269.5 636.5,-269.5 636.5,-248.5 458.5,-248.5"/>
<text text-anchor="start" x="535" y="-255.3" font-family="Times New Roman,Times,Liberation Serif,serif" font-size="14.00">float</text>
<polygon fill="none" stroke="black" points="285.5,-227.5 285.5,-248.5 458.5,-248.5 458.5,-227.5 285.5,-227.5"/>
<text text-anchor="start" x="330" y="-234.3" font-family="Times New Roman,Times,Liberation Serif,serif" font-size="14.00">p_reward_right</text>
<polygon fill="none" stroke="black" points="458.5,-227.5 458.5,-248.5 636.5,-248.5 636.5,-227.5 458.5,-227.5"/>
<text text-anchor="start" x="535" y="-234.3" font-family="Times New Roman,Times,Liberation Serif,serif" font-size="14.00">float</text>
<polygon fill="none" stroke="black" points="285.5,-206.5 285.5,-227.5 458.5,-227.5 458.5,-206.5 285.5,-206.5"/>
<text text-anchor="start" x="288.5" y="-213.3" font-family="Times New Roman,Times,Liberation Serif,serif" font-size="14.00">reward_consumption_duration</text>
<polygon fill="none" stroke="black" points="458.5,-206.5 458.5,-227.5 636.5,-227.5 636.5,-206.5 458.5,-206.5"/>
<text text-anchor="start" x="535" y="-213.3" font-family="Times New Roman,Times,Liberation Serif,serif" font-size="14.00">float</text>
<polygon fill="none" stroke="black" points="285.5,-185.5 285.5,-206.5 458.5,-206.5 458.5,-185.5 285.5,-185.5"/>
<text text-anchor="start" x="309" y="-192.3" font-family="Times New Roman,Times,Liberation Serif,serif" font-size="14.00">reward_delay_duration</text>
<polygon fill="none" stroke="black" points="458.5,-185.5 458.5,-206.5 636.5,-206.5 636.5,-185.5 458.5,-185.5"/>
<text text-anchor="start" x="535" y="-192.3" font-family="Times New Roman,Times,Liberation Serif,serif" font-size="14.00">float</text>
<polygon fill="none" stroke="black" points="285.5,-164.5 285.5,-185.5 458.5,-185.5 458.5,-164.5 285.5,-164.5"/>
<text text-anchor="start" x="314.5" y="-171.3" font-family="Times New Roman,Times,Liberation Serif,serif" font-size="14.00">secondary_reinforcer</text>
<polygon fill="none" stroke="black" points="458.5,-164.5 458.5,-185.5 636.5,-185.5 636.5,-164.5 458.5,-164.5"/>
<text text-anchor="start" x="461.5" y="-171.3" font-family="Times New Roman,Times,Liberation Serif,serif" font-size="14.00">Optional[SecondaryReinforcer]</text>
<polygon fill="none" stroke="black" points="285.5,-143.5 285.5,-164.5 458.5,-164.5 458.5,-143.5 285.5,-143.5"/>
<text text-anchor="start" x="296" y="-150.3" font-family="Times New Roman,Times,Liberation Serif,serif" font-size="14.00">response_deadline_duration</text>
<polygon fill="none" stroke="black" points="458.5,-143.5 458.5,-164.5 636.5,-164.5 636.5,-143.5 458.5,-143.5"/>
<text text-anchor="start" x="535" y="-150.3" font-family="Times New Roman,Times,Liberation Serif,serif" font-size="14.00">float</text>
<polygon fill="none" stroke="black" points="285.5,-122.5 285.5,-143.5 458.5,-143.5 458.5,-122.5 285.5,-122.5"/>
<text text-anchor="start" x="320.5" y="-129.3" font-family="Times New Roman,Times,Liberation Serif,serif" font-size="14.00">enable_fast_retract</text>
<polygon fill="none" stroke="black" points="458.5,-122.5 458.5,-143.5 636.5,-143.5 636.5,-122.5 458.5,-122.5"/>
<text text-anchor="start" x="535" y="-129.3" font-family="Times New Roman,Times,Liberation Serif,serif" font-size="14.00">bool</text>
<polygon fill="none" stroke="black" points="285.5,-101.5 285.5,-122.5 458.5,-122.5 458.5,-101.5 285.5,-101.5"/>
<text text-anchor="start" x="295.5" y="-108.3" font-family="Times New Roman,Times,Liberation Serif,serif" font-size="14.00">quiescence_period_duration</text>
<polygon fill="none" stroke="black" points="458.5,-101.5 458.5,-122.5 636.5,-122.5 636.5,-101.5 458.5,-101.5"/>
<text text-anchor="start" x="535" y="-108.3" font-family="Times New Roman,Times,Liberation Serif,serif" font-size="14.00">float</text>
<polygon fill="none" stroke="black" points="285.5,-80.5 285.5,-101.5 458.5,-101.5 458.5,-80.5 285.5,-80.5"/>
<text text-anchor="start" x="295" y="-87.3" font-family="Times New Roman,Times,Liberation Serif,serif" font-size="14.00">inter_trial_interval_duration</text>
<polygon fill="none" stroke="black" points="458.5,-80.5 458.5,-101.5 636.5,-101.5 636.5,-80.5 458.5,-80.5"/>
<text text-anchor="start" x="535" y="-87.3" font-family="Times New Roman,Times,Liberation Serif,serif" font-size="14.00">float</text>
<polygon fill="none" stroke="black" points="285.5,-59.5 285.5,-80.5 458.5,-80.5 458.5,-59.5 285.5,-59.5"/>
<text text-anchor="start" x="309" y="-66.3" font-family="Times New Roman,Times,Liberation Serif,serif" font-size="14.00">is_auto_response_right</text>
<polygon fill="none" stroke="black" points="458.5,-59.5 458.5,-80.5 636.5,-80.5 636.5,-59.5 458.5,-59.5"/>
<text text-anchor="start" x="507" y="-66.3" font-family="Times New Roman,Times,Liberation Serif,serif" font-size="14.00">Optional[bool]</text>
<polygon fill="none" stroke="black" points="285.5,-38.5 285.5,-59.5 458.5,-59.5 458.5,-38.5 285.5,-38.5"/>
<text text-anchor="start" x="311.5" y="-45.3" font-family="Times New Roman,Times,Liberation Serif,serif" font-size="14.00">lickspout_offset_delta</text>
<polygon fill="none" stroke="black" points="458.5,-38.5 458.5,-59.5 636.5,-59.5 636.5,-38.5 458.5,-38.5"/>
<text text-anchor="start" x="535" y="-45.3" font-family="Times New Roman,Times,Liberation Serif,serif" font-size="14.00">float</text>
<polygon fill="none" stroke="black" points="285.5,-17.5 285.5,-38.5 458.5,-38.5 458.5,-17.5 285.5,-17.5"/>
<text text-anchor="start" x="330" y="-24.3" font-family="Times New Roman,Times,Liberation Serif,serif" font-size="14.00">extra_metadata</text>
<polygon fill="none" stroke="black" points="458.5,-17.5 458.5,-38.5 636.5,-38.5 636.5,-17.5 458.5,-17.5"/>
<text text-anchor="start" x="507.5" y="-24.3" font-family="Times New Roman,Times,Liberation Serif,serif" font-size="14.00">Optional[Any]</text>
</a>
</g>
</g>
<!-- aind_behavior_dynamic_foraging.task_logic.trial_models.TrialOutcome -->
<g id="node2" class="node">
<title>aind_behavior_dynamic_foraging.task_logic.trial_models.TrialOutcome</title>
<g id="a_node2"><a xlink:title="aind_behavior_dynamic_foraging.task_logic.trial_models.TrialOutcome&#10;&#10;Represents the outcome of a single trial.&#10;">
<polygon fill="none" stroke="black" points="0.5,-290.5 0.5,-311.5 177.5,-311.5 177.5,-290.5 0.5,-290.5"/>
<text text-anchor="start" x="47.5" y="-298.3" font-family="Times New Roman,Times,Liberation Serif,serif" font-weight="bold" font-size="14.00">TrialOutcome</text>
<polygon fill="none" stroke="black" points="0.5,-269.5 0.5,-290.5 90.5,-290.5 90.5,-269.5 0.5,-269.5"/>
<text text-anchor="start" x="34.5" y="-276.3" font-family="Times New Roman,Times,Liberation Serif,serif" font-size="14.00">trial</text>
<polygon fill="none" stroke="black" points="90.5,-269.5 90.5,-290.5 177.5,-290.5 177.5,-269.5 90.5,-269.5"/>
<text text-anchor="start" x="120.5" y="-276.3" font-family="Times New Roman,Times,Liberation Serif,serif" font-size="14.00">Trial</text>
<polygon fill="none" stroke="black" points="0.5,-248.5 0.5,-269.5 90.5,-269.5 90.5,-248.5 0.5,-248.5"/>
<text text-anchor="start" x="3.5" y="-255.3" font-family="Times New Roman,Times,Liberation Serif,serif" font-size="14.00">is_right_choice</text>
<polygon fill="none" stroke="black" points="90.5,-248.5 90.5,-269.5 177.5,-269.5 177.5,-248.5 90.5,-248.5"/>
<text text-anchor="start" x="93.5" y="-255.3" font-family="Times New Roman,Times,Liberation Serif,serif" font-size="14.00">Optional[bool]</text>
<polygon fill="none" stroke="black" points="0.5,-227.5 0.5,-248.5 90.5,-248.5 90.5,-227.5 0.5,-227.5"/>
<text text-anchor="start" x="12" y="-234.3" font-family="Times New Roman,Times,Liberation Serif,serif" font-size="14.00">is_rewarded</text>
<polygon fill="none" stroke="black" points="90.5,-227.5 90.5,-248.5 177.5,-248.5 177.5,-227.5 90.5,-227.5"/>
<text text-anchor="start" x="121.5" y="-234.3" font-family="Times New Roman,Times,Liberation Serif,serif" font-size="14.00">bool</text>
</a>
</g>
</g>
<!-- aind_behavior_dynamic_foraging.task_logic.trial_models.TrialOutcome&#45;&gt;aind_behavior_dynamic_foraging.task_logic.trial_models.Trial -->
<g id="edge1" class="edge">
<title>aind_behavior_dynamic_foraging.task_logic.trial_models.TrialOutcome:e&#45;&gt;aind_behavior_dynamic_foraging.task_logic.trial_models.Trial:w</title>
<path fill="none" stroke="black" d="M187.12,-280.5C222,-280.5 236.76,-280.5 269.67,-280.5"/>
<polyline fill="none" stroke="black" points="177,-280.5 182,-280.5 "/>
<polyline fill="none" stroke="black" points="182,-280.5 187,-280.5 "/>
<polyline fill="none" stroke="black" points="285,-280.5 280,-280.5 "/>
<polygon fill="black" stroke="black" points="279,-275.5 279,-285.5 277,-285.5 277,-275.5 279,-275.5"/>
<polyline fill="none" stroke="black" points="280,-280.5 275,-280.5 "/>
<polygon fill="black" stroke="black" points="274,-275.5 274,-285.5 272,-285.5 272,-275.5 274,-275.5"/>
<polyline fill="none" stroke="black" points="275,-280.5 270,-280.5 "/>
</g>
</g>
</svg>
