<?xml version="1.0" encoding="UTF-8" standalone="no"?>
<!DOCTYPE svg PUBLIC "-//W3C//DTD SVG 1.1//EN"
 "http://www.w3.org/Graphics/SVG/1.1/DTD/svg11.dtd">
<!-- Generated by graphviz version 2.43.0 (0)
 -->
<!-- Title: Entity Relationship Diagram created by erdantic Pages: 1 -->
<svg width="1265pt" height="469pt"
 viewBox="0.00 0.00 1265.00 469.00" xmlns="http://www.w3.org/2000/svg" xmlns:xlink="http://www.w3.org/1999/xlink">
<g id="graph0" class="graph" transform="scale(1 1) rotate(0) translate(4 465)">
<title>Entity Relationship Diagram created by erdantic</title>
<polygon fill="white" stroke="transparent" points="-4,4 -4,-465 1261,-465 1261,4 -4,4"/>
<text text-anchor="middle" x="628.5" y="-6.8" font-family="Times New Roman,Times,Liberation Serif,serif" font-size="9.00" fill="#a8a8a8">Created by erdantic v1.2.1 &lt;https://github.com/drivendataorg/erdantic&gt;</text>
<!-- aind_behavior_dynamic_foraging.task_logic.trial_generators.block_based_trial_generator.AutoWaterParameters -->
<g id="node1" class="node">
<title>aind_behavior_dynamic_foraging.task_logic.trial_generators.block_based_trial_generator.AutoWaterParameters</title>
<g id="a_node1"><a xlink:title="aind_behavior_dynamic_foraging.task_logic.trial_generators.block_based_trial_generator.AutoWaterParameters&#10;&#10;!!! abstract &quot;Usage Documentation&quot;&#10; &#160;&#160;&#160;[Models](../concepts/models.md)&#10;&#10;A base class for creating Pydantic models.&#10;&#10;Attributes:&#10; &#160;&#160;&#160;__class_vars__: The names of the class variables defined on the model.&#10; &#160;&#160;&#160;__private_attributes__: Metadata about the private attributes of the model.&#10; &#160;&#160;&#160;__signature__: The synthesized `__init__` [`Signature`][inspect.Signature] of the model.&#10;&#10; &#160;&#160;&#160;__pydantic_complete__: Whether model building is completed, or if there are still undefined fields.&#10; &#160;&#160;&#160;__pydantic_core_schema__: The core schema of the model.&#10; &#160;&#160;&#160;__pydantic_custom_init__: Whether the model has a custom `__init__` function.&#10; &#160;&#160;&#160;__pydantic_decorators__: Metadata containing the decorators defined on the model.&#10; &#160;&#160;&#160;&#160;&#160;&#160;&#160;This replaces `Model.__validators__` and `Model.__root_validators__` from Pydantic V1.&#10; &#160;&#160;&#160;__pydantic_generic_metadata__: Metadata for generic models; contains data used for a similar purpose to&#10; &#160;&#160;&#160;&#160;&#160;&#160;&#160;__args__, __origin__, __parameters__ in typing&#45;module generics. May eventually be replaced by these.&#10; &#160;&#160;&#160;__pydantic_parent_namespace__: Parent namespace of the model, used for automatic rebuilding of models.&#10; &#160;&#160;&#160;__pydantic_post_init__: The name of the post&#45;init method for the model, if defined.&#10; &#160;&#160;&#160;__pydantic_root_model__: Whether the model is a [`RootModel`][pydantic.root_model.RootModel].&#10; &#160;&#160;&#160;__pydantic_serializer__: The `pydantic&#45;core` `SchemaSerializer` used to dump instances of the model.&#10; &#160;&#160;&#160;__pydantic_validator__: The `pydantic&#45;core` `SchemaValidator` used to validate instances of the model.&#10;&#10; &#160;&#160;&#160;__pydantic_fields__: A dictionary of field names and their corresponding [`FieldInfo`][pydantic.fields.FieldInfo] objects.&#10; &#160;&#160;&#160;__pydantic_computed_fields__: A dictionary of computed field names and their corresponding [`ComputedFieldInfo`][pydantic.fields.ComputedFieldInfo] objects.&#10;&#10; &#160;&#160;&#160;__pydantic_extra__: A dictionary containing extra values, if [`extra`][pydantic.config.ConfigDict.extra]&#10; &#160;&#160;&#160;&#160;&#160;&#160;&#160;is set to `&#39;allow&#39;`.&#10; &#160;&#160;&#160;__pydantic_fields_set__: The names of fields explicitly set during instantiation.&#10; &#160;&#160;&#160;__pydantic_private__: Values of private attributes set on the model instance.&#10;">
<polygon fill="none" stroke="black" points="623,-243 623,-264 787,-264 787,-243 623,-243"/>
<text text-anchor="start" x="638.5" y="-250.8" font-family="Times New Roman,Times,Liberation Serif,serif" font-weight="bold" font-size="14.00">AutoWaterParameters</text>
<polygon fill="none" stroke="black" points="623,-222 623,-243 756,-243 756,-222 623,-222"/>
<text text-anchor="start" x="637.5" y="-228.8" font-family="Times New Roman,Times,Liberation Serif,serif" font-size="14.00">min_ignored_trials</text>
<polygon fill="none" stroke="black" points="756,-222 756,-243 787,-243 787,-222 756,-222"/>
<text text-anchor="start" x="764" y="-228.8" font-family="Times New Roman,Times,Liberation Serif,serif" font-size="14.00">int</text>
<polygon fill="none" stroke="black" points="623,-201 623,-222 756,-222 756,-201 623,-201"/>
<text text-anchor="start" x="626" y="-207.8" font-family="Times New Roman,Times,Liberation Serif,serif" font-size="14.00">min_unrewarded_trials</text>
<polygon fill="none" stroke="black" points="756,-201 756,-222 787,-222 787,-201 756,-201"/>
<text text-anchor="start" x="764" y="-207.8" font-family="Times New Roman,Times,Liberation Serif,serif" font-size="14.00">int</text>
<polygon fill="none" stroke="black" points="623,-180 623,-201 756,-201 756,-180 623,-180"/>
<text text-anchor="start" x="646" y="-186.8" font-family="Times New Roman,Times,Liberation Serif,serif" font-size="14.00">reward_fraction</text>
<polygon fill="none" stroke="black" points="756,-180 756,-201 787,-201 787,-180 756,-180"/>
<text text-anchor="start" x="759" y="-186.8" font-family="Times New Roman,Times,Liberation Serif,serif" font-size="14.00">float</text>
</a>
</g>
</g>
<!-- aind_behavior_dynamic_foraging.task_logic.trial_generators.uncoupled_trial_gnerator.UncoupledTrialGenerationEndConditions -->
<g id="node2" class="node">
<title>aind_behavior_dynamic_foraging.task_logic.trial_generators.uncoupled_trial_gnerator.UncoupledTrialGenerationEndConditions</title>
<g id="a_node2"><a xlink:title="aind_behavior_dynamic_foraging.task_logic.trial_generators.uncoupled_trial_gnerator.UncoupledTrialGenerationEndConditions&#10;&#10;Defines the conditions under which a foraging session should terminate.&#10;">
<polygon fill="none" stroke="black" points="580,-123 580,-144 830,-144 830,-123 580,-123"/>
<text text-anchor="start" x="583" y="-130.8" font-family="Times New Roman,Times,Liberation Serif,serif" font-weight="bold" font-size="14.00">UncoupledTrialGenerationEndConditions</text>
<polygon fill="none" stroke="black" points="580,-102 580,-123 755,-123 755,-102 580,-102"/>
<text text-anchor="start" x="604.5" y="-108.8" font-family="Times New Roman,Times,Liberation Serif,serif" font-size="14.00">ignore_window_length</text>
<polygon fill="none" stroke="black" points="755,-102 755,-123 830,-123 830,-102 755,-102"/>
<text text-anchor="start" x="785" y="-108.8" font-family="Times New Roman,Times,Liberation Serif,serif" font-size="14.00">int</text>
<polygon fill="none" stroke="black" points="580,-81 580,-102 755,-102 755,-81 580,-81"/>
<text text-anchor="start" x="605.5" y="-87.8" font-family="Times New Roman,Times,Liberation Serif,serif" font-size="14.00">ignore_ratio_threshold</text>
<polygon fill="none" stroke="black" points="755,-81 755,-102 830,-102 830,-81 755,-81"/>
<text text-anchor="start" x="780" y="-87.8" font-family="Times New Roman,Times,Liberation Serif,serif" font-size="14.00">float</text>
<polygon fill="none" stroke="black" points="580,-60 580,-81 755,-81 755,-60 580,-60"/>
<text text-anchor="start" x="641" y="-66.8" font-family="Times New Roman,Times,Liberation Serif,serif" font-size="14.00">max_trial</text>
<polygon fill="none" stroke="black" points="755,-60 755,-81 830,-81 830,-60 755,-60"/>
<text text-anchor="start" x="785" y="-66.8" font-family="Times New Roman,Times,Liberation Serif,serif" font-size="14.00">int</text>
<polygon fill="none" stroke="black" points="580,-39 580,-60 755,-60 755,-39 580,-39"/>
<text text-anchor="start" x="639.5" y="-45.8" font-family="Times New Roman,Times,Liberation Serif,serif" font-size="14.00">max_time</text>
<polygon fill="none" stroke="black" points="755,-39 755,-60 830,-60 830,-39 755,-39"/>
<text text-anchor="start" x="780" y="-45.8" font-family="Times New Roman,Times,Liberation Serif,serif" font-size="14.00">float</text>
<polygon fill="none" stroke="black" points="580,-18 580,-39 755,-39 755,-18 580,-18"/>
<text text-anchor="start" x="640.5" y="-24.8" font-family="Times New Roman,Times,Liberation Serif,serif" font-size="14.00">min_time</text>
<polygon fill="none" stroke="black" points="755,-18 755,-39 830,-39 830,-18 755,-18"/>
<text text-anchor="start" x="780" y="-24.8" font-family="Times New Roman,Times,Liberation Serif,serif" font-size="14.00">float</text>
</a>
</g>
</g>
<!-- aind_behavior_dynamic_foraging.task_logic.trial_generators.uncoupled_trial_gnerator.UncoupledTrialGeneratorSpec -->
<g id="node3" class="node">
<title>aind_behavior_dynamic_foraging.task_logic.trial_generators.uncoupled_trial_gnerator.UncoupledTrialGeneratorSpec</title>
<g id="a_node3"><a xlink:title="aind_behavior_dynamic_foraging.task_logic.trial_generators.uncoupled_trial_gnerator.UncoupledTrialGeneratorSpec&#10;&#10;Configuration specification for the Uncoupled Trial Generator.&#10;&#10;This class defines the parameters for generating trials where reward&#10;probabilities for the left and right sides are drawn independently&#10;from a set of predefined values.&#10;&#10;Attributes:&#10; &#160;&#160;&#160;type (Literal[&quot;UncoupledTrialGenerator&quot;]): Discriminator for the&#10; &#160;&#160;&#160;&#160;&#160;&#160;&#160;generator type. Defaults to &quot;UncoupledTrialGenerator&quot;.&#10; &#160;&#160;&#160;trial_generation_end_parameters (UncoupledTrialGenerationEndConditions):&#10; &#160;&#160;&#160;&#160;&#160;&#160;&#160;Defines the criteria for terminating the trial generation process.&#10; &#160;&#160;&#160;reward_probabilities (list[float]): A list of available probability&#10; &#160;&#160;&#160;&#160;&#160;&#160;&#160;values (e.g., [0.1, 0.4, 0.7]) used to assign reward rates to&#10; &#160;&#160;&#160;&#160;&#160;&#160;&#160;each side during a block.&#10; &#160;&#160;&#160;maximum_dominance_streak (float): The maximum number of consecutive&#10; &#160;&#160;&#160;&#160;&#160;&#160;&#160;blocks allowed where one specific side (e.g., Right) is assigned&#10; &#160;&#160;&#160;&#160;&#160;&#160;&#160;a higher reward probability than the other.&#10; &#160;&#160;&#160;block_length (Distribution): A distribution object (typically&#10; &#160;&#160;&#160;&#160;&#160;&#160;&#160;Uniform) that determines the number of trials within each block.&#10;">
<polygon fill="none" stroke="black" points="0,-391 0,-412 418,-412 418,-391 0,-391"/>
<text text-anchor="start" x="119.5" y="-398.8" font-family="Times New Roman,Times,Liberation Serif,serif" font-weight="bold" font-size="14.00">UncoupledTrialGeneratorSpec</text>
<polygon fill="none" stroke="black" points="0,-370 0,-391 185,-391 185,-370 0,-370"/>
<text text-anchor="start" x="80.5" y="-376.8" font-family="Times New Roman,Times,Liberation Serif,serif" font-size="14.00">type</text>
<polygon fill="none" stroke="black" points="185,-370 185,-391 418,-391 418,-370 185,-370"/>
<text text-anchor="start" x="206.5" y="-376.8" font-family="Times New Roman,Times,Liberation Serif,serif" font-size="14.00">Literal[&#39;UncoupledTrialGenerator&#39;]</text>
<polygon fill="none" stroke="black" points="0,-349 0,-370 185,-370 185,-349 0,-349"/>
<text text-anchor="start" x="41" y="-355.8" font-family="Times New Roman,Times,Liberation Serif,serif" font-size="14.00">quiescent_duration</text>
<polygon fill="none" stroke="black" points="185,-349 185,-370 418,-370 418,-349 185,-349"/>
<text text-anchor="start" x="268.5" y="-355.8" font-family="Times New Roman,Times,Liberation Serif,serif" font-size="14.00">Distribution</text>
<polygon fill="none" stroke="black" points="0,-328 0,-349 185,-349 185,-328 0,-328"/>
<text text-anchor="start" x="42.5" y="-334.8" font-family="Times New Roman,Times,Liberation Serif,serif" font-size="14.00">response_duration</text>
<polygon fill="none" stroke="black" points="185,-328 185,-349 418,-349 418,-328 185,-328"/>
<text text-anchor="start" x="289" y="-334.8" font-family="Times New Roman,Times,Liberation Serif,serif" font-size="14.00">float</text>
<polygon fill="none" stroke="black" points="0,-307 0,-328 185,-328 185,-307 0,-307"/>
<text text-anchor="start" x="9" y="-313.8" font-family="Times New Roman,Times,Liberation Serif,serif" font-size="14.00">reward_consumption_duration</text>
<polygon fill="none" stroke="black" points="185,-307 185,-328 418,-328 418,-307 185,-307"/>
<text text-anchor="start" x="289" y="-313.8" font-family="Times New Roman,Times,Liberation Serif,serif" font-size="14.00">float</text>
<polygon fill="none" stroke="black" points="0,-286 0,-307 185,-307 185,-286 0,-286"/>
<text text-anchor="start" x="15.5" y="-292.8" font-family="Times New Roman,Times,Liberation Serif,serif" font-size="14.00">inter_trial_interval_duration</text>
<polygon fill="none" stroke="black" points="185,-286 185,-307 418,-307 418,-286 185,-286"/>
<text text-anchor="start" x="268.5" y="-292.8" font-family="Times New Roman,Times,Liberation Serif,serif" font-size="14.00">Distribution</text>
<polygon fill="none" stroke="black" points="0,-265 0,-286 185,-286 185,-265 0,-265"/>
<text text-anchor="start" x="57" y="-271.8" font-family="Times New Roman,Times,Liberation Serif,serif" font-size="14.00">block_length</text>
<polygon fill="none" stroke="black" points="185,-265 185,-286 418,-286 418,-265 185,-265"/>
<text text-anchor="start" x="245" y="-271.8" font-family="Times New Roman,Times,Liberation Serif,serif" font-size="14.00">UniformDistribution</text>
<polygon fill="none" stroke="black" points="0,-244 0,-265 185,-265 185,-244 0,-244"/>
<text text-anchor="start" x="32" y="-250.8" font-family="Times New Roman,Times,Liberation Serif,serif" font-size="14.00">autowater_parameters</text>
<polygon fill="none" stroke="black" points="185,-244 185,-265 418,-265 418,-244 185,-244"/>
<text text-anchor="start" x="213" y="-250.8" font-family="Times New Roman,Times,Liberation Serif,serif" font-size="14.00">Optional[AutoWaterParameters]</text>
<polygon fill="none" stroke="black" points="0,-223 0,-244 185,-244 185,-223 0,-223"/>
<text text-anchor="start" x="65.5" y="-229.8" font-family="Times New Roman,Times,Liberation Serif,serif" font-size="14.00">is_baiting</text>
<polygon fill="none" stroke="black" points="185,-223 185,-244 418,-244 418,-223 185,-223"/>
<text text-anchor="start" x="289" y="-229.8" font-family="Times New Roman,Times,Liberation Serif,serif" font-size="14.00">bool</text>
<polygon fill="none" stroke="black" points="0,-202 0,-223 185,-223 185,-202 0,-202"/>
<text text-anchor="start" x="3" y="-208.8" font-family="Times New Roman,Times,Liberation Serif,serif" font-size="14.00">trial_generation_end_parameters</text>
<polygon fill="none" stroke="black" points="185,-202 185,-223 418,-223 418,-202 185,-202"/>
<text text-anchor="start" x="188" y="-208.8" font-family="Times New Roman,Times,Liberation Serif,serif" font-size="14.00">UncoupledTrialGenerationEndConditions</text>
<polygon fill="none" stroke="black" points="0,-181 0,-202 185,-202 185,-181 0,-181"/>
<text text-anchor="start" x="36.5" y="-187.8" font-family="Times New Roman,Times,Liberation Serif,serif" font-size="14.00">reward_probabilities</text>
<polygon fill="none" stroke="black" points="185,-181 185,-202 418,-202 418,-181 185,-181"/>
<text text-anchor="start" x="276" y="-187.8" font-family="Times New Roman,Times,Liberation Serif,serif" font-size="14.00">list[float]</text>
<polygon fill="none" stroke="black" points="0,-160 0,-181 185,-181 185,-160 0,-160"/>
<text text-anchor="start" x="11" y="-166.8" font-family="Times New Roman,Times,Liberation Serif,serif" font-size="14.00">maximum_dominance_streak</text>
<polygon fill="none" stroke="black" points="185,-160 185,-181 418,-181 418,-160 185,-160"/>
<text text-anchor="start" x="289" y="-166.8" font-family="Times New Roman,Times,Liberation Serif,serif" font-size="14.00">float</text>
</a>
</g>
</g>
<!-- aind_behavior_dynamic_foraging.task_logic.trial_generators.uncoupled_trial_gnerator.UncoupledTrialGeneratorSpec&#45;&gt;aind_behavior_dynamic_foraging.task_logic.trial_generators.block_based_trial_generator.AutoWaterParameters -->
<g id="edge1" class="edge">
<title>aind_behavior_dynamic_foraging.task_logic.trial_generators.uncoupled_trial_gnerator.UncoupledTrialGeneratorSpec:e&#45;&gt;aind_behavior_dynamic_foraging.task_logic.trial_generators.block_based_trial_generator.AutoWaterParameters:w</title>
<path fill="none" stroke="black" d="M428.07,-254C504.37,-254 530.86,-254 603.57,-254"/>
<polyline fill="none" stroke="black" points="418,-254 423,-254 "/>
<polyline fill="none" stroke="black" points="423,-254 428,-254 "/>
<polyline fill="none" stroke="black" points="622,-254 617,-254 "/>
<polygon fill="black" stroke="black" points="616,-249 616,-259 614,-259 614,-249 616,-249"/>
<polyline fill="none" stroke="black" points="617,-254 612,-254 "/>
<ellipse fill="none" stroke="black" cx="608" cy="-254" rx="4" ry="4"/>
</g>
<!-- aind_behavior_dynamic_foraging.task_logic.trial_generators.uncoupled_trial_gnerator.UncoupledTrialGeneratorSpec&#45;&gt;aind_behavior_dynamic_foraging.task_logic.trial_generators.uncoupled_trial_gnerator.UncoupledTrialGenerationEndConditions -->
<g id="edge2" class="edge">
<title>aind_behavior_dynamic_foraging.task_logic.trial_generators.uncoupled_trial_gnerator.UncoupledTrialGeneratorSpec:e&#45;&gt;aind_behavior_dynamic_foraging.task_logic.trial_generators.uncoupled_trial_gnerator.UncoupledTrialGenerationEndConditions:w</title>
<path fill="none" stroke="black" d="M428.26,-211.54C492.95,-205.6 502.01,-143.69 563.98,-135.01"/>
<polyline fill="none" stroke="black" points="418,-212 423,-211.78 "/>
<polyline fill="none" stroke="black" points="423,-211.78 427.99,-211.55 "/>
<polyline fill="none" stroke="black" points="579,-134 574.01,-134.33 "/>
<polygon fill="black" stroke="black" points="572.68,-129.41 573.35,-139.39 571.35,-139.52 570.68,-129.55 572.68,-129.41"/>
<polyline fill="none" stroke="black" points="574.01,-134.33 569.02,-134.67 "/>
<polygon fill="black" stroke="black" points="567.69,-129.75 568.36,-139.73 566.36,-139.86 565.69,-129.88 567.69,-129.75"/>
<polyline fill="none" stroke="black" points="569.02,-134.67 564.03,-135 "/>
</g>
<!-- aind_behavior_services.task.distributions.UniformDistribution -->
<g id="node4" class="node">
<title>aind_behavior_services.task.distributions.UniformDistribution</title>
<g id="a_node4"><a xlink:title="aind_behavior_services.task.distributions.UniformDistribution&#10;&#10;A uniform probability distribution.&#10;&#10;All values between min and max have equal probability of being sampled.&#10;">
<polygon fill="none" stroke="black" points="526,-384 526,-405 884,-405 884,-384 526,-384"/>
<text text-anchor="start" x="644.5" y="-391.8" font-family="Times New Roman,Times,Liberation Serif,serif" font-weight="bold" font-size="14.00">UniformDistribution</text>
<polygon fill="none" stroke="black" points="526,-363 526,-384 662,-384 662,-363 526,-363"/>
<text text-anchor="start" x="575.5" y="-369.8" font-family="Times New Roman,Times,Liberation Serif,serif" font-size="14.00">family</text>
<polygon fill="none" stroke="black" points="662,-363 662,-384 884,-384 884,-363 662,-363"/>
<text text-anchor="start" x="665" y="-369.8" font-family="Times New Roman,Times,Liberation Serif,serif" font-size="14.00">Literal[DistributionFamily.UNIFORM]</text>
<polygon fill="none" stroke="black" points="526,-342 526,-363 662,-363 662,-342 526,-342"/>
<text text-anchor="start" x="529" y="-348.8" font-family="Times New Roman,Times,Liberation Serif,serif" font-size="14.00">distribution_parameters</text>
<polygon fill="none" stroke="black" points="662,-342 662,-363 884,-363 884,-342 662,-342"/>
<text text-anchor="start" x="686" y="-348.8" font-family="Times New Roman,Times,Liberation Serif,serif" font-size="14.00">UniformDistributionParameters</text>
<polygon fill="none" stroke="black" points="526,-321 526,-342 662,-342 662,-321 526,-321"/>
<text text-anchor="start" x="533" y="-327.8" font-family="Times New Roman,Times,Liberation Serif,serif" font-size="14.00">truncation_parameters</text>
<polygon fill="none" stroke="black" points="662,-321 662,-342 884,-342 884,-321 662,-321"/>
<text text-anchor="start" x="684.5" y="-327.8" font-family="Times New Roman,Times,Liberation Serif,serif" font-size="14.00">Optional[TruncationParameters]</text>
<polygon fill="none" stroke="black" points="526,-300 526,-321 662,-321 662,-300 526,-300"/>
<text text-anchor="start" x="541" y="-306.8" font-family="Times New Roman,Times,Liberation Serif,serif" font-size="14.00">scaling_parameters</text>
<polygon fill="none" stroke="black" points="662,-300 662,-321 884,-321 884,-300 662,-300"/>
<text text-anchor="start" x="694" y="-306.8" font-family="Times New Roman,Times,Liberation Serif,serif" font-size="14.00">Optional[ScalingParameters]</text>
</a>
</g>
</g>
<!-- aind_behavior_dynamic_foraging.task_logic.trial_generators.uncoupled_trial_gnerator.UncoupledTrialGeneratorSpec&#45;&gt;aind_behavior_services.task.distributions.UniformDistribution -->
<g id="edge3" class="edge">
<title>aind_behavior_dynamic_foraging.task_logic.trial_generators.uncoupled_trial_gnerator.UncoupledTrialGeneratorSpec:e&#45;&gt;aind_behavior_services.task.distributions.UniformDistribution:w</title>
<path fill="none" stroke="black" d="M428.13,-275.9C481.64,-285.98 461.99,-377.91 511.09,-392.93"/>
<polyline fill="none" stroke="black" points="418,-275 422.98,-275.44 "/>
<polyline fill="none" stroke="black" points="422.98,-275.44 427.96,-275.88 "/>
<polyline fill="none" stroke="black" points="526,-395 521.05,-394.31 "/>
<polygon fill="black" stroke="black" points="520.74,-389.22 519.37,-399.13 517.39,-398.85 518.76,-388.95 520.74,-389.22"/>
<polyline fill="none" stroke="black" points="521.05,-394.31 516.09,-393.63 "/>
<polygon fill="black" stroke="black" points="515.79,-388.54 514.42,-398.44 512.44,-398.17 513.81,-388.26 515.79,-388.54"/>
<polyline fill="none" stroke="black" points="516.09,-393.63 511.14,-392.94 "/>
</g>
<!-- aind_behavior_services.task.distributions.ScalingParameters -->
<g id="node5" class="node">
<title>aind_behavior_services.task.distributions.ScalingParameters</title>
<g id="a_node5"><a xlink:title="aind_behavior_services.task.distributions.ScalingParameters&#10;&#10;Parameters for scaling and offsetting sampled distribution values.&#10;Scaling is applied as (value * scale + offset).&#10;&#10;Applies linear transformation: result = (value * scale) + offset.&#10;">
<polygon fill="none" stroke="black" points="1066.5,-199 1066.5,-220 1182.5,-220 1182.5,-199 1066.5,-199"/>
<text text-anchor="start" x="1069.5" y="-206.8" font-family="Times New Roman,Times,Liberation Serif,serif" font-weight="bold" font-size="14.00">ScalingParameters</text>
<polygon fill="none" stroke="black" points="1066.5,-178 1066.5,-199 1127.5,-199 1127.5,-178 1066.5,-178"/>
<text text-anchor="start" x="1083" y="-184.8" font-family="Times New Roman,Times,Liberation Serif,serif" font-size="14.00">scale</text>
<polygon fill="none" stroke="black" points="1127.5,-178 1127.5,-199 1182.5,-199 1182.5,-178 1127.5,-178"/>
<text text-anchor="start" x="1142.5" y="-184.8" font-family="Times New Roman,Times,Liberation Serif,serif" font-size="14.00">float</text>
<polygon fill="none" stroke="black" points="1066.5,-157 1066.5,-178 1127.5,-178 1127.5,-157 1066.5,-157"/>
<text text-anchor="start" x="1081.5" y="-163.8" font-family="Times New Roman,Times,Liberation Serif,serif" font-size="14.00">offset</text>
<polygon fill="none" stroke="black" points="1127.5,-157 1127.5,-178 1182.5,-178 1182.5,-157 1127.5,-157"/>
<text text-anchor="start" x="1142.5" y="-163.8" font-family="Times New Roman,Times,Liberation Serif,serif" font-size="14.00">float</text>
</a>
</g>
</g>
<!-- aind_behavior_services.task.distributions.UniformDistribution&#45;&gt;aind_behavior_services.task.distributions.ScalingParameters -->
<g id="edge4" class="edge">
<title>aind_behavior_services.task.distributions.UniformDistribution:e&#45;&gt;aind_behavior_services.task.distributions.ScalingParameters:w</title>
<path fill="none" stroke="black" d="M894.12,-309.49C941.59,-304.5 944.2,-263.81 992,-239 1016.96,-226.05 1026.56,-215.24 1047.42,-211.45"/>
<polyline fill="none" stroke="black" points="884,-310 888.99,-309.75 "/>
<polyline fill="none" stroke="black" points="888.99,-309.75 893.99,-309.5 "/>
<polyline fill="none" stroke="black" points="1065.5,-210 1060.52,-210.4 "/>
<polygon fill="black" stroke="black" points="1059.12,-205.5 1059.92,-215.46 1057.93,-215.62 1057.13,-205.66 1059.12,-205.5"/>
<polyline fill="none" stroke="black" points="1060.52,-210.4 1055.53,-210.8 "/>
<ellipse fill="none" stroke="black" cx="1051.54" cy="-211.12" rx="4" ry="4"/>
</g>
<!-- aind_behavior_services.task.distributions.TruncationParameters -->
<g id="node6" class="node">
<title>aind_behavior_services.task.distributions.TruncationParameters</title>
<g id="a_node6"><a xlink:title="aind_behavior_services.task.distributions.TruncationParameters&#10;&#10;Parameters for truncating a distribution to a specified range. Truncation should&#10;be applied after sampling and scaling.&#10;&#10;The truncation_mode determines how out&#45;of&#45;bounds values are handled:&#10;&#45; &quot;exclude&quot;: Resample until a value within [min, max] is obtained.&#10;If after a certain number of attempts no valid value is found, it&#10;will use the average of sampled values and pick the closest bound.&#10;&#45; &quot;clamp&quot;: Clamp values to the nearest bound within [min, max].&#10;Used to constrain sampled values within minimum and maximum bounds.&#10;">
<polygon fill="none" stroke="black" points="1003.5,-320 1003.5,-341 1246.5,-341 1246.5,-320 1003.5,-320"/>
<text text-anchor="start" x="1058.5" y="-327.8" font-family="Times New Roman,Times,Liberation Serif,serif" font-weight="bold" font-size="14.00">TruncationParameters</text>
<polygon fill="none" stroke="black" points="1003.5,-299 1003.5,-320 1102.5,-320 1102.5,-299 1003.5,-299"/>
<text text-anchor="start" x="1006.5" y="-305.8" font-family="Times New Roman,Times,Liberation Serif,serif" font-size="14.00">truncation_mode</text>
<polygon fill="none" stroke="black" points="1102.5,-299 1102.5,-320 1246.5,-320 1246.5,-299 1102.5,-299"/>
<text text-anchor="start" x="1105.5" y="-305.8" font-family="Times New Roman,Times,Liberation Serif,serif" font-size="14.00">Literal[&#39;exclude&#39;, &#39;clamp&#39;]</text>
<polygon fill="none" stroke="black" points="1003.5,-278 1003.5,-299 1102.5,-299 1102.5,-278 1003.5,-278"/>
<text text-anchor="start" x="1042" y="-284.8" font-family="Times New Roman,Times,Liberation Serif,serif" font-size="14.00">min</text>
<polygon fill="none" stroke="black" points="1102.5,-278 1102.5,-299 1246.5,-299 1246.5,-278 1102.5,-278"/>
<text text-anchor="start" x="1162" y="-284.8" font-family="Times New Roman,Times,Liberation Serif,serif" font-size="14.00">float</text>
<polygon fill="none" stroke="black" points="1003.5,-257 1003.5,-278 1102.5,-278 1102.5,-257 1003.5,-257"/>
<text text-anchor="start" x="1040.5" y="-263.8" font-family="Times New Roman,Times,Liberation Serif,serif" font-size="14.00">max</text>
<polygon fill="none" stroke="black" points="1102.5,-257 1102.5,-278 1246.5,-278 1246.5,-257 1102.5,-257"/>
<text text-anchor="start" x="1162" y="-263.8" font-family="Times New Roman,Times,Liberation Serif,serif" font-size="14.00">float</text>
</a>
</g>
</g>
<!-- aind_behavior_services.task.distributions.UniformDistribution&#45;&gt;aind_behavior_services.task.distributions.TruncationParameters -->
<g id="edge5" class="edge">
<title>aind_behavior_services.task.distributions.UniformDistribution:e&#45;&gt;aind_behavior_services.task.distributions.TruncationParameters:w</title>
<path fill="none" stroke="black" d="M894.27,-331C932.58,-331 948.84,-331 984.13,-331"/>
<polyline fill="none" stroke="black" points="884,-331 889,-331 "/>
<polyline fill="none" stroke="black" points="889,-331 894,-331 "/>
<polyline fill="none" stroke="black" points="1002.5,-331 997.5,-331 "/>
<polygon fill="black" stroke="black" points="996.5,-326 996.5,-336 994.5,-336 994.5,-326 996.5,-326"/>
<polyline fill="none" stroke="black" points="997.5,-331 992.5,-331 "/>
<ellipse fill="none" stroke="black" cx="988.5" cy="-331" rx="4" ry="4"/>
</g>
<!-- aind_behavior_services.task.distributions.UniformDistributionParameters -->
<g id="node7" class="node">
<title>aind_behavior_services.task.distributions.UniformDistributionParameters</title>
<g id="a_node7"><a xlink:title="aind_behavior_services.task.distributions.UniformDistributionParameters&#10;&#10;Parameters for a uniform distribution.&#10;&#10;Defined by minimum and maximum bounds of the distribution.&#10;">
<polygon fill="none" stroke="black" points="992.5,-440 992.5,-461 1257.5,-461 1257.5,-440 992.5,-440"/>
<text text-anchor="start" x="1030.5" y="-447.8" font-family="Times New Roman,Times,Liberation Serif,serif" font-weight="bold" font-size="14.00">UniformDistributionParameters</text>
<polygon fill="none" stroke="black" points="992.5,-419 992.5,-440 1035.5,-440 1035.5,-419 992.5,-419"/>
<text text-anchor="start" x="995.5" y="-425.8" font-family="Times New Roman,Times,Liberation Serif,serif" font-size="14.00">family</text>
<polygon fill="none" stroke="black" points="1035.5,-419 1035.5,-440 1257.5,-440 1257.5,-419 1035.5,-419"/>
<text text-anchor="start" x="1038.5" y="-425.8" font-family="Times New Roman,Times,Liberation Serif,serif" font-size="14.00">Literal[DistributionFamily.UNIFORM]</text>
<polygon fill="none" stroke="black" points="992.5,-398 992.5,-419 1035.5,-419 1035.5,-398 992.5,-398"/>
<text text-anchor="start" x="1003" y="-404.8" font-family="Times New Roman,Times,Liberation Serif,serif" font-size="14.00">min</text>
<polygon fill="none" stroke="black" points="1035.5,-398 1035.5,-419 1257.5,-419 1257.5,-398 1035.5,-398"/>
<text text-anchor="start" x="1134" y="-404.8" font-family="Times New Roman,Times,Liberation Serif,serif" font-size="14.00">float</text>
<polygon fill="none" stroke="black" points="992.5,-377 992.5,-398 1035.5,-398 1035.5,-377 992.5,-377"/>
<text text-anchor="start" x="1001.5" y="-383.8" font-family="Times New Roman,Times,Liberation Serif,serif" font-size="14.00">max</text>
<polygon fill="none" stroke="black" points="1035.5,-377 1035.5,-398 1257.5,-398 1257.5,-377 1035.5,-377"/>
<text text-anchor="start" x="1134" y="-383.8" font-family="Times New Roman,Times,Liberation Serif,serif" font-size="14.00">float</text>
</a>
</g>
</g>
<!-- aind_behavior_services.task.distributions.UniformDistribution&#45;&gt;aind_behavior_services.task.distributions.UniformDistributionParameters -->
<g id="edge6" class="edge">
<title>aind_behavior_services.task.distributions.UniformDistribution:e&#45;&gt;aind_behavior_services.task.distributions.UniformDistributionParameters:w</title>
<path fill="none" stroke="black" d="M894.26,-352.92C942.05,-361.98 932.99,-435.48 976.94,-448.9"/>
<polyline fill="none" stroke="black" points="884,-352 888.98,-352.45 "/>
<polyline fill="none" stroke="black" points="888.98,-352.45 893.96,-352.89 "/>
<polyline fill="none" stroke="black" points="992,-451 987.05,-450.31 "/>
<polygon fill="black" stroke="black" points="986.75,-445.22 985.37,-455.12 983.39,-454.85 984.77,-444.94 986.75,-445.22"/>
<polyline fill="none" stroke="black" points="987.05,-450.31 982.1,-449.62 "/>
<polygon fill="black" stroke="black" points="981.8,-444.53 980.42,-454.43 978.43,-454.16 979.81,-444.25 981.8,-444.53"/>
<polyline fill="none" stroke="black" points="982.1,-449.62 977.14,-448.93 "/>
</g>
</g>
</svg>
